<?xml version="1.0" encoding="utf-8"?>
<!-- Generator: Adobe Illustrator 26.0.1, SVG Export Plug-In . SVG Version: 6.00 Build 0)  -->
<svg version="1.1" id="Capa_1" xmlns="http://www.w3.org/2000/svg" xmlns:xlink="http://www.w3.org/1999/xlink" x="0px" y="0px"
	 viewBox="0 0 1024 1024" style="enable-background:new 0 0 1024 1024;" xml:space="preserve">
<style type="text/css">
	.st0{fill:none;}
	.st1{fill:#F43290;}
	.st2{fill:#00ADFF;}
	.st3{fill:#FFFFFF;}
</style>
<rect x="0" y="-0.13" class="st0" width="1024" height="1024"/>
<path class="st1" d="M814.65,228.84c-55.56,0-77.36,32.63-121.08,76.34l-80.57,80.57v-46.02c0-62.86-51.75-110.89-111.38-110.89
	c-55.55,0-77.36,32.63-121.08,76.34L113.09,572.64c-42.65,42.65-44.12,112.76-0.98,155.91c44.61,44.61,114.72,43.14,157.38,0.49
	l149.08-148.85c0,0,2.04-1.9,0.02,0.53c-7.32,8.61-13.15,18.1-17.46,28.12c-0.1,0.22-0.21,0.43-0.31,0.66
	c-2.89,6.4-4.84,13.21-6.17,19.49c-0.96,4.35-1.67,8.75-2.1,13.18c-0.68,6.22-0.71,10.35-0.71,10.35c0,12.4,2.08,24.38,5.87,35.6
	c0.05,0.16,3.35,8.73,4.07,10.33c16.99,38.13,55.08,65.01,99.61,65.01c27.19,0,51.65-9.41,70.72-24.93
	c0.27-0.21,6.51-5.57,8.96-8.02L704.85,606.7v45.82c0,60.32,48.53,110.94,109.55,110.94c63.09,0,111.63-50.61,111.63-110.94V339.73
	C926.03,276.86,874.29,228.84,814.65,228.84z"/>
<g>
	<path class="st2" d="M814.65,228.84c-55.56,0-77.36,32.63-121.08,76.34l-80.57,80.57L418.57,580.19c0,0,2.04-1.9,0.02,0.53
		c-7.32,8.61-13.15,18.1-17.46,28.12c-0.1,0.22-0.21,0.43-0.31,0.66c-2.89,6.4-4.84,13.21-6.17,19.49
		c-0.96,4.35-1.67,8.75-2.1,13.18c-0.68,6.22-0.71,10.35-0.71,10.35c0,12.4,2.08,24.38,5.87,35.6c0.05,0.16,3.35,8.73,4.07,10.33
		c16.99,38.13,55.08,65.01,99.61,65.01c27.19,0,51.65-9.41,70.72-24.93c0.27-0.21,6.51-5.57,8.96-8.02L704.85,606.7v45.82
		c0,60.32,48.53,110.94,109.55,110.94c63.09,0,111.63-50.61,111.63-110.94V339.73C926.03,276.86,874.29,228.84,814.65,228.84z"/>
</g>
<g>
	<path class="st3" d="M401.12,609.32c5.98-13.05,12.86-22.55,17.46-28.11C411.26,589.81,405.43,599.3,401.12,609.32z"/>
	<path class="st3" d="M399.74,694.17c-0.09-0.23-0.18-0.46-0.27-0.69C399.56,693.71,399.64,693.94,399.74,694.17z"/>
	<path class="st3" d="M401.76,698.93c-0.03-0.06-0.05-0.11-0.08-0.17C401.71,698.81,401.73,698.87,401.76,698.93z"/>
	<path class="st3" d="M572.89,738.36c-0.26,0.22-0.54,0.42-0.8,0.63C572.36,738.78,572.63,738.58,572.89,738.36z"/>
	<path class="st3" d="M392.54,642.65c0.41-3.77,1.07-8.31,2.1-13.18C393.68,633.83,392.97,638.22,392.54,642.65z"/>
	<path class="st3" d="M397.85,689.08c-0.05-0.16-0.11-0.32-0.16-0.47C397.75,688.76,397.8,688.92,397.85,689.08z"/>
	<path class="st3" d="M612.9,653.07V386.31L424.55,574.65c-2.14,2.14-4.14,4.36-6.07,6.63c-4.6,5.56-11.48,15.06-17.46,28.11
		c-2.81,6.53-4.97,13.28-6.48,20.15c-1.03,4.87-1.69,9.41-2.1,13.18c-1.51,15.44,0.18,31.13,5.16,45.96
		c0.05,0.16,0.1,0.32,0.16,0.47c0.5,1.48,1.05,2.95,1.62,4.41c0.09,0.23,0.18,0.46,0.27,0.69c0.61,1.54,1.26,3.07,1.95,4.58
		c0.03,0.06,0.05,0.11,0.08,0.17c5.2,11.43,12.69,21.95,21.92,31.56c40.18,41.83,105.41,43.12,148.41,8.51
		c0.26-0.22,0.54-0.42,0.8-0.63c0.18-0.15,0.36-0.31,0.54-0.46C597.72,717.47,612.9,686.79,612.9,653.07z"/>
</g>
</svg>
