<?xml version="1.0" encoding="utf-8"?>
<!-- Generator: Adobe Illustrator 26.0.1, SVG Export Plug-In . SVG Version: 6.00 Build 0)  -->
<svg version="1.1" id="Capa_1" xmlns="http://www.w3.org/2000/svg" xmlns:xlink="http://www.w3.org/1999/xlink" x="0px" y="0px"
	 viewBox="0 0 1024 1024" style="enable-background:new 0 0 1024 1024;" xml:space="preserve">
<style type="text/css">
	.st0{fill:none;}
	.st1{fill:#CBCBCB;}
	.st2{fill:#B2B2B2;}
	.st3{fill:#808080;}
</style>
<rect x="0" y="-0.13" class="st0" width="1024" height="1024"/>
<g>
	<path class="st1" d="M803.58,231.94c-55.56,0-77.36,32.63-121.08,76.34l-80.57,80.57v-46.02c0-62.86-51.75-110.89-111.38-110.89
		c-55.55,0-77.36,32.63-121.08,76.34L102.02,575.74c-42.65,42.65-44.12,112.76-0.98,155.91c44.61,44.61,114.72,43.14,157.38,0.49
		L407.5,583.29c0,0,2.04-1.9,0.02,0.53c-7.32,8.61-13.15,18.1-17.46,28.12c-0.1,0.22-0.21,0.43-0.31,0.66
		c-2.89,6.4-4.84,13.21-6.17,19.49c-0.96,4.35-1.67,8.75-2.1,13.18c-0.68,6.22-0.71,10.35-0.71,10.35c0,12.4,2.08,24.38,5.87,35.6
		c0.05,0.16,3.35,8.73,4.07,10.33c16.99,38.13,55.08,65.01,99.61,65.01c27.19,0,51.65-9.41,70.72-24.93
		c0.27-0.21,6.51-5.57,8.96-8.02L693.78,609.8v45.82c0,60.32,48.53,110.94,109.55,110.94c63.09,0,111.63-50.61,111.63-110.94V342.83
		C914.96,279.97,863.21,231.94,803.58,231.94z"/>
</g>
<g>
	<path class="st2" d="M803.58,231.94c-55.56,0-77.36,32.63-121.08,76.34l-80.57,80.57L407.5,583.29c0,0,2.04-1.9,0.02,0.53
		c-7.32,8.61-13.15,18.1-17.46,28.12c-0.1,0.22-0.21,0.43-0.31,0.66c-2.89,6.4-4.84,13.21-6.17,19.49
		c-0.96,4.35-1.67,8.75-2.1,13.18c-0.68,6.22-0.71,10.35-0.71,10.35c0,12.4,2.08,24.38,5.87,35.6c0.05,0.16,3.35,8.73,4.07,10.33
		c16.99,38.13,55.08,65.01,99.61,65.01c27.19,0,51.65-9.41,70.72-24.93c0.27-0.21,6.51-5.57,8.96-8.02L693.78,609.8v45.82
		c0,60.32,48.53,110.94,109.55,110.94c63.09,0,111.63-50.61,111.63-110.94V342.83C914.96,279.97,863.21,231.94,803.58,231.94z"/>
</g>
<g>
	<path class="st3" d="M390.05,612.43c5.98-13.05,12.86-22.55,17.46-28.11C400.19,592.92,394.36,602.41,390.05,612.43z"/>
	<path class="st3" d="M388.66,697.27c-0.09-0.23-0.18-0.46-0.27-0.69C388.48,696.81,388.57,697.04,388.66,697.27z"/>
	<path class="st3" d="M390.69,702.03c-0.03-0.06-0.05-0.11-0.08-0.17C390.63,701.91,390.66,701.97,390.69,702.03z"/>
	<path class="st3" d="M561.82,741.47c-0.26,0.22-0.54,0.42-0.8,0.63C561.28,741.89,561.55,741.68,561.82,741.47z"/>
	<path class="st3" d="M381.46,645.75c0.41-3.77,1.07-8.31,2.1-13.18C382.6,636.93,381.9,641.33,381.46,645.75z"/>
	<path class="st3" d="M386.78,692.18c-0.05-0.16-0.11-0.32-0.16-0.47C386.67,691.86,386.72,692.02,386.78,692.18z"/>
	<path class="st3" d="M601.82,656.17V389.41L413.48,577.75c-2.14,2.14-4.14,4.36-6.07,6.63c-4.6,5.56-11.48,15.06-17.46,28.11
		c-2.81,6.53-4.97,13.28-6.48,20.15c-1.03,4.87-1.69,9.41-2.1,13.18c-1.51,15.44,0.18,31.13,5.16,45.96
		c0.05,0.16,0.1,0.32,0.16,0.47c0.5,1.48,1.05,2.95,1.62,4.41c0.09,0.23,0.18,0.46,0.27,0.69c0.61,1.54,1.26,3.07,1.95,4.58
		c0.03,0.06,0.05,0.11,0.08,0.17c5.2,11.43,12.69,21.95,21.92,31.56c40.18,41.83,105.41,43.12,148.41,8.51
		c0.26-0.22,0.54-0.42,0.8-0.63c0.18-0.15,0.36-0.31,0.54-0.46C586.65,720.57,601.82,689.89,601.82,656.17z"/>
</g>
</svg>
