<?xml version="1.0" encoding="utf-8"?>
<!-- Generator: Adobe Illustrator 26.0.1, SVG Export Plug-In . SVG Version: 6.00 Build 0)  -->
<svg version="1.1" id="Capa_1" xmlns="http://www.w3.org/2000/svg" xmlns:xlink="http://www.w3.org/1999/xlink" x="0px" y="0px"
	 viewBox="0 0 114 114" style="enable-background:new 0 0 114 114;" xml:space="preserve">
<style type="text/css">
	.st0{fill:none;}
	.st1{fill:#F43290;}
	.st2{fill:#00ADFF;}
	.st3{fill:#4A078D;}
</style>
<rect y="0" class="st0" width="114" height="114"/>
<g>
	<path class="st1" d="M98.4,24.74c-7.38,0-10.28,4.34-16.09,10.15L71.59,45.6v-6.12c0-8.36-6.88-14.74-14.81-14.74
		c-7.38,0-10.28,4.34-16.09,10.15L5.14,70.44c-5.67,5.67-5.87,14.99-0.13,20.72c5.93,5.93,15.25,5.73,20.92,0.07l19.82-19.79
		c0,0,0.27-0.25,0,0.07c-0.97,1.14-1.75,2.41-2.32,3.74c-0.01,0.03-0.03,0.06-0.04,0.09c-0.38,0.85-0.64,1.76-0.82,2.59
		c-0.13,0.58-0.22,1.16-0.28,1.75c-0.09,0.83-0.09,1.38-0.09,1.38c0,1.65,0.28,3.24,0.78,4.73c0.01,0.02,0.45,1.16,0.54,1.37
		c2.26,5.07,7.32,8.64,13.24,8.64c3.61,0,6.87-1.25,9.4-3.31c0.04-0.03,0.87-0.74,1.19-1.07L83.8,74.97v6.09
		c0,8.02,6.45,14.75,14.56,14.75c8.39,0,14.84-6.73,14.84-14.75V39.48C113.2,31.12,106.32,24.74,98.4,24.74z"/>
	<g>
		<path class="st2" d="M98.4,24.74c-7.38,0-10.28,4.34-16.09,10.15L71.59,45.6L45.75,71.44c0,0,0.27-0.25,0,0.07
			c-0.97,1.14-1.75,2.41-2.32,3.74c-0.01,0.03-0.03,0.06-0.04,0.09c-0.38,0.85-0.64,1.76-0.82,2.59c-0.13,0.58-0.22,1.16-0.28,1.75
			c-0.09,0.83-0.09,1.38-0.09,1.38c0,1.65,0.28,3.24,0.78,4.73c0.01,0.02,0.45,1.16,0.54,1.37c2.26,5.07,7.32,8.64,13.24,8.64
			c3.61,0,6.87-1.25,9.4-3.31c0.04-0.03,0.87-0.74,1.19-1.07L83.8,74.97v6.09c0,8.02,6.45,14.75,14.56,14.75
			c8.39,0,14.84-6.73,14.84-14.75V39.48C113.2,31.12,106.32,24.74,98.4,24.74z"/>
	</g>
	<g>
		<path class="st3" d="M43.43,75.32c0.79-1.74,1.71-3,2.32-3.74C44.78,72.72,44,73.98,43.43,75.32z"/>
		<path class="st3" d="M43.24,86.59c-0.01-0.03-0.02-0.06-0.04-0.09C43.22,86.53,43.23,86.56,43.24,86.59z"/>
		<path class="st3" d="M43.51,87.23c0-0.01-0.01-0.02-0.01-0.02C43.51,87.21,43.51,87.22,43.51,87.23z"/>
		<path class="st3" d="M66.26,92.47c-0.03,0.03-0.07,0.06-0.11,0.08C66.19,92.52,66.23,92.5,66.26,92.47z"/>
		<path class="st3" d="M42.29,79.74c0.05-0.5,0.14-1.1,0.28-1.75C42.44,78.57,42.34,79.16,42.29,79.74z"/>
		<path class="st3" d="M42.99,85.92c-0.01-0.02-0.01-0.04-0.02-0.06C42.98,85.87,42.99,85.9,42.99,85.92z"/>
		<path class="st3" d="M71.58,81.13V45.67L46.54,70.71c-0.28,0.28-0.55,0.58-0.81,0.88c-0.61,0.74-1.53,2-2.32,3.74
			c-0.37,0.87-0.66,1.77-0.86,2.68c-0.14,0.65-0.22,1.25-0.28,1.75c-0.2,2.05,0.02,4.14,0.69,6.11c0.01,0.02,0.01,0.04,0.02,0.06
			c0.07,0.2,0.14,0.39,0.21,0.59c0.01,0.03,0.02,0.06,0.04,0.09c0.08,0.2,0.17,0.41,0.26,0.61c0,0.01,0.01,0.02,0.01,0.02
			c0.69,1.52,1.69,2.92,2.91,4.19c5.34,5.56,14.01,5.73,19.73,1.13c0.04-0.03,0.07-0.06,0.11-0.08c0.02-0.02,0.05-0.04,0.07-0.06
			C69.56,89.69,71.58,85.61,71.58,81.13z"/>
	</g>
</g>
</svg>
