<?xml version="1.0" encoding="utf-8"?>
<!-- Generator: Adobe Illustrator 26.0.1, SVG Export Plug-In . SVG Version: 6.00 Build 0)  -->
<svg version="1.1" id="Capa_1" xmlns="http://www.w3.org/2000/svg" xmlns:xlink="http://www.w3.org/1999/xlink" x="0px" y="0px"
	 viewBox="0 0 120 120" style="enable-background:new 0 0 120 120;" xml:space="preserve">
<style type="text/css">
	.st0{fill:none;}
	.st1{fill:#F43290;}
	.st2{fill:#00ADFF;}
	.st3{fill:#4A078D;}
</style>
<rect y="0" class="st0" width="120" height="120"/>
<g>
	<path class="st1" d="M103.57,26.04c-7.77,0-10.82,4.57-16.94,10.68L75.36,48v-6.44c0-8.8-7.24-15.52-15.58-15.52
		c-7.77,0-10.82,4.57-16.94,10.68L5.41,74.15c-5.97,5.97-6.17,15.78-0.14,21.81c6.24,6.24,16.05,6.04,22.02,0.07L48.15,75.2
		c0,0,0.29-0.27,0,0.07c-1.02,1.2-1.84,2.53-2.44,3.93c-0.01,0.03-0.03,0.06-0.04,0.09c-0.4,0.9-0.68,1.85-0.86,2.73
		c-0.13,0.61-0.23,1.22-0.29,1.84c-0.1,0.87-0.1,1.45-0.1,1.45c0,1.74,0.29,3.41,0.82,4.98c0.01,0.02,0.47,1.22,0.57,1.44
		c2.38,5.33,7.71,9.1,13.94,9.1c3.8,0,7.23-1.32,9.89-3.49c0.04-0.03,0.91-0.78,1.25-1.12l17.32-17.32v6.41
		c0,8.44,6.79,15.52,15.33,15.52c8.83,0,15.62-7.08,15.62-15.52V41.56C119.16,32.76,111.92,26.04,103.57,26.04z"/>
	<g>
		<path class="st2" d="M103.57,26.04c-7.77,0-10.82,4.57-16.94,10.68L75.36,48L48.15,75.2c0,0,0.29-0.27,0,0.07
			c-1.02,1.2-1.84,2.53-2.44,3.93c-0.01,0.03-0.03,0.06-0.04,0.09c-0.4,0.9-0.68,1.85-0.86,2.73c-0.13,0.61-0.23,1.22-0.29,1.84
			c-0.1,0.87-0.1,1.45-0.1,1.45c0,1.74,0.29,3.41,0.82,4.98c0.01,0.02,0.47,1.22,0.57,1.44c2.38,5.33,7.71,9.1,13.94,9.1
			c3.8,0,7.23-1.32,9.89-3.49c0.04-0.03,0.91-0.78,1.25-1.12l17.32-17.32v6.41c0,8.44,6.79,15.52,15.33,15.52
			c8.83,0,15.62-7.08,15.62-15.52V41.56C119.16,32.76,111.92,26.04,103.57,26.04z"/>
	</g>
	<g>
		<path class="st3" d="M45.71,79.28c0.84-1.83,1.8-3.16,2.44-3.93C47.13,76.55,46.32,77.88,45.71,79.28z"/>
		<path class="st3" d="M45.52,91.15c-0.01-0.03-0.02-0.06-0.04-0.1C45.49,91.09,45.51,91.12,45.52,91.15z"/>
		<path class="st3" d="M45.8,91.82c0-0.01-0.01-0.02-0.01-0.02C45.8,91.8,45.8,91.81,45.8,91.82z"/>
		<path class="st3" d="M69.75,97.33c-0.04,0.03-0.08,0.06-0.11,0.09C69.67,97.39,69.71,97.37,69.75,97.33z"/>
		<path class="st3" d="M44.51,83.94c0.06-0.53,0.15-1.16,0.29-1.84C44.67,82.71,44.57,83.32,44.51,83.94z"/>
		<path class="st3" d="M45.26,90.44c-0.01-0.02-0.01-0.04-0.02-0.07C45.24,90.39,45.25,90.42,45.26,90.44z"/>
		<path class="st3" d="M75.35,85.4V48.07L48.99,74.43c-0.3,0.3-0.58,0.61-0.85,0.93c-0.64,0.78-1.61,2.11-2.44,3.93
			c-0.39,0.91-0.7,1.86-0.91,2.82c-0.14,0.68-0.24,1.32-0.29,1.84c-0.21,2.16,0.02,4.36,0.72,6.43c0.01,0.02,0.01,0.04,0.02,0.07
			c0.07,0.21,0.15,0.41,0.23,0.62c0.01,0.03,0.02,0.06,0.04,0.1c0.09,0.22,0.18,0.43,0.27,0.64c0,0.01,0.01,0.02,0.01,0.02
			c0.73,1.6,1.78,3.07,3.07,4.42c5.62,5.85,14.75,6.03,20.77,1.19c0.04-0.03,0.08-0.06,0.11-0.09c0.03-0.02,0.05-0.04,0.08-0.06
			C73.22,94.41,75.35,90.12,75.35,85.4z"/>
	</g>
</g>
</svg>
