<?xml version="1.0" encoding="utf-8"?>
<!-- Generator: Adobe Illustrator 26.0.1, SVG Export Plug-In . SVG Version: 6.00 Build 0)  -->
<svg version="1.1" id="Capa_1" xmlns="http://www.w3.org/2000/svg" xmlns:xlink="http://www.w3.org/1999/xlink" x="0px" y="0px"
	 viewBox="0 0 180 180" style="enable-background:new 0 0 180 180;" xml:space="preserve">
<style type="text/css">
	.st0{fill:none;}
	.st1{fill:#F43290;}
	.st2{fill:#00ADFF;}
	.st3{fill:#4A078D;}
</style>
<rect x="0" class="st0" width="180" height="180"/>
<g>
	<path class="st1" d="M155.36,39.06c-11.66,0-16.24,6.85-25.41,16.02l-16.91,16.91v-9.66c0-13.19-10.86-23.27-23.38-23.27
		c-11.66,0-16.24,6.85-25.41,16.02L8.12,111.22c-8.95,8.95-9.26,23.67-0.21,32.72c9.36,9.36,24.08,9.06,33.03,0.1l31.29-31.24
		c0,0,0.43-0.4,0,0.11c-1.54,1.81-2.76,3.8-3.67,5.9c-0.02,0.05-0.04,0.09-0.07,0.14c-0.61,1.34-1.02,2.77-1.3,4.09
		c-0.2,0.91-0.35,1.84-0.44,2.77c-0.14,1.31-0.15,2.17-0.15,2.17c0,2.6,0.44,5.12,1.23,7.47c0.01,0.03,0.7,1.83,0.85,2.17
		c3.57,8,11.56,13.64,20.91,13.64c5.71,0,10.84-1.98,14.84-5.23c0.06-0.04,1.37-1.17,1.88-1.68l25.98-25.98v9.62
		c0,12.66,10.19,23.28,22.99,23.28c13.24,0,23.43-10.62,23.43-23.28V62.34C178.74,49.14,167.88,39.06,155.36,39.06z"/>
	<g>
		<path class="st2" d="M155.36,39.06c-11.66,0-16.24,6.85-25.41,16.02l-16.91,16.91L72.23,112.8c0,0,0.43-0.4,0,0.11
			c-1.54,1.81-2.76,3.8-3.67,5.9c-0.02,0.05-0.04,0.09-0.07,0.14c-0.61,1.34-1.02,2.77-1.3,4.09c-0.2,0.91-0.35,1.84-0.44,2.77
			c-0.14,1.31-0.15,2.17-0.15,2.17c0,2.6,0.44,5.12,1.23,7.47c0.01,0.03,0.7,1.83,0.85,2.17c3.57,8,11.56,13.64,20.91,13.64
			c5.71,0,10.84-1.98,14.84-5.23c0.06-0.04,1.37-1.17,1.88-1.68l25.98-25.98v9.62c0,12.66,10.19,23.28,22.99,23.28
			c13.24,0,23.43-10.62,23.43-23.28V62.34C178.74,49.14,167.88,39.06,155.36,39.06z"/>
	</g>
	<g>
		<path class="st3" d="M68.57,118.92c1.25-2.74,2.7-4.73,3.66-5.9C70.7,114.82,69.47,116.82,68.57,118.92z"/>
		<path class="st3" d="M68.28,136.73c-0.02-0.05-0.04-0.1-0.06-0.14C68.24,136.63,68.26,136.68,68.28,136.73z"/>
		<path class="st3" d="M68.7,137.72c-0.01-0.01-0.01-0.02-0.02-0.04C68.69,137.7,68.7,137.71,68.7,137.72z"/>
		<path class="st3" d="M104.62,146c-0.05,0.05-0.11,0.09-0.17,0.13C104.51,146.09,104.57,146.05,104.62,146z"/>
		<path class="st3" d="M66.77,125.91c0.09-0.79,0.22-1.74,0.44-2.77C67.01,124.06,66.86,124.98,66.77,125.91z"/>
		<path class="st3" d="M67.88,135.66c-0.01-0.03-0.02-0.07-0.03-0.1C67.86,135.59,67.87,135.62,67.88,135.66z"/>
		<path class="st3" d="M113.02,128.1V72.11l-39.53,39.53c-0.45,0.45-0.87,0.92-1.27,1.39c-0.97,1.17-2.41,3.16-3.66,5.9
			c-0.59,1.37-1.04,2.79-1.36,4.23c-0.22,1.02-0.35,1.97-0.44,2.77c-0.32,3.24,0.04,6.53,1.08,9.65c0.01,0.03,0.02,0.07,0.03,0.1
			c0.11,0.31,0.22,0.62,0.34,0.92c0.02,0.05,0.04,0.1,0.06,0.14c0.13,0.32,0.26,0.64,0.41,0.96c0.01,0.01,0.01,0.02,0.02,0.04
			c1.09,2.4,2.66,4.61,4.6,6.62c8.43,8.78,22.12,9.05,31.15,1.79c0.06-0.05,0.11-0.09,0.17-0.13c0.04-0.03,0.08-0.07,0.11-0.1
			C109.83,141.62,113.02,135.18,113.02,128.1z"/>
	</g>
</g>
</svg>
