<?xml version="1.0" encoding="utf-8"?>
<!-- Generator: Adobe Illustrator 26.0.1, SVG Export Plug-In . SVG Version: 6.00 Build 0)  -->
<svg version="1.1" id="Capa_1" xmlns="http://www.w3.org/2000/svg" xmlns:xlink="http://www.w3.org/1999/xlink" x="0px" y="0px"
	 viewBox="0 0 29 29" style="enable-background:new 0 0 29 29;" xml:space="preserve">
<style type="text/css">
	.st0{fill:none;}
	.st1{fill:#F43290;}
	.st2{fill:#00ADFF;}
	.st3{fill:#4A078D;}
</style>
<rect class="st0" width="29" height="29"/>
<g>
	<path class="st1" d="M25.06,4.71c-1.88,0-2.62,1.11-4.11,2.59l-2.73,2.73V8.47c0-2.13-1.75-3.76-3.78-3.76
		c-1.88,0-2.62,1.11-4.11,2.59l-9.07,9.07c-1.45,1.45-1.5,3.82-0.03,5.29c1.51,1.51,3.89,1.46,5.34,0.02l5.05-5.05
		c0,0,0.07-0.06,0,0.02c-0.25,0.29-0.45,0.61-0.59,0.95c0,0.01-0.01,0.01-0.01,0.02c-0.1,0.22-0.16,0.45-0.21,0.66
		c-0.03,0.15-0.06,0.3-0.07,0.45c-0.02,0.21-0.02,0.35-0.02,0.35c0,0.42,0.07,0.83,0.2,1.21c0,0.01,0.11,0.3,0.14,0.35
		c0.58,1.29,1.87,2.2,3.38,2.2c0.92,0,1.75-0.32,2.4-0.85c0.01-0.01,0.22-0.19,0.3-0.27l4.2-4.2v1.55c0,2.05,1.65,3.76,3.71,3.76
		c2.14,0,3.78-1.72,3.78-3.76V8.47C28.84,6.34,27.08,4.71,25.06,4.71z"/>
	<g>
		<path class="st2" d="M25.06,4.71c-1.88,0-2.62,1.11-4.11,2.59l-2.73,2.73l-6.59,6.59c0,0,0.07-0.06,0,0.02
			c-0.25,0.29-0.45,0.61-0.59,0.95c0,0.01-0.01,0.01-0.01,0.02c-0.1,0.22-0.16,0.45-0.21,0.66c-0.03,0.15-0.06,0.3-0.07,0.45
			c-0.02,0.21-0.02,0.35-0.02,0.35c0,0.42,0.07,0.83,0.2,1.21c0,0.01,0.11,0.3,0.14,0.35c0.58,1.29,1.87,2.2,3.38,2.2
			c0.92,0,1.75-0.32,2.4-0.85c0.01-0.01,0.22-0.19,0.3-0.27l4.2-4.2v1.55c0,2.05,1.65,3.76,3.71,3.76c2.14,0,3.78-1.72,3.78-3.76
			V8.47C28.84,6.34,27.08,4.71,25.06,4.71z"/>
	</g>
	<g>
		<path class="st3" d="M11.04,17.61c0.2-0.44,0.44-0.76,0.59-0.95C11.38,16.95,11.19,17.27,11.04,17.61z"/>
		<path class="st3" d="M10.99,20.49c0-0.01-0.01-0.02-0.01-0.02C10.99,20.47,10.99,20.48,10.99,20.49z"/>
		<path class="st3" d="M11.06,20.65C11.06,20.65,11.06,20.64,11.06,20.65C11.06,20.64,11.06,20.65,11.06,20.65z"/>
		<path class="st3" d="M16.86,21.99c-0.01,0.01-0.02,0.01-0.03,0.02C16.84,22,16.85,21.99,16.86,21.99z"/>
		<path class="st3" d="M10.75,18.74c0.01-0.13,0.04-0.28,0.07-0.45C10.79,18.44,10.76,18.59,10.75,18.74z"/>
		<path class="st3" d="M10.93,20.31c0-0.01,0-0.01-0.01-0.02C10.92,20.3,10.93,20.31,10.93,20.31z"/>
		<path class="st3" d="M18.22,19.09v-9.04l-6.39,6.39c-0.07,0.07-0.14,0.15-0.21,0.22c-0.16,0.19-0.39,0.51-0.59,0.95
			c-0.1,0.22-0.17,0.45-0.22,0.68c-0.04,0.17-0.06,0.32-0.07,0.45c-0.05,0.52,0.01,1.06,0.17,1.56c0,0.01,0,0.01,0.01,0.02
			c0.02,0.05,0.04,0.1,0.05,0.15c0,0.01,0.01,0.02,0.01,0.02c0.02,0.05,0.04,0.1,0.07,0.16c0,0,0,0,0,0.01
			c0.18,0.39,0.43,0.74,0.74,1.07c1.36,1.42,3.57,1.46,5.03,0.29c0.01-0.01,0.02-0.01,0.03-0.02c0.01-0.01,0.01-0.01,0.02-0.02
			C17.7,21.28,18.22,20.24,18.22,19.09z"/>
	</g>
</g>
</svg>
