<?xml version="1.0" encoding="utf-8"?>
<!-- Generator: Adobe Illustrator 26.0.1, SVG Export Plug-In . SVG Version: 6.00 Build 0)  -->
<svg version="1.1" id="Capa_1" xmlns="http://www.w3.org/2000/svg" xmlns:xlink="http://www.w3.org/1999/xlink" x="0px" y="0px"
	 viewBox="0 0 40 40" style="enable-background:new 0 0 40 40;" xml:space="preserve">
<style type="text/css">
	.st0{fill:none;}
	.st1{fill:#F43290;}
	.st2{fill:#00ADFF;}
	.st3{fill:#4A078D;}
</style>
<rect class="st0" width="40" height="40"/>
<g>
	<path class="st1" d="M34.52,8.68c-2.59,0-3.61,1.52-5.65,3.56L25.12,16v-2.15c0-2.93-2.41-5.17-5.19-5.17
		c-2.59,0-3.61,1.52-5.65,3.56L1.8,24.72c-1.99,1.99-2.06,5.26-0.05,7.27C3.84,34.07,7.11,34,9.1,32.01l6.95-6.94
		c0,0,0.1-0.09,0,0.02c-0.34,0.4-0.61,0.84-0.81,1.31c0,0.01-0.01,0.02-0.01,0.03c-0.13,0.3-0.23,0.62-0.29,0.91
		c-0.04,0.2-0.08,0.41-0.1,0.61c-0.03,0.29-0.03,0.48-0.03,0.48c0,0.58,0.1,1.14,0.27,1.66c0,0.01,0.16,0.41,0.19,0.48
		c0.79,1.78,2.57,3.03,4.65,3.03c1.27,0,2.41-0.44,3.3-1.16c0.01-0.01,0.3-0.26,0.42-0.37l5.77-5.77v2.14
		c0,2.81,2.26,5.17,5.11,5.17c2.94,0,5.21-2.36,5.21-5.17V13.85C39.72,10.92,37.31,8.68,34.52,8.68z"/>
	<g>
		<path class="st2" d="M34.52,8.68c-2.59,0-3.61,1.52-5.65,3.56L25.12,16l-9.07,9.07c0,0,0.1-0.09,0,0.02
			c-0.34,0.4-0.61,0.84-0.81,1.31c0,0.01-0.01,0.02-0.01,0.03c-0.13,0.3-0.23,0.62-0.29,0.91c-0.04,0.2-0.08,0.41-0.1,0.61
			c-0.03,0.29-0.03,0.48-0.03,0.48c0,0.58,0.1,1.14,0.27,1.66c0,0.01,0.16,0.41,0.19,0.48c0.79,1.78,2.57,3.03,4.65,3.03
			c1.27,0,2.41-0.44,3.3-1.16c0.01-0.01,0.3-0.26,0.42-0.37l5.77-5.77v2.14c0,2.81,2.26,5.17,5.11,5.17c2.94,0,5.21-2.36,5.21-5.17
			V13.85C39.72,10.92,37.31,8.68,34.52,8.68z"/>
	</g>
	<g>
		<path class="st3" d="M15.24,26.43c0.28-0.61,0.6-1.05,0.81-1.31C15.71,25.52,15.44,25.96,15.24,26.43z"/>
		<path class="st3" d="M15.17,30.38c0-0.01-0.01-0.02-0.01-0.03C15.16,30.36,15.17,30.37,15.17,30.38z"/>
		<path class="st3" d="M15.27,30.61C15.27,30.6,15.27,30.6,15.27,30.61C15.27,30.6,15.27,30.6,15.27,30.61z"/>
		<path class="st3" d="M23.25,32.44c-0.01,0.01-0.03,0.02-0.04,0.03C23.22,32.46,23.24,32.46,23.25,32.44z"/>
		<path class="st3" d="M14.84,27.98c0.02-0.18,0.05-0.39,0.1-0.61C14.89,27.57,14.86,27.77,14.84,27.98z"/>
		<path class="st3" d="M15.09,30.15c0-0.01,0-0.01-0.01-0.02C15.08,30.13,15.08,30.14,15.09,30.15z"/>
		<path class="st3" d="M25.12,28.47V16.02l-8.78,8.78c-0.1,0.1-0.19,0.2-0.28,0.31c-0.21,0.26-0.54,0.7-0.81,1.31
			c-0.13,0.3-0.23,0.62-0.3,0.94c-0.05,0.23-0.08,0.44-0.1,0.61c-0.07,0.72,0.01,1.45,0.24,2.14c0,0.01,0,0.01,0.01,0.02
			c0.02,0.07,0.05,0.14,0.08,0.21c0,0.01,0.01,0.02,0.01,0.03c0.03,0.07,0.06,0.14,0.09,0.21c0,0,0,0.01,0,0.01
			c0.24,0.53,0.59,1.02,1.02,1.47c1.87,1.95,4.92,2.01,6.92,0.4c0.01-0.01,0.03-0.02,0.04-0.03c0.01-0.01,0.02-0.01,0.03-0.02
			C24.41,31.47,25.12,30.04,25.12,28.47z"/>
	</g>
</g>
</svg>
