<?xml version="1.0" encoding="utf-8"?>
<!-- Generator: Adobe Illustrator 26.0.1, SVG Export Plug-In . SVG Version: 6.00 Build 0)  -->
<svg version="1.1" id="Capa_1" xmlns="http://www.w3.org/2000/svg" xmlns:xlink="http://www.w3.org/1999/xlink" x="0px" y="0px"
	 viewBox="0 0 57 57" style="enable-background:new 0 0 57 57;" xml:space="preserve">
<style type="text/css">
	.st0{fill:none;}
	.st1{fill:#F43290;}
	.st2{fill:#00ADFF;}
	.st3{fill:#4A078D;}
</style>
<rect x="0.07" class="st0" width="56.93" height="56.93"/>
<g>
	<path class="st1" d="M49.21,12.35c-3.69,0-5.14,2.17-8.04,5.07l-5.35,5.35v-3.05c0-4.17-3.43-7.36-7.39-7.36
		c-3.69,0-5.14,2.17-8.04,5.07L2.64,35.18c-2.83,2.83-2.93,7.49-0.07,10.35c2.96,2.96,7.62,2.86,10.45,0.03l9.9-9.88
		c0,0,0.14-0.13,0,0.04c-0.49,0.57-0.87,1.2-1.16,1.87c-0.01,0.01-0.01,0.03-0.02,0.04c-0.19,0.42-0.32,0.88-0.41,1.29
		c-0.06,0.29-0.11,0.58-0.14,0.87c-0.05,0.41-0.05,0.69-0.05,0.69c0,0.82,0.14,1.62,0.39,2.36c0,0.01,0.22,0.58,0.27,0.69
		c1.13,2.53,3.66,4.32,6.61,4.32c1.8,0,3.43-0.62,4.69-1.66c0.02-0.01,0.43-0.37,0.6-0.53l8.22-8.22v3.04c0,4,3.22,7.36,7.27,7.36
		c4.19,0,7.41-3.36,7.41-7.36V19.72C56.6,15.54,53.17,12.35,49.21,12.35z"/>
	<g>
		<path class="st2" d="M49.21,12.35c-3.69,0-5.14,2.17-8.04,5.07l-5.35,5.35L22.92,35.68c0,0,0.14-0.13,0,0.04
			c-0.49,0.57-0.87,1.2-1.16,1.87c-0.01,0.01-0.01,0.03-0.02,0.04c-0.19,0.42-0.32,0.88-0.41,1.29c-0.06,0.29-0.11,0.58-0.14,0.87
			c-0.05,0.41-0.05,0.69-0.05,0.69c0,0.82,0.14,1.62,0.39,2.36c0,0.01,0.22,0.58,0.27,0.69c1.13,2.53,3.66,4.32,6.61,4.32
			c1.8,0,3.43-0.62,4.69-1.66c0.02-0.01,0.43-0.37,0.6-0.53l8.22-8.22v3.04c0,4,3.22,7.36,7.27,7.36c4.19,0,7.41-3.36,7.41-7.36
			V19.72C56.6,15.54,53.17,12.35,49.21,12.35z"/>
	</g>
	<g>
		<path class="st3" d="M21.76,37.61c0.4-0.87,0.85-1.5,1.16-1.87C22.43,36.32,22.04,36.95,21.76,37.61z"/>
		<path class="st3" d="M21.67,43.24c-0.01-0.02-0.01-0.03-0.02-0.05C21.65,43.21,21.66,43.23,21.67,43.24z"/>
		<path class="st3" d="M21.8,43.56c0,0,0-0.01-0.01-0.01C21.8,43.55,21.8,43.56,21.8,43.56z"/>
		<path class="st3" d="M33.16,46.18c-0.02,0.01-0.04,0.03-0.05,0.04C33.12,46.2,33.14,46.19,33.16,46.18z"/>
		<path class="st3" d="M21.19,39.82c0.03-0.25,0.07-0.55,0.14-0.87C21.26,39.24,21.22,39.53,21.19,39.82z"/>
		<path class="st3" d="M21.54,42.91c0-0.01-0.01-0.02-0.01-0.03C21.53,42.88,21.54,42.89,21.54,42.91z"/>
		<path class="st3" d="M35.82,40.52V22.81l-12.5,12.5c-0.14,0.14-0.27,0.29-0.4,0.44c-0.31,0.37-0.76,1-1.16,1.87
			c-0.19,0.43-0.33,0.88-0.43,1.34c-0.07,0.32-0.11,0.62-0.14,0.87c-0.1,1.02,0.01,2.07,0.34,3.05c0,0.01,0.01,0.02,0.01,0.03
			c0.03,0.1,0.07,0.2,0.11,0.29c0.01,0.02,0.01,0.03,0.02,0.05c0.04,0.1,0.08,0.2,0.13,0.3c0,0,0,0.01,0.01,0.01
			c0.35,0.76,0.84,1.46,1.45,2.09c2.67,2.78,7,2.86,9.85,0.57c0.02-0.01,0.04-0.03,0.05-0.04c0.01-0.01,0.02-0.02,0.04-0.03
			C34.81,44.79,35.82,42.75,35.82,40.52z"/>
	</g>
</g>
</svg>
