<?xml version="1.0" encoding="utf-8"?>
<!-- Generator: Adobe Illustrator 26.0.1, SVG Export Plug-In . SVG Version: 6.00 Build 0)  -->
<svg version="1.1" id="Capa_1" xmlns="http://www.w3.org/2000/svg" xmlns:xlink="http://www.w3.org/1999/xlink" x="0px" y="0px"
	 viewBox="0 0 58 58" style="enable-background:new 0 0 58 58;" xml:space="preserve">
<style type="text/css">
	.st0{fill:none;}
	.st1{fill:#F43290;}
	.st2{fill:#00ADFF;}
	.st3{fill:#4A078D;}
</style>
<rect x="-0.06" class="st0" width="58" height="58"/>
<g>
	<path class="st1" d="M50.01,12.59c-3.76,0-5.23,2.21-8.19,5.16l-5.45,5.45v-3.11c0-4.25-3.5-7.5-7.53-7.5
		c-3.76,0-5.23,2.21-8.19,5.16L2.56,35.84c-2.88,2.88-2.98,7.63-0.07,10.54c3.02,3.02,7.76,2.92,10.64,0.03l10.08-10.07
		c0,0,0.14-0.13,0,0.04c-0.5,0.58-0.89,1.22-1.18,1.9c-0.01,0.02-0.01,0.03-0.02,0.04c-0.2,0.43-0.33,0.89-0.42,1.32
		c-0.06,0.29-0.11,0.59-0.14,0.89c-0.05,0.42-0.05,0.7-0.05,0.7c0,0.84,0.14,1.65,0.4,2.41c0,0.01,0.23,0.59,0.27,0.7
		c1.15,2.58,3.72,4.4,6.74,4.4c1.84,0,3.49-0.64,4.78-1.69c0.02-0.01,0.44-0.38,0.61-0.54l8.37-8.37v3.1c0,4.08,3.28,7.5,7.41,7.5
		c4.27,0,7.55-3.42,7.55-7.5V20.09C57.54,15.83,54.04,12.59,50.01,12.59z"/>
	<g>
		<path class="st2" d="M50.01,12.59c-3.76,0-5.23,2.21-8.19,5.16l-5.45,5.45L23.22,36.35c0,0,0.14-0.13,0,0.04
			c-0.5,0.58-0.89,1.22-1.18,1.9c-0.01,0.02-0.01,0.03-0.02,0.04c-0.2,0.43-0.33,0.89-0.42,1.32c-0.06,0.29-0.11,0.59-0.14,0.89
			c-0.05,0.42-0.05,0.7-0.05,0.7c0,0.84,0.14,1.65,0.4,2.41c0,0.01,0.23,0.59,0.27,0.7c1.15,2.58,3.72,4.4,6.74,4.4
			c1.84,0,3.49-0.64,4.78-1.69c0.02-0.01,0.44-0.38,0.61-0.54l8.37-8.37v3.1c0,4.08,3.28,7.5,7.41,7.5c4.27,0,7.55-3.42,7.55-7.5
			V20.09C57.54,15.83,54.04,12.59,50.01,12.59z"/>
	</g>
	<g>
		<path class="st3" d="M22.04,38.32c0.4-0.88,0.87-1.53,1.18-1.9C22.72,37,22.33,37.64,22.04,38.32z"/>
		<path class="st3" d="M21.95,44.06c-0.01-0.02-0.01-0.03-0.02-0.05C21.93,44.03,21.94,44.04,21.95,44.06z"/>
		<path class="st3" d="M22.08,44.38c0,0,0-0.01-0.01-0.01C22.08,44.37,22.08,44.37,22.08,44.38z"/>
		<path class="st3" d="M33.66,47.05c-0.02,0.01-0.04,0.03-0.05,0.04C33.62,47.07,33.64,47.06,33.66,47.05z"/>
		<path class="st3" d="M21.46,40.57c0.03-0.25,0.07-0.56,0.14-0.89C21.54,39.98,21.49,40.27,21.46,40.57z"/>
		<path class="st3" d="M21.82,43.71c0-0.01-0.01-0.02-0.01-0.03C21.81,43.69,21.81,43.7,21.82,43.71z"/>
		<path class="st3" d="M36.36,41.28V23.24L23.62,35.97c-0.14,0.14-0.28,0.29-0.41,0.45c-0.31,0.38-0.78,1.02-1.18,1.9
			c-0.19,0.44-0.34,0.9-0.44,1.36c-0.07,0.33-0.11,0.64-0.14,0.89c-0.1,1.04,0.01,2.11,0.35,3.11c0,0.01,0.01,0.02,0.01,0.03
			c0.03,0.1,0.07,0.2,0.11,0.3c0.01,0.02,0.01,0.03,0.02,0.05c0.04,0.1,0.09,0.21,0.13,0.31c0,0,0,0.01,0.01,0.01
			c0.35,0.77,0.86,1.48,1.48,2.13c2.72,2.83,7.13,2.92,10.04,0.58c0.02-0.01,0.04-0.03,0.05-0.04c0.01-0.01,0.02-0.02,0.04-0.03
			C35.33,45.63,36.36,43.56,36.36,41.28z"/>
	</g>
</g>
</svg>
