<?xml version="1.0" encoding="utf-8"?>
<!-- Generator: Adobe Illustrator 26.0.1, SVG Export Plug-In . SVG Version: 6.00 Build 0)  -->
<svg version="1.1" id="Capa_1" xmlns="http://www.w3.org/2000/svg" xmlns:xlink="http://www.w3.org/1999/xlink" x="0px" y="0px"
	 viewBox="0 0 60 60" style="enable-background:new 0 0 60 60;" xml:space="preserve">
<style type="text/css">
	.st0{fill:none;}
	.st1{fill:#F43290;}
	.st2{fill:#00ADFF;}
	.st3{fill:#4A078D;}
</style>
<rect class="st0" width="60" height="60"/>
<g>
	<path class="st1" d="M51.79,13.02c-3.89,0-5.41,2.28-8.47,5.34L37.68,24v-3.22c0-4.4-3.62-7.76-7.79-7.76
		c-3.89,0-5.41,2.28-8.47,5.34L2.71,37.07c-2.98,2.98-3.09,7.89-0.07,10.91c3.12,3.12,8.03,3.02,11.01,0.03L24.08,37.6
		c0,0,0.14-0.13,0,0.04c-0.51,0.6-0.92,1.27-1.22,1.97c-0.01,0.02-0.01,0.03-0.02,0.05c-0.2,0.45-0.34,0.92-0.43,1.36
		c-0.07,0.3-0.12,0.61-0.15,0.92c-0.05,0.44-0.05,0.72-0.05,0.72c0,0.87,0.15,1.71,0.41,2.49c0,0.01,0.23,0.61,0.28,0.72
		c1.19,2.67,3.85,4.55,6.97,4.55c1.9,0,3.61-0.66,4.95-1.74c0.02-0.01,0.46-0.39,0.63-0.56l8.66-8.66v3.21
		c0,4.22,3.4,7.76,7.66,7.76c4.41,0,7.81-3.54,7.81-7.76V20.78C59.58,16.38,55.96,13.02,51.79,13.02z"/>
	<g>
		<path class="st2" d="M51.79,13.02c-3.89,0-5.41,2.28-8.47,5.34L37.68,24l-13.6,13.6c0,0,0.14-0.13,0,0.04
			c-0.51,0.6-0.92,1.27-1.22,1.97c-0.01,0.02-0.01,0.03-0.02,0.05c-0.2,0.45-0.34,0.92-0.43,1.36c-0.07,0.3-0.12,0.61-0.15,0.92
			c-0.05,0.44-0.05,0.72-0.05,0.72c0,0.87,0.15,1.71,0.41,2.49c0,0.01,0.23,0.61,0.28,0.72c1.19,2.67,3.85,4.55,6.97,4.55
			c1.9,0,3.61-0.66,4.95-1.74c0.02-0.01,0.46-0.39,0.63-0.56l8.66-8.66v3.21c0,4.22,3.4,7.76,7.66,7.76c4.41,0,7.81-3.54,7.81-7.76
			V20.78C59.58,16.38,55.96,13.02,51.79,13.02z"/>
	</g>
	<g>
		<path class="st3" d="M22.86,39.64c0.42-0.91,0.9-1.58,1.22-1.97C23.57,38.27,23.16,38.94,22.86,39.64z"/>
		<path class="st3" d="M22.76,45.58c-0.01-0.02-0.01-0.03-0.02-0.05C22.75,45.54,22.75,45.56,22.76,45.58z"/>
		<path class="st3" d="M22.9,45.91c0,0,0-0.01-0.01-0.01C22.9,45.9,22.9,45.9,22.9,45.91z"/>
		<path class="st3" d="M34.87,48.67c-0.02,0.02-0.04,0.03-0.06,0.04C34.84,48.7,34.86,48.68,34.87,48.67z"/>
		<path class="st3" d="M22.26,41.97c0.03-0.26,0.07-0.58,0.15-0.92C22.34,41.35,22.29,41.66,22.26,41.97z"/>
		<path class="st3" d="M22.63,45.22c0-0.01-0.01-0.02-0.01-0.03C22.62,45.2,22.62,45.21,22.63,45.22z"/>
		<path class="st3" d="M37.67,42.7V24.04L24.5,37.21c-0.15,0.15-0.29,0.31-0.42,0.46c-0.32,0.39-0.8,1.05-1.22,1.97
			c-0.2,0.46-0.35,0.93-0.45,1.41c-0.07,0.34-0.12,0.66-0.15,0.92c-0.11,1.08,0.01,2.18,0.36,3.22c0,0.01,0.01,0.02,0.01,0.03
			c0.04,0.1,0.07,0.21,0.11,0.31c0.01,0.02,0.01,0.03,0.02,0.05c0.04,0.11,0.09,0.21,0.14,0.32c0,0,0,0.01,0.01,0.01
			c0.36,0.8,0.89,1.54,1.53,2.21c2.81,2.93,7.37,3.02,10.38,0.6c0.02-0.02,0.04-0.03,0.06-0.04c0.01-0.01,0.03-0.02,0.04-0.03
			C36.61,47.21,37.67,45.06,37.67,42.7z"/>
	</g>
</g>
</svg>
