<?xml version="1.0" encoding="utf-8"?>
<!-- Generator: Adobe Illustrator 26.0.1, SVG Export Plug-In . SVG Version: 6.00 Build 0)  -->
<svg version="1.1" id="Capa_1" xmlns="http://www.w3.org/2000/svg" xmlns:xlink="http://www.w3.org/1999/xlink" x="0px" y="0px"
	 viewBox="0 0 80 80" style="enable-background:new 0 0 80 80;" xml:space="preserve">
<style type="text/css">
	.st0{fill:none;}
	.st1{fill:#F43290;}
	.st2{fill:#00ADFF;}
	.st3{fill:#4A078D;}
</style>
<rect x="0" class="st0" width="80" height="80"/>
<g>
	<path class="st1" d="M69.05,17.36c-5.18,0-7.22,3.04-11.29,7.12L50.24,32V27.7c0-5.86-4.83-10.34-10.39-10.34
		c-5.18,0-7.22,3.04-11.29,7.12L3.61,49.43c-3.98,3.98-4.12,10.52-0.09,14.54c4.16,4.16,10.7,4.02,14.68,0.05L32.1,50.14
		c0,0,0.19-0.18,0,0.05c-0.68,0.8-1.23,1.69-1.63,2.62c-0.01,0.02-0.02,0.04-0.03,0.06c-0.27,0.6-0.45,1.23-0.58,1.82
		c-0.09,0.41-0.16,0.82-0.2,1.23c-0.06,0.58-0.07,0.97-0.07,0.97c0,1.16,0.19,2.27,0.55,3.32c0.01,0.01,0.31,0.81,0.38,0.96
		c1.59,3.56,5.14,6.06,9.29,6.06c2.54,0,4.82-0.88,6.6-2.33c0.02-0.02,0.61-0.52,0.84-0.75l11.55-11.55v4.27
		c0,5.63,4.53,10.35,10.22,10.35c5.89,0,10.41-4.72,10.41-10.35V27.7C79.44,21.84,74.61,17.36,69.05,17.36z"/>
	<g>
		<path class="st2" d="M69.05,17.36c-5.18,0-7.22,3.04-11.29,7.12L50.24,32L32.1,50.14c0,0,0.19-0.18,0,0.05
			c-0.68,0.8-1.23,1.69-1.63,2.62c-0.01,0.02-0.02,0.04-0.03,0.06c-0.27,0.6-0.45,1.23-0.58,1.82c-0.09,0.41-0.16,0.82-0.2,1.23
			c-0.06,0.58-0.07,0.97-0.07,0.97c0,1.16,0.19,2.27,0.55,3.32c0.01,0.01,0.31,0.81,0.38,0.96c1.59,3.56,5.14,6.06,9.29,6.06
			c2.54,0,4.82-0.88,6.6-2.33c0.02-0.02,0.61-0.52,0.84-0.75l11.55-11.55v4.27c0,5.63,4.53,10.35,10.22,10.35
			c5.89,0,10.41-4.72,10.41-10.35V27.7C79.44,21.84,74.61,17.36,69.05,17.36z"/>
	</g>
	<g>
		<path class="st3" d="M30.48,52.85c0.56-1.22,1.2-2.1,1.63-2.62C31.42,51.03,30.88,51.92,30.48,52.85z"/>
		<path class="st3" d="M30.35,60.77c-0.01-0.02-0.02-0.04-0.02-0.06C30.33,60.72,30.34,60.75,30.35,60.77z"/>
		<path class="st3" d="M30.54,61.21c0-0.01,0-0.01-0.01-0.02C30.53,61.2,30.53,61.21,30.54,61.21z"/>
		<path class="st3" d="M46.5,64.89c-0.02,0.02-0.05,0.04-0.07,0.06C46.45,64.93,46.47,64.91,46.5,64.89z"/>
		<path class="st3" d="M29.67,55.96c0.04-0.35,0.1-0.77,0.2-1.23C29.78,55.14,29.72,55.55,29.67,55.96z"/>
		<path class="st3" d="M30.17,60.29c-0.01-0.01-0.01-0.03-0.01-0.04C30.16,60.26,30.17,60.28,30.17,60.29z"/>
		<path class="st3" d="M50.23,56.93V32.05L32.66,49.62c-0.2,0.2-0.39,0.41-0.57,0.62c-0.43,0.52-1.07,1.4-1.63,2.62
			c-0.26,0.61-0.46,1.24-0.6,1.88c-0.1,0.45-0.16,0.88-0.2,1.23c-0.14,1.44,0.02,2.9,0.48,4.29c0,0.01,0.01,0.03,0.01,0.04
			c0.05,0.14,0.1,0.27,0.15,0.41c0.01,0.02,0.02,0.04,0.02,0.06c0.06,0.14,0.12,0.29,0.18,0.43c0,0.01,0,0.01,0.01,0.02
			c0.49,1.07,1.18,2.05,2.04,2.94c3.75,3.9,9.83,4.02,13.84,0.79c0.02-0.02,0.05-0.04,0.07-0.06c0.02-0.01,0.03-0.03,0.05-0.04
			C48.81,62.94,50.23,60.08,50.23,56.93z"/>
	</g>
</g>
</svg>
