<?xml version="1.0" encoding="utf-8"?>
<!-- Generator: Adobe Illustrator 26.0.1, SVG Export Plug-In . SVG Version: 6.00 Build 0)  -->
<svg version="1.1" id="Capa_1" xmlns="http://www.w3.org/2000/svg" xmlns:xlink="http://www.w3.org/1999/xlink" x="0px" y="0px"
	 viewBox="0 0 87 87" style="enable-background:new 0 0 87 87;" xml:space="preserve">
<style type="text/css">
	.st0{fill:none;}
	.st1{fill:#F43290;}
	.st2{fill:#00ADFF;}
	.st3{fill:#4A078D;}
</style>
<rect x="0" class="st0" width="87" height="87"/>
<g>
	<path class="st1" d="M75.09,18.88c-5.64,0-7.85,3.31-12.28,7.74l-8.17,8.17v-4.67c0-6.38-5.25-11.25-11.3-11.25
		c-5.64,0-7.85,3.31-12.28,7.74L3.92,53.76c-4.33,4.33-4.48,11.44-0.1,15.82c4.53,4.53,11.64,4.38,15.96,0.05l15.12-15.1
		c0,0,0.21-0.19,0,0.05c-0.74,0.87-1.33,1.84-1.77,2.85c-0.01,0.02-0.02,0.04-0.03,0.07c-0.29,0.65-0.49,1.34-0.63,1.98
		c-0.1,0.44-0.17,0.89-0.21,1.34c-0.07,0.63-0.07,1.05-0.07,1.05c0,1.26,0.21,2.47,0.6,3.61c0.01,0.02,0.34,0.89,0.41,1.05
		c1.72,3.87,5.59,6.59,10.11,6.59c2.76,0,5.24-0.95,7.17-2.53c0.03-0.02,0.66-0.57,0.91-0.81l12.56-12.56v4.65
		c0,6.12,4.92,11.25,11.11,11.25c6.4,0,11.32-5.13,11.32-11.25V30.13C86.39,23.75,81.14,18.88,75.09,18.88z"/>
	<g>
		<path class="st2" d="M75.09,18.88c-5.64,0-7.85,3.31-12.28,7.74l-8.17,8.17L34.91,54.52c0,0,0.21-0.19,0,0.05
			c-0.74,0.87-1.33,1.84-1.77,2.85c-0.01,0.02-0.02,0.04-0.03,0.07c-0.29,0.65-0.49,1.34-0.63,1.98c-0.1,0.44-0.17,0.89-0.21,1.34
			c-0.07,0.63-0.07,1.05-0.07,1.05c0,1.26,0.21,2.47,0.6,3.61c0.01,0.02,0.34,0.89,0.41,1.05c1.72,3.87,5.59,6.59,10.11,6.59
			c2.76,0,5.24-0.95,7.17-2.53c0.03-0.02,0.66-0.57,0.91-0.81l12.56-12.56v4.65c0,6.12,4.92,11.25,11.11,11.25
			c6.4,0,11.32-5.13,11.32-11.25V30.13C86.39,23.75,81.14,18.88,75.09,18.88z"/>
	</g>
	<g>
		<path class="st3" d="M33.14,57.48c0.61-1.32,1.3-2.29,1.77-2.85C34.17,55.5,33.58,56.46,33.14,57.48z"/>
		<path class="st3" d="M33,66.08c-0.01-0.02-0.02-0.05-0.03-0.07C32.98,66.04,32.99,66.06,33,66.08z"/>
		<path class="st3" d="M33.21,66.57c0-0.01-0.01-0.01-0.01-0.02C33.2,66.56,33.2,66.56,33.21,66.57z"/>
		<path class="st3" d="M50.57,70.57c-0.03,0.02-0.05,0.04-0.08,0.06C50.51,70.61,50.54,70.59,50.57,70.57z"/>
		<path class="st3" d="M32.27,60.86c0.04-0.38,0.11-0.84,0.21-1.34C32.39,59.96,32.32,60.41,32.27,60.86z"/>
		<path class="st3" d="M32.81,65.57c-0.01-0.02-0.01-0.03-0.02-0.05C32.8,65.54,32.81,65.55,32.81,65.57z"/>
		<path class="st3" d="M54.63,61.92V34.85L35.52,53.96c-0.22,0.22-0.42,0.44-0.62,0.67c-0.47,0.56-1.16,1.53-1.77,2.85
			c-0.28,0.66-0.5,1.35-0.66,2.04c-0.1,0.49-0.17,0.95-0.21,1.34c-0.15,1.57,0.02,3.16,0.52,4.66c0.01,0.02,0.01,0.03,0.02,0.05
			c0.05,0.15,0.11,0.3,0.16,0.45c0.01,0.02,0.02,0.05,0.03,0.07c0.06,0.16,0.13,0.31,0.2,0.46c0,0.01,0.01,0.01,0.01,0.02
			c0.53,1.16,1.29,2.23,2.22,3.2c4.08,4.24,10.69,4.37,15.06,0.86c0.03-0.02,0.05-0.04,0.08-0.06c0.02-0.02,0.04-0.03,0.05-0.05
			C53.09,68.45,54.63,65.34,54.63,61.92z"/>
	</g>
</g>
</svg>
