<?xml version="1.0" encoding="utf-8"?>
<!-- Generator: Adobe Illustrator 26.0.1, SVG Export Plug-In . SVG Version: 6.00 Build 0)  -->
<svg version="1.1" id="Capa_1" xmlns="http://www.w3.org/2000/svg" xmlns:xlink="http://www.w3.org/1999/xlink" x="0px" y="0px"
	 viewBox="0 0 1500 989.02" style="enable-background:new 0 0 1500 989.02;" xml:space="preserve">
<style type="text/css">
	.st0{fill:#F43290;}
	.st1{fill:#00ADFF;}
	.st2{fill:#4A078D;}
</style>
<g>
	<path class="st0" d="M1302.34,24.17c-98.59,0-137.29,57.91-214.86,135.48L944.5,302.63v-81.67c0-111.56-91.83-196.79-197.66-196.79
		c-98.59,0-137.29,57.91-214.86,135.48L57.34,634.3C-18.36,710-20.97,834.41,55.6,910.98c79.17,79.17,203.59,76.56,279.28,0.87
		l264.57-264.16c0,0,3.62-3.38,0.04,0.95c-13,15.27-23.34,32.12-30.99,49.9c-0.18,0.4-0.37,0.77-0.55,1.17
		c-5.12,11.36-8.59,23.45-10.95,34.58c-1.7,7.73-2.96,15.53-3.73,23.38c-1.21,11.04-1.27,18.37-1.27,18.37
		c0,22.01,3.69,43.26,10.42,63.18c0.1,0.28,5.95,15.49,7.22,18.32c30.15,67.66,97.74,115.36,176.78,115.36
		c48.24,0,91.67-16.7,125.49-44.25c0.47-0.38,11.56-9.89,15.91-14.24l219.69-219.69v81.31c0,107.05,86.13,196.87,194.41,196.87
		c111.97,0,198.1-89.82,198.1-196.87V220.97C1500,109.41,1408.17,24.17,1302.34,24.17z"/>
	<g>
		<path class="st1" d="M1302.34,24.17c-98.59,0-137.29,57.91-214.86,135.48L944.5,302.63L599.45,647.69c0,0,3.62-3.38,0.04,0.95
			c-13,15.27-23.34,32.12-30.99,49.9c-0.18,0.4-0.37,0.77-0.55,1.17c-5.12,11.36-8.59,23.45-10.95,34.58
			c-1.7,7.73-2.96,15.53-3.73,23.38c-1.21,11.04-1.27,18.37-1.27,18.37c0,22.01,3.69,43.26,10.42,63.18
			c0.1,0.28,5.95,15.49,7.22,18.32c30.15,67.66,97.74,115.36,176.78,115.36c48.24,0,91.67-16.7,125.49-44.25
			c0.47-0.38,11.56-9.89,15.91-14.24l219.69-219.69v81.31c0,107.05,86.13,196.87,194.41,196.87c111.97,0,198.1-89.82,198.1-196.87
			V220.97C1500,109.41,1408.17,24.17,1302.34,24.17z"/>
	</g>
	<g>
		<path class="st2" d="M568.48,699.4c10.61-23.17,22.82-40.03,30.99-49.89C586.47,664.77,576.13,681.62,568.48,699.4z"/>
		<path class="st2" d="M566.02,849.97c-0.16-0.41-0.31-0.81-0.47-1.22C565.71,849.15,565.86,849.56,566.02,849.97z"/>
		<path class="st2" d="M569.61,858.41c-0.05-0.1-0.09-0.2-0.14-0.31C569.52,858.2,569.57,858.31,569.61,858.41z"/>
		<path class="st2" d="M873.31,928.39c-0.46,0.39-0.95,0.74-1.42,1.13C872.36,929.14,872.84,928.78,873.31,928.39z"/>
		<path class="st2" d="M553.25,758.53c0.73-6.69,1.89-14.74,3.73-23.38C555.27,742.88,554.02,750.68,553.25,758.53z"/>
		<path class="st2" d="M562.68,840.93c-0.1-0.28-0.19-0.56-0.28-0.84C562.49,840.37,562.58,840.65,562.68,840.93z"/>
		<path class="st2" d="M944.3,777.03V303.62L610.06,637.87c-3.79,3.79-7.35,7.74-10.78,11.77c-8.17,9.87-20.38,26.73-30.99,49.89
			c-4.98,11.59-8.82,23.56-11.51,35.76c-1.83,8.64-2.99,16.69-3.73,23.38c-2.69,27.4,0.31,55.25,9.15,81.55
			c0.09,0.28,0.18,0.56,0.28,0.84c0.89,2.62,1.86,5.23,2.87,7.82c0.16,0.41,0.31,0.82,0.47,1.22c1.09,2.73,2.24,5.45,3.46,8.13
			c0.05,0.1,0.09,0.2,0.14,0.31c9.23,20.28,22.51,38.95,38.89,56c71.31,74.23,187.06,76.52,263.38,15.11
			c0.47-0.38,0.96-0.74,1.42-1.13c0.32-0.27,0.63-0.55,0.96-0.82C917.37,891.31,944.3,836.87,944.3,777.03z"/>
	</g>
</g>
</svg>
