<?xml version="1.0" encoding="utf-8"?>
<!-- Generator: Adobe Illustrator 26.0.1, SVG Export Plug-In . SVG Version: 6.00 Build 0)  -->
<svg version="1.1" id="Capa_1" xmlns="http://www.w3.org/2000/svg" xmlns:xlink="http://www.w3.org/1999/xlink" x="0px" y="0px"
	 viewBox="0 0 750 503" style="enable-background:new 0 0 750 503;" xml:space="preserve">
<style type="text/css">
	.st0{fill:#F43290;}
	.st1{fill:#00ADFF;}
	.st2{fill:#FFFFFF;}
</style>
<path class="st0" d="M651.34,11c-49.21,0-68.53,28.9-107.25,67.62l-71.37,71.36v-40.76c0-55.68-45.84-98.23-98.66-98.23
	c-49.21,0-68.53,28.9-107.25,67.62L29.91,315.54c-37.78,37.78-39.08,99.88-0.87,138.1c39.52,39.52,101.62,38.22,139.4,0.43
	L300.5,322.22c0,0,1.81-1.69,0.02,0.47c-6.49,7.62-11.65,16.03-15.47,24.91c-0.09,0.2-0.19,0.38-0.28,0.58
	c-2.56,5.67-4.29,11.7-5.47,17.26c-0.85,3.86-1.48,7.75-1.86,11.67c-0.6,5.51-0.63,9.17-0.63,9.17c0,10.98,1.84,21.59,5.2,31.54
	c0.05,0.14,2.97,7.73,3.6,9.15c15.05,33.77,48.79,57.58,88.24,57.58c24.08,0,45.75-8.34,62.64-22.09c0.24-0.19,5.77-4.94,7.94-7.11
	L554.08,345.7v40.58c0,53.43,42.99,98.26,97.04,98.26c55.89,0,98.88-44.83,98.88-98.26V109.23C750,53.54,704.16,11,651.34,11z"/>
<g>
	<path class="st1" d="M651.34,11c-49.21,0-68.53,28.9-107.25,67.62l-71.37,71.36L300.5,322.22c0,0,1.81-1.69,0.02,0.47
		c-6.49,7.62-11.65,16.03-15.47,24.91c-0.09,0.2-0.19,0.38-0.28,0.58c-2.56,5.67-4.29,11.7-5.47,17.26
		c-0.85,3.86-1.48,7.75-1.86,11.67c-0.6,5.51-0.63,9.17-0.63,9.17c0,10.98,1.84,21.59,5.2,31.54c0.05,0.14,2.97,7.73,3.6,9.15
		c15.05,33.77,48.79,57.58,88.24,57.58c24.08,0,45.75-8.34,62.64-22.09c0.24-0.19,5.77-4.94,7.94-7.11L554.08,345.7v40.58
		c0,53.43,42.99,98.26,97.04,98.26c55.89,0,98.88-44.83,98.88-98.26V109.23C750,53.54,704.16,11,651.34,11z"/>
</g>
<g>
	<path class="st2" d="M285.04,348.03c5.29-11.56,11.39-19.98,15.47-24.9C294.03,330.75,288.86,339.15,285.04,348.03z"/>
	<path class="st2" d="M283.82,423.18c-0.08-0.2-0.16-0.41-0.24-0.61C283.66,422.78,283.74,422.98,283.82,423.18z"/>
	<path class="st2" d="M285.61,427.4c-0.02-0.05-0.04-0.1-0.07-0.15C285.56,427.3,285.59,427.35,285.61,427.4z"/>
	<path class="st2" d="M437.19,462.33c-0.23,0.19-0.48,0.37-0.71,0.56C436.72,462.7,436.96,462.52,437.19,462.33z"/>
	<path class="st2" d="M277.44,377.55c0.37-3.34,0.95-7.36,1.86-11.67C278.45,369.73,277.82,373.63,277.44,377.55z"/>
	<path class="st2" d="M282.15,418.67c-0.05-0.14-0.09-0.28-0.14-0.42C282.06,418.39,282.1,418.53,282.15,418.67z"/>
	<path class="st2" d="M472.63,386.78v-236.3L305.8,317.32c-1.89,1.89-3.67,3.86-5.38,5.87c-4.08,4.93-10.17,13.34-15.47,24.9
		c-2.49,5.79-4.4,11.76-5.74,17.85c-0.91,4.31-1.49,8.33-1.86,11.67c-1.34,13.68,0.16,27.58,4.57,40.71
		c0.05,0.14,0.09,0.28,0.14,0.42c0.45,1.31,0.93,2.61,1.43,3.9c0.08,0.2,0.16,0.41,0.24,0.61c0.54,1.36,1.12,2.72,1.72,4.06
		c0.02,0.05,0.04,0.1,0.07,0.15c4.61,10.12,11.24,19.44,19.41,27.95c35.59,37.05,93.37,38.19,131.46,7.54
		c0.23-0.19,0.48-0.37,0.71-0.56c0.16-0.13,0.32-0.28,0.48-0.41C459.19,443.82,472.63,416.65,472.63,386.78z"/>
</g>
</svg>
