<?xml version="1.0" encoding="utf-8"?>
<!-- Generator: Adobe Illustrator 26.0.1, SVG Export Plug-In . SVG Version: 6.00 Build 0)  -->
<svg version="1.1" id="Capa_1" xmlns="http://www.w3.org/2000/svg" xmlns:xlink="http://www.w3.org/1999/xlink" x="0px" y="0px"
	 viewBox="0 0 750 511.8" style="enable-background:new 0 0 750 511.8;" xml:space="preserve">
<style type="text/css">
	.st0{fill:#CBCBCB;}
	.st1{fill:#B2B2B2;}
	.st2{fill:#808080;}
</style>
<g>
	<path class="st0" d="M649.43,21.6c-49.19,0-68.5,28.89-107.21,67.6l-71.34,71.34V119.8c0-55.67-45.82-98.2-98.63-98.2
		c-49.19,0-68.5,28.89-107.21,67.6L28.2,326.04c-37.77,37.77-39.07,99.85-0.87,138.06c39.51,39.51,101.59,38.2,139.36,0.43
		L298.7,332.72c0,0,1.81-1.69,0.02,0.47c-6.48,7.62-11.65,16.03-15.46,24.9c-0.09,0.2-0.19,0.38-0.27,0.58
		c-2.56,5.67-4.29,11.7-5.47,17.26c-0.85,3.86-1.48,7.75-1.86,11.67c-0.6,5.51-0.63,9.16-0.63,9.16c0,10.98,1.84,21.59,5.2,31.53
		c0.05,0.14,2.97,7.73,3.6,9.14C298.86,471.2,332.59,495,372.03,495c24.07,0,45.74-8.34,62.62-22.08c0.24-0.19,5.77-4.94,7.94-7.11
		L552.2,356.2v40.57c0,53.41,42.98,98.23,97.01,98.23c55.87,0,98.85-44.82,98.85-98.23V119.8C748.05,64.13,702.23,21.6,649.43,21.6z
		"/>
</g>
<g>
	<path class="st1" d="M649.43,21.6c-49.19,0-68.5,28.89-107.21,67.6l-71.34,71.34L298.7,332.72c0,0,1.81-1.69,0.02,0.47
		c-6.48,7.62-11.65,16.03-15.46,24.9c-0.09,0.2-0.19,0.38-0.27,0.58c-2.56,5.67-4.29,11.7-5.47,17.26
		c-0.85,3.86-1.48,7.75-1.86,11.67c-0.6,5.51-0.63,9.16-0.63,9.16c0,10.98,1.84,21.59,5.2,31.53c0.05,0.14,2.97,7.73,3.6,9.14
		C298.86,471.2,332.59,495,372.03,495c24.07,0,45.74-8.34,62.62-22.08c0.24-0.19,5.77-4.94,7.94-7.11L552.2,356.2v40.57
		c0,53.41,42.98,98.23,97.01,98.23c55.87,0,98.85-44.82,98.85-98.23V119.8C748.05,64.13,702.23,21.6,649.43,21.6z"/>
</g>
<g>
	<path class="st2" d="M283.25,358.52c5.29-11.56,11.38-19.97,15.46-24.9C292.22,341.25,287.06,349.65,283.25,358.52z"/>
	<path class="st2" d="M282.02,433.66c-0.08-0.2-0.16-0.41-0.24-0.61C281.86,433.25,281.94,433.45,282.02,433.66z"/>
	<path class="st2" d="M283.81,437.87c-0.02-0.05-0.04-0.1-0.07-0.15C283.77,437.77,283.79,437.82,283.81,437.87z"/>
	<path class="st2" d="M435.35,472.79c-0.23,0.19-0.48,0.37-0.71,0.56C434.87,473.16,435.11,472.98,435.35,472.79z"/>
	<path class="st2" d="M275.64,388.03c0.37-3.34,0.95-7.36,1.86-11.67C276.66,380.22,276.03,384.12,275.64,388.03z"/>
	<path class="st2" d="M280.35,429.15c-0.05-0.14-0.09-0.28-0.14-0.42C280.26,428.87,280.3,429.01,280.35,429.15z"/>
	<path class="st2" d="M470.77,397.26V161.04L303.99,327.82c-1.89,1.89-3.67,3.86-5.38,5.87c-4.08,4.92-10.17,13.34-15.46,24.9
		c-2.49,5.78-4.4,11.76-5.74,17.84c-0.91,4.31-1.49,8.33-1.86,11.67c-1.34,13.67,0.16,27.57,4.57,40.69
		c0.05,0.14,0.09,0.28,0.14,0.42c0.45,1.31,0.93,2.61,1.43,3.9c0.08,0.2,0.16,0.41,0.24,0.61c0.54,1.36,1.12,2.72,1.72,4.06
		c0.02,0.05,0.04,0.1,0.07,0.15c4.61,10.12,11.23,19.44,19.41,27.94c35.58,37.04,93.34,38.18,131.42,7.54
		c0.23-0.19,0.48-0.37,0.71-0.56c0.16-0.13,0.32-0.28,0.48-0.41C457.34,454.28,470.77,427.12,470.77,397.26z"/>
</g>
</svg>
