<?xml version="1.0" encoding="utf-8"?>
<!-- Generator: Adobe Illustrator 26.0.1, SVG Export Plug-In . SVG Version: 6.00 Build 0)  -->
<svg version="1.1" id="Capa_1" xmlns="http://www.w3.org/2000/svg" xmlns:xlink="http://www.w3.org/1999/xlink" x="0px" y="0px"
	 viewBox="0 0 1500 991.46" style="enable-background:new 0 0 1500 991.46;" xml:space="preserve">
<style type="text/css">
	.st0{fill:#CBCBCB;}
	.st1{fill:#B2B2B2;}
	.st2{fill:#808080;}
</style>
<g>
	<path class="st0" d="M1302.43,22.79c-98.55,0-137.23,57.88-214.77,135.42L944.74,301.13V219.5c0-111.51-91.79-196.71-197.57-196.71
		c-98.55,0-137.23,57.88-214.77,135.42L57.95,632.66c-75.66,75.66-78.27,200.03-1.74,276.56c79.14,79.14,203.5,76.53,279.16,0.87
		l264.45-264.04c0,0,3.62-3.38,0.04,0.95c-12.99,15.27-23.33,32.1-30.98,49.88c-0.18,0.4-0.37,0.77-0.55,1.17
		c-5.12,11.35-8.59,23.44-10.95,34.57c-1.7,7.73-2.96,15.53-3.73,23.37c-1.21,11.04-1.27,18.36-1.27,18.36
		c0,22,3.69,43.25,10.41,63.16c0.1,0.28,5.95,15.48,7.21,18.32c30.14,67.63,97.7,115.31,176.7,115.31
		c48.22,0,91.63-16.7,125.44-44.23c0.47-0.38,11.55-9.89,15.9-14.23l219.59-219.59v81.27c0,107,86.09,196.78,194.32,196.78
		c111.92,0,198.02-89.78,198.02-196.78V219.5C1500,107.99,1408.21,22.79,1302.43,22.79z"/>
</g>
<g>
	<path class="st1" d="M1302.43,22.79c-98.55,0-137.23,57.88-214.77,135.42L944.74,301.13L599.83,646.05c0,0,3.62-3.38,0.04,0.95
		c-12.99,15.27-23.33,32.1-30.98,49.88c-0.18,0.4-0.37,0.77-0.55,1.17c-5.12,11.35-8.59,23.44-10.95,34.57
		c-1.7,7.73-2.96,15.53-3.73,23.37c-1.21,11.04-1.27,18.36-1.27,18.36c0,22,3.69,43.25,10.41,63.16c0.1,0.28,5.95,15.48,7.21,18.32
		c30.14,67.63,97.7,115.31,176.7,115.31c48.22,0,91.63-16.7,125.44-44.23c0.47-0.38,11.55-9.89,15.9-14.23l219.59-219.59v81.27
		c0,107,86.09,196.78,194.32,196.78c111.92,0,198.02-89.78,198.02-196.78V219.5C1500,107.99,1408.21,22.79,1302.43,22.79z"/>
</g>
<g>
	<path class="st2" d="M568.88,697.73c10.6-23.16,22.81-40.01,30.97-49.87C586.87,663.12,576.53,679.96,568.88,697.73z"/>
	<path class="st2" d="M566.42,848.23c-0.16-0.4-0.31-0.81-0.47-1.22C566.11,847.42,566.26,847.83,566.42,848.23z"/>
	<path class="st2" d="M570.01,856.67c-0.05-0.1-0.09-0.2-0.14-0.31C569.92,856.47,569.96,856.57,570.01,856.67z"/>
	<path class="st2" d="M873.58,926.63c-0.46,0.39-0.95,0.74-1.42,1.13C872.63,927.37,873.11,927.01,873.58,926.63z"/>
	<path class="st2" d="M553.65,756.84c0.73-6.69,1.89-14.74,3.73-23.37C555.68,741.19,554.42,748.99,553.65,756.84z"/>
	<path class="st2" d="M563.08,839.2c-0.1-0.28-0.19-0.56-0.28-0.84C562.89,838.64,562.98,838.92,563.08,839.2z"/>
	<path class="st2" d="M944.54,775.33v-473.2l-334.1,334.1c-3.79,3.79-7.35,7.74-10.77,11.76c-8.17,9.86-20.37,26.71-30.97,49.87
		c-4.98,11.59-8.82,23.55-11.5,35.74c-1.83,8.64-2.99,16.69-3.73,23.37c-2.68,27.39,0.31,55.22,9.15,81.52
		c0.09,0.28,0.18,0.56,0.28,0.84c0.89,2.62,1.86,5.23,2.87,7.82c0.16,0.41,0.31,0.81,0.47,1.22c1.09,2.73,2.23,5.44,3.45,8.13
		c0.05,0.1,0.09,0.2,0.14,0.31c9.23,20.27,22.5,38.93,38.88,55.98c71.28,74.2,186.98,76.48,263.26,15.1
		c0.47-0.38,0.96-0.74,1.42-1.13c0.32-0.27,0.63-0.55,0.96-0.82C917.62,889.56,944.54,835.14,944.54,775.33z"/>
</g>
</svg>
