<?xml version="1.0" encoding="utf-8"?>
<!-- Generator: Adobe Illustrator 26.0.1, SVG Export Plug-In . SVG Version: 6.00 Build 0)  -->
<svg version="1.1" id="Capa_1" xmlns="http://www.w3.org/2000/svg" xmlns:xlink="http://www.w3.org/1999/xlink" x="0px" y="0px"
	 viewBox="0 0 750 502" style="enable-background:new 0 0 750 502;" xml:space="preserve">
<style type="text/css">
	.st0{fill:#F43290;}
	.st1{fill:#00ADFF;}
	.st2{fill:#4A078D;}
</style>
<g>
	<path class="st0" d="M651.21,20.2c-49.27,0-68.62,28.94-107.39,67.71l-71.46,71.46v-40.82c0-55.76-45.9-98.35-98.79-98.35
		c-49.27,0-68.62,28.94-107.39,67.71L28.98,325.13c-37.83,37.83-39.14,100.01-0.87,138.28c39.57,39.57,101.75,38.27,139.58,0.43
		l132.23-132.02c0,0,1.81-1.69,0.02,0.47c-6.5,7.63-11.67,16.05-15.49,24.94c-0.09,0.2-0.19,0.38-0.28,0.58
		c-2.56,5.68-4.3,11.72-5.48,17.28c-0.85,3.86-1.48,7.76-1.86,11.69c-0.61,5.52-0.63,9.18-0.63,9.18c0,11,1.85,21.62,5.21,31.58
		c0.05,0.14,2.98,7.74,3.61,9.16c15.07,33.82,48.85,57.66,88.35,57.66c24.11,0,45.81-8.35,62.72-22.12
		c0.24-0.19,5.78-4.94,7.95-7.12l109.8-109.8v40.64c0,53.5,43.05,98.39,97.16,98.39c55.96,0,99.01-44.89,99.01-98.39V118.55
		C750,62.8,704.1,20.2,651.21,20.2z"/>
	<g>
		<path class="st1" d="M651.21,20.2c-49.27,0-68.62,28.94-107.39,67.71l-71.46,71.46L299.92,331.83c0,0,1.81-1.69,0.02,0.47
			c-6.5,7.63-11.67,16.05-15.49,24.94c-0.09,0.2-0.19,0.38-0.28,0.58c-2.56,5.68-4.3,11.72-5.48,17.28
			c-0.85,3.86-1.48,7.76-1.86,11.69c-0.61,5.52-0.63,9.18-0.63,9.18c0,11,1.85,21.62,5.21,31.58c0.05,0.14,2.98,7.74,3.61,9.16
			c15.07,33.82,48.85,57.66,88.35,57.66c24.11,0,45.81-8.35,62.72-22.12c0.24-0.19,5.78-4.94,7.95-7.12l109.8-109.8v40.64
			c0,53.5,43.05,98.39,97.16,98.39c55.96,0,99.01-44.89,99.01-98.39V118.55C750,62.8,704.1,20.2,651.21,20.2z"/>
	</g>
	<g>
		<path class="st2" d="M284.44,357.67c5.3-11.58,11.4-20,15.49-24.94C293.43,340.36,288.26,348.78,284.44,357.67z"/>
		<path class="st2" d="M283.21,432.92c-0.08-0.2-0.16-0.41-0.24-0.61C283.05,432.51,283.13,432.72,283.21,432.92z"/>
		<path class="st2" d="M285.01,437.14c-0.02-0.05-0.05-0.1-0.07-0.15C284.96,437.04,284.98,437.09,285.01,437.14z"/>
		<path class="st2" d="M436.79,472.12c-0.23,0.19-0.48,0.37-0.71,0.56C436.31,472.49,436.55,472.31,436.79,472.12z"/>
		<path class="st2" d="M276.83,387.22c0.37-3.34,0.95-7.37,1.86-11.69C277.84,379.4,277.21,383.3,276.83,387.22z"/>
		<path class="st2" d="M281.54,428.4c-0.05-0.14-0.09-0.28-0.14-0.42C281.45,428.12,281.49,428.26,281.54,428.4z"/>
		<path class="st2" d="M472.27,396.47v-236.6L305.22,326.92c-1.9,1.9-3.67,3.87-5.39,5.88c-4.08,4.93-10.19,13.36-15.49,24.94
			c-2.49,5.79-4.41,11.78-5.75,17.87c-0.92,4.32-1.5,8.34-1.86,11.69c-1.34,13.7,0.16,27.61,4.57,40.76
			c0.05,0.14,0.09,0.28,0.14,0.42c0.45,1.31,0.93,2.61,1.43,3.91c0.08,0.2,0.16,0.41,0.24,0.61c0.54,1.37,1.12,2.72,1.73,4.07
			c0.02,0.05,0.04,0.1,0.07,0.15c4.61,10.14,11.25,19.47,19.44,27.99c35.64,37.1,93.49,38.24,131.63,7.55
			c0.23-0.19,0.48-0.37,0.71-0.56c0.16-0.13,0.32-0.28,0.48-0.41C458.81,453.58,472.27,426.37,472.27,396.47z"/>
	</g>
</g>
</svg>
