<?xml version="1.0" encoding="utf-8"?>
<!-- Generator: Adobe Illustrator 26.0.1, SVG Export Plug-In . SVG Version: 6.00 Build 0)  -->
<svg version="1.1" id="Capa_1" xmlns="http://www.w3.org/2000/svg" xmlns:xlink="http://www.w3.org/1999/xlink" x="0px" y="0px"
	 viewBox="0 0 1500 1500" style="enable-background:new 0 0 1500 1500;" xml:space="preserve">
<style type="text/css">
	.st0{fill:none;}
	.st1{fill:#FFFFFF;}
	.st2{fill:#F43290;}
	.st3{fill:#00ADFF;}
	.st4{fill:#4B2E7E;}
</style>
<rect class="st0" width="1500" height="1500"/>
<g>
	<path class="st1" d="M484.28,633.61v55.34c0,2.4-1.89,4.28-4.28,4.28h-14.9h-10.28c-2.4,0-4.28-1.88-4.28-4.28v-3.43
		c-6.17,6.68-18.16,9.77-27.75,9.77c-5.31,0-27.41-2.74-27.41-25.7c0-19.7,14.22-29.12,27.41-31.18c8.57-1.2,20.73-1.71,27.75-2.06
		c-0.17-5.14-2.06-11.48-13.19-11.48c-10.28,0-20.04,3.77-25.01,5.83c-1.89,0.69-3.6,0-4.28-1.54c-0.86-1.71-5.82-14.05-6.34-15.42
		c-0.51-1.37-0.51-3.77,1.54-4.63c5.83-3.08,20.22-9.25,38.03-9.25c20.22,0,40.43,8.57,42.83,29.64
		C484.28,630.87,484.28,632.24,484.28,633.61z M450.53,663.42v-10.45c0,0-13.02-0.69-18.16,3.43c-6.51,4.97-4.45,15.93,6.51,15.93
		C449.68,672.33,450.53,663.42,450.53,663.42z"/>
	<path class="st1" d="M612.78,693.06c-3.09,1.03-8.05,2.23-18.33,2.23c-15.25,0-20.04-8.74-21.24-11.65
		c-7.88,7.2-18.33,11.65-29.81,11.65c-25.35,0-43.69-21.41-43.69-47.8c0-26.38,18.33-47.63,43.69-47.63
		c9.42,0,17.99,2.91,25.36,7.88v-30.15c0-2.4,1.88-4.28,4.28-4.28h25.18c2.4,0,4.28,1.89,4.28,4.28v81.55
		c0,8.05,5.14,6.68,8.05,6.68c3.42-0.17,3.94,1.37,4.28,3.77c0.17,2.06,1.2,13.53,1.54,16.96
		C616.89,690.32,615.52,692.2,612.78,693.06z M568.75,647.66c0-11.48-8.05-20.9-17.99-20.9c-9.77,0-17.3,9.42-17.3,20.9
		c0,11.48,7.54,20.73,17.3,20.73C560.69,668.39,568.75,659.14,568.75,647.66z"/>
	<path class="st1" d="M777.25,632.76v56.19c0,2.4-1.89,4.28-4.11,4.28h-25.18c-2.4,0-4.28-1.88-4.28-4.28v-50.37
		c0-9.42-6.17-11.99-10.62-11.99c-4.63,0-10.62,2.4-10.62,11.82v50.54c0,2.4-1.89,4.28-4.28,4.28h-25.18c-2.4,0-4.28-1.88-4.28-4.28
		v-50.37c0-9.42-6.17-11.99-10.62-11.99c-4.63,0-10.62,2.4-10.62,11.99c0,4.63,0,50.37,0,50.37c0,2.4-1.89,4.28-4.28,4.28h-25.18
		c-2.4,0-4.28-1.88-4.28-4.28v-82.4c0-2.4,1.88-4.28,4.28-4.28h25.18c2.4,0,4.28,1.88,4.28,4.28v4.28
		c3.77-5.48,14.22-10.96,24.5-10.96c12.68,0,20.73,3.6,25.36,10.62c7.54-6.17,16.1-10.62,27.92-10.62
		C768,599.86,777.25,611.68,777.25,632.76z"/>
	<path class="st1" d="M881.58,633.61v55.34c0,2.4-1.89,4.28-4.28,4.28h-14.91h-10.28c-2.4,0-4.28-1.88-4.28-4.28v-3.43
		c-6.17,6.68-18.16,9.77-27.75,9.77c-5.31,0-27.41-2.74-27.41-25.7c0-19.7,14.22-29.12,27.41-31.18c8.57-1.2,20.73-1.71,27.75-2.06
		c-0.17-5.14-2.05-11.48-13.19-11.48c-10.28,0-20.04,3.77-25.01,5.83c-1.89,0.69-3.6,0-4.28-1.54c-0.86-1.71-5.82-14.05-6.34-15.42
		c-0.51-1.37-0.51-3.77,1.54-4.63c5.83-3.08,20.21-9.25,38.03-9.25c20.22,0,40.43,8.57,42.83,29.64
		C881.58,630.87,881.58,632.24,881.58,633.61z M847.83,663.42v-10.45c0,0-13.02-0.69-18.16,3.43c-6.51,4.97-4.45,15.93,6.51,15.93
		C846.98,672.33,847.83,663.42,847.83,663.42z"/>
	<path class="st1" d="M975.64,608.09c-0.34,3.08-1.89,20.22-2.23,22.96c-0.51,3.94-2.91,5.82-6.34,4.8
		c-3.6-1.2-9.59-2.91-16.27-2.74c-6.34,0.17-16.45,2.91-16.45,17.47c0,4.63,0,38.55,0,38.55l-0.17,0.17v-0.17
		c0,2.23-1.88,4.11-4.11,4.11h-25.35c-2.23,0-4.28-1.88-4.28-4.11v-82.58c0-2.4,2.06-4.28,4.28-4.28h25.35
		c2.23,0,4.11,1.88,4.11,4.28v4.28c2.91-4.11,14.39-10.96,26.21-10.96c6.68,0,11.31,1.2,13.54,2.06
		C975.98,602.95,975.81,605.69,975.64,608.09z"/>
	<path class="st1" d="M1078.77,693.23c-4.45,0-25.18,0-25.18,0c-3.08,0-4.97-1.37-6.51-4.28c-0.86-1.37-8.05-15.08-14.22-26.55
		h-7.88v26.55c0,2.4-1.89,4.28-4.28,4.28h-25.19c-2.23,0-4.28-1.88-4.28-4.28V577.59c0-2.23,1.88-4.28,4.28-4.28h25.19
		c2.4,0,4.28,2.06,4.28,4.28v55.34h7.71c5.48-11.31,11.99-25.01,12.68-26.38c1.71-3.08,3.43-4.28,6.51-4.28c0,0,20.9,0,25.36,0
		c4.97,0,5.99,2.06,4.11,5.31c-1.37,2.74-16.79,34.26-20.05,40.09c3.43,5.82,20.39,37.52,21.76,40.26
		C1084.77,691.35,1083.74,693.23,1078.77,693.23z"/>
	<path class="st1" d="M1121.1,658.11c3.42,10.28,13.36,13.19,19.87,13.36c10.45,0.34,16.62-1.71,22.78-4.45
		c2.23-0.86,4.63-0.86,6,1.71c0.68,1.71,3.94,10.62,4.8,12.68c1.03,2.74-0.17,4.63-1.71,5.65c-9.94,6.17-23.81,8.22-35.64,8.22
		c-32.04,0-49.85-21.41-49.85-47.8c0-26.38,17.65-47.63,48.48-47.63c26.9,0,42.83,21.24,42.83,47.63c0,7.71-0.86,10.62-10.11,10.62
		C1164.78,658.11,1151.59,658.11,1121.1,658.11z M1120.41,640.98h27.58c0-10.45-4.11-17.47-12.16-17.47
		C1126.41,623.5,1120.41,630.36,1120.41,640.98z"/>
	<path class="st1" d="M1259.8,693.06c-4.63,1.03-13.02,2.23-25.01,2.23c-16.1,0-28.78-7.71-28.78-27.07c0,0,0,0,0-36.49h-13.88
		c-2.4,0-4.28-1.89-4.28-4.28v-21.07c0-2.23,1.88-4.11,4.28-4.11h13.88v-18.84c0-2.23,2.06-4.11,4.28-4.11h25.35
		c2.23,0,4.11,1.89,4.11,4.11c0,0,0,8.05,0,18.84h15.08c2.4,0,4.28,1.88,4.28,4.11v21.07c0,2.4-1.89,4.28-4.28,4.28h-15.08
		c0,10.79,0,19.53,0,21.59c0,13.19,2.91,14.39,17.82,12.51c3.26-0.51,3.77,1.37,4.11,3.77c0.34,1.88,1.37,12.85,1.71,16.96
		C1263.74,690.66,1262.54,692.37,1259.8,693.06z"/>
	<path class="st1" d="M1308.46,668.05v20.9c0,2.4-1.88,4.28-4.28,4.28h-21.07c-2.23,0-4.11-1.88-4.11-4.28v-20.9
		c0-2.4,1.89-4.28,4.11-4.28h21.07C1306.57,663.76,1308.46,665.65,1308.46,668.05z"/>
	<path class="st1" d="M1386.44,693.06c-4.63,1.03-13.02,2.23-25.01,2.23c-16.1,0-28.78-7.71-28.78-27.07c0,0,0,0,0-36.49h-13.88
		c-2.4,0-4.28-1.89-4.28-4.28v-21.07c0-2.23,1.88-4.11,4.28-4.11h13.88v-18.84c0-2.23,2.06-4.11,4.28-4.11h25.35
		c2.23,0,4.11,1.89,4.11,4.11c0,0,0,8.05,0,18.84h15.08c2.4,0,4.28,1.88,4.28,4.11v21.07c0,2.4-1.89,4.28-4.28,4.28h-15.08
		c0,10.79,0,19.53,0,21.59c0,13.19,2.91,14.39,17.82,12.51c3.26-0.51,3.77,1.37,4.11,3.77c0.34,1.88,1.37,12.85,1.71,16.96
		C1390.38,690.66,1389.18,692.37,1386.44,693.06z"/>
	<path class="st1" d="M1497.63,608.26c-1.54,4.11-28.1,77.78-29.47,80.69c-1.37,3.08-2.4,4.28-5.48,4.28h-26.72
		c-3.08,0-4.11-1.2-5.48-4.28c-1.37-2.91-27.92-76.58-29.47-80.69c-1.37-3.94,0.17-6,3.08-6c2.23,0,25.19,0,25.19,0
		c5.14,0,6,1.54,7.71,6c0.86,2.4,12.34,48.83,12.34,48.83s11.48-46.43,12.33-48.83c1.71-4.45,2.57-6,7.71-6c0,0,22.96,0,25.18,0
		C1497.45,602.26,1499,604.32,1497.63,608.26z"/>
</g>
<path class="st2" d="M259.67,542.52c-18.99,0-26.44,11.15-41.38,26.09l-27.53,27.53v-15.73c0-21.48-17.68-37.9-38.06-37.9
	c-18.99,0-26.44,11.15-41.38,26.09l-91.4,91.4c-14.58,14.58-15.08,38.54-0.33,53.28c15.25,15.25,39.21,14.74,53.78,0.17l50.95-50.87
	c0,0,0.7-0.65,0.01,0.18c-2.5,2.94-4.5,6.19-5.97,9.61c-0.03,0.08-0.07,0.15-0.11,0.23c-0.99,2.19-1.65,4.52-2.11,6.66
	c-0.33,1.49-0.57,2.99-0.72,4.5c-0.23,2.13-0.24,3.54-0.24,3.54c0,4.24,0.71,8.33,2.01,12.17c0.02,0.05,1.15,2.98,1.39,3.53
	c5.81,13.03,18.82,22.22,34.04,22.22c9.29,0,17.65-3.22,24.17-8.52c0.09-0.07,2.23-1.9,3.06-2.74l42.31-42.31v15.66
	c0,20.61,16.59,37.91,37.44,37.91c21.56,0,38.15-17.3,38.15-37.91V580.41C297.74,558.93,280.05,542.52,259.67,542.52z"/>
<g>
	<path class="st3" d="M259.76,542.52c-18.99,0-26.44,11.15-41.38,26.09l-27.53,27.53l-66.45,66.45c0,0,0.7-0.65,0.01,0.18
		c-2.5,2.94-4.5,6.19-5.97,9.61c-0.03,0.08-0.07,0.15-0.11,0.23c-0.99,2.19-1.65,4.52-2.11,6.66c-0.33,1.49-0.57,2.99-0.72,4.5
		c-0.23,2.13-0.24,3.54-0.24,3.54c0,4.24,0.71,8.33,2.01,12.17c0.02,0.05,1.15,2.98,1.39,3.53c5.81,13.03,18.82,22.22,34.04,22.22
		c9.29,0,17.65-3.22,24.17-8.52c0.09-0.07,2.23-1.9,3.06-2.74l42.31-42.31v15.66c0,20.61,16.59,37.91,37.44,37.91
		c21.56,0,38.15-17.3,38.15-37.91V580.41C297.83,558.93,280.14,542.52,259.76,542.52z"/>
</g>
<g>
	<path class="st4" d="M118,672.5c2.08-4.52,4.47-7.8,6.07-9.73C121.52,665.75,119.5,669.03,118,672.5z"/>
	<path class="st4" d="M117.52,701.86c-0.03-0.08-0.06-0.16-0.09-0.24C117.45,701.7,117.48,701.78,117.52,701.86z"/>
	<path class="st4" d="M118.22,703.5c-0.01-0.02-0.02-0.04-0.03-0.06C118.2,703.46,118.21,703.48,118.22,703.5z"/>
	<path class="st4" d="M177.71,717.15c-0.09,0.08-0.19,0.15-0.28,0.22C177.52,717.29,177.61,717.22,177.71,717.15z"/>
	<path class="st4" d="M115.01,684.03c0.14-1.3,0.37-2.87,0.73-4.56C115.41,680.98,115.16,682.5,115.01,684.03z"/>
	<path class="st4" d="M116.86,700.09c-0.02-0.05-0.04-0.11-0.06-0.16C116.82,699.99,116.84,700.04,116.86,700.09z"/>
	<path class="st1" d="M191.61,687.64v-92.3l-65.47,65.17c-0.74,0.74-1.44,1.51-2.11,2.29c-1.6,1.92-3.99,5.21-6.07,9.73
		c-0.98,2.26-1.73,4.59-2.25,6.97c-0.36,1.68-0.59,3.25-0.73,4.56c-0.53,5.34,0.06,10.77,1.79,15.9c0.02,0.05,0.04,0.11,0.05,0.16
		c0.18,0.51,0.36,1.02,0.56,1.52c0.03,0.08,0.06,0.16,0.09,0.24c0.21,0.53,0.44,1.06,0.68,1.59c0.01,0.02,0.02,0.04,0.03,0.06
		c1.81,3.95,4.41,7.59,7.62,10.92c13.97,14.47,36.64,14.92,51.59,2.95c0.09-0.07,0.19-0.14,0.28-0.22c0.06-0.05,0.12-0.11,0.19-0.16
		C186.34,709.92,191.61,699.3,191.61,687.64z"/>
</g>
</svg>
