<?xml version="1.0" encoding="utf-8"?>
<!-- Generator: Adobe Illustrator 26.0.1, SVG Export Plug-In . SVG Version: 6.00 Build 0)  -->
<svg version="1.1" id="Capa_1" xmlns="http://www.w3.org/2000/svg" xmlns:xlink="http://www.w3.org/1999/xlink" x="0px" y="0px"
	 viewBox="0 0 750 107" style="enable-background:new 0 0 750 107;" xml:space="preserve">
<style type="text/css">
	.st0{fill:#4A078D;}
	.st1{fill:#F43290;}
	.st2{fill:#00ADFF;}
</style>
<g>
	<path class="st0" d="M239.03,51.91V79.8c0,1.21-0.95,2.16-2.16,2.16h-7.51h-5.18c-1.21,0-2.16-0.95-2.16-2.16v-1.73
		c-3.11,3.37-9.15,4.92-13.99,4.92c-2.68,0-13.81-1.38-13.81-12.95c0-9.93,7.17-14.68,13.81-15.71c4.32-0.6,10.45-0.86,13.99-1.04
		c-0.09-2.59-1.04-5.78-6.65-5.78c-5.18,0-10.1,1.9-12.61,2.94c-0.95,0.35-1.81,0-2.16-0.78c-0.43-0.86-2.94-7.08-3.19-7.77
		c-0.26-0.69-0.26-1.9,0.78-2.33c2.94-1.55,10.19-4.66,19.17-4.66c10.19,0,20.38,4.32,21.58,14.94
		C239.03,50.53,239.03,51.22,239.03,51.91z M222.03,66.93v-5.27c0,0-6.56-0.35-9.15,1.73c-3.28,2.5-2.24,8.03,3.28,8.03
		C221.59,71.42,222.03,66.93,222.03,66.93z"/>
	<path class="st0" d="M303.79,81.87c-1.56,0.52-4.06,1.12-9.24,1.12c-7.68,0-10.1-4.4-10.7-5.87c-3.97,3.63-9.24,5.87-15.02,5.87
		c-12.78,0-22.02-10.79-22.02-24.09c0-13.3,9.24-24,22.02-24c4.75,0,9.07,1.47,12.78,3.97v-15.2c0-1.21,0.95-2.16,2.16-2.16h12.69
		c1.21,0,2.16,0.95,2.16,2.16v41.1c0,4.06,2.59,3.37,4.06,3.37c1.73-0.09,1.99,0.69,2.16,1.9c0.09,1.04,0.6,6.82,0.78,8.55
		C305.86,80.49,305.17,81.44,303.79,81.87z M281.6,58.99c0-5.78-4.06-10.53-9.07-10.53c-4.92,0-8.72,4.75-8.72,10.53
		s3.8,10.45,8.72,10.45C277.54,69.44,281.6,64.77,281.6,58.99z"/>
	<path class="st0" d="M386.67,51.48V79.8c0,1.21-0.95,2.16-2.07,2.16h-12.69c-1.21,0-2.16-0.95-2.16-2.16V54.41
		c0-4.75-3.11-6.04-5.35-6.04c-2.33,0-5.35,1.21-5.35,5.96V79.8c0,1.21-0.95,2.16-2.16,2.16H344.2c-1.21,0-2.16-0.95-2.16-2.16
		V54.41c0-4.75-3.11-6.04-5.35-6.04c-2.33,0-5.35,1.21-5.35,6.04c0,2.33,0,25.38,0,25.38c0,1.21-0.95,2.16-2.16,2.16h-12.69
		c-1.21,0-2.16-0.95-2.16-2.16V38.27c0-1.21,0.95-2.16,2.16-2.16h12.69c1.21,0,2.16,0.95,2.16,2.16v2.16
		c1.9-2.76,7.17-5.53,12.35-5.53c6.39,0,10.45,1.81,12.78,5.35c3.8-3.11,8.12-5.35,14.07-5.35
		C382.01,34.9,386.67,40.86,386.67,51.48z"/>
	<path class="st0" d="M439.26,51.91V79.8c0,1.21-0.95,2.16-2.16,2.16h-7.51h-5.18c-1.21,0-2.16-0.95-2.16-2.16v-1.73
		c-3.11,3.37-9.15,4.92-13.99,4.92c-2.68,0-13.81-1.38-13.81-12.95c0-9.93,7.17-14.68,13.81-15.71c4.32-0.6,10.45-0.86,13.99-1.04
		c-0.09-2.59-1.04-5.78-6.65-5.78c-5.18,0-10.1,1.9-12.61,2.94c-0.95,0.35-1.81,0-2.16-0.78c-0.43-0.86-2.94-7.08-3.19-7.77
		c-0.26-0.69-0.26-1.9,0.78-2.33c2.94-1.55,10.19-4.66,19.17-4.66c10.19,0,20.38,4.32,21.59,14.94
		C439.26,50.53,439.26,51.22,439.26,51.91z M422.25,66.93v-5.27c0,0-6.56-0.35-9.15,1.73c-3.28,2.5-2.24,8.03,3.28,8.03
		C421.82,71.42,422.25,66.93,422.25,66.93z"/>
	<path class="st0" d="M486.66,39.04c-0.17,1.55-0.95,10.19-1.12,11.57c-0.26,1.99-1.47,2.94-3.19,2.42c-1.81-0.6-4.83-1.47-8.2-1.38
		c-3.19,0.09-8.29,1.47-8.29,8.81c0,2.33,0,19.43,0,19.43l-0.09,0.09v-0.09c0,1.12-0.95,2.07-2.07,2.07h-12.78
		c-1.12,0-2.16-0.95-2.16-2.07V38.27c0-1.21,1.04-2.16,2.16-2.16h12.78c1.12,0,2.07,0.95,2.07,2.16v2.16
		c1.47-2.07,7.25-5.53,13.21-5.53c3.37,0,5.7,0.6,6.82,1.04C486.83,36.45,486.74,37.84,486.66,39.04z"/>
	<path class="st0" d="M538.63,81.95c-2.24,0-12.69,0-12.69,0c-1.55,0-2.5-0.69-3.28-2.16c-0.43-0.69-4.06-7.6-7.17-13.38h-3.97V79.8
		c0,1.21-0.95,2.16-2.16,2.16h-12.69c-1.12,0-2.16-0.95-2.16-2.16V23.68c0-1.12,0.95-2.16,2.16-2.16h12.69
		c1.21,0,2.16,1.04,2.16,2.16v27.89h3.88c2.76-5.7,6.04-12.61,6.39-13.3c0.86-1.55,1.73-2.16,3.28-2.16c0,0,10.53,0,12.78,0
		c2.5,0,3.02,1.04,2.07,2.68c-0.69,1.38-8.46,17.27-10.1,20.2c1.73,2.94,10.28,18.91,10.96,20.29
		C541.65,81,541.14,81.95,538.63,81.95z"/>
	<path class="st0" d="M559.96,64.25c1.73,5.18,6.73,6.65,10.02,6.73c5.27,0.17,8.37-0.86,11.48-2.24c1.12-0.43,2.33-0.43,3.02,0.86
		c0.34,0.86,1.99,5.35,2.42,6.39c0.52,1.38-0.09,2.33-0.86,2.85c-5.01,3.11-12,4.14-17.96,4.14c-16.14,0-25.12-10.79-25.12-24.09
		c0-13.3,8.89-24,24.43-24c13.56,0,21.58,10.71,21.58,24c0,3.89-0.43,5.35-5.09,5.35C581.98,64.25,575.33,64.25,559.96,64.25z
		 M559.62,55.62h13.9c0-5.27-2.07-8.81-6.13-8.81C562.64,46.81,559.62,50.27,559.62,55.62z"/>
	<path class="st0" d="M629.86,81.87c-2.33,0.52-6.56,1.12-12.61,1.12c-8.12,0-14.5-3.89-14.5-13.64c0,0,0,0,0-18.39h-6.99
		c-1.21,0-2.16-0.95-2.16-2.16V38.18c0-1.12,0.95-2.07,2.16-2.07h6.99v-9.5c0-1.12,1.04-2.07,2.16-2.07h12.78
		c1.12,0,2.07,0.95,2.07,2.07c0,0,0,4.06,0,9.5h7.6c1.21,0,2.16,0.95,2.16,2.07V48.8c0,1.21-0.95,2.16-2.16,2.16h-7.6
		c0,5.44,0,9.84,0,10.88c0,6.65,1.47,7.25,8.98,6.3c1.64-0.26,1.9,0.69,2.07,1.9c0.17,0.95,0.69,6.48,0.86,8.55
		C631.85,80.66,631.24,81.52,629.86,81.87z"/>
	<path class="st0" d="M654.38,69.26V79.8c0,1.21-0.95,2.16-2.16,2.16H641.6c-1.12,0-2.07-0.95-2.07-2.16V69.26
		c0-1.21,0.95-2.16,2.07-2.16h10.62C653.43,67.1,654.38,68.05,654.38,69.26z"/>
	<path class="st0" d="M693.68,81.87c-2.33,0.52-6.56,1.12-12.6,1.12c-8.12,0-14.5-3.89-14.5-13.64c0,0,0,0,0-18.39h-6.99
		c-1.21,0-2.16-0.95-2.16-2.16V38.18c0-1.12,0.95-2.07,2.16-2.07h6.99v-9.5c0-1.12,1.04-2.07,2.16-2.07h12.78
		c1.12,0,2.07,0.95,2.07,2.07c0,0,0,4.06,0,9.5h7.6c1.21,0,2.16,0.95,2.16,2.07V48.8c0,1.21-0.95,2.16-2.16,2.16h-7.6
		c0,5.44,0,9.84,0,10.88c0,6.65,1.47,7.25,8.98,6.3c1.64-0.26,1.9,0.69,2.07,1.9c0.17,0.95,0.69,6.48,0.86,8.55
		C695.67,80.66,695.06,81.52,693.68,81.87z"/>
	<path class="st0" d="M749.72,39.13c-0.78,2.07-14.16,39.2-14.85,40.66c-0.69,1.55-1.21,2.16-2.76,2.16h-13.47
		c-1.55,0-2.07-0.6-2.76-2.16c-0.69-1.47-14.07-38.59-14.85-40.66c-0.69-1.99,0.09-3.02,1.55-3.02c1.12,0,12.69,0,12.69,0
		c2.59,0,3.02,0.78,3.88,3.02c0.43,1.21,6.22,24.61,6.22,24.61s5.78-23.4,6.22-24.61c0.86-2.24,1.3-3.02,3.89-3.02
		c0,0,11.57,0,12.69,0C749.63,36.11,750.41,37.14,749.72,39.13z"/>
</g>
<path class="st1" d="M125.84,6c-9.57,0-13.32,5.62-20.85,13.15L91.11,33.02V25.1C91.11,14.27,82.2,6,71.93,6
	c-9.57,0-13.32,5.62-20.85,13.15L5.01,65.21c-7.35,7.35-7.6,19.42-0.17,26.85c7.68,7.68,19.76,7.43,27.1,0.08l25.68-25.64
	c0,0,0.35-0.33,0,0.09c-1.26,1.48-2.27,3.12-3.01,4.84c-0.02,0.04-0.04,0.07-0.05,0.11c-0.5,1.1-0.83,2.28-1.06,3.36
	c-0.17,0.75-0.29,1.51-0.36,2.27c-0.12,1.07-0.12,1.78-0.12,1.78c0,2.14,0.36,4.2,1.01,6.13c0.01,0.03,0.58,1.5,0.7,1.78
	c2.93,6.57,9.49,11.2,17.16,11.2c4.68,0,8.9-1.62,12.18-4.29c0.05-0.04,1.12-0.96,1.54-1.38l21.32-21.32v7.89
	c0,10.39,8.36,19.11,18.87,19.11c10.87,0,19.23-8.72,19.23-19.11V25.1C145.02,14.27,136.11,6,125.84,6z"/>
<g>
	<path class="st2" d="M125.84,6c-9.57,0-13.32,5.62-20.85,13.15L91.11,33.02L57.62,66.51c0,0,0.35-0.33,0,0.09
		c-1.26,1.48-2.27,3.12-3.01,4.84c-0.02,0.04-0.04,0.07-0.05,0.11c-0.5,1.1-0.83,2.28-1.06,3.36c-0.17,0.75-0.29,1.51-0.36,2.27
		c-0.12,1.07-0.12,1.78-0.12,1.78c0,2.14,0.36,4.2,1.01,6.13c0.01,0.03,0.58,1.5,0.7,1.78c2.93,6.57,9.49,11.2,17.16,11.2
		c4.68,0,8.9-1.62,12.18-4.29c0.05-0.04,1.12-0.96,1.54-1.38l21.32-21.32v7.89c0,10.39,8.36,19.11,18.87,19.11
		c10.87,0,19.23-8.72,19.23-19.11V25.1C145.02,14.27,136.11,6,125.84,6z"/>
</g>
<g>
	<path class="st0" d="M54.62,71.53c1.03-2.25,2.21-3.88,3.01-4.84C56.37,68.17,55.36,69.8,54.62,71.53z"/>
	<path class="st0" d="M54.38,86.14c-0.02-0.04-0.03-0.08-0.05-0.12C54.35,86.06,54.37,86.1,54.38,86.14z"/>
	<path class="st0" d="M54.73,86.96c0-0.01-0.01-0.02-0.01-0.03C54.72,86.94,54.72,86.95,54.73,86.96z"/>
	<path class="st0" d="M84.2,93.75c-0.05,0.04-0.09,0.07-0.14,0.11C84.11,93.83,84.16,93.79,84.2,93.75z"/>
	<path class="st0" d="M53.14,77.27c0.07-0.65,0.18-1.43,0.36-2.27C53.34,75.75,53.22,76.51,53.14,77.27z"/>
	<path class="st0" d="M54.06,85.26c-0.01-0.03-0.02-0.05-0.03-0.08C54.04,85.21,54.05,85.24,54.06,85.26z"/>
	<path class="st0" d="M91.09,79.06V33.12L58.65,65.56c-0.37,0.37-0.71,0.75-1.05,1.14c-0.79,0.96-1.98,2.59-3.01,4.84
		c-0.48,1.12-0.86,2.29-1.12,3.47c-0.18,0.84-0.29,1.62-0.36,2.27c-0.26,2.66,0.03,5.36,0.89,7.91c0.01,0.03,0.02,0.05,0.03,0.08
		c0.09,0.25,0.18,0.51,0.28,0.76c0.02,0.04,0.03,0.08,0.05,0.12c0.11,0.27,0.22,0.53,0.34,0.79c0,0.01,0.01,0.02,0.01,0.03
		c0.9,1.97,2.18,3.78,3.77,5.44c6.92,7.2,18.15,7.43,25.56,1.47c0.05-0.04,0.09-0.07,0.14-0.11c0.03-0.03,0.06-0.05,0.09-0.08
		C88.48,90.15,91.09,84.87,91.09,79.06z"/>
</g>
</svg>
