<?xml version="1.0" encoding="utf-8"?>
<!-- Generator: Adobe Illustrator 26.0.1, SVG Export Plug-In . SVG Version: 6.00 Build 0)  -->
<svg version="1.1" id="Capa_1" xmlns="http://www.w3.org/2000/svg" xmlns:xlink="http://www.w3.org/1999/xlink" x="0px" y="0px"
	 viewBox="0 0 750 750" style="enable-background:new 0 0 750 750;" xml:space="preserve">
<style type="text/css">
	.st0{fill:none;}
	.st1{fill:#FFFFFF;}
	.st2{fill:#F43290;}
	.st3{fill:#00ADFF;}
	.st4{fill:#4B2E7E;}
</style>
<rect x="0.42" y="0.42" class="st0" width="749.17" height="749.17"/>
<g>
	<path class="st1" d="M242.29,316.87v27.64c0,1.2-0.94,2.14-2.14,2.14h-7.44h-5.13c-1.2,0-2.14-0.94-2.14-2.14v-1.71
		c-3.08,3.34-9.07,4.88-13.86,4.88c-2.65,0-13.69-1.37-13.69-12.83c0-9.84,7.1-14.55,13.69-15.57c4.28-0.6,10.35-0.86,13.86-1.03
		c-0.09-2.57-1.03-5.73-6.59-5.73c-5.13,0-10.01,1.88-12.49,2.91c-0.94,0.34-1.8,0-2.14-0.77c-0.43-0.86-2.91-7.02-3.17-7.7
		c-0.26-0.68-0.26-1.88,0.77-2.31c2.91-1.54,10.1-4.62,19-4.62c10.1,0,20.19,4.28,21.39,14.8
		C242.29,315.5,242.29,316.19,242.29,316.87z M225.43,331.76v-5.22c0,0-6.5-0.34-9.07,1.71c-3.25,2.48-2.22,7.96,3.25,7.96
		C225.01,336.21,225.43,331.76,225.43,331.76z"/>
	<path class="st1" d="M306.46,346.56c-1.54,0.51-4.02,1.11-9.16,1.11c-7.61,0-10.01-4.36-10.61-5.82
		c-3.94,3.59-9.16,5.82-14.89,5.82c-12.66,0-21.82-10.7-21.82-23.87c0-13.18,9.16-23.79,21.82-23.79c4.71,0,8.98,1.45,12.66,3.94
		v-15.06c0-1.2,0.94-2.14,2.14-2.14h12.58c1.2,0,2.14,0.94,2.14,2.14v40.73c0,4.02,2.57,3.34,4.02,3.34
		c1.71-0.09,1.97,0.68,2.14,1.88c0.09,1.03,0.6,6.76,0.77,8.47C308.52,345.19,307.83,346.13,306.46,346.56z M284.47,323.89
		c0-5.73-4.02-10.44-8.98-10.44c-4.88,0-8.64,4.71-8.64,10.44c0,5.73,3.76,10.35,8.64,10.35
		C280.45,334.24,284.47,329.62,284.47,323.89z"/>
	<path class="st1" d="M388.61,316.44v28.06c0,1.2-0.94,2.14-2.05,2.14h-12.58c-1.2,0-2.14-0.94-2.14-2.14v-25.16
		c0-4.71-3.08-5.99-5.31-5.99c-2.31,0-5.31,1.2-5.31,5.9v25.24c0,1.2-0.94,2.14-2.14,2.14h-12.58c-1.2,0-2.14-0.94-2.14-2.14v-25.16
		c0-4.71-3.08-5.99-5.31-5.99c-2.31,0-5.31,1.2-5.31,5.99c0,2.31,0,25.16,0,25.16c0,1.2-0.94,2.14-2.14,2.14h-12.58
		c-1.2,0-2.14-0.94-2.14-2.14v-41.16c0-1.2,0.94-2.14,2.14-2.14h12.58c1.2,0,2.14,0.94,2.14,2.14v2.14
		c1.88-2.74,7.1-5.48,12.24-5.48c6.33,0,10.35,1.8,12.66,5.3c3.76-3.08,8.04-5.3,13.95-5.3
		C383.99,300.01,388.61,305.92,388.61,316.44z"/>
	<path class="st1" d="M440.72,316.87v27.64c0,1.2-0.94,2.14-2.14,2.14h-7.44H426c-1.2,0-2.14-0.94-2.14-2.14v-1.71
		c-3.08,3.34-9.07,4.88-13.86,4.88c-2.65,0-13.69-1.37-13.69-12.83c0-9.84,7.1-14.55,13.69-15.57c4.28-0.6,10.35-0.86,13.86-1.03
		c-0.09-2.57-1.03-5.73-6.59-5.73c-5.13,0-10.01,1.88-12.49,2.91c-0.94,0.34-1.8,0-2.14-0.77c-0.43-0.86-2.91-7.02-3.17-7.7
		c-0.26-0.68-0.26-1.88,0.77-2.31c2.91-1.54,10.1-4.62,18.99-4.62c10.1,0,20.19,4.28,21.39,14.8
		C440.72,315.5,440.72,316.19,440.72,316.87z M423.86,331.76v-5.22c0,0-6.5-0.34-9.07,1.71c-3.25,2.48-2.22,7.96,3.25,7.96
		C423.43,336.21,423.86,331.76,423.86,331.76z"/>
	<path class="st1" d="M487.69,304.12c-0.17,1.54-0.94,10.1-1.11,11.47c-0.26,1.97-1.45,2.91-3.17,2.4c-1.8-0.6-4.79-1.45-8.13-1.37
		c-3.17,0.09-8.22,1.45-8.22,8.73c0,2.31,0,19.25,0,19.25l-0.09,0.09v-0.09c0,1.11-0.94,2.05-2.05,2.05h-12.66
		c-1.11,0-2.14-0.94-2.14-2.05v-41.24c0-1.2,1.03-2.14,2.14-2.14h12.66c1.11,0,2.05,0.94,2.05,2.14v2.14
		c1.46-2.05,7.19-5.48,13.09-5.48c3.34,0,5.65,0.6,6.76,1.03C487.86,301.55,487.78,302.92,487.69,304.12z"/>
	<path class="st1" d="M539.2,346.65c-2.22,0-12.58,0-12.58,0c-1.54,0-2.48-0.68-3.25-2.14c-0.43-0.68-4.02-7.53-7.1-13.26h-3.94
		v13.26c0,1.2-0.94,2.14-2.14,2.14h-12.58c-1.11,0-2.14-0.94-2.14-2.14v-55.62c0-1.11,0.94-2.14,2.14-2.14h12.58
		c1.2,0,2.14,1.03,2.14,2.14v27.64h3.85c2.74-5.65,5.99-12.49,6.33-13.18c0.86-1.54,1.71-2.14,3.25-2.14c0,0,10.44,0,12.66,0
		c2.48,0,2.99,1.03,2.05,2.65c-0.68,1.37-8.38,17.11-10.01,20.02c1.71,2.91,10.18,18.74,10.87,20.11
		C542.2,345.71,541.69,346.65,539.2,346.65z"/>
	<path class="st1" d="M560.34,329.11c1.71,5.13,6.67,6.59,9.93,6.67c5.22,0.17,8.3-0.86,11.38-2.22c1.11-0.43,2.31-0.43,3,0.86
		c0.34,0.86,1.97,5.31,2.4,6.33c0.51,1.37-0.09,2.31-0.86,2.82c-4.96,3.08-11.89,4.11-17.8,4.11c-16,0-24.9-10.7-24.9-23.87
		c0-13.18,8.81-23.79,24.21-23.79c13.43,0,21.39,10.61,21.39,23.79c0,3.85-0.43,5.3-5.05,5.3
		C582.16,329.11,575.57,329.11,560.34,329.11z M560,320.55h13.78c0-5.22-2.05-8.73-6.07-8.73C562.99,311.82,560,315.25,560,320.55z"
		/>
	<path class="st1" d="M629.62,346.56c-2.31,0.51-6.5,1.11-12.49,1.11c-8.04,0-14.37-3.85-14.37-13.52c0,0,0,0,0-18.22h-6.93
		c-1.2,0-2.14-0.94-2.14-2.14v-10.52c0-1.11,0.94-2.05,2.14-2.05h6.93v-9.41c0-1.11,1.03-2.05,2.14-2.05h12.66
		c1.11,0,2.05,0.94,2.05,2.05c0,0,0,4.02,0,9.41h7.53c1.2,0,2.14,0.94,2.14,2.05v10.52c0,1.2-0.94,2.14-2.14,2.14h-7.53
		c0,5.39,0,9.75,0,10.78c0,6.59,1.46,7.19,8.9,6.25c1.63-0.26,1.88,0.68,2.05,1.88c0.17,0.94,0.69,6.42,0.86,8.47
		C631.58,345.36,630.99,346.22,629.62,346.56z"/>
	<path class="st1" d="M653.92,334.07v10.44c0,1.2-0.94,2.14-2.14,2.14h-10.53c-1.11,0-2.05-0.94-2.05-2.14v-10.44
		c0-1.2,0.94-2.14,2.05-2.14h10.53C652.98,331.93,653.92,332.87,653.92,334.07z"/>
	<path class="st1" d="M692.86,346.56c-2.31,0.51-6.5,1.11-12.49,1.11c-8.04,0-14.37-3.85-14.37-13.52c0,0,0,0,0-18.22h-6.93
		c-1.2,0-2.14-0.94-2.14-2.14v-10.52c0-1.11,0.94-2.05,2.14-2.05H666v-9.41c0-1.11,1.03-2.05,2.14-2.05h12.66
		c1.11,0,2.05,0.94,2.05,2.05c0,0,0,4.02,0,9.41h7.53c1.2,0,2.14,0.94,2.14,2.05v10.52c0,1.2-0.94,2.14-2.14,2.14h-7.53
		c0,5.39,0,9.75,0,10.78c0,6.59,1.45,7.19,8.9,6.25c1.63-0.26,1.88,0.68,2.05,1.88c0.17,0.94,0.69,6.42,0.86,8.47
		C694.83,345.36,694.23,346.22,692.86,346.56z"/>
	<path class="st1" d="M748.4,304.21c-0.77,2.05-14.03,38.85-14.72,40.3c-0.68,1.54-1.2,2.14-2.74,2.14h-13.35
		c-1.54,0-2.05-0.6-2.74-2.14c-0.68-1.45-13.95-38.25-14.72-40.3c-0.69-1.97,0.09-2.99,1.54-2.99c1.11,0,12.58,0,12.58,0
		c2.57,0,2.99,0.77,3.85,2.99c0.43,1.2,6.16,24.39,6.16,24.39s5.73-23.19,6.16-24.39c0.86-2.22,1.28-2.99,3.85-2.99
		c0,0,11.47,0,12.58,0C748.31,301.21,749.08,302.24,748.4,304.21z"/>
</g>
<path class="st2" d="M130.11,271.37c-9.48,0-13.2,5.57-20.67,13.03l-13.75,13.75v-7.85c0-10.73-8.83-18.93-19.01-18.93
	c-9.48,0-13.2,5.57-20.67,13.03l-45.65,45.65c-7.28,7.28-7.53,19.25-0.17,26.61c7.61,7.61,19.58,7.36,26.86,0.08l25.45-25.41
	c0,0,0.35-0.33,0,0.09c-1.25,1.47-2.25,3.09-2.98,4.8c-0.02,0.04-0.04,0.07-0.05,0.11c-0.49,1.09-0.83,2.26-1.05,3.33
	c-0.16,0.74-0.28,1.49-0.36,2.25c-0.12,1.06-0.12,1.77-0.12,1.77c0,2.12,0.36,4.16,1,6.08c0.01,0.03,0.57,1.49,0.69,1.76
	c2.9,6.51,9.4,11.1,17,11.1c4.64,0,8.82-1.61,12.07-4.26c0.05-0.04,1.11-0.95,1.53-1.37l21.13-21.13v7.82
	c0,10.3,8.28,18.93,18.7,18.93c10.77,0,19.05-8.64,19.05-18.93V290.3C149.12,279.57,140.29,271.37,130.11,271.37z"/>
<g>
	<path class="st3" d="M130.15,271.37c-9.48,0-13.2,5.57-20.67,13.03l-13.75,13.75l-33.19,33.19c0,0,0.35-0.33,0,0.09
		c-1.25,1.47-2.25,3.09-2.98,4.8c-0.02,0.04-0.04,0.07-0.05,0.11c-0.49,1.09-0.83,2.26-1.05,3.33c-0.16,0.74-0.28,1.49-0.36,2.25
		c-0.12,1.06-0.12,1.77-0.12,1.77c0,2.12,0.36,4.16,1,6.08c0.01,0.03,0.57,1.49,0.69,1.76c2.9,6.51,9.4,11.1,17,11.1
		c4.64,0,8.82-1.61,12.07-4.26c0.05-0.04,1.11-0.95,1.53-1.37l21.13-21.13v7.82c0,10.3,8.28,18.93,18.7,18.93
		c10.77,0,19.05-8.64,19.05-18.93V290.3C149.16,279.57,140.33,271.37,130.15,271.37z"/>
</g>
<g>
	<path class="st4" d="M59.35,336.29c1.04-2.26,2.23-3.9,3.03-4.86C61.11,332.92,60.1,334.56,59.35,336.29z"/>
	<path class="st4" d="M59.11,350.96c-0.02-0.04-0.03-0.08-0.05-0.12C59.08,350.88,59.09,350.92,59.11,350.96z"/>
	<path class="st4" d="M59.46,351.78c0-0.01-0.01-0.02-0.01-0.03C59.45,351.76,59.46,351.77,59.46,351.78z"/>
	<path class="st4" d="M89.17,358.59c-0.05,0.04-0.09,0.07-0.14,0.11C89.08,358.67,89.13,358.63,89.17,358.59z"/>
	<path class="st4" d="M57.86,342.05c0.07-0.65,0.19-1.44,0.36-2.28C58.06,340.53,57.93,341.29,57.86,342.05z"/>
	<path class="st4" d="M58.78,350.07c-0.01-0.03-0.02-0.05-0.03-0.08C58.76,350.02,58.77,350.05,58.78,350.07z"/>
	<path class="st1" d="M96.12,343.85v-46.1l-32.7,32.55c-0.37,0.37-0.72,0.75-1.05,1.15c-0.8,0.96-1.99,2.6-3.03,4.86
		c-0.49,1.13-0.86,2.29-1.13,3.48c-0.18,0.84-0.29,1.63-0.36,2.28c-0.26,2.67,0.03,5.38,0.9,7.94c0.01,0.03,0.02,0.05,0.03,0.08
		c0.09,0.26,0.18,0.51,0.28,0.76c0.02,0.04,0.03,0.08,0.05,0.12c0.11,0.27,0.22,0.53,0.34,0.79c0,0.01,0.01,0.02,0.01,0.03
		c0.9,1.97,2.2,3.79,3.81,5.45c6.98,7.23,18.3,7.45,25.77,1.47c0.05-0.04,0.09-0.07,0.14-0.11c0.03-0.03,0.06-0.05,0.09-0.08
		C93.48,354.98,96.12,349.68,96.12,343.85z"/>
</g>
</svg>
