<?xml version="1.0" encoding="utf-8"?>
<!-- Generator: Adobe Illustrator 26.0.1, SVG Export Plug-In . SVG Version: 6.00 Build 0)  -->
<svg version="1.1" id="Capa_1" xmlns="http://www.w3.org/2000/svg" xmlns:xlink="http://www.w3.org/1999/xlink" x="0px" y="0px"
	 viewBox="0 0 750 504.92" style="enable-background:new 0 0 750 504.92;" xml:space="preserve">
<style type="text/css">
	.st0{fill:#CDCCCC;}
	.st1{fill:#B4B4B4;}
	.st2{fill:#808181;}
</style>
<g>
	<path class="st0" d="M544.26,16.39c-32.26,0-44.92,18.95-70.3,44.33l-46.78,46.78V80.78c0-36.5-30.05-64.39-64.67-64.39
		c-32.26,0-44.92,18.95-70.3,44.33L136.89,216.03c-24.77,24.77-25.62,65.48-0.57,90.53c25.91,25.91,66.62,25.05,91.38,0.28
		l86.57-86.43c0,0,1.19-1.11,0.01,0.31c-4.25,5-7.64,10.51-10.14,16.33c-0.06,0.13-0.12,0.25-0.18,0.38
		c-1.68,3.72-2.81,7.67-3.58,11.32c-0.56,2.53-0.97,5.08-1.22,7.65c-0.4,3.61-0.41,6.01-0.41,6.01c0,7.2,1.21,14.16,3.41,20.67
		c0.03,0.09,1.95,5.07,2.36,6c9.87,22.14,31.98,37.75,57.84,37.75c15.79,0,29.99-5.47,41.06-14.48c0.15-0.12,3.78-3.24,5.21-4.66
		l71.88-71.88v26.6c0,35.03,28.18,64.42,63.61,64.42c36.64,0,64.82-29.39,64.82-64.42V80.78C608.93,44.28,578.89,16.39,544.26,16.39
		z"/>
</g>
<g>
	<path class="st1" d="M544.26,16.39c-32.26,0-44.92,18.95-70.3,44.33l-46.78,46.78l-112.9,112.91c0,0,1.19-1.11,0.01,0.31
		c-4.25,5-7.64,10.51-10.14,16.33c-0.06,0.13-0.12,0.25-0.18,0.38c-1.68,3.72-2.81,7.67-3.58,11.32c-0.56,2.53-0.97,5.08-1.22,7.65
		c-0.4,3.61-0.41,6.01-0.41,6.01c0,7.2,1.21,14.16,3.41,20.67c0.03,0.09,1.95,5.07,2.36,6c9.87,22.14,31.98,37.75,57.84,37.75
		c15.79,0,29.99-5.47,41.06-14.48c0.15-0.12,3.78-3.24,5.21-4.66l71.88-71.88v26.6c0,35.03,28.18,64.42,63.61,64.42
		c36.64,0,64.82-29.39,64.82-64.42V80.78C608.93,44.28,578.89,16.39,544.26,16.39z"/>
</g>
<g>
	<path class="st2" d="M304.14,237.33c3.47-7.58,7.47-13.1,10.14-16.33C310.02,226,306.64,231.51,304.14,237.33z"/>
	<path class="st2" d="M303.33,286.6c-0.05-0.13-0.1-0.27-0.15-0.4C303.23,286.33,303.28,286.46,303.33,286.6z"/>
	<path class="st2" d="M304.51,289.36c-0.02-0.03-0.03-0.07-0.04-0.1C304.48,289.29,304.49,289.32,304.51,289.36z"/>
	<path class="st2" d="M403.88,312.26c-0.15,0.13-0.31,0.24-0.47,0.37C403.57,312.5,403.72,312.38,403.88,312.26z"/>
	<path class="st2" d="M299.15,256.68c0.24-2.19,0.62-4.82,1.22-7.65C299.81,251.56,299.4,254.11,299.15,256.68z"/>
	<path class="st2" d="M302.24,283.64c-0.03-0.09-0.06-0.18-0.09-0.27C302.18,283.46,302.21,283.55,302.24,283.64z"/>
	<path class="st2" d="M427.11,262.73v-154.9L317.74,217.2c-1.24,1.24-2.41,2.53-3.53,3.85c-2.67,3.23-6.67,8.74-10.14,16.33
		c-1.63,3.79-2.89,7.71-3.77,11.7c-0.6,2.83-0.98,5.46-1.22,7.65c-0.88,8.97,0.1,18.08,2.99,26.69c0.03,0.09,0.06,0.18,0.09,0.27
		c0.29,0.86,0.61,1.71,0.94,2.56c0.05,0.13,0.1,0.27,0.15,0.4c0.36,0.89,0.73,1.78,1.13,2.66c0.01,0.03,0.03,0.07,0.04,0.1
		c3.02,6.64,7.37,12.74,12.73,18.32c23.33,24.29,61.21,25.04,86.18,4.94c0.15-0.12,0.31-0.24,0.47-0.37
		c0.11-0.09,0.21-0.18,0.31-0.27C418.3,300.12,427.11,282.31,427.11,262.73z"/>
</g>
<g>
	<path class="st2" d="M60.47,439.99v37.63c0,1.63-1.28,2.91-2.91,2.91H47.42h-6.99c-1.63,0-2.91-1.28-2.91-2.91v-2.33
		c-4.2,4.54-12.35,6.64-18.88,6.64c-3.61,0-18.64-1.86-18.64-17.48c0-13.4,9.67-19.81,18.64-21.21c5.83-0.82,14.1-1.17,18.88-1.4
		c-0.12-3.5-1.4-7.81-8.97-7.81c-6.99,0-13.63,2.56-17.01,3.96c-1.28,0.47-2.45,0-2.91-1.05c-0.58-1.17-3.96-9.55-4.31-10.49
		c-0.35-0.93-0.35-2.56,1.05-3.15c3.96-2.1,13.75-6.29,25.87-6.29c13.75,0,27.5,5.83,29.13,20.16
		C60.47,438.13,60.47,439.06,60.47,439.99z M37.52,460.26v-7.11c0,0-8.86-0.47-12.35,2.33c-4.43,3.38-3.03,10.84,4.43,10.84
		C36.93,466.32,37.52,460.26,37.52,460.26z"/>
	<path class="st2" d="M147.86,480.42c-2.1,0.7-5.48,1.51-12.47,1.51c-10.37,0-13.63-5.94-14.45-7.92
		c-5.36,4.89-12.47,7.92-20.27,7.92c-17.24,0-29.71-14.56-29.71-32.51c0-17.94,12.47-32.39,29.71-32.39
		c6.41,0,12.23,1.98,17.25,5.36v-20.51c0-1.63,1.28-2.91,2.91-2.91h17.13c1.63,0,2.91,1.28,2.91,2.91v55.46
		c0,5.48,3.49,4.54,5.48,4.54c2.33-0.12,2.68,0.93,2.91,2.56c0.12,1.4,0.81,9.2,1.05,11.54
		C150.66,478.56,149.72,479.84,147.86,480.42z M117.92,449.54c0-7.81-5.48-14.21-12.23-14.21c-6.64,0-11.77,6.41-11.77,14.21
		c0,7.81,5.13,14.1,11.77,14.1C112.44,463.64,117.92,457.35,117.92,449.54z"/>
	<path class="st2" d="M259.72,439.41v38.22c0,1.63-1.28,2.91-2.8,2.91h-17.13c-1.63,0-2.91-1.28-2.91-2.91v-34.26
		c0-6.41-4.2-8.16-7.22-8.16c-3.15,0-7.22,1.63-7.22,8.04v34.37c0,1.63-1.28,2.91-2.91,2.91h-17.13c-1.63,0-2.91-1.28-2.91-2.91
		v-34.26c0-6.41-4.2-8.16-7.22-8.16c-3.15,0-7.22,1.63-7.22,8.16c0,3.15,0,34.26,0,34.26c0,1.63-1.28,2.91-2.91,2.91h-17.13
		c-1.63,0-2.91-1.28-2.91-2.91v-56.04c0-1.63,1.28-2.91,2.91-2.91h17.13c1.63,0,2.91,1.28,2.91,2.91v2.91
		c2.56-3.73,9.67-7.46,16.66-7.46c8.62,0,14.1,2.45,17.25,7.22c5.13-4.19,10.95-7.22,18.99-7.22
		C253.43,417.04,259.72,425.08,259.72,439.41z"/>
	<path class="st2" d="M330.68,439.99v37.63c0,1.63-1.28,2.91-2.91,2.91h-10.14h-6.99c-1.63,0-2.91-1.28-2.91-2.91v-2.33
		c-4.19,4.54-12.35,6.64-18.88,6.64c-3.61,0-18.64-1.86-18.64-17.48c0-13.4,9.67-19.81,18.64-21.21c5.83-0.82,14.1-1.17,18.88-1.4
		c-0.12-3.5-1.4-7.81-8.97-7.81c-6.99,0-13.63,2.56-17.01,3.96c-1.28,0.47-2.45,0-2.91-1.05c-0.58-1.17-3.96-9.55-4.31-10.49
		c-0.35-0.93-0.35-2.56,1.05-3.15c3.96-2.1,13.75-6.29,25.87-6.29c13.75,0,27.5,5.83,29.13,20.16
		C330.68,438.13,330.68,439.06,330.68,439.99z M307.73,460.26v-7.11c0,0-8.85-0.47-12.35,2.33c-4.43,3.38-3.03,10.84,4.43,10.84
		C307.14,466.32,307.73,460.26,307.73,460.26z"/>
	<path class="st2" d="M394.65,422.63c-0.23,2.1-1.28,13.75-1.51,15.61c-0.35,2.68-1.98,3.96-4.31,3.26
		c-2.45-0.82-6.52-1.98-11.07-1.86c-4.31,0.12-11.19,1.98-11.19,11.88c0,3.15,0,26.22,0,26.22l-0.12,0.12v-0.12
		c0,1.51-1.28,2.8-2.8,2.8h-17.24c-1.51,0-2.91-1.28-2.91-2.8v-56.16c0-1.63,1.4-2.91,2.91-2.91h17.24c1.51,0,2.8,1.28,2.8,2.91
		v2.91c1.98-2.8,9.79-7.46,17.83-7.46c4.54,0,7.69,0.82,9.21,1.4C394.88,419.13,394.76,421,394.65,422.63z"/>
	<path class="st2" d="M464.79,480.54c-3.03,0-17.13,0-17.13,0c-2.1,0-3.38-0.93-4.43-2.91c-0.58-0.93-5.48-10.25-9.67-18.06h-5.36
		v18.06c0,1.63-1.28,2.91-2.91,2.91h-17.13c-1.51,0-2.91-1.28-2.91-2.91v-75.73c0-1.51,1.28-2.91,2.91-2.91h17.13
		c1.63,0,2.91,1.4,2.91,2.91v37.63h5.24c3.73-7.69,8.16-17.01,8.62-17.94c1.17-2.1,2.33-2.91,4.43-2.91c0,0,14.21,0,17.25,0
		c3.38,0,4.08,1.4,2.8,3.61c-0.93,1.86-11.42,23.3-13.63,27.26c2.33,3.96,13.87,25.52,14.8,27.38
		C468.87,479.26,468.17,480.54,464.79,480.54z"/>
	<path class="st2" d="M493.57,456.65c2.33,6.99,9.09,8.97,13.52,9.09c7.11,0.23,11.3-1.17,15.5-3.03c1.51-0.58,3.15-0.58,4.08,1.17
		c0.47,1.17,2.68,7.22,3.26,8.62c0.7,1.86-0.12,3.15-1.16,3.85c-6.76,4.19-16.2,5.59-24.24,5.59c-21.79,0-33.91-14.56-33.91-32.51
		c0-17.94,12-32.39,32.97-32.39c18.29,0,29.13,14.45,29.13,32.39c0,5.24-0.58,7.22-6.87,7.22
		C523.29,456.65,514.31,456.65,493.57,456.65z M493.11,445h18.76c0-7.11-2.8-11.88-8.27-11.88
		C497.19,433.12,493.11,437.78,493.11,445z"/>
	<path class="st2" d="M587.91,480.42c-3.15,0.7-8.86,1.51-17.01,1.51c-10.95,0-19.57-5.24-19.57-18.41c0,0,0,0,0-24.82h-9.44
		c-1.63,0-2.91-1.28-2.91-2.91v-14.33c0-1.52,1.28-2.8,2.91-2.8h9.44v-12.82c0-1.51,1.4-2.8,2.91-2.8h17.24c1.51,0,2.8,1.28,2.8,2.8
		c0,0,0,5.48,0,12.82h10.25c1.63,0,2.91,1.28,2.91,2.8v14.33c0,1.63-1.28,2.91-2.91,2.91h-10.25c0,7.34,0,13.28,0,14.68
		c0,8.97,1.98,9.79,12.12,8.51c2.21-0.35,2.56,0.93,2.8,2.56c0.23,1.28,0.93,8.74,1.17,11.54
		C590.59,478.79,589.77,479.96,587.91,480.42z"/>
	<path class="st2" d="M621,463.41v14.21c0,1.63-1.28,2.91-2.91,2.91h-14.33c-1.51,0-2.8-1.28-2.8-2.91v-14.21
		c0-1.63,1.28-2.91,2.8-2.91h14.33C619.72,460.5,621,461.78,621,463.41z"/>
	<path class="st2" d="M674.03,480.42c-3.15,0.7-8.86,1.51-17.01,1.51c-10.95,0-19.57-5.24-19.57-18.41c0,0,0,0,0-24.82h-9.44
		c-1.63,0-2.91-1.28-2.91-2.91v-14.33c0-1.52,1.28-2.8,2.91-2.8h9.44v-12.82c0-1.51,1.4-2.8,2.91-2.8h17.24c1.51,0,2.8,1.28,2.8,2.8
		c0,0,0,5.48,0,12.82h10.25c1.63,0,2.91,1.28,2.91,2.8v14.33c0,1.63-1.28,2.91-2.91,2.91H660.4c0,7.34,0,13.28,0,14.68
		c0,8.97,1.98,9.79,12.12,8.51c2.22-0.35,2.56,0.93,2.8,2.56c0.23,1.28,0.93,8.74,1.17,11.54
		C676.71,478.79,675.9,479.96,674.03,480.42z"/>
	<path class="st2" d="M749.66,422.75c-1.05,2.8-19.11,52.9-20.04,54.88c-0.93,2.1-1.63,2.91-3.73,2.91h-18.18
		c-2.1,0-2.8-0.82-3.73-2.91c-0.93-1.98-18.99-52.08-20.04-54.88c-0.93-2.68,0.12-4.08,2.1-4.08c1.51,0,17.13,0,17.13,0
		c3.49,0,4.08,1.05,5.24,4.08c0.58,1.63,8.39,33.21,8.39,33.21s7.81-31.58,8.39-33.21c1.16-3.03,1.75-4.08,5.24-4.08
		c0,0,15.61,0,17.13,0C749.54,418.67,750.59,420.07,749.66,422.75z"/>
</g>
</svg>
