<?xml version="1.0" encoding="utf-8"?>
<!-- Generator: Adobe Illustrator 26.0.1, SVG Export Plug-In . SVG Version: 6.00 Build 0)  -->
<svg version="1.1" id="Capa_1" xmlns="http://www.w3.org/2000/svg" xmlns:xlink="http://www.w3.org/1999/xlink" x="0px" y="0px"
	 viewBox="0 0 1500 976.54" style="enable-background:new 0 0 1500 976.54;" xml:space="preserve">
<style type="text/css">
	.st0{fill:#CDCCCC;}
	.st1{fill:#B4B4B4;}
	.st2{fill:#808181;}
</style>
<g>
	<path class="st0" d="M1088.52,25.52c-64.52,0-89.84,37.9-140.61,88.66l-93.57,93.57v-53.44c0-73.01-60.1-128.78-129.35-128.78
		c-64.52,0-89.84,37.9-140.61,88.66L273.77,424.8c-49.54,49.54-51.24,130.95-1.14,181.06c51.81,51.81,133.23,50.1,182.77,0.57
		l173.14-172.87c0,0,2.37-2.21,0.03,0.62c-8.5,9.99-15.28,21.02-20.28,32.65c-0.12,0.26-0.24,0.5-0.36,0.77
		c-3.35,7.43-5.62,15.34-7.17,22.63c-1.11,5.06-1.94,10.17-2.44,15.3c-0.79,7.23-0.83,12.02-0.83,12.02
		c0,14.4,2.42,28.31,6.82,41.35c0.06,0.18,3.9,10.14,4.72,11.99c19.73,44.28,63.96,75.49,115.68,75.49
		c31.57,0,59.99-10.93,82.13-28.96c0.31-0.25,7.56-6.47,10.41-9.32l143.76-143.76v53.21c0,70.05,56.37,128.83,127.22,128.83
		c73.27,0,129.64-58.78,129.64-128.83V154.31C1217.87,81.3,1157.77,25.52,1088.52,25.52z"/>
</g>
<g>
	<path class="st1" d="M1088.52,25.52c-64.52,0-89.84,37.9-140.61,88.66l-93.57,93.57L628.54,433.56c0,0,2.37-2.21,0.03,0.62
		c-8.5,9.99-15.28,21.02-20.28,32.65c-0.12,0.26-0.24,0.5-0.36,0.77c-3.35,7.43-5.62,15.34-7.17,22.63
		c-1.11,5.06-1.94,10.17-2.44,15.3c-0.79,7.23-0.83,12.02-0.83,12.02c0,14.4,2.42,28.31,6.82,41.35c0.06,0.18,3.9,10.14,4.72,11.99
		c19.73,44.28,63.96,75.49,115.68,75.49c31.57,0,59.99-10.93,82.13-28.96c0.31-0.25,7.56-6.47,10.41-9.32l143.76-143.76v53.21
		c0,70.05,56.37,128.83,127.22,128.83c73.27,0,129.64-58.78,129.64-128.83V154.31C1217.87,81.3,1157.77,25.52,1088.52,25.52z"/>
</g>
<g>
	<path class="st2" d="M608.27,467.4c6.94-15.16,14.93-26.19,20.28-32.65C620.05,444.74,613.28,455.76,608.27,467.4z"/>
	<path class="st2" d="M606.66,565.93c-0.11-0.27-0.21-0.53-0.31-0.8C606.46,565.4,606.56,565.67,606.66,565.93z"/>
	<path class="st2" d="M609.01,571.46c-0.03-0.07-0.06-0.13-0.09-0.2C608.95,571.32,608.98,571.39,609.01,571.46z"/>
	<path class="st2" d="M807.75,617.26c-0.3,0.25-0.62,0.49-0.93,0.74C807.13,617.74,807.45,617.51,807.75,617.26z"/>
	<path class="st2" d="M598.3,506.1c0.48-4.38,1.24-9.65,2.44-15.3C599.63,495.85,598.81,500.96,598.3,506.1z"/>
	<path class="st2" d="M604.48,560.02c-0.06-0.18-0.12-0.37-0.18-0.55C604.35,559.65,604.41,559.83,604.48,560.02z"/>
	<path class="st2" d="M854.21,518.2V208.4L635.48,427.13c-2.48,2.48-4.81,5.07-7.05,7.7c-5.35,6.46-13.34,17.49-20.28,32.65
		c-3.26,7.58-5.77,15.42-7.53,23.4c-1.2,5.65-1.96,10.92-2.44,15.3c-1.76,17.93,0.2,36.15,5.99,53.37c0.06,0.18,0.12,0.37,0.18,0.55
		c0.59,1.72,1.22,3.42,1.88,5.12c0.1,0.27,0.2,0.53,0.31,0.8c0.71,1.79,1.46,3.56,2.26,5.32c0.03,0.07,0.06,0.13,0.09,0.2
		c6.04,13.27,14.73,25.49,25.45,36.65c46.67,48.58,122.41,50.07,172.36,9.89c0.31-0.25,0.63-0.48,0.93-0.74
		c0.21-0.17,0.42-0.36,0.63-0.54C836.59,592.99,854.21,557.36,854.21,518.2z"/>
</g>
<g>
	<path class="st2" d="M120.94,872.72v75.27c0,3.26-2.56,5.83-5.83,5.83H94.84H80.86c-3.26,0-5.83-2.56-5.83-5.83v-4.66
		c-8.39,9.09-24.7,13.28-37.75,13.28c-7.22,0-37.28-3.73-37.28-34.95c0-26.8,19.34-39.62,37.28-42.41
		c11.65-1.63,28.2-2.33,37.75-2.8c-0.23-6.99-2.8-15.61-17.94-15.61c-13.98,0-27.26,5.13-34.02,7.92c-2.56,0.93-4.89,0-5.83-2.1
		c-1.17-2.33-7.92-19.11-8.62-20.97c-0.7-1.86-0.7-5.13,2.1-6.29c7.92-4.2,27.5-12.58,51.73-12.58c27.5,0,55,11.65,58.26,40.31
		C120.94,868.99,120.94,870.86,120.94,872.72z M75.04,913.27v-14.21c0,0-17.71-0.93-24.7,4.66c-8.86,6.76-6.06,21.67,8.86,21.67
		C73.87,925.39,75.04,913.27,75.04,913.27z"/>
	<path class="st2" d="M295.72,953.58c-4.2,1.4-10.95,3.03-24.94,3.03c-20.74,0-27.26-11.88-28.89-15.85
		c-10.72,9.79-24.94,15.85-40.55,15.85c-34.49,0-59.42-29.13-59.42-65.02c0-35.89,24.93-64.78,59.42-64.78
		c12.82,0,24.47,3.96,34.49,10.72v-41.01c0-3.26,2.56-5.83,5.82-5.83h34.26c3.26,0,5.83,2.56,5.83,5.83v110.92
		c0,10.95,6.99,9.09,10.95,9.09c4.66-0.23,5.36,1.86,5.83,5.13c0.23,2.8,1.63,18.41,2.09,23.07
		C301.31,949.85,299.45,952.42,295.72,953.58z M235.83,891.83c0-15.61-10.95-28.43-24.47-28.43c-13.28,0-23.54,12.82-23.54,28.43
		c0,15.61,10.25,28.2,23.54,28.2C224.88,920.03,235.83,907.44,235.83,891.83z"/>
	<path class="st2" d="M519.43,871.56v76.43c0,3.26-2.56,5.83-5.59,5.83h-34.25c-3.26,0-5.83-2.56-5.83-5.83v-68.51
		c0-12.82-8.39-16.31-14.45-16.31c-6.29,0-14.45,3.26-14.45,16.08v68.74c0,3.26-2.56,5.83-5.83,5.83h-34.25
		c-3.26,0-5.83-2.56-5.83-5.83v-68.51c0-12.82-8.39-16.31-14.45-16.31c-6.29,0-14.45,3.26-14.45,16.31c0,6.29,0,68.51,0,68.51
		c0,3.26-2.56,5.83-5.83,5.83h-34.26c-3.26,0-5.82-2.56-5.82-5.83V835.9c0-3.26,2.56-5.83,5.82-5.83h34.26
		c3.26,0,5.83,2.56,5.83,5.83v5.83c5.13-7.46,19.34-14.91,33.32-14.91c17.25,0,28.2,4.89,34.49,14.45
		c10.25-8.39,21.9-14.45,37.98-14.45C506.85,826.81,519.43,842.89,519.43,871.56z"/>
	<path class="st2" d="M661.36,872.72v75.27c0,3.26-2.56,5.83-5.83,5.83h-20.27h-13.98c-3.26,0-5.83-2.56-5.83-5.83v-4.66
		c-8.39,9.09-24.7,13.28-37.75,13.28c-7.22,0-37.28-3.73-37.28-34.95c0-26.8,19.34-39.62,37.28-42.41
		c11.65-1.63,28.19-2.33,37.75-2.8c-0.23-6.99-2.79-15.61-17.94-15.61c-13.98,0-27.26,5.13-34.02,7.92c-2.56,0.93-4.89,0-5.83-2.1
		c-1.16-2.33-7.92-19.11-8.62-20.97c-0.7-1.86-0.7-5.13,2.1-6.29c7.92-4.2,27.5-12.58,51.73-12.58c27.5,0,55,11.65,58.26,40.31
		C661.36,868.99,661.36,870.86,661.36,872.72z M615.45,913.27v-14.21c0,0-17.71-0.93-24.7,4.66c-8.86,6.76-6.06,21.67,8.86,21.67
		C614.28,925.39,615.45,913.27,615.45,913.27z"/>
	<path class="st2" d="M789.29,838c-0.47,4.19-2.56,27.5-3.03,31.23c-0.7,5.36-3.96,7.92-8.62,6.52c-4.89-1.63-13.05-3.96-22.14-3.73
		c-8.62,0.23-22.37,3.96-22.37,23.77c0,6.29,0,52.43,0,52.43l-0.23,0.23v-0.23c0,3.03-2.56,5.59-5.59,5.59h-34.49
		c-3.03,0-5.83-2.56-5.83-5.59V835.9c0-3.26,2.8-5.83,5.83-5.83h34.49c3.03,0,5.59,2.56,5.59,5.83v5.83
		c3.96-5.59,19.58-14.91,35.65-14.91c9.09,0,15.38,1.63,18.41,2.8C789.76,831.01,789.52,834.74,789.29,838z"/>
	<path class="st2" d="M929.58,953.82c-6.06,0-34.25,0-34.25,0c-4.2,0-6.76-1.86-8.86-5.83c-1.17-1.86-10.95-20.51-19.34-36.12
		h-10.72v36.12c0,3.26-2.56,5.83-5.83,5.83h-34.26c-3.03,0-5.82-2.56-5.82-5.83V796.52c0-3.03,2.56-5.83,5.82-5.83h34.26
		c3.26,0,5.83,2.8,5.83,5.83v75.27h10.48c7.46-15.38,16.31-34.02,17.25-35.89c2.33-4.2,4.66-5.83,8.86-5.83c0,0,28.43,0,34.49,0
		c6.76,0,8.15,2.8,5.59,7.22c-1.86,3.73-22.84,46.61-27.27,54.53c4.66,7.92,27.73,51.03,29.6,54.76
		C937.74,951.25,936.34,953.82,929.58,953.82z"/>
	<path class="st2" d="M987.15,906.04c4.66,13.98,18.18,17.94,27.03,18.18c14.22,0.47,22.6-2.33,30.99-6.06
		c3.03-1.16,6.29-1.16,8.16,2.33c0.93,2.33,5.36,14.45,6.52,17.24c1.4,3.73-0.23,6.29-2.33,7.69
		c-13.52,8.39-32.39,11.19-48.47,11.19c-43.58,0-67.81-29.13-67.81-65.02c0-35.89,24-64.78,65.95-64.78
		c36.59,0,58.26,28.89,58.26,64.78c0,10.49-1.16,14.45-13.75,14.45C1046.57,906.04,1028.63,906.04,987.15,906.04z M986.22,882.74
		h37.52c0-14.21-5.59-23.77-16.54-23.77C994.37,858.97,986.22,868.29,986.22,882.74z"/>
	<path class="st2" d="M1175.82,953.58c-6.29,1.4-17.71,3.03-34.02,3.03c-21.9,0-39.15-10.49-39.15-36.82c0,0,0,0,0-49.63h-18.88
		c-3.26,0-5.82-2.56-5.82-5.83v-28.66c0-3.03,2.56-5.59,5.82-5.59h18.88v-25.63c0-3.03,2.8-5.59,5.83-5.59h34.49
		c3.03,0,5.59,2.56,5.59,5.59c0,0,0,10.95,0,25.63h20.51c3.26,0,5.83,2.56,5.83,5.59v28.66c0,3.26-2.56,5.83-5.83,5.83h-20.51
		c0,14.68,0,26.56,0,29.36c0,17.94,3.96,19.57,24.24,17.01c4.43-0.7,5.13,1.86,5.59,5.13c0.47,2.56,1.87,17.48,2.33,23.07
		C1181.17,950.32,1179.54,952.65,1175.82,953.58z"/>
	<path class="st2" d="M1242,919.56v28.43c0,3.26-2.56,5.83-5.82,5.83h-28.66c-3.03,0-5.59-2.56-5.59-5.83v-28.43
		c0-3.26,2.56-5.83,5.59-5.83h28.66C1239.44,913.73,1242,916.3,1242,919.56z"/>
	<path class="st2" d="M1348.07,953.58c-6.29,1.4-17.71,3.03-34.02,3.03c-21.91,0-39.15-10.49-39.15-36.82c0,0,0,0,0-49.63h-18.88
		c-3.26,0-5.82-2.56-5.82-5.83v-28.66c0-3.03,2.56-5.59,5.82-5.59h18.88v-25.63c0-3.03,2.8-5.59,5.83-5.59h34.49
		c3.03,0,5.59,2.56,5.59,5.59c0,0,0,10.95,0,25.63h20.51c3.26,0,5.83,2.56,5.83,5.59v28.66c0,3.26-2.56,5.83-5.83,5.83h-20.51
		c0,14.68,0,26.56,0,29.36c0,17.94,3.96,19.57,24.23,17.01c4.43-0.7,5.13,1.86,5.59,5.13c0.47,2.56,1.87,17.48,2.33,23.07
		C1353.43,950.32,1351.8,952.65,1348.07,953.58z"/>
	<path class="st2" d="M1499.31,838.23c-2.1,5.59-38.22,105.8-40.08,109.76c-1.86,4.2-3.26,5.83-7.46,5.83h-36.35
		c-4.2,0-5.59-1.63-7.46-5.83c-1.86-3.96-37.98-104.16-40.08-109.76c-1.87-5.36,0.23-8.16,4.19-8.16c3.03,0,34.26,0,34.26,0
		c6.99,0,8.15,2.1,10.48,8.16c1.17,3.26,16.78,66.41,16.78,66.41s15.61-63.15,16.78-66.41c2.33-6.06,3.5-8.16,10.49-8.16
		c0,0,31.23,0,34.26,0C1499.08,830.08,1501.18,832.87,1499.31,838.23z"/>
</g>
</svg>
