<?xml version="1.0" encoding="utf-8"?>
<!-- Generator: Adobe Illustrator 26.0.1, SVG Export Plug-In . SVG Version: 6.00 Build 0)  -->
<svg version="1.1" id="Capa_1" xmlns="http://www.w3.org/2000/svg" xmlns:xlink="http://www.w3.org/1999/xlink" x="0px" y="0px"
	 viewBox="0 0 750 750" style="enable-background:new 0 0 750 750;" xml:space="preserve">
<style type="text/css">
	.st0{fill:none;}
	.st1{fill:#808080;}
	.st2{fill:#CBCBCB;}
	.st3{fill:#B2B2B2;}
</style>
<rect x="-0.23" y="1" class="st0" width="750.23" height="750.23"/>
<g>
	<path class="st1" d="M241.75,325.45v27.69c0,1.2-0.94,2.14-2.14,2.14h-7.46h-5.14c-1.2,0-2.14-0.94-2.14-2.14v-1.71
		c-3.09,3.34-9.09,4.89-13.89,4.89c-2.66,0-13.72-1.37-13.72-12.86c0-9.86,7.11-14.57,13.72-15.6c4.29-0.6,10.37-0.86,13.89-1.03
		c-0.09-2.57-1.03-5.74-6.6-5.74c-5.14,0-10.03,1.89-12.52,2.92c-0.94,0.34-1.8,0-2.14-0.77c-0.43-0.86-2.91-7.03-3.17-7.72
		c-0.26-0.69-0.26-1.89,0.77-2.31c2.92-1.54,10.12-4.63,19.03-4.63c10.12,0,20.23,4.29,21.43,14.83
		C241.75,324.07,241.75,324.76,241.75,325.45z M224.87,340.36v-5.23c0,0-6.52-0.34-9.09,1.71c-3.26,2.49-2.23,7.97,3.26,7.97
		C224.44,344.82,224.87,340.36,224.87,340.36z"/>
	<path class="st1" d="M306.06,355.2c-1.54,0.51-4.03,1.11-9.17,1.11c-7.63,0-10.03-4.37-10.63-5.83c-3.94,3.6-9.17,5.83-14.92,5.83
		c-12.69,0-21.86-10.72-21.86-23.92c0-13.2,9.17-23.83,21.86-23.83c4.71,0,9,1.46,12.69,3.94v-15.09c0-1.2,0.94-2.14,2.14-2.14h12.6
		c1.2,0,2.14,0.94,2.14,2.14v40.81c0,4.03,2.57,3.34,4.03,3.34c1.71-0.09,1.97,0.69,2.14,1.89c0.09,1.03,0.6,6.77,0.77,8.49
		C308.11,353.82,307.43,354.77,306.06,355.2z M284.02,332.48c0-5.74-4.03-10.46-9-10.46c-4.89,0-8.66,4.72-8.66,10.46
		c0,5.74,3.77,10.37,8.66,10.37C279.99,342.85,284.02,338.22,284.02,332.48z"/>
	<path class="st1" d="M388.36,325.02v28.12c0,1.2-0.94,2.14-2.06,2.14h-12.6c-1.2,0-2.14-0.94-2.14-2.14v-25.21
		c0-4.72-3.09-6-5.32-6c-2.31,0-5.32,1.2-5.32,5.92v25.29c0,1.2-0.94,2.14-2.14,2.14h-12.6c-1.2,0-2.14-0.94-2.14-2.14v-25.21
		c0-4.72-3.09-6-5.32-6c-2.31,0-5.32,1.2-5.32,6c0,2.32,0,25.21,0,25.21c0,1.2-0.94,2.14-2.14,2.14h-12.6
		c-1.2,0-2.14-0.94-2.14-2.14V311.9c0-1.2,0.94-2.14,2.14-2.14h12.6c1.2,0,2.14,0.94,2.14,2.14v2.14c1.89-2.74,7.12-5.49,12.26-5.49
		c6.34,0,10.37,1.8,12.69,5.32c3.77-3.09,8.06-5.32,13.97-5.32C383.73,308.56,388.36,314.47,388.36,325.02z"/>
	<path class="st1" d="M440.58,325.45v27.69c0,1.2-0.94,2.14-2.14,2.14h-7.46h-5.14c-1.2,0-2.14-0.94-2.14-2.14v-1.71
		c-3.09,3.34-9.09,4.89-13.89,4.89c-2.66,0-13.72-1.37-13.72-12.86c0-9.86,7.12-14.57,13.72-15.6c4.29-0.6,10.37-0.86,13.89-1.03
		c-0.09-2.57-1.03-5.74-6.6-5.74c-5.14,0-10.03,1.89-12.52,2.92c-0.94,0.34-1.8,0-2.14-0.77c-0.43-0.86-2.91-7.03-3.17-7.72
		c-0.26-0.69-0.26-1.89,0.77-2.31c2.92-1.54,10.12-4.63,19.03-4.63c10.12,0,20.23,4.29,21.43,14.83
		C440.58,324.07,440.58,324.76,440.58,325.45z M423.69,340.36v-5.23c0,0-6.51-0.34-9.09,1.71c-3.26,2.49-2.23,7.97,3.26,7.97
		C423.26,344.82,423.69,340.36,423.69,340.36z"/>
	<path class="st1" d="M487.64,312.67c-0.17,1.54-0.94,10.12-1.11,11.49c-0.26,1.97-1.46,2.91-3.17,2.4c-1.8-0.6-4.8-1.46-8.14-1.37
		c-3.17,0.09-8.23,1.46-8.23,8.74c0,2.32,0,19.29,0,19.29l-0.09,0.09v-0.09c0,1.11-0.94,2.06-2.06,2.06h-12.69
		c-1.11,0-2.14-0.94-2.14-2.06V311.9c0-1.2,1.03-2.14,2.14-2.14h12.69c1.11,0,2.06,0.94,2.06,2.14v2.14
		c1.46-2.06,7.2-5.49,13.12-5.49c3.34,0,5.66,0.6,6.77,1.03C487.82,310.1,487.73,311.47,487.64,312.67z"/>
	<path class="st1" d="M539.26,355.28c-2.23,0-12.6,0-12.6,0c-1.54,0-2.49-0.69-3.26-2.14c-0.43-0.69-4.03-7.54-7.12-13.29h-3.94
		v13.29c0,1.2-0.94,2.14-2.14,2.14h-12.6c-1.11,0-2.14-0.94-2.14-2.14v-55.73c0-1.11,0.94-2.14,2.14-2.14h12.6
		c1.2,0,2.14,1.03,2.14,2.14v27.69h3.86c2.74-5.66,6-12.52,6.34-13.2c0.86-1.54,1.72-2.14,3.26-2.14c0,0,10.46,0,12.69,0
		c2.49,0,3,1.03,2.06,2.66c-0.69,1.37-8.4,17.15-10.03,20.06c1.72,2.91,10.2,18.78,10.89,20.15
		C542.26,354.34,541.74,355.28,539.26,355.28z"/>
	<path class="st1" d="M560.44,337.71c1.71,5.14,6.69,6.6,9.94,6.69c5.23,0.17,8.32-0.86,11.4-2.23c1.11-0.43,2.31-0.43,3,0.86
		c0.34,0.86,1.97,5.32,2.4,6.34c0.52,1.37-0.09,2.32-0.86,2.83c-4.97,3.09-11.92,4.12-17.83,4.12c-16.03,0-24.95-10.72-24.95-23.92
		c0-13.2,8.83-23.83,24.26-23.83c13.46,0,21.43,10.63,21.43,23.83c0,3.86-0.43,5.32-5.06,5.32
		C582.3,337.71,575.7,337.71,560.44,337.71z M560.09,329.13h13.8c0-5.23-2.06-8.74-6.09-8.74
		C563.09,320.39,560.09,323.82,560.09,329.13z"/>
	<path class="st1" d="M629.85,355.2c-2.32,0.51-6.52,1.11-12.52,1.11c-8.06,0-14.4-3.86-14.4-13.55c0,0,0,0,0-18.26h-6.94
		c-1.2,0-2.14-0.94-2.14-2.14v-10.54c0-1.11,0.94-2.06,2.14-2.06h6.94v-9.43c0-1.11,1.03-2.06,2.14-2.06h12.69
		c1.11,0,2.06,0.94,2.06,2.06c0,0,0,4.03,0,9.43h7.54c1.2,0,2.14,0.94,2.14,2.06v10.54c0,1.2-0.94,2.14-2.14,2.14h-7.54
		c0,5.4,0,9.77,0,10.8c0,6.6,1.46,7.2,8.92,6.26c1.63-0.26,1.89,0.69,2.06,1.89c0.17,0.94,0.69,6.43,0.86,8.49
		C631.82,354,631.22,354.85,629.85,355.2z"/>
	<path class="st1" d="M654.2,342.68v10.46c0,1.2-0.94,2.14-2.14,2.14h-10.55c-1.11,0-2.06-0.94-2.06-2.14v-10.46
		c0-1.2,0.94-2.14,2.06-2.14h10.55C653.26,340.54,654.2,341.48,654.2,342.68z"/>
	<path class="st1" d="M693.22,355.2c-2.31,0.51-6.52,1.11-12.52,1.11c-8.06,0-14.4-3.86-14.4-13.55c0,0,0,0,0-18.26h-6.95
		c-1.2,0-2.14-0.94-2.14-2.14v-10.54c0-1.11,0.94-2.06,2.14-2.06h6.95v-9.43c0-1.11,1.03-2.06,2.14-2.06h12.69
		c1.11,0,2.06,0.94,2.06,2.06c0,0,0,4.03,0,9.43h7.54c1.2,0,2.14,0.94,2.14,2.06v10.54c0,1.2-0.94,2.14-2.14,2.14h-7.54
		c0,5.4,0,9.77,0,10.8c0,6.6,1.46,7.2,8.92,6.26c1.63-0.26,1.89,0.69,2.06,1.89c0.17,0.94,0.69,6.43,0.86,8.49
		C695.19,354,694.59,354.85,693.22,355.2z"/>
	<path class="st1" d="M748.86,312.76c-0.77,2.06-14.06,38.92-14.75,40.38c-0.69,1.54-1.2,2.14-2.74,2.14H718
		c-1.54,0-2.06-0.6-2.74-2.14c-0.68-1.46-13.97-38.32-14.75-40.38c-0.69-1.97,0.09-3,1.54-3c1.11,0,12.6,0,12.6,0
		c2.57,0,3,0.77,3.86,3c0.43,1.2,6.17,24.43,6.17,24.43s5.74-23.23,6.17-24.43c0.86-2.23,1.29-3,3.86-3c0,0,11.49,0,12.6,0
		C748.78,309.76,749.55,310.79,748.86,312.76z"/>
</g>
<g>
	<path class="st2" d="M129.35,279.86c-9.5,0-13.23,5.58-20.71,13.06l-13.78,13.78v-7.87c0-10.75-8.85-18.96-19.05-18.96
		c-9.5,0-13.23,5.58-20.71,13.06L9.37,338.66c-7.29,7.29-7.55,19.28-0.17,26.66c7.63,7.63,19.62,7.38,26.91,0.08l25.5-25.46
		c0,0,0.35-0.33,0,0.09c-1.25,1.47-2.25,3.1-2.99,4.81c-0.02,0.04-0.04,0.07-0.05,0.11c-0.49,1.09-0.83,2.26-1.06,3.33
		c-0.16,0.74-0.29,1.5-0.36,2.25c-0.12,1.06-0.12,1.77-0.12,1.77c0,2.12,0.36,4.17,1,6.09c0.01,0.03,0.57,1.49,0.7,1.77
		c2.91,6.52,9.42,11.12,17.04,11.12c4.65,0,8.83-1.61,12.09-4.26c0.05-0.04,1.11-0.95,1.53-1.37l21.17-21.17v7.84
		c0,10.32,8.3,18.97,18.74,18.97c10.79,0,19.09-8.66,19.09-18.97v-53.49C148.4,288.07,139.55,279.86,129.35,279.86z"/>
</g>
<g>
	<path class="st3" d="M129.35,279.86c-9.5,0-13.23,5.58-20.71,13.06l-13.78,13.78l-33.25,33.25c0,0,0.35-0.33,0,0.09
		c-1.25,1.47-2.25,3.1-2.99,4.81c-0.02,0.04-0.04,0.07-0.05,0.11c-0.49,1.09-0.83,2.26-1.06,3.33c-0.16,0.74-0.29,1.5-0.36,2.25
		c-0.12,1.06-0.12,1.77-0.12,1.77c0,2.12,0.36,4.17,1,6.09c0.01,0.03,0.57,1.49,0.7,1.77c2.91,6.52,9.42,11.12,17.04,11.12
		c4.65,0,8.83-1.61,12.09-4.26c0.05-0.04,1.11-0.95,1.53-1.37l21.17-21.17v7.84c0,10.32,8.3,18.97,18.74,18.97
		c10.79,0,19.09-8.66,19.09-18.97v-53.49C148.4,288.07,139.55,279.86,129.35,279.86z"/>
</g>
<g>
	<path class="st1" d="M58.63,344.93c1.02-2.23,2.2-3.86,2.99-4.81C60.36,341.59,59.37,343.22,58.63,344.93z"/>
	<path class="st1" d="M58.39,359.44c-0.02-0.04-0.03-0.08-0.05-0.12C58.36,359.36,58.38,359.4,58.39,359.44z"/>
	<path class="st1" d="M58.74,360.25c0-0.01-0.01-0.02-0.01-0.03C58.73,360.23,58.73,360.24,58.74,360.25z"/>
	<path class="st1" d="M88.01,367c-0.04,0.04-0.09,0.07-0.14,0.11C87.91,367.07,87.96,367.04,88.01,367z"/>
	<path class="st1" d="M57.16,350.63c0.07-0.64,0.18-1.42,0.36-2.25C57.36,349.12,57.24,349.87,57.16,350.63z"/>
	<path class="st1" d="M58.07,358.57c-0.01-0.03-0.02-0.05-0.03-0.08C58.05,358.52,58.06,358.54,58.07,358.57z"/>
	<path class="st1" d="M94.85,352.41v-45.62L62.64,339c-0.37,0.37-0.71,0.75-1.04,1.13c-0.79,0.95-1.96,2.58-2.99,4.81
		c-0.48,1.12-0.85,2.27-1.11,3.45c-0.18,0.83-0.29,1.61-0.36,2.25c-0.26,2.64,0.03,5.32,0.88,7.86c0.01,0.03,0.02,0.05,0.03,0.08
		c0.09,0.25,0.18,0.5,0.28,0.75c0.02,0.04,0.03,0.08,0.05,0.12c0.1,0.26,0.22,0.52,0.33,0.78c0,0.01,0.01,0.02,0.01,0.03
		c0.89,1.95,2.17,3.75,3.75,5.4c6.87,7.15,18.03,7.37,25.38,1.46c0.05-0.04,0.09-0.07,0.14-0.11c0.03-0.03,0.06-0.05,0.09-0.08
		C92.25,363.42,94.85,358.18,94.85,352.41z"/>
</g>
</svg>
