<?xml version="1.0" encoding="utf-8"?>
<!-- Generator: Adobe Illustrator 26.0.1, SVG Export Plug-In . SVG Version: 6.00 Build 0)  -->
<svg version="1.1" id="Capa_1" xmlns="http://www.w3.org/2000/svg" xmlns:xlink="http://www.w3.org/1999/xlink" x="0px" y="0px"
	 viewBox="0 0 1500 945.17" style="enable-background:new 0 0 1500 945.17;" xml:space="preserve">
<style type="text/css">
	.st0{fill:#FFFFFF;}
	.st1{fill:#E83A8D;}
	.st2{fill:#41A6DE;}
</style>
<g>
	<path class="st0" d="M121.14,843.63v75.26c0,3.26-2.56,5.83-5.83,5.83H95.05H81.07c-3.26,0-5.83-2.56-5.83-5.83v-4.66
		c-8.39,9.09-24.7,13.28-37.75,13.28c-7.22,0-37.28-3.73-37.28-34.95c0-26.79,19.34-39.61,37.28-42.41
		c11.65-1.63,28.19-2.33,37.75-2.8c-0.23-6.99-2.8-15.61-17.94-15.61c-13.98,0-27.26,5.13-34.02,7.92c-2.56,0.93-4.89,0-5.83-2.1
		c-1.17-2.33-7.92-19.11-8.62-20.97s-0.7-5.13,2.1-6.29c7.92-4.19,27.5-12.58,51.73-12.58c27.5,0,54.99,11.65,58.25,40.31
		C121.14,839.9,121.14,841.76,121.14,843.63z M75.24,884.17v-14.21c0,0-17.71-0.93-24.7,4.66c-8.85,6.76-6.06,21.67,8.85,21.67
		C74.08,896.28,75.24,884.17,75.24,884.17z"/>
	<path class="st0" d="M295.9,924.48c-4.2,1.4-10.95,3.03-24.93,3.03c-20.73,0-27.26-11.88-28.89-15.84
		c-10.72,9.79-24.93,15.84-40.54,15.84c-34.48,0-59.41-29.12-59.41-65.01c0-35.88,24.93-64.77,59.41-64.77
		c12.81,0,24.46,3.96,34.49,10.72v-41.01c0-3.26,2.56-5.83,5.82-5.83h34.25c3.26,0,5.83,2.56,5.83,5.83v110.91
		c0,10.95,6.99,9.09,10.95,9.09c4.66-0.23,5.36,1.86,5.83,5.13c0.23,2.8,1.63,18.41,2.09,23.07
		C301.49,920.75,299.62,923.31,295.9,924.48z M236.02,862.73c0-15.61-10.95-28.43-24.47-28.43c-13.28,0-23.53,12.81-23.53,28.43
		s10.25,28.19,23.53,28.19C225.06,890.93,236.02,878.34,236.02,862.73z"/>
	<path class="st0" d="M519.58,842.46v76.42c0,3.26-2.56,5.83-5.59,5.83h-34.25c-3.26,0-5.83-2.56-5.83-5.83v-68.5
		c0-12.81-8.39-16.31-14.45-16.31c-6.29,0-14.45,3.26-14.45,16.08v68.73c0,3.26-2.56,5.83-5.83,5.83h-34.25
		c-3.26,0-5.83-2.56-5.83-5.83v-68.5c0-12.81-8.39-16.31-14.45-16.31c-6.29,0-14.45,3.26-14.45,16.31c0,6.29,0,68.5,0,68.5
		c0,3.26-2.56,5.83-5.83,5.83h-34.25c-3.26,0-5.82-2.56-5.82-5.83V806.81c0-3.26,2.56-5.83,5.82-5.83h34.25
		c3.26,0,5.83,2.56,5.83,5.83v5.83c5.13-7.46,19.34-14.91,33.32-14.91c17.24,0,28.2,4.89,34.49,14.45
		c10.25-8.39,21.9-14.45,37.98-14.45C507,797.73,519.58,813.8,519.58,842.46z"/>
	<path class="st0" d="M661.48,843.63v75.26c0,3.26-2.56,5.83-5.83,5.83h-20.27H621.4c-3.26,0-5.83-2.56-5.83-5.83v-4.66
		c-8.39,9.09-24.7,13.28-37.74,13.28c-7.22,0-37.28-3.73-37.28-34.95c0-26.79,19.34-39.61,37.28-42.41
		c11.65-1.63,28.19-2.33,37.74-2.8c-0.23-6.99-2.79-15.61-17.94-15.61c-13.98,0-27.26,5.13-34.02,7.92c-2.56,0.93-4.89,0-5.83-2.1
		c-1.16-2.33-7.92-19.11-8.62-20.97c-0.7-1.86-0.7-5.13,2.1-6.29c7.92-4.19,27.49-12.58,51.72-12.58
		c27.49,0,54.99,11.65,58.25,40.31C661.48,839.9,661.48,841.76,661.48,843.63z M615.58,884.17v-14.21c0,0-17.71-0.93-24.7,4.66
		c-8.85,6.76-6.06,21.67,8.85,21.67C614.41,896.28,615.58,884.17,615.58,884.17z"/>
	<path class="st0" d="M789.4,808.91c-0.47,4.19-2.56,27.49-3.03,31.22c-0.7,5.36-3.96,7.92-8.62,6.52
		c-4.89-1.63-13.05-3.96-22.13-3.73c-8.62,0.23-22.37,3.96-22.37,23.77c0,6.29,0,52.43,0,52.43l-0.23,0.23v-0.23
		c0,3.03-2.56,5.59-5.59,5.59h-34.48c-3.03,0-5.83-2.56-5.83-5.59v-112.3c0-3.26,2.8-5.83,5.83-5.83h34.48
		c3.03,0,5.59,2.56,5.59,5.83v5.83c3.96-5.59,19.57-14.91,35.65-14.91c9.09,0,15.38,1.63,18.41,2.8
		C789.86,801.92,789.63,805.65,789.4,808.91z"/>
	<path class="st0" d="M929.67,924.71c-6.06,0-34.25,0-34.25,0c-4.19,0-6.76-1.86-8.85-5.83c-1.17-1.86-10.95-20.5-19.34-36.11
		h-10.72v36.11c0,3.26-2.56,5.83-5.83,5.83h-34.25c-3.03,0-5.82-2.56-5.82-5.83V767.44c0-3.03,2.56-5.83,5.82-5.83h34.25
		c3.26,0,5.83,2.8,5.83,5.83v75.26h10.48c7.46-15.38,16.31-34.02,17.24-35.88c2.33-4.19,4.66-5.83,8.85-5.83c0,0,28.43,0,34.49,0
		c6.76,0,8.15,2.8,5.59,7.22c-1.86,3.73-22.83,46.6-27.26,54.52c4.66,7.92,27.73,51.03,29.59,54.75
		C937.82,922.15,936.42,924.71,929.67,924.71z"/>
	<path class="st0" d="M987.22,876.94c4.66,13.98,18.17,17.94,27.03,18.17c14.21,0.47,22.6-2.33,30.99-6.06
		c3.03-1.16,6.29-1.16,8.16,2.33c0.93,2.33,5.36,14.45,6.52,17.24c1.4,3.73-0.23,6.29-2.33,7.69
		c-13.51,8.39-32.39,11.18-48.46,11.18c-43.57,0-67.8-29.12-67.8-65.01c0-35.88,24-64.77,65.94-64.77
		c36.58,0,58.25,28.89,58.25,64.77c0,10.48-1.16,14.45-13.75,14.45C1046.64,876.94,1028.7,876.94,987.22,876.94z M986.29,853.65
		h37.51c0-14.21-5.59-23.77-16.54-23.77C994.44,829.88,986.29,839.2,986.29,853.65z"/>
	<path class="st0" d="M1175.86,924.48c-6.29,1.4-17.71,3.03-34.02,3.03c-21.9,0-39.14-10.48-39.14-36.81c0,0,0,0,0-49.63h-18.87
		c-3.26,0-5.82-2.56-5.82-5.83v-28.66c0-3.03,2.56-5.59,5.82-5.59h18.87v-25.63c0-3.03,2.8-5.59,5.83-5.59h34.48
		c3.03,0,5.59,2.56,5.59,5.59c0,0,0,10.95,0,25.63h20.5c3.26,0,5.83,2.56,5.83,5.59v28.66c0,3.26-2.56,5.83-5.83,5.83h-20.5
		c0,14.68,0,26.56,0,29.36c0,17.94,3.96,19.57,24.23,17.01c4.43-0.7,5.12,1.86,5.59,5.13c0.47,2.56,1.87,17.47,2.33,23.07
		C1181.22,921.21,1179.59,923.54,1175.86,924.48z"/>
	<path class="st0" d="M1242.04,890.46v28.43c0,3.26-2.56,5.83-5.82,5.83h-28.66c-3.03,0-5.59-2.56-5.59-5.83v-28.43
		c0-3.26,2.56-5.83,5.59-5.83h28.66C1239.48,884.63,1242.04,887.2,1242.04,890.46z"/>
	<path class="st0" d="M1348.09,924.48c-6.29,1.4-17.71,3.03-34.02,3.03c-21.9,0-39.14-10.48-39.14-36.81c0,0,0,0,0-49.63h-18.88
		c-3.26,0-5.82-2.56-5.82-5.83v-28.66c0-3.03,2.56-5.59,5.82-5.59h18.88v-25.63c0-3.03,2.8-5.59,5.83-5.59h34.48
		c3.03,0,5.59,2.56,5.59,5.59c0,0,0,10.95,0,25.63h20.5c3.26,0,5.83,2.56,5.83,5.59v28.66c0,3.26-2.56,5.83-5.83,5.83h-20.5
		c0,14.68,0,26.56,0,29.36c0,17.94,3.96,19.57,24.23,17.01c4.43-0.7,5.13,1.86,5.59,5.13c0.47,2.56,1.87,17.47,2.33,23.07
		C1353.45,921.21,1351.82,923.54,1348.09,924.48z"/>
	<path class="st0" d="M1499.31,809.14c-2.1,5.59-38.21,105.78-40.08,109.74c-1.86,4.19-3.26,5.83-7.46,5.83h-36.35
		c-4.19,0-5.59-1.63-7.46-5.83c-1.86-3.96-37.98-104.15-40.07-109.74c-1.87-5.36,0.23-8.15,4.19-8.15c3.03,0,34.25,0,34.25,0
		c6.99,0,8.15,2.1,10.48,8.15c1.17,3.26,16.78,66.4,16.78,66.4s15.61-63.14,16.78-66.4c2.33-6.06,3.5-8.15,10.48-8.15
		c0,0,31.22,0,34.25,0C1499.08,800.99,1501.18,803.78,1499.31,809.14z"/>
</g>
<path class="st1" d="M1107.45,24.32c-63.75,0-88.77,37.44-138.93,87.6l-92.45,92.45v-52.8c0-72.13-59.38-127.24-127.8-127.24
	c-63.75,0-88.77,37.44-138.93,87.6l-306.9,306.9c-48.94,48.94-50.63,129.39-1.12,178.89c51.19,51.19,131.64,49.5,180.58,0.56
	l171.06-170.8c0,0,2.34-2.19,0.02,0.61c-8.4,9.88-15.09,20.77-20.04,32.26c-0.12,0.26-0.24,0.5-0.36,0.76
	c-3.31,7.34-5.56,15.16-7.08,22.36c-1.1,5-1.91,10.04-2.41,15.12c-0.78,7.14-0.82,11.88-0.82,11.88c0,14.23,2.39,27.97,6.74,40.85
	c0.06,0.18,3.85,10.02,4.67,11.85c19.5,43.75,63.2,74.59,114.3,74.59c31.19,0,59.27-10.8,81.14-28.61c0.31-0.25,7.47-6.4,10.29-9.21
	l142.04-142.04v52.57c0,69.22,55.69,127.29,125.7,127.29c72.4,0,128.09-58.08,128.09-127.29v-358.9
	C1235.26,79.43,1175.88,24.32,1107.45,24.32z"/>
<g>
	<path class="st2" d="M1107.45,24.32c-63.75,0-88.77,37.44-138.93,87.6l-92.45,92.45L652.97,427.47c0,0,2.34-2.19,0.02,0.61
		c-8.4,9.88-15.09,20.77-20.04,32.26c-0.12,0.26-0.24,0.5-0.36,0.76c-3.31,7.34-5.56,15.16-7.08,22.36c-1.1,5-1.91,10.04-2.41,15.12
		c-0.78,7.14-0.82,11.88-0.82,11.88c0,14.23,2.39,27.97,6.74,40.85c0.06,0.18,3.85,10.02,4.67,11.85
		c19.5,43.75,63.2,74.59,114.3,74.59c31.19,0,59.27-10.8,81.14-28.61c0.31-0.25,7.47-6.4,10.29-9.21l142.04-142.04v52.57
		c0,69.22,55.69,127.29,125.7,127.29c72.4,0,128.09-58.08,128.09-127.29v-358.9C1235.26,79.43,1175.88,24.32,1107.45,24.32z"/>
</g>
<g>
	<path class="st0" d="M632.95,460.9c6.86-14.98,14.75-25.88,20.04-32.26C644.58,438.52,637.9,449.41,632.95,460.9z"/>
	<path class="st0" d="M631.36,558.26c-0.1-0.26-0.2-0.53-0.31-0.79C631.16,557.73,631.26,558,631.36,558.26z"/>
	<path class="st0" d="M633.68,563.72c-0.03-0.07-0.06-0.13-0.09-0.2C633.62,563.59,633.65,563.65,633.68,563.72z"/>
	<path class="st0" d="M830.05,608.97c-0.3,0.25-0.62,0.48-0.92,0.73C829.43,609.45,829.74,609.22,830.05,608.97z"/>
	<path class="st0" d="M623.1,499.14c0.47-4.33,1.23-9.53,2.41-15.12C624.41,489.02,623.6,494.07,623.1,499.14z"/>
	<path class="st0" d="M629.2,552.41c-0.06-0.18-0.12-0.36-0.18-0.54C629.08,552.05,629.14,552.23,629.2,552.41z"/>
	<path class="st0" d="M875.95,511.1V205L659.83,421.12c-2.45,2.45-4.75,5.01-6.97,7.61c-5.28,6.38-13.18,17.28-20.04,32.26
		c-3.22,7.49-5.7,15.24-7.44,23.12c-1.18,5.59-1.94,10.79-2.41,15.12c-1.74,17.72,0.2,35.72,5.92,52.73
		c0.06,0.18,0.12,0.36,0.18,0.54c0.58,1.7,1.2,3.38,1.86,5.06c0.1,0.26,0.2,0.53,0.31,0.79c0.7,1.77,1.45,3.52,2.23,5.26
		c0.03,0.07,0.06,0.13,0.09,0.2c5.97,13.11,14.56,25.18,25.15,36.21c46.11,48,120.95,49.47,170.29,9.77
		c0.3-0.25,0.62-0.48,0.92-0.73c0.21-0.17,0.41-0.36,0.62-0.53C858.54,584.99,875.95,549.79,875.95,511.1z"/>
</g>
</svg>
