<?xml version="1.0" encoding="utf-8"?>
<!-- Generator: Adobe Illustrator 26.0.1, SVG Export Plug-In . SVG Version: 6.00 Build 0)  -->
<svg version="1.1" id="Capa_1" xmlns="http://www.w3.org/2000/svg" xmlns:xlink="http://www.w3.org/1999/xlink" x="0px" y="0px"
	 viewBox="0 0 2250 2250" style="enable-background:new 0 0 2250 2250;" xml:space="preserve">
<style type="text/css">
	.st0{fill:none;}
	.st1{fill:#4A078D;}
	.st2{fill:#F43290;}
	.st3{fill:#00ADFF;}
</style>
<rect class="st0" width="2250" height="2250"/>
<g>
	<path class="st1" d="M230.2,1593.7v107.5c0,4.7-3.7,8.3-8.3,8.3H193h-19.9c-4.6,0-8.3-3.7-8.3-8.3v-6.7c-12,13-35.2,19-53.8,19
		c-10.3,0-53.2-5.3-53.2-49.9c0-38.3,27.6-56.6,53.2-60.6c16.6-2.3,40.2-3.3,53.8-4c-0.3-10-4-22.3-25.6-22.3
		c-20,0-38.9,7.3-48.5,11.3c-3.7,1.3-7,0-8.3-3c-1.7-3.3-11.3-27.3-12.3-29.9c-1-2.6-1-7.3,3-9c11.3-6,39.2-18,73.7-18
		c39.2,0,78.4,16.7,83,57.6C230.2,1588.4,230.2,1591,230.2,1593.7z M164.8,1651.6v-20.3c0,0-25.3-1.3-35.2,6.7
		c-12.6,9.7-8.6,31,12.6,31C163.1,1668.9,164.8,1651.6,164.8,1651.6z"/>
	<path class="st1" d="M479.4,1709.2c-6,2-15.6,4.3-35.6,4.3c-29.5,0-38.9-17-41.2-22.6c-15.3,14-35.5,22.6-57.8,22.6
		c-49.2,0-84.7-41.6-84.7-92.9c0-51.3,35.5-92.5,84.7-92.5c18.3,0,34.9,5.7,49.2,15.3v-58.6c0-4.7,3.7-8.3,8.3-8.3h48.8
		c4.7,0,8.3,3.7,8.3,8.3v158.4c0,15.6,10,13,15.6,13c6.6-0.3,7.6,2.7,8.3,7.3c0.3,4,2.3,26.3,3,32.9
		C487.4,1703.9,484.7,1707.5,479.4,1709.2z M394,1621c0-22.3-15.6-40.6-34.9-40.6c-18.9,0-33.5,18.3-33.5,40.6
		c0,22.3,14.6,40.3,33.5,40.3C378.4,1661.3,394,1643.3,394,1621z"/>
	<path class="st1" d="M798.3,1592.1v109.2c0,4.7-3.7,8.3-8,8.3h-48.8c-4.7,0-8.3-3.7-8.3-8.3v-97.9c0-18.3-12-23.3-20.6-23.3
		c-9,0-20.6,4.6-20.6,23v98.2c0,4.7-3.7,8.3-8.3,8.3h-48.8c-4.7,0-8.3-3.7-8.3-8.3v-97.9c0-18.3-12-23.3-20.6-23.3
		c-9,0-20.6,4.6-20.6,23.3c0,9,0,97.9,0,97.9c0,4.7-3.7,8.3-8.3,8.3h-48.8c-4.7,0-8.3-3.7-8.3-8.3v-160.1c0-4.6,3.7-8.3,8.3-8.3H577
		c4.6,0,8.3,3.7,8.3,8.3v8.3c7.3-10.6,27.6-21.3,47.5-21.3c24.6,0,40.2,7,49.2,20.6c14.6-12,31.2-20.6,54.1-20.6
		C780.4,1528.2,798.3,1551.1,798.3,1592.1z"/>
	<path class="st1" d="M1000.6,1593.7v107.5c0,4.7-3.7,8.3-8.3,8.3h-28.9h-19.9c-4.6,0-8.3-3.7-8.3-8.3v-6.7c-12,13-35.2,19-53.8,19
		c-10.3,0-53.2-5.3-53.2-49.9c0-38.3,27.6-56.6,53.2-60.6c16.6-2.3,40.2-3.3,53.8-4c-0.3-10-4-22.3-25.6-22.3
		c-19.9,0-38.9,7.3-48.5,11.3c-3.7,1.3-7,0-8.3-3c-1.6-3.3-11.3-27.3-12.3-29.9c-1-2.7-1-7.3,3-9c11.3-6,39.2-18,73.7-18
		c39.2,0,78.4,16.7,83.1,57.6C1000.6,1588.4,1000.6,1591,1000.6,1593.7z M935.2,1651.6v-20.3c0,0-25.3-1.3-35.2,6.7
		c-12.6,9.7-8.6,31,12.6,31C933.5,1668.9,935.2,1651.6,935.2,1651.6z"/>
	<path class="st1" d="M1183.1,1544.1c-0.7,6-3.7,39.3-4.3,44.6c-1,7.7-5.6,11.3-12.3,9.3c-7-2.3-18.6-5.7-31.6-5.3
		c-12.3,0.3-31.9,5.7-31.9,34c0,9,0,74.9,0,74.9l-0.3,0.3v-0.3c0,4.3-3.7,8-8,8h-49.2c-4.3,0-8.3-3.7-8.3-8v-160.4
		c0-4.6,4-8.3,8.3-8.3h49.2c4.3,0,8,3.7,8,8.3v8.3c5.6-8,27.9-21.3,50.8-21.3c13,0,21.9,2.3,26.2,4
		C1183.7,1534.1,1183.4,1539.5,1183.1,1544.1z"/>
	<path class="st1" d="M1383.1,1709.5c-8.6,0-48.8,0-48.8,0c-6,0-9.6-2.7-12.6-8.3c-1.6-2.7-15.6-29.3-27.6-51.6h-15.3v51.6
		c0,4.7-3.7,8.3-8.3,8.3h-48.8c-4.3,0-8.3-3.7-8.3-8.3v-216.3c0-4.3,3.7-8.3,8.3-8.3h48.8c4.6,0,8.3,4,8.3,8.3v107.5h14.9
		c10.6-22,23.2-48.6,24.6-51.2c3.3-6,6.7-8.3,12.6-8.3c0,0,40.5,0,49.2,0c9.6,0,11.6,4,8,10.3c-2.7,5.3-32.6,66.6-38.9,77.9
		c6.7,11.3,39.5,72.9,42.2,78.2C1394.7,1705.9,1392.7,1709.5,1383.1,1709.5z"/>
	<path class="st1" d="M1465.1,1641.3c6.6,20,25.9,25.6,38.6,26c20.3,0.7,32.2-3.3,44.2-8.6c4.3-1.7,9-1.7,11.6,3.3
		c1.3,3.3,7.7,20.6,9.3,24.6c2,5.3-0.3,9-3.3,11c-19.3,12-46.2,16-69.1,16c-62.1,0-96.7-41.6-96.7-92.9c0-51.3,34.2-92.5,94-92.5
		c52.2,0,83,41.3,83,92.5c0,15-1.6,20.6-19.6,20.6C1549.8,1641.3,1524.2,1641.3,1465.1,1641.3z M1463.8,1608h53.5
		c0-20.3-8-34-23.6-34C1475.4,1574.1,1463.8,1587.4,1463.8,1608z"/>
	<path class="st1" d="M1734.1,1709.2c-9,2-25.3,4.3-48.5,4.3c-31.2,0-55.8-15-55.8-52.6c0,0,0,0,0-70.9h-26.9
		c-4.7,0-8.3-3.7-8.3-8.3v-40.9c0-4.3,3.7-8,8.3-8h26.9v-36.6c0-4.3,4-8,8.3-8h49.2c4.3,0,8,3.7,8,8c0,0,0,15.6,0,36.6h29.2
		c4.6,0,8.3,3.7,8.3,8v41c0,4.6-3.7,8.3-8.3,8.3h-29.2c0,21,0,38,0,41.9c0,25.6,5.6,28,34.6,24.3c6.3-1,7.3,2.7,8,7.3
		c0.7,3.7,2.7,25,3.3,32.9C1741.7,1704.5,1739.4,1707.9,1734.1,1709.2z"/>
	<path class="st1" d="M1828.4,1660.6v40.6c0,4.7-3.7,8.3-8.3,8.3h-40.9c-4.3,0-8-3.7-8-8.3v-40.6c0-4.6,3.7-8.3,8-8.3h40.9
		C1824.8,1652.3,1828.4,1656,1828.4,1660.6z"/>
	<path class="st1" d="M1979.6,1709.2c-9,2-25.3,4.3-48.5,4.3c-31.2,0-55.8-15-55.8-52.6c0,0,0,0,0-70.9h-26.9
		c-4.6,0-8.3-3.7-8.3-8.3v-40.9c0-4.3,3.7-8,8.3-8h26.9v-36.6c0-4.3,4-8,8.3-8h49.2c4.3,0,8,3.7,8,8c0,0,0,15.6,0,36.6h29.2
		c4.7,0,8.3,3.7,8.3,8v41c0,4.6-3.7,8.3-8.3,8.3h-29.2c0,21,0,38,0,41.9c0,25.6,5.6,28,34.6,24.3c6.3-1,7.3,2.7,8,7.3
		c0.7,3.7,2.7,25,3.3,32.9C1987.3,1704.5,1985,1707.9,1979.6,1709.2z"/>
	<path class="st1" d="M2195.3,1544.5c-3,8-54.5,151.1-57.1,156.8c-2.7,6-4.7,8.3-10.6,8.3h-51.8c-6,0-8-2.3-10.6-8.3
		c-2.6-5.7-54.1-148.8-57.1-156.8c-2.7-7.6,0.3-11.6,6-11.6c4.3,0,48.8,0,48.8,0c10,0,11.6,3,14.9,11.6c1.7,4.7,23.9,94.9,23.9,94.9
		s22.3-90.2,23.9-94.9c3.3-8.6,5-11.6,14.9-11.6c0,0,44.5,0,48.8,0C2195,1532.8,2197.9,1536.8,2195.3,1544.5z"/>
</g>
<path class="st2" d="M1636.6,423.4c-90.9,0-126.6,53.5-198.1,125.1l-131.8,132.1v-75.4c0-103-84.7-181.8-182.2-181.8
	c-90.9,0-126.6,53.5-198.1,125.1L488.8,986.9c-69.8,69.9-72.2,184.8-1.6,255.5c73,73.1,187.7,70.7,257.5,0.8l243.9-244
	c0,0,3.3-3.1,0,0.9c-12,14.1-21.5,29.7-28.6,46.1c-0.2,0.4-0.3,0.7-0.5,1.1c-4.7,10.5-7.9,21.7-10.1,31.9
	c-1.6,7.1-2.7,14.3-3.5,21.6c-1.1,10.2-1.2,16.9-1.2,16.9c0,20.3,3.4,40,9.6,58.4c0.1,0.3,5.5,14.3,6.7,16.9
	c27.8,62.5,90.1,106.6,163,106.6c44.5,0,84.5-15.4,115.7-40.9c0.4-0.4,10.6-9.2,14.7-13.1l202.5-202.9v75.1
	c0,98.9,79.4,181.8,179.2,181.8c103.2,0,182.6-82.9,182.6-181.8V605.2C1818.8,502.1,1734.1,423.4,1636.6,423.4z"/>
<g>
	<path class="st3" d="M1636.6,423.4c-90.9,0-126.6,53.5-198.1,125.1l-131.8,132.1L988.5,999.3c0,0,3.3-3.1,0,0.9
		c-12,14.1-21.5,29.7-28.6,46.1c-0.2,0.4-0.3,0.7-0.5,1.1c-4.7,10.5-7.9,21.7-10.1,31.9c-1.6,7.1-2.7,14.3-3.5,21.6
		c-1.1,10.2-1.2,16.9-1.2,16.9c0,20.3,3.4,40,9.6,58.3c0.1,0.3,5.5,14.3,6.7,16.9c27.8,62.5,90.1,106.6,163,106.6
		c44.5,0,84.5-15.4,115.7-40.9c0.4-0.4,10.6-9.2,14.7-13.1l202.5-202.9v75.1c0,98.9,79.4,181.8,179.2,181.8
		c103.2,0,182.6-82.9,182.6-181.8V605.2C1818.8,502.1,1734.1,423.4,1636.6,423.4z"/>
</g>
<g>
	<path class="st1" d="M960,1047c9.8-21.4,21-37,28.6-46.1C976.6,1015.1,967,1030.6,960,1047z"/>
	<path class="st1" d="M957.7,1186.1c-0.1-0.4-0.3-0.8-0.4-1.1C957.4,1185.4,957.6,1185.7,957.7,1186.1z"/>
	<path class="st1" d="M961,1193.9c0-0.1-0.1-0.2-0.1-0.3C960.9,1193.7,961,1193.8,961,1193.9z"/>
	<path class="st1" d="M1241,1258.5c-0.4,0.4-0.9,0.7-1.3,1.1C1240.1,1259.2,1240.6,1258.9,1241,1258.5z"/>
	<path class="st1" d="M945.9,1101.7c0.7-6.2,1.7-13.6,3.5-21.6C947.8,1087.2,946.6,1094.4,945.9,1101.7z"/>
	<path class="st1" d="M954.6,1177.7c-0.1-0.3-0.2-0.5-0.3-0.8C954.4,1177.2,954.5,1177.5,954.6,1177.7z"/>
	<path class="st1" d="M1306.5,1118.7V681.5L998.3,990.2c-3.5,3.5-6.8,7.1-9.9,10.9c-7.5,9.1-18.8,24.7-28.6,46.1
		c-4.6,10.7-8.1,21.8-10.6,33c-1.7,8-2.8,15.4-3.4,21.6c-2.5,25.3,0.3,51,8.4,75.3c0.1,0.3,0.2,0.5,0.3,0.8c0.8,2.4,1.7,4.8,2.6,7.2
		c0.2,0.4,0.3,0.8,0.5,1.1c1,2.5,2.1,5,3.2,7.5c0,0.1,0.1,0.2,0.1,0.3c8.5,18.7,20.8,36,35.9,51.7c65.7,68.6,172.4,70.7,242.8,13.9
		c0.4-0.4,0.9-0.7,1.3-1.1c0.3-0.2,0.6-0.5,0.9-0.8C1281.6,1224.3,1306.5,1174,1306.5,1118.7z"/>
</g>
</svg>
