<?xml version="1.0" encoding="utf-8"?>
<!-- Generator: Adobe Illustrator 26.0.1, SVG Export Plug-In . SVG Version: 6.00 Build 0)  -->
<svg version="1.1" id="Capa_1" xmlns="http://www.w3.org/2000/svg" xmlns:xlink="http://www.w3.org/1999/xlink" x="0px" y="0px"
	 viewBox="0 0 1500 1500" style="enable-background:new 0 0 1500 1500;" xml:space="preserve">
<style type="text/css">
	.st0{fill:none;}
	.st1{fill:#4A078D;}
	.st2{fill:#F43290;}
	.st3{fill:#00ADFF;}
</style>
<rect class="st0" width="1500" height="1500"/>
<g>
	<path class="st1" d="M480.53,704.59v55.36c0,2.4-1.89,4.28-4.28,4.28h-14.91h-10.28c-2.4,0-4.28-1.88-4.28-4.28v-3.43
		c-6.17,6.68-18.17,9.77-27.77,9.77c-5.31,0-27.42-2.74-27.42-25.71c0-19.71,14.22-29.14,27.42-31.19
		c8.57-1.2,20.74-1.71,27.77-2.06c-0.17-5.14-2.06-11.48-13.2-11.48c-10.28,0-20.05,3.77-25.02,5.83c-1.89,0.69-3.6,0-4.28-1.54
		c-0.86-1.71-5.83-14.05-6.34-15.42c-0.52-1.37-0.52-3.77,1.54-4.63c5.83-3.09,20.22-9.26,38.05-9.26
		c20.22,0,40.45,8.57,42.85,29.65C480.53,701.85,480.53,703.22,480.53,704.59z M446.77,734.42v-10.45c0,0-13.03-0.69-18.17,3.43
		c-6.51,4.97-4.46,15.94,6.51,15.94C445.91,743.33,446.77,734.42,446.77,734.42z"/>
	<path class="st1" d="M609.08,764.07c-3.09,1.03-8.06,2.23-18.34,2.23c-15.25,0-20.05-8.74-21.25-11.65
		c-7.89,7.2-18.34,11.65-29.82,11.65c-25.37,0-43.7-21.42-43.7-47.82c0-26.39,18.34-47.65,43.7-47.65c9.43,0,17.99,2.91,25.37,7.88
		v-30.16c0-2.4,1.88-4.28,4.28-4.28h25.19c2.4,0,4.28,1.89,4.28,4.28v81.58c0,8.06,5.14,6.68,8.06,6.68
		c3.43-0.17,3.94,1.37,4.28,3.77c0.17,2.06,1.2,13.54,1.54,16.97C613.19,761.32,611.82,763.21,609.08,764.07z M565.03,718.65
		c0-11.48-8.06-20.91-18-20.91c-9.77,0-17.31,9.43-17.31,20.91c0,11.48,7.54,20.74,17.31,20.74
		C556.98,739.39,565.03,730.13,565.03,718.65z"/>
	<path class="st1" d="M773.62,703.74v56.21c0,2.4-1.89,4.28-4.11,4.28h-25.19c-2.4,0-4.28-1.88-4.28-4.28v-50.39
		c0-9.43-6.17-12-10.63-12c-4.63,0-10.63,2.4-10.63,11.83v50.56c0,2.4-1.89,4.28-4.28,4.28h-25.19c-2.4,0-4.28-1.88-4.28-4.28
		v-50.39c0-9.43-6.17-12-10.63-12c-4.63,0-10.63,2.4-10.63,12c0,4.63,0,50.39,0,50.39c0,2.4-1.89,4.28-4.28,4.28h-25.19
		c-2.4,0-4.28-1.88-4.28-4.28v-82.44c0-2.4,1.88-4.28,4.28-4.28h25.19c2.4,0,4.28,1.88,4.28,4.28v4.28
		c3.77-5.48,14.23-10.97,24.51-10.97c12.68,0,20.74,3.6,25.37,10.63c7.54-6.17,16.11-10.63,27.94-10.63
		C764.36,670.83,773.62,682.66,773.62,703.74z"/>
	<path class="st1" d="M878,704.59v55.36c0,2.4-1.89,4.28-4.28,4.28H858.8h-10.28c-2.4,0-4.28-1.88-4.28-4.28v-3.43
		c-6.17,6.68-18.17,9.77-27.76,9.77c-5.31,0-27.42-2.74-27.42-25.71c0-19.71,14.23-29.14,27.42-31.19
		c8.57-1.2,20.74-1.71,27.76-2.06c-0.17-5.14-2.05-11.48-13.2-11.48c-10.28,0-20.05,3.77-25.02,5.83c-1.89,0.69-3.6,0-4.28-1.54
		c-0.86-1.71-5.83-14.05-6.34-15.42c-0.51-1.37-0.51-3.77,1.54-4.63c5.83-3.09,20.22-9.26,38.05-9.26
		c20.22,0,40.45,8.57,42.85,29.65C878,701.85,878,703.22,878,704.59z M844.23,734.42v-10.45c0,0-13.02-0.69-18.17,3.43
		c-6.51,4.97-4.46,15.94,6.51,15.94C843.38,743.33,844.23,734.42,844.23,734.42z"/>
	<path class="st1" d="M972.09,679.06c-0.34,3.08-1.89,20.22-2.23,22.97c-0.51,3.94-2.91,5.83-6.34,4.8c-3.6-1.2-9.6-2.91-16.28-2.74
		c-6.34,0.17-16.46,2.91-16.46,17.48c0,4.63,0,38.56,0,38.56l-0.17,0.17v-0.17c0,2.23-1.88,4.11-4.11,4.11h-25.37
		c-2.23,0-4.28-1.88-4.28-4.11v-82.61c0-2.4,2.06-4.28,4.28-4.28h25.37c2.23,0,4.11,1.88,4.11,4.28v4.28
		c2.92-4.11,14.4-10.97,26.22-10.97c6.68,0,11.31,1.2,13.54,2.06C972.43,673.92,972.26,676.66,972.09,679.06z"/>
	<path class="st1" d="M1075.27,764.24c-4.46,0-25.19,0-25.19,0c-3.09,0-4.97-1.37-6.51-4.28c-0.86-1.37-8.06-15.08-14.23-26.56
		h-7.88v26.56c0,2.4-1.89,4.28-4.28,4.28h-25.2c-2.23,0-4.28-1.88-4.28-4.28v-111.4c0-2.23,1.88-4.28,4.28-4.28h25.2
		c2.4,0,4.28,2.06,4.28,4.28v55.36h7.71c5.49-11.31,12-25.02,12.68-26.39c1.71-3.09,3.43-4.28,6.51-4.28c0,0,20.91,0,25.37,0
		c4.97,0,6,2.06,4.11,5.31c-1.37,2.74-16.8,34.28-20.05,40.1c3.43,5.83,20.4,37.53,21.77,40.28
		C1081.27,762.35,1080.24,764.24,1075.27,764.24z"/>
	<path class="st1" d="M1117.61,729.1c3.43,10.28,13.37,13.2,19.88,13.37c10.46,0.34,16.62-1.71,22.79-4.46
		c2.23-0.86,4.63-0.86,6,1.71c0.68,1.71,3.94,10.63,4.8,12.68c1.03,2.74-0.17,4.63-1.71,5.66c-9.94,6.17-23.82,8.23-35.65,8.23
		c-32.05,0-49.87-21.42-49.87-47.82c0-26.39,17.65-47.65,48.5-47.65c26.91,0,42.85,21.25,42.85,47.65c0,7.71-0.86,10.63-10.11,10.63
		C1161.31,729.1,1148.11,729.1,1117.61,729.1z M1116.92,711.96h27.59c0-10.45-4.11-17.48-12.17-17.48
		C1122.92,694.48,1116.92,701.34,1116.92,711.96z"/>
	<path class="st1" d="M1256.37,764.07c-4.63,1.03-13.03,2.23-25.02,2.23c-16.11,0-28.79-7.71-28.79-27.08c0,0,0,0,0-36.51h-13.88
		c-2.4,0-4.28-1.89-4.28-4.28v-21.08c0-2.23,1.88-4.11,4.28-4.11h13.88v-18.85c0-2.23,2.06-4.11,4.28-4.11h25.37
		c2.23,0,4.11,1.89,4.11,4.11c0,0,0,8.05,0,18.85h15.08c2.4,0,4.28,1.88,4.28,4.11v21.08c0,2.4-1.89,4.28-4.28,4.28h-15.08
		c0,10.8,0,19.54,0,21.59c0,13.2,2.92,14.4,17.83,12.51c3.26-0.51,3.77,1.37,4.11,3.77c0.34,1.88,1.37,12.85,1.71,16.97
		C1260.31,761.67,1259.11,763.38,1256.37,764.07z"/>
	<path class="st1" d="M1305.04,739.04v20.91c0,2.4-1.88,4.28-4.28,4.28h-21.08c-2.23,0-4.11-1.88-4.11-4.28v-20.91
		c0-2.4,1.89-4.28,4.11-4.28h21.08C1303.16,734.76,1305.04,736.64,1305.04,739.04z"/>
	<path class="st1" d="M1383.05,764.07c-4.63,1.03-13.03,2.23-25.02,2.23c-16.11,0-28.79-7.71-28.79-27.08c0,0,0,0,0-36.51h-13.88
		c-2.4,0-4.28-1.89-4.28-4.28v-21.08c0-2.23,1.88-4.11,4.28-4.11h13.88v-18.85c0-2.23,2.06-4.11,4.28-4.11h25.36
		c2.23,0,4.11,1.89,4.11,4.11c0,0,0,8.05,0,18.85h15.08c2.4,0,4.28,1.88,4.28,4.11v21.08c0,2.4-1.89,4.28-4.28,4.28H1363
		c0,10.8,0,19.54,0,21.59c0,13.2,2.91,14.4,17.82,12.51c3.26-0.51,3.77,1.37,4.11,3.77c0.34,1.88,1.37,12.85,1.71,16.97
		C1387,761.67,1385.8,763.38,1383.05,764.07z"/>
	<path class="st1" d="M1494.29,679.23c-1.54,4.11-28.11,77.81-29.48,80.72c-1.37,3.09-2.4,4.28-5.48,4.28h-26.74
		c-3.09,0-4.11-1.2-5.49-4.28c-1.37-2.91-27.94-76.61-29.48-80.72c-1.37-3.94,0.17-6,3.08-6c2.23,0,25.2,0,25.2,0
		c5.14,0,6,1.54,7.71,6c0.86,2.4,12.34,48.85,12.34,48.85s11.48-46.45,12.34-48.85c1.71-4.46,2.57-6,7.71-6c0,0,22.97,0,25.19,0
		C1494.12,673.23,1495.66,675.29,1494.29,679.23z"/>
</g>
<path class="st2" d="M255.83,613.46c-18.99,0-26.45,11.16-41.39,26.1l-27.54,27.54v-15.73c0-21.49-17.69-37.91-38.08-37.91
	c-18.99,0-26.45,11.16-41.39,26.1L15.98,731c-14.58,14.58-15.09,38.55-0.34,53.3c15.25,15.25,39.22,14.75,53.8,0.17l50.97-50.89
	c0,0,0.7-0.65,0.01,0.18c-2.5,2.94-4.5,6.19-5.97,9.61c-0.03,0.08-0.07,0.15-0.11,0.23c-0.99,2.19-1.66,4.52-2.11,6.66
	c-0.33,1.49-0.57,2.99-0.72,4.5c-0.23,2.13-0.24,3.54-0.24,3.54c0,4.24,0.71,8.33,2.01,12.17c0.02,0.05,1.15,2.98,1.39,3.53
	c5.81,13.03,18.83,22.22,34.06,22.22c9.29,0,17.66-3.22,24.18-8.52c0.09-0.07,2.23-1.91,3.06-2.74l42.32-42.32v15.66
	c0,20.62,16.59,37.93,37.45,37.93c21.57,0,38.16-17.3,38.16-37.93V651.37C293.91,629.88,276.22,613.46,255.83,613.46z"/>
<g>
	<path class="st3" d="M255.83,613.46c-18.99,0-26.45,11.16-41.39,26.1l-27.54,27.54l-66.48,66.48c0,0,0.7-0.65,0.01,0.18
		c-2.5,2.94-4.5,6.19-5.97,9.61c-0.03,0.08-0.07,0.15-0.11,0.23c-0.99,2.19-1.66,4.52-2.11,6.66c-0.33,1.49-0.57,2.99-0.72,4.5
		c-0.23,2.13-0.24,3.54-0.24,3.54c0,4.24,0.71,8.33,2.01,12.17c0.02,0.05,1.15,2.98,1.39,3.53c5.81,13.03,18.83,22.22,34.06,22.22
		c9.29,0,17.66-3.22,24.18-8.52c0.09-0.07,2.23-1.91,3.06-2.74l42.32-42.32v15.66c0,20.62,16.59,37.93,37.45,37.93
		c21.57,0,38.16-17.3,38.16-37.93V651.37C293.91,629.88,276.22,613.46,255.83,613.46z"/>
</g>
<g>
	<path class="st1" d="M114.45,743.54c2.04-4.46,4.4-7.71,5.97-9.61C117.92,736.87,115.92,740.12,114.45,743.54z"/>
	<path class="st1" d="M113.98,772.55c-0.03-0.08-0.06-0.16-0.09-0.24C113.92,772.39,113.95,772.47,113.98,772.55z"/>
	<path class="st1" d="M114.67,774.18c-0.01-0.02-0.02-0.04-0.03-0.06C114.65,774.14,114.66,774.16,114.67,774.18z"/>
	<path class="st1" d="M173.18,787.66c-0.09,0.07-0.18,0.14-0.27,0.22C172.99,787.8,173.09,787.73,173.18,787.66z"/>
	<path class="st1" d="M111.52,754.94c0.14-1.29,0.37-2.84,0.72-4.5C111.91,751.92,111.66,753.42,111.52,754.94z"/>
	<path class="st1" d="M113.33,770.81c-0.02-0.05-0.04-0.11-0.05-0.16C113.3,770.7,113.32,770.76,113.33,770.81z"/>
	<path class="st1" d="M186.85,758.5v-91.2l-64.39,64.39c-0.73,0.73-1.42,1.49-2.08,2.27c-1.57,1.9-3.93,5.15-5.97,9.61
		c-0.96,2.23-1.7,4.54-2.22,6.89c-0.35,1.66-0.58,3.22-0.72,4.5c-0.52,5.28,0.06,10.64,1.76,15.71c0.02,0.05,0.04,0.11,0.05,0.16
		c0.17,0.51,0.36,1.01,0.55,1.51c0.03,0.08,0.06,0.16,0.09,0.24c0.21,0.53,0.43,1.05,0.67,1.57c0.01,0.02,0.02,0.04,0.03,0.06
		c1.78,3.91,4.34,7.5,7.49,10.79c13.74,14.3,36.04,14.74,50.74,2.91c0.09-0.07,0.18-0.14,0.27-0.22c0.06-0.05,0.12-0.11,0.18-0.16
		C181.67,780.52,186.85,770.03,186.85,758.5z"/>
</g>
</svg>
