<?xml version="1.0" encoding="utf-8"?>
<!-- Generator: Adobe Illustrator 26.0.1, SVG Export Plug-In . SVG Version: 6.00 Build 0)  -->
<svg version="1.1" id="Capa_1" xmlns="http://www.w3.org/2000/svg" xmlns:xlink="http://www.w3.org/1999/xlink" x="0px" y="0px"
	 viewBox="0 0 1500 202.44" style="enable-background:new 0 0 1500 202.44;" xml:space="preserve">
<style type="text/css">
	.st0{fill:#808080;}
	.st1{fill:#CBCBCB;}
	.st2{fill:#B2B2B2;}
</style>
<g>
	<path class="st0" d="M478.92,103.24v55.73c0,2.42-1.9,4.31-4.31,4.31H459.6h-10.35c-2.42,0-4.31-1.9-4.31-4.31v-3.45
		c-6.21,6.73-18.29,9.83-27.95,9.83c-5.35,0-27.6-2.76-27.6-25.88c0-19.84,14.32-29.33,27.6-31.4c8.63-1.21,20.88-1.73,27.95-2.07
		c-0.17-5.18-2.07-11.56-13.29-11.56c-10.35,0-20.19,3.8-25.19,5.87c-1.9,0.69-3.62,0-4.31-1.55c-0.86-1.73-5.87-14.15-6.38-15.53
		s-0.52-3.8,1.55-4.66c5.87-3.11,20.36-9.32,38.3-9.32c20.36,0,40.72,8.63,43.13,29.85C478.92,100.48,478.92,101.86,478.92,103.24z
		 M444.93,133.26v-10.52c0,0-13.11-0.69-18.29,3.45c-6.56,5-4.49,16.05,6.56,16.05C444.07,142.23,444.93,133.26,444.93,133.26z"/>
	<path class="st0" d="M608.33,163.11c-3.11,1.04-8.11,2.24-18.46,2.24c-15.35,0-20.19-8.8-21.39-11.73
		c-7.94,7.25-18.46,11.73-30.02,11.73c-25.54,0-44-21.57-44-48.14c0-26.57,18.46-47.97,44-47.97c9.49,0,18.12,2.93,25.54,7.94V46.82
		c0-2.42,1.9-4.31,4.31-4.31h25.36c2.42,0,4.31,1.9,4.31,4.31v82.13c0,8.11,5.17,6.73,8.11,6.73c3.45-0.17,3.97,1.38,4.31,3.8
		c0.17,2.07,1.21,13.63,1.55,17.08C612.47,160.35,611.09,162.24,608.33,163.11z M563.99,117.38c0-11.56-8.11-21.05-18.12-21.05
		c-9.83,0-17.43,9.49-17.43,21.05s7.59,20.88,17.43,20.88C555.88,138.26,563.99,128.95,563.99,117.38z"/>
	<path class="st0" d="M773.97,102.37v56.59c0,2.42-1.9,4.31-4.14,4.31h-25.36c-2.42,0-4.31-1.9-4.31-4.31v-50.73
		c0-9.49-6.21-12.08-10.7-12.08c-4.66,0-10.7,2.42-10.7,11.91v50.9c0,2.42-1.9,4.31-4.31,4.31h-25.36c-2.42,0-4.31-1.9-4.31-4.31
		v-50.73c0-9.49-6.21-12.08-10.7-12.08c-4.66,0-10.7,2.42-10.7,12.08c0,4.66,0,50.73,0,50.73c0,2.42-1.9,4.31-4.31,4.31H633.7
		c-2.42,0-4.31-1.9-4.31-4.31V75.98c0-2.42,1.9-4.31,4.31-4.31h25.36c2.42,0,4.31,1.9,4.31,4.31v4.31
		c3.8-5.52,14.32-11.04,24.67-11.04c12.77,0,20.88,3.62,25.54,10.7c7.59-6.21,16.22-10.7,28.12-10.7
		C764.66,69.25,773.97,81.15,773.97,102.37z"/>
	<path class="st0" d="M879.06,103.24v55.73c0,2.42-1.9,4.31-4.31,4.31h-15.01h-10.35c-2.42,0-4.31-1.9-4.31-4.31v-3.45
		c-6.21,6.73-18.29,9.83-27.95,9.83c-5.35,0-27.61-2.76-27.61-25.88c0-19.84,14.32-29.33,27.61-31.4
		c8.63-1.21,20.88-1.73,27.95-2.07c-0.17-5.18-2.07-11.56-13.29-11.56c-10.35,0-20.19,3.8-25.19,5.87c-1.9,0.69-3.62,0-4.31-1.55
		c-0.86-1.73-5.87-14.15-6.38-15.53c-0.52-1.38-0.52-3.8,1.55-4.66c5.87-3.11,20.36-9.32,38.3-9.32c20.36,0,40.72,8.63,43.14,29.85
		C879.06,100.48,879.06,101.86,879.06,103.24z M845.06,133.26v-10.52c0,0-13.11-0.69-18.29,3.45c-6.56,5-4.49,16.05,6.56,16.05
		C844.2,142.23,845.06,133.26,845.06,133.26z"/>
	<path class="st0" d="M973.78,77.53c-0.34,3.11-1.9,20.36-2.24,23.12c-0.52,3.97-2.93,5.87-6.38,4.83
		c-3.62-1.21-9.66-2.93-16.39-2.76c-6.38,0.17-16.57,2.93-16.57,17.6c0,4.66,0,38.82,0,38.82l-0.17,0.17v-0.17
		c0,2.24-1.9,4.14-4.14,4.14h-25.54c-2.24,0-4.31-1.9-4.31-4.14V75.98c0-2.42,2.07-4.31,4.31-4.31h25.54c2.24,0,4.14,1.9,4.14,4.31
		v4.31c2.94-4.14,14.49-11.04,26.4-11.04c6.73,0,11.39,1.21,13.63,2.07C974.12,72.35,973.95,75.11,973.78,77.53z"/>
	<path class="st0" d="M1077.65,163.28c-4.49,0-25.36,0-25.36,0c-3.11,0-5-1.38-6.56-4.31c-0.86-1.38-8.11-15.18-14.32-26.74h-7.94
		v26.74c0,2.42-1.9,4.31-4.31,4.31H993.8c-2.24,0-4.31-1.9-4.31-4.31V46.82c0-2.24,1.9-4.31,4.31-4.31h25.37
		c2.42,0,4.31,2.07,4.31,4.31v55.73h7.76c5.52-11.39,12.08-25.19,12.77-26.57c1.73-3.11,3.45-4.31,6.56-4.31c0,0,21.05,0,25.54,0
		c5,0,6.04,2.07,4.14,5.35c-1.38,2.76-16.91,34.51-20.19,40.37c3.45,5.87,20.53,37.79,21.91,40.55
		C1083.69,161.38,1082.66,163.28,1077.65,163.28z"/>
	<path class="st0" d="M1120.28,127.91c3.45,10.35,13.46,13.29,20.01,13.46c10.53,0.35,16.74-1.73,22.95-4.49
		c2.24-0.86,4.66-0.86,6.04,1.73c0.69,1.73,3.97,10.7,4.83,12.77c1.04,2.76-0.17,4.66-1.72,5.69c-10.01,6.21-23.98,8.28-35.89,8.28
		c-32.26,0-50.21-21.57-50.21-48.14c0-26.57,17.77-47.97,48.83-47.97c27.09,0,43.13,21.39,43.13,47.97c0,7.76-0.86,10.7-10.18,10.7
		C1164.27,127.91,1150.99,127.91,1120.28,127.91z M1119.59,110.66h27.78c0-10.52-4.14-17.6-12.25-17.6
		C1125.62,93.06,1119.59,99.96,1119.59,110.66z"/>
	<path class="st0" d="M1259.97,163.11c-4.66,1.04-13.11,2.24-25.19,2.24c-16.22,0-28.99-7.76-28.99-27.26c0,0,0,0,0-36.75h-13.98
		c-2.42,0-4.31-1.9-4.31-4.31V75.8c0-2.24,1.9-4.14,4.31-4.14h13.98V52.68c0-2.24,2.07-4.14,4.31-4.14h25.54
		c2.24,0,4.14,1.9,4.14,4.14c0,0,0,8.11,0,18.98h15.18c2.42,0,4.31,1.9,4.31,4.14v21.22c0,2.42-1.9,4.31-4.31,4.31h-15.18
		c0,10.87,0,19.67,0,21.74c0,13.29,2.94,14.49,17.95,12.6c3.28-0.52,3.8,1.38,4.14,3.8c0.35,1.9,1.38,12.94,1.73,17.08
		C1263.94,160.69,1262.73,162.42,1259.97,163.11z"/>
	<path class="st0" d="M1308.97,137.92v21.05c0,2.42-1.9,4.31-4.31,4.31h-21.22c-2.24,0-4.14-1.9-4.14-4.31v-21.05
		c0-2.42,1.9-4.31,4.14-4.31h21.22C1307.08,133.6,1308.97,135.5,1308.97,137.92z"/>
	<path class="st0" d="M1387.51,163.11c-4.66,1.04-13.11,2.24-25.19,2.24c-16.22,0-28.99-7.76-28.99-27.26c0,0,0,0,0-36.75h-13.98
		c-2.42,0-4.31-1.9-4.31-4.31V75.8c0-2.24,1.9-4.14,4.31-4.14h13.98V52.68c0-2.24,2.07-4.14,4.31-4.14h25.53
		c2.24,0,4.14,1.9,4.14,4.14c0,0,0,8.11,0,18.98h15.18c2.42,0,4.31,1.9,4.31,4.14v21.22c0,2.42-1.9,4.31-4.31,4.31h-15.18
		c0,10.87,0,19.67,0,21.74c0,13.29,2.93,14.49,17.94,12.6c3.28-0.52,3.8,1.38,4.14,3.8c0.34,1.9,1.38,12.94,1.73,17.08
		C1391.48,160.69,1390.27,162.42,1387.51,163.11z"/>
	<path class="st0" d="M1499.49,77.7c-1.55,4.14-28.3,78.33-29.68,81.27c-1.38,3.11-2.42,4.31-5.52,4.31h-26.92
		c-3.11,0-4.14-1.21-5.52-4.31c-1.38-2.93-28.12-77.12-29.68-81.27c-1.38-3.97,0.17-6.04,3.1-6.04c2.24,0,25.37,0,25.37,0
		c5.17,0,6.04,1.55,7.76,6.04c0.86,2.42,12.42,49.17,12.42,49.17s11.56-46.76,12.42-49.17c1.72-4.49,2.59-6.04,7.76-6.04
		c0,0,23.12,0,25.36,0C1499.32,71.66,1500.87,73.73,1499.49,77.7z"/>
</g>
<g>
	<path class="st1" d="M252.71,11.49c-19.12,0-26.63,11.23-41.67,26.28L183.31,65.5V49.66c0-21.64-17.81-38.17-38.33-38.17
		c-19.12,0-26.63,11.23-41.67,26.28l-92.06,92.06c-14.68,14.68-15.19,38.81-0.34,53.66c15.36,15.36,39.49,14.85,54.17,0.17
		l51.31-51.23c0,0,0.7-0.66,0.01,0.18c-2.52,2.96-4.53,6.23-6.01,9.68c-0.04,0.08-0.07,0.15-0.11,0.23
		c-0.99,2.2-1.67,4.55-2.12,6.71c-0.33,1.5-0.57,3.01-0.72,4.53c-0.24,2.14-0.25,3.56-0.25,3.56c0,4.27,0.72,8.39,2.02,12.25
		c0.02,0.05,1.15,3,1.4,3.55c5.85,13.12,18.96,22.37,34.29,22.37c9.36,0,17.78-3.24,24.34-8.58c0.09-0.07,2.24-1.92,3.09-2.76
		l42.61-42.61v15.77c0,20.76,16.7,38.18,37.7,38.18c21.72,0,38.42-17.42,38.42-38.18V49.66C291.04,28.02,273.23,11.49,252.71,11.49z
		"/>
</g>
<g>
	<path class="st2" d="M252.71,11.49c-19.12,0-26.63,11.23-41.67,26.28L183.31,65.5l-66.92,66.92c0,0,0.7-0.66,0.01,0.18
		c-2.52,2.96-4.53,6.23-6.01,9.68c-0.04,0.08-0.07,0.15-0.11,0.23c-0.99,2.2-1.67,4.55-2.12,6.71c-0.33,1.5-0.57,3.01-0.72,4.53
		c-0.24,2.14-0.25,3.56-0.25,3.56c0,4.27,0.72,8.39,2.02,12.25c0.02,0.05,1.15,3,1.4,3.55c5.85,13.12,18.96,22.37,34.29,22.37
		c9.36,0,17.78-3.24,24.34-8.58c0.09-0.07,2.24-1.92,3.09-2.76l42.61-42.61v15.77c0,20.76,16.7,38.18,37.7,38.18
		c21.72,0,38.42-17.42,38.42-38.18V49.66C291.04,28.02,273.23,11.49,252.71,11.49z"/>
</g>
<g>
	<path class="st0" d="M110.38,142.45c2.06-4.49,4.43-7.76,6.01-9.68C113.87,135.73,111.86,139,110.38,142.45z"/>
	<path class="st0" d="M109.9,171.65c-0.03-0.08-0.06-0.16-0.09-0.24C109.84,171.49,109.87,171.57,109.9,171.65z"/>
	<path class="st0" d="M110.6,173.29c-0.01-0.02-0.02-0.04-0.03-0.06C110.58,173.25,110.59,173.27,110.6,173.29z"/>
	<path class="st0" d="M169.5,186.86c-0.09,0.07-0.19,0.14-0.28,0.22C169.32,187.01,169.41,186.94,169.5,186.86z"/>
	<path class="st0" d="M107.42,153.92c0.14-1.3,0.37-2.86,0.72-4.53C107.82,150.88,107.57,152.39,107.42,153.92z"/>
	<path class="st0" d="M109.25,169.9c-0.02-0.05-0.04-0.11-0.05-0.16C109.22,169.79,109.24,169.84,109.25,169.9z"/>
	<path class="st0" d="M183.27,157.5V65.69l-64.83,64.82c-0.74,0.74-1.43,1.5-2.09,2.28c-1.58,1.91-3.95,5.18-6.01,9.68
		c-0.97,2.25-1.71,4.57-2.23,6.93c-0.36,1.68-0.58,3.24-0.72,4.53c-0.52,5.31,0.06,10.71,1.77,15.82c0.02,0.05,0.04,0.11,0.05,0.16
		c0.17,0.51,0.36,1.01,0.56,1.52c0.03,0.08,0.06,0.16,0.09,0.24c0.21,0.53,0.43,1.06,0.67,1.58c0.01,0.02,0.02,0.04,0.03,0.06
		c1.79,3.93,4.37,7.55,7.54,10.86c13.83,14.4,36.28,14.84,51.08,2.93c0.09-0.07,0.19-0.14,0.28-0.22c0.06-0.05,0.12-0.11,0.19-0.16
		C178.05,179.67,183.27,169.11,183.27,157.5z"/>
</g>
</svg>
