<?xml version="1.0" encoding="utf-8"?>
<!-- Generator: Adobe Illustrator 26.0.1, SVG Export Plug-In . SVG Version: 6.00 Build 0)  -->
<svg version="1.1" id="Capa_1" xmlns="http://www.w3.org/2000/svg" xmlns:xlink="http://www.w3.org/1999/xlink" x="0px" y="0px"
	 viewBox="0 0 1500 941.04" style="enable-background:new 0 0 1500 941.04;" xml:space="preserve">
<style type="text/css">
	.st0{fill:#472681;}
	.st1{fill:#E83A8D;}
	.st2{fill:#41A6DE;}
</style>
<g>
	<path class="st0" d="M120.91,833.31v75.2c0,3.26-2.56,5.82-5.82,5.82H94.84H80.87c-3.26,0-5.82-2.56-5.82-5.82v-4.66
		c-8.38,9.08-24.68,13.27-37.72,13.27c-7.21,0-37.25-3.72-37.25-34.92c0-26.77,19.32-39.58,37.25-42.37
		c11.64-1.63,28.17-2.33,37.72-2.79c-0.23-6.98-2.79-15.6-17.93-15.6c-13.97,0-27.24,5.12-33.99,7.92c-2.56,0.93-4.89,0-5.82-2.1
		c-1.16-2.33-7.91-19.09-8.61-20.95c-0.7-1.86-0.7-5.12,2.09-6.29c7.92-4.19,27.47-12.57,51.68-12.57
		c27.47,0,54.94,11.64,58.2,40.27C120.91,829.59,120.91,831.45,120.91,833.31z M75.05,873.82v-14.2c0,0-17.69-0.93-24.68,4.66
		c-8.85,6.75-6.05,21.65,8.85,21.65C73.89,885.93,75.05,873.82,75.05,873.82z"/>
	<path class="st0" d="M295.52,914.1c-4.19,1.4-10.94,3.03-24.91,3.03c-20.72,0-27.24-11.87-28.86-15.83
		c-10.71,9.78-24.91,15.83-40.51,15.83c-34.45,0-59.37-29.1-59.37-64.95c0-35.85,24.91-64.72,59.37-64.72
		c12.8,0,24.44,3.96,34.46,10.71v-40.97c0-3.26,2.56-5.82,5.82-5.82h34.22c3.26,0,5.82,2.56,5.82,5.82V868
		c0,10.94,6.98,9.08,10.94,9.08c4.65-0.23,5.35,1.86,5.82,5.12c0.23,2.79,1.63,18.39,2.09,23.05
		C301.11,910.37,299.25,912.93,295.52,914.1z M235.69,852.4c0-15.6-10.94-28.4-24.45-28.4c-13.27,0-23.51,12.8-23.51,28.4
		c0,15.6,10.24,28.17,23.51,28.17C224.75,880.57,235.69,868,235.69,852.4z"/>
	<path class="st0" d="M519.02,832.15v76.36c0,3.26-2.56,5.82-5.59,5.82h-34.22c-3.26,0-5.82-2.56-5.82-5.82v-68.44
		c0-12.8-8.38-16.3-14.43-16.3c-6.29,0-14.43,3.26-14.43,16.06v68.68c0,3.26-2.56,5.82-5.82,5.82h-34.22
		c-3.26,0-5.82-2.56-5.82-5.82v-68.44c0-12.8-8.38-16.3-14.43-16.3c-6.29,0-14.43,3.26-14.43,16.3c0,6.29,0,68.44,0,68.44
		c0,3.26-2.56,5.82-5.82,5.82h-34.22c-3.26,0-5.82-2.56-5.82-5.82V796.53c0-3.26,2.56-5.82,5.82-5.82h34.22
		c3.26,0,5.82,2.56,5.82,5.82v5.82c5.12-7.45,19.32-14.9,33.29-14.9c17.23,0,28.17,4.89,34.46,14.43
		c10.24-8.38,21.88-14.43,37.95-14.43C506.45,787.45,519.02,803.52,519.02,832.15z"/>
	<path class="st0" d="M660.8,833.31v75.2c0,3.26-2.56,5.82-5.82,5.82h-20.25h-13.97c-3.26,0-5.82-2.56-5.82-5.82v-4.66
		c-8.38,9.08-24.68,13.27-37.71,13.27c-7.22,0-37.25-3.72-37.25-34.92c0-26.77,19.32-39.58,37.25-42.37
		c11.64-1.63,28.17-2.33,37.71-2.79c-0.23-6.98-2.79-15.6-17.93-15.6c-13.97,0-27.24,5.12-33.99,7.92c-2.56,0.93-4.89,0-5.82-2.1
		c-1.16-2.33-7.91-19.09-8.61-20.95c-0.7-1.86-0.7-5.12,2.1-6.29c7.92-4.19,27.47-12.57,51.68-12.57c27.47,0,54.94,11.64,58.2,40.27
		C660.8,829.59,660.8,831.45,660.8,833.31z M614.94,873.82v-14.2c0,0-17.69-0.93-24.68,4.66c-8.85,6.75-6.05,21.65,8.85,21.65
		C613.77,885.93,614.94,873.82,614.94,873.82z"/>
	<path class="st0" d="M788.61,798.63c-0.46,4.19-2.56,27.47-3.03,31.2c-0.7,5.35-3.96,7.91-8.61,6.52
		c-4.89-1.63-13.04-3.96-22.11-3.72c-8.61,0.23-22.35,3.96-22.35,23.75c0,6.29,0,52.38,0,52.38l-0.23,0.23v-0.23
		c0,3.03-2.56,5.59-5.59,5.59h-34.45c-3.03,0-5.82-2.56-5.82-5.59V796.53c0-3.26,2.79-5.82,5.82-5.82h34.45
		c3.03,0,5.59,2.56,5.59,5.82v5.82c3.96-5.59,19.56-14.9,35.62-14.9c9.08,0,15.37,1.63,18.39,2.79
		C789.08,791.64,788.84,795.37,788.61,798.63z"/>
	<path class="st0" d="M928.76,914.33c-6.05,0-34.22,0-34.22,0c-4.19,0-6.75-1.86-8.85-5.82c-1.16-1.86-10.94-20.49-19.32-36.08
		h-10.71v36.08c0,3.26-2.56,5.82-5.82,5.82h-34.22c-3.03,0-5.82-2.56-5.82-5.82V757.19c0-3.03,2.56-5.82,5.82-5.82h34.22
		c3.26,0,5.82,2.79,5.82,5.82v75.2h10.47c7.45-15.37,16.3-33.99,17.23-35.85c2.33-4.19,4.66-5.82,8.85-5.82c0,0,28.4,0,34.46,0
		c6.75,0,8.14,2.79,5.59,7.22c-1.86,3.72-22.81,46.56-27.24,54.48c4.66,7.91,27.71,50.98,29.57,54.71
		C936.91,911.77,935.52,914.33,928.76,914.33z"/>
	<path class="st0" d="M986.27,866.61c4.65,13.97,18.16,17.93,27,18.16c14.2,0.47,22.58-2.33,30.96-6.05
		c3.03-1.16,6.29-1.16,8.15,2.33c0.93,2.33,5.36,14.43,6.52,17.23c1.4,3.72-0.23,6.29-2.33,7.68c-13.5,8.38-32.36,11.17-48.42,11.17
		c-43.53,0-67.74-29.1-67.74-64.95c0-35.85,23.98-64.72,65.88-64.72c36.55,0,58.2,28.87,58.2,64.72c0,10.48-1.16,14.43-13.73,14.43
		C1045.64,866.61,1027.71,866.61,986.27,866.61z M985.34,843.33h37.48c0-14.2-5.59-23.75-16.53-23.75
		C993.49,819.58,985.34,828.89,985.34,843.33z"/>
	<path class="st0" d="M1174.76,914.1c-6.29,1.4-17.69,3.03-33.99,3.03c-21.88,0-39.11-10.48-39.11-36.78c0,0,0,0,0-49.59h-18.86
		c-3.26,0-5.82-2.56-5.82-5.82V796.3c0-3.03,2.56-5.59,5.82-5.59h18.86V765.1c0-3.03,2.79-5.59,5.82-5.59h34.45
		c3.03,0,5.59,2.56,5.59,5.59c0,0,0,10.94,0,25.61H1168c3.26,0,5.82,2.56,5.82,5.59v28.63c0,3.26-2.56,5.82-5.82,5.82h-20.49
		c0,14.67,0,26.54,0,29.33c0,17.93,3.96,19.56,24.21,16.99c4.42-0.7,5.12,1.86,5.59,5.12c0.47,2.56,1.86,17.46,2.33,23.05
		C1180.11,910.84,1178.48,913.17,1174.76,914.1z"/>
	<path class="st0" d="M1240.88,880.11v28.4c0,3.26-2.56,5.82-5.82,5.82h-28.64c-3.03,0-5.59-2.56-5.59-5.82v-28.4
		c0-3.26,2.56-5.82,5.59-5.82h28.64C1238.32,874.29,1240.88,876.85,1240.88,880.11z"/>
	<path class="st0" d="M1346.84,914.1c-6.29,1.4-17.69,3.03-33.99,3.03c-21.88,0-39.11-10.48-39.11-36.78c0,0,0,0,0-49.59h-18.86
		c-3.26,0-5.82-2.56-5.82-5.82V796.3c0-3.03,2.56-5.59,5.82-5.59h18.86V765.1c0-3.03,2.79-5.59,5.82-5.59h34.45
		c3.03,0,5.59,2.56,5.59,5.59c0,0,0,10.94,0,25.61h20.49c3.26,0,5.82,2.56,5.82,5.59v28.63c0,3.26-2.56,5.82-5.82,5.82h-20.49
		c0,14.67,0,26.54,0,29.33c0,17.93,3.96,19.56,24.21,16.99c4.43-0.7,5.12,1.86,5.59,5.12c0.46,2.56,1.86,17.46,2.33,23.05
		C1352.2,910.84,1350.57,913.17,1346.84,914.1z"/>
	<path class="st0" d="M1497.94,798.86c-2.1,5.59-38.18,105.69-40.04,109.65c-1.86,4.19-3.26,5.82-7.45,5.82h-36.32
		c-4.19,0-5.59-1.63-7.45-5.82c-1.86-3.96-37.95-104.06-40.04-109.65c-1.86-5.35,0.23-8.15,4.19-8.15c3.03,0,34.22,0,34.22,0
		c6.98,0,8.15,2.1,10.47,8.15c1.17,3.26,16.76,66.35,16.76,66.35s15.6-63.09,16.76-66.35c2.33-6.05,3.49-8.15,10.48-8.15
		c0,0,31.2,0,34.22,0C1497.7,790.71,1499.8,793.51,1497.94,798.86z"/>
</g>
<path class="st1" d="M1106.4,14.68c-63.69,0-88.7,37.41-138.81,87.53l-92.37,92.37v-52.76c0-72.07-59.33-127.14-127.7-127.14
	c-63.69,0-88.7,37.41-138.81,87.53L302.07,408.86c-48.9,48.9-50.59,129.28-1.12,178.75c51.15,51.15,131.53,49.46,180.43,0.56
	L652.3,417.51c0,0,2.34-2.18,0.02,0.61c-8.4,9.87-15.08,20.75-20.02,32.24c-0.12,0.26-0.24,0.5-0.36,0.76
	c-3.31,7.34-5.55,15.15-7.08,22.34c-1.1,4.99-1.91,10.04-2.41,15.11c-0.78,7.14-0.82,11.87-0.82,11.87
	c0,14.22,2.39,27.95,6.73,40.82c0.06,0.18,3.85,10.01,4.66,11.84c19.48,43.71,63.15,74.53,114.21,74.53
	c31.17,0,59.22-10.79,81.08-28.59c0.31-0.25,7.47-6.39,10.28-9.2L980.52,447.9v52.53c0,69.16,55.64,127.19,125.6,127.19
	c72.34,0,127.98-58.03,127.98-127.19v-358.6C1234.1,69.75,1174.77,14.68,1106.4,14.68z"/>
<g>
	<path class="st2" d="M1106.4,14.68c-63.69,0-88.7,37.41-138.81,87.53l-92.37,92.37L652.3,417.51c0,0,2.34-2.18,0.02,0.61
		c-8.4,9.87-15.08,20.75-20.02,32.24c-0.12,0.26-0.24,0.5-0.36,0.76c-3.31,7.34-5.55,15.15-7.08,22.34
		c-1.1,4.99-1.91,10.04-2.41,15.11c-0.78,7.14-0.82,11.87-0.82,11.87c0,14.22,2.39,27.95,6.73,40.82
		c0.06,0.18,3.85,10.01,4.66,11.84c19.48,43.71,63.15,74.53,114.21,74.53c31.17,0,59.22-10.79,81.08-28.59
		c0.31-0.25,7.47-6.39,10.28-9.2L980.52,447.9v52.53c0,69.16,55.64,127.19,125.6,127.19c72.34,0,127.98-58.03,127.98-127.19v-358.6
		C1234.1,69.75,1174.77,14.68,1106.4,14.68z"/>
</g>
<g>
	<path class="st0" d="M632.3,450.91c6.85-14.97,14.74-25.86,20.02-32.23C643.92,428.54,637.24,439.42,632.3,450.91z"/>
	<path class="st0" d="M630.71,548.19c-0.1-0.26-0.2-0.53-0.31-0.79C630.5,547.66,630.6,547.92,630.71,548.19z"/>
	<path class="st0" d="M633.03,553.64c-0.03-0.07-0.06-0.13-0.09-0.2C632.97,553.51,633,553.57,633.03,553.64z"/>
	<path class="st0" d="M829.23,598.85c-0.3,0.25-0.62,0.48-0.92,0.73C828.61,599.33,828.92,599.1,829.23,598.85z"/>
	<path class="st0" d="M622.45,489.11c0.47-4.32,1.22-9.52,2.41-15.11C623.76,479,622.95,484.04,622.45,489.11z"/>
	<path class="st0" d="M628.55,542.35c-0.06-0.18-0.12-0.36-0.18-0.54C628.43,541.98,628.48,542.16,628.55,542.35z"/>
	<path class="st0" d="M875.09,501.07V195.22L659.16,411.16c-2.45,2.45-4.75,5-6.96,7.6c-5.28,6.37-13.17,17.27-20.02,32.23
		c-3.22,7.49-5.7,15.22-7.43,23.1c-1.18,5.58-1.93,10.78-2.41,15.11c-1.74,17.7,0.2,35.69,5.91,52.69c0.06,0.18,0.12,0.36,0.18,0.54
		c0.58,1.69,1.2,3.38,1.85,5.05c0.1,0.26,0.2,0.53,0.31,0.79c0.7,1.76,1.44,3.52,2.23,5.26c0.03,0.07,0.06,0.13,0.09,0.2
		c5.96,13.1,14.54,25.16,25.13,36.18c46.07,47.96,120.85,49.43,170.15,9.76c0.3-0.25,0.62-0.48,0.92-0.73
		c0.21-0.17,0.41-0.36,0.62-0.53C857.7,574.89,875.09,539.72,875.09,501.07z"/>
</g>
</svg>
