<?xml version="1.0" encoding="utf-8"?>
<!-- Generator: Adobe Illustrator 26.0.1, SVG Export Plug-In . SVG Version: 6.00 Build 0)  -->
<svg version="1.1" id="Capa_1" xmlns="http://www.w3.org/2000/svg" xmlns:xlink="http://www.w3.org/1999/xlink" x="0px" y="0px"
	 viewBox="0 0 1500 1500" style="enable-background:new 0 0 1500 1500;" xml:space="preserve">
<style type="text/css">
	.st0{fill:none;}
	.st1{fill:#808080;}
	.st2{fill:#CBCBCB;}
	.st3{fill:#B2B2B2;}
</style>
<rect class="st0" width="1500" height="1500"/>
<g>
	<path class="st1" d="M483.82,648.69v55.37c0,2.4-1.89,4.29-4.29,4.29h-14.91h-10.28c-2.4,0-4.29-1.89-4.29-4.29v-3.43
		c-6.17,6.68-18.17,9.77-27.77,9.77c-5.31,0-27.42-2.74-27.42-25.71c0-19.71,14.23-29.14,27.42-31.2c8.57-1.2,20.74-1.71,27.77-2.06
		c-0.17-5.14-2.06-11.48-13.2-11.48c-10.29,0-20.05,3.77-25.03,5.83c-1.89,0.69-3.6,0-4.29-1.54c-0.86-1.71-5.83-14.06-6.34-15.43
		s-0.52-3.77,1.54-4.63c5.83-3.09,20.23-9.26,38.05-9.26c20.23,0,40.45,8.57,42.85,29.65C483.82,645.95,483.82,647.32,483.82,648.69
		z M450.05,678.52v-10.46c0,0-13.03-0.69-18.17,3.43c-6.51,4.97-4.46,15.94,6.51,15.94C449.19,687.43,450.05,678.52,450.05,678.52z"
		/>
	<path class="st1" d="M612.38,708.18c-3.09,1.03-8.06,2.23-18.34,2.23c-15.25,0-20.05-8.74-21.25-11.66
		c-7.89,7.2-18.34,11.66-29.83,11.66c-25.37,0-43.71-21.43-43.71-47.82c0-26.4,18.34-47.65,43.71-47.65c9.43,0,18,2.91,25.37,7.88
		v-30.17c0-2.4,1.88-4.29,4.28-4.29h25.2c2.4,0,4.29,1.89,4.29,4.29v81.59c0,8.06,5.14,6.68,8.06,6.68
		c3.43-0.17,3.94,1.37,4.29,3.77c0.17,2.06,1.2,13.54,1.54,16.97C616.5,705.43,615.13,707.32,612.38,708.18z M568.33,662.75
		c0-11.48-8.06-20.91-18-20.91c-9.77,0-17.31,9.43-17.31,20.91c0,11.48,7.54,20.74,17.31,20.74
		C560.27,683.49,568.33,674.24,568.33,662.75z"/>
	<path class="st1" d="M776.95,647.84v56.22c0,2.4-1.89,4.29-4.11,4.29h-25.2c-2.4,0-4.29-1.89-4.29-4.29v-50.4
		c0-9.43-6.17-12-10.63-12c-4.63,0-10.63,2.4-10.63,11.83v50.57c0,2.4-1.89,4.29-4.29,4.29h-25.2c-2.4,0-4.29-1.89-4.29-4.29v-50.4
		c0-9.43-6.17-12-10.63-12c-4.63,0-10.63,2.4-10.63,12c0,4.63,0,50.4,0,50.4c0,2.4-1.89,4.29-4.29,4.29h-25.2
		c-2.4,0-4.28-1.89-4.28-4.29v-82.45c0-2.4,1.88-4.29,4.28-4.29h25.2c2.4,0,4.29,1.89,4.29,4.29v4.29
		c3.77-5.49,14.23-10.97,24.51-10.97c12.69,0,20.74,3.6,25.37,10.63c7.54-6.17,16.11-10.63,27.94-10.63
		C767.69,614.93,776.95,626.75,776.95,647.84z"/>
	<path class="st1" d="M881.34,648.69v55.37c0,2.4-1.89,4.29-4.29,4.29h-14.91h-10.28c-2.4,0-4.29-1.89-4.29-4.29v-3.43
		c-6.17,6.68-18.17,9.77-27.77,9.77c-5.31,0-27.43-2.74-27.43-25.71c0-19.71,14.23-29.14,27.43-31.2c8.57-1.2,20.74-1.71,27.77-2.06
		c-0.17-5.14-2.06-11.48-13.2-11.48c-10.28,0-20.05,3.77-25.03,5.83c-1.89,0.69-3.6,0-4.29-1.54c-0.86-1.71-5.83-14.06-6.34-15.43
		c-0.51-1.37-0.51-3.77,1.54-4.63c5.83-3.09,20.23-9.26,38.05-9.26c20.23,0,40.46,8.57,42.86,29.65
		C881.34,645.95,881.34,647.32,881.34,648.69z M847.57,678.52v-10.46c0,0-13.03-0.69-18.17,3.43c-6.51,4.97-4.46,15.94,6.51,15.94
		C846.72,687.43,847.57,678.52,847.57,678.52z"/>
	<path class="st1" d="M975.45,623.15c-0.34,3.08-1.89,20.23-2.23,22.97c-0.51,3.94-2.91,5.83-6.34,4.8c-3.6-1.2-9.6-2.91-16.28-2.74
		c-6.34,0.17-16.46,2.91-16.46,17.48c0,4.63,0,38.57,0,38.57l-0.17,0.17v-0.17c0,2.23-1.88,4.11-4.11,4.11h-25.37
		c-2.23,0-4.29-1.89-4.29-4.11v-82.62c0-2.4,2.06-4.29,4.29-4.29h25.37c2.23,0,4.11,1.89,4.11,4.29v4.29
		c2.92-4.11,14.4-10.97,26.23-10.97c6.68,0,11.31,1.2,13.54,2.06C975.79,618.01,975.62,620.75,975.45,623.15z"/>
	<path class="st1" d="M1078.64,708.35c-4.46,0-25.2,0-25.2,0c-3.09,0-4.97-1.37-6.51-4.29c-0.86-1.37-8.06-15.08-14.23-26.57h-7.88
		v26.57c0,2.4-1.89,4.29-4.29,4.29h-25.2c-2.23,0-4.28-1.89-4.28-4.29V592.64c0-2.23,1.88-4.29,4.28-4.29h25.2
		c2.4,0,4.29,2.06,4.29,4.29v55.37h7.71c5.49-11.31,12-25.03,12.69-26.4c1.71-3.09,3.43-4.29,6.51-4.29c0,0,20.91,0,25.37,0
		c4.97,0,6,2.06,4.11,5.31c-1.37,2.74-16.8,34.28-20.06,40.11c3.43,5.83,20.4,37.54,21.77,40.28
		C1084.64,706.46,1083.62,708.35,1078.64,708.35z"/>
	<path class="st1" d="M1120.99,673.21c3.43,10.29,13.37,13.2,19.88,13.37c10.46,0.34,16.63-1.71,22.8-4.46
		c2.23-0.86,4.63-0.86,6,1.71c0.68,1.71,3.94,10.63,4.8,12.68c1.03,2.74-0.17,4.63-1.71,5.66c-9.94,6.17-23.83,8.23-35.66,8.23
		c-32.05,0-49.88-21.43-49.88-47.82c0-26.4,17.66-47.65,48.51-47.65c26.91,0,42.85,21.25,42.85,47.65c0,7.71-0.86,10.63-10.11,10.63
		C1164.7,673.21,1151.5,673.21,1120.99,673.21z M1120.3,656.07h27.6c0-10.46-4.11-17.48-12.17-17.48
		C1126.3,638.58,1120.3,645.44,1120.3,656.07z"/>
	<path class="st1" d="M1259.77,708.18c-4.63,1.03-13.03,2.23-25.03,2.23c-16.11,0-28.8-7.71-28.8-27.08c0,0,0,0,0-36.51h-13.89
		c-2.4,0-4.28-1.89-4.28-4.29v-21.08c0-2.23,1.88-4.11,4.28-4.11h13.89v-18.86c0-2.23,2.06-4.11,4.29-4.11h25.37
		c2.23,0,4.11,1.89,4.11,4.11c0,0,0,8.06,0,18.86h15.08c2.4,0,4.29,1.89,4.29,4.11v21.08c0,2.4-1.89,4.29-4.29,4.29h-15.08
		c0,10.8,0,19.54,0,21.6c0,13.2,2.92,14.4,17.83,12.51c3.26-0.51,3.77,1.37,4.11,3.77c0.34,1.89,1.37,12.86,1.71,16.97
		C1263.71,705.78,1262.51,707.49,1259.77,708.18z"/>
	<path class="st1" d="M1308.45,683.15v20.91c0,2.4-1.88,4.29-4.28,4.29h-21.09c-2.23,0-4.11-1.89-4.11-4.29v-20.91
		c0-2.4,1.89-4.29,4.11-4.29h21.09C1306.57,678.86,1308.45,680.75,1308.45,683.15z"/>
	<path class="st1" d="M1386.48,708.18c-4.63,1.03-13.03,2.23-25.02,2.23c-16.11,0-28.8-7.71-28.8-27.08c0,0,0,0,0-36.51h-13.89
		c-2.4,0-4.28-1.89-4.28-4.29v-21.08c0-2.23,1.88-4.11,4.28-4.11h13.89v-18.86c0-2.23,2.06-4.11,4.29-4.11h25.37
		c2.23,0,4.11,1.89,4.11,4.11c0,0,0,8.06,0,18.86h15.08c2.4,0,4.29,1.89,4.29,4.11v21.08c0,2.4-1.89,4.29-4.29,4.29h-15.08
		c0,10.8,0,19.54,0,21.6c0,13.2,2.91,14.4,17.83,12.51c3.26-0.51,3.77,1.37,4.11,3.77c0.34,1.89,1.37,12.86,1.71,16.97
		C1390.42,705.78,1389.22,707.49,1386.48,708.18z"/>
	<path class="st1" d="M1497.73,623.33c-1.54,4.11-28.11,77.82-29.48,80.74c-1.37,3.09-2.4,4.29-5.49,4.29h-26.74
		c-3.09,0-4.11-1.2-5.49-4.29c-1.37-2.91-27.94-76.62-29.48-80.74c-1.37-3.94,0.17-6,3.08-6c2.23,0,25.2,0,25.2,0
		c5.14,0,6,1.54,7.71,6c0.86,2.4,12.34,48.85,12.34,48.85s11.48-46.45,12.34-48.85c1.71-4.46,2.57-6,7.71-6c0,0,22.97,0,25.2,0
		C1497.56,617.33,1499.1,619.38,1497.73,623.33z"/>
</g>
<g>
	<path class="st2" d="M259.08,557.55c-19,0-26.45,11.16-41.4,26.1l-27.55,27.55v-15.74c0-21.5-17.69-37.92-38.08-37.92
		c-19,0-26.45,11.16-41.4,26.1l-91.46,91.46c-14.58,14.58-15.09,38.56-0.34,53.31c15.26,15.26,39.23,14.75,53.81,0.17l50.98-50.9
		c0,0,0.7-0.65,0.01,0.18c-2.5,2.94-4.5,6.19-5.97,9.61c-0.03,0.08-0.07,0.15-0.11,0.23c-0.99,2.19-1.66,4.52-2.11,6.66
		c-0.33,1.49-0.57,2.99-0.72,4.51c-0.23,2.13-0.24,3.54-0.24,3.54c0,4.24,0.71,8.34,2.01,12.17c0.02,0.05,1.15,2.98,1.39,3.53
		c5.81,13.04,18.83,22.23,34.06,22.23c9.3,0,17.66-3.22,24.18-8.53c0.09-0.07,2.23-1.91,3.07-2.74l42.33-42.33v15.67
		c0,20.63,16.6,37.93,37.46,37.93c21.57,0,38.17-17.31,38.17-37.93V595.47C297.17,573.97,279.47,557.55,259.08,557.55z"/>
</g>
<g>
	<path class="st3" d="M259.08,557.55c-19,0-26.45,11.16-41.4,26.1l-27.55,27.55l-66.49,66.49c0,0,0.7-0.65,0.01,0.18
		c-2.5,2.94-4.5,6.19-5.97,9.61c-0.03,0.08-0.07,0.15-0.11,0.23c-0.99,2.19-1.66,4.52-2.11,6.66c-0.33,1.49-0.57,2.99-0.72,4.51
		c-0.23,2.13-0.24,3.54-0.24,3.54c0,4.24,0.71,8.34,2.01,12.17c0.02,0.05,1.15,2.98,1.39,3.53c5.81,13.04,18.83,22.23,34.06,22.23
		c9.3,0,17.66-3.22,24.18-8.53c0.09-0.07,2.23-1.91,3.07-2.74l42.33-42.33v15.67c0,20.63,16.6,37.93,37.46,37.93
		c21.57,0,38.17-17.31,38.17-37.93V595.47C297.17,573.97,279.47,557.55,259.08,557.55z"/>
</g>
<g>
	<path class="st1" d="M117.68,687.65c2.04-4.46,4.4-7.71,5.97-9.61C121.15,680.98,119.15,684.22,117.68,687.65z"/>
	<path class="st1" d="M117.21,716.66c-0.03-0.08-0.06-0.16-0.09-0.24C117.15,716.51,117.18,716.58,117.21,716.66z"/>
	<path class="st1" d="M117.9,718.29c-0.01-0.02-0.02-0.04-0.03-0.06C117.88,718.25,117.89,718.27,117.9,718.29z"/>
	<path class="st1" d="M176.42,731.77c-0.09,0.07-0.18,0.14-0.27,0.22C176.23,731.92,176.32,731.85,176.42,731.77z"/>
	<path class="st1" d="M114.75,699.04c0.14-1.29,0.37-2.84,0.72-4.51C115.14,696.03,114.89,697.53,114.75,699.04z"/>
	<path class="st1" d="M116.56,714.92c-0.02-0.05-0.04-0.11-0.05-0.16C116.53,714.81,116.54,714.87,116.56,714.92z"/>
	<path class="st1" d="M190.09,702.61v-91.22l-64.4,64.4c-0.73,0.73-1.42,1.49-2.08,2.27c-1.57,1.9-3.93,5.15-5.97,9.61
		c-0.96,2.23-1.7,4.54-2.22,6.89c-0.35,1.66-0.58,3.22-0.72,4.51c-0.52,5.28,0.06,10.65,1.76,15.71c0.02,0.05,0.04,0.11,0.05,0.16
		c0.17,0.51,0.36,1.01,0.55,1.51c0.03,0.08,0.06,0.16,0.09,0.24c0.21,0.53,0.43,1.05,0.67,1.57c0.01,0.02,0.02,0.04,0.03,0.06
		c1.78,3.91,4.34,7.51,7.49,10.79c13.74,14.3,36.04,14.74,50.75,2.91c0.09-0.07,0.18-0.14,0.27-0.22c0.06-0.05,0.12-0.11,0.18-0.16
		C184.91,724.63,190.09,714.14,190.09,702.61z"/>
</g>
</svg>
