<?xml version="1.0" encoding="utf-8"?>
<!-- Generator: Adobe Illustrator 26.0.1, SVG Export Plug-In . SVG Version: 6.00 Build 0)  -->
<svg version="1.1" id="Capa_1" xmlns="http://www.w3.org/2000/svg" xmlns:xlink="http://www.w3.org/1999/xlink" x="0px" y="0px"
	 viewBox="0 0 1080 686" style="enable-background:new 0 0 1080 686;" xml:space="preserve">
<style type="text/css">
	.st0{fill:#472681;}
	.st1{fill:#E83A8D;}
	.st2{fill:#41A6DE;}
</style>
<g>
	<path class="st0" d="M87.08,610.15v54.19c0,2.35-1.85,4.19-4.19,4.19h-14.6H58.22c-2.35,0-4.19-1.85-4.19-4.19v-3.36
		c-6.04,6.54-17.79,9.56-27.18,9.56c-5.2,0-26.84-2.68-26.84-25.17c0-19.29,13.92-28.52,26.84-30.54c8.39-1.17,20.3-1.68,27.18-2.01
		c-0.17-5.03-2.01-11.24-12.92-11.24c-10.07,0-19.63,3.69-24.5,5.7c-1.85,0.67-3.52,0-4.19-1.51c-0.84-1.68-5.7-13.76-6.21-15.1
		s-0.5-3.69,1.51-4.53c5.71-3.02,19.8-9.06,37.25-9.06c19.8,0,39.6,8.39,41.95,29.03C87.08,607.46,87.08,608.81,87.08,610.15z
		 M54.03,639.34v-10.23c0,0-12.75-0.67-17.79,3.36c-6.38,4.87-4.36,15.6,6.38,15.6C53.19,648.07,54.03,639.34,54.03,639.34z"/>
	<path class="st0" d="M212.92,668.37c-3.02,1.01-7.89,2.18-17.96,2.18c-14.93,0-19.63-8.56-20.8-11.41
		c-7.72,7.05-17.96,11.41-29.2,11.41c-24.83,0-42.78-20.97-42.78-46.81c0-25.84,17.95-46.64,42.78-46.64
		c9.23,0,17.62,2.85,24.83,7.72v-29.53c0-2.35,1.84-4.19,4.19-4.19h24.66c2.35,0,4.19,1.85,4.19,4.19v79.86
		c0,7.89,5.03,6.54,7.89,6.54c3.35-0.17,3.86,1.34,4.19,3.69c0.17,2.01,1.17,13.26,1.51,16.61
		C216.94,665.68,215.6,667.53,212.92,668.37z M169.8,623.91c0-11.24-7.89-20.47-17.62-20.47c-9.56,0-16.95,9.23-16.95,20.47
		s7.38,20.3,16.95,20.3C161.91,644.21,169.8,635.15,169.8,623.91z"/>
	<path class="st0" d="M373.99,609.31v55.03c0,2.35-1.85,4.19-4.03,4.19H345.3c-2.35,0-4.19-1.85-4.19-4.19v-49.33
		c0-9.23-6.04-11.74-10.4-11.74c-4.53,0-10.4,2.35-10.4,11.58v49.5c0,2.35-1.85,4.19-4.19,4.19h-24.66c-2.35,0-4.19-1.85-4.19-4.19
		v-49.33c0-9.23-6.04-11.74-10.4-11.74c-4.53,0-10.4,2.35-10.4,11.74c0,4.53,0,49.33,0,49.33c0,2.35-1.85,4.19-4.19,4.19h-24.66
		c-2.35,0-4.19-1.85-4.19-4.19v-80.7c0-2.35,1.84-4.19,4.19-4.19h24.66c2.35,0,4.19,1.85,4.19,4.19v4.19
		c3.69-5.37,13.93-10.74,23.99-10.74c12.42,0,20.3,3.52,24.83,10.4c7.38-6.04,15.77-10.4,27.35-10.4
		C364.93,577.09,373.99,588.67,373.99,609.31z"/>
	<path class="st0" d="M476.18,610.15v54.19c0,2.35-1.85,4.19-4.19,4.19h-14.6h-10.07c-2.35,0-4.19-1.85-4.19-4.19v-3.36
		c-6.04,6.54-17.79,9.56-27.18,9.56c-5.2,0-26.85-2.68-26.85-25.17c0-19.29,13.93-28.52,26.85-30.54c8.39-1.17,20.3-1.68,27.18-2.01
		c-0.17-5.03-2.01-11.24-12.92-11.24c-10.07,0-19.63,3.69-24.5,5.7c-1.85,0.67-3.52,0-4.19-1.51c-0.84-1.68-5.7-13.76-6.21-15.1
		c-0.5-1.34-0.5-3.69,1.51-4.53c5.71-3.02,19.8-9.06,37.25-9.06c19.8,0,39.6,8.39,41.95,29.03
		C476.18,607.46,476.18,608.81,476.18,610.15z M443.12,639.34v-10.23c0,0-12.75-0.67-17.79,3.36c-6.38,4.87-4.36,15.6,6.38,15.6
		C442.28,648.07,443.12,639.34,443.12,639.34z"/>
	<path class="st0" d="M568.29,585.15c-0.34,3.02-1.85,19.8-2.18,22.48c-0.5,3.86-2.85,5.7-6.21,4.7c-3.52-1.17-9.39-2.85-15.94-2.68
		c-6.21,0.17-16.11,2.85-16.11,17.11c0,4.53,0,37.75,0,37.75l-0.17,0.17v-0.17c0,2.18-1.84,4.03-4.03,4.03h-24.83
		c-2.18,0-4.19-1.85-4.19-4.03v-80.87c0-2.35,2.01-4.19,4.19-4.19h24.83c2.18,0,4.03,1.85,4.03,4.19v4.19
		c2.85-4.03,14.1-10.74,25.67-10.74c6.54,0,11.07,1.17,13.26,2.01C568.63,580.11,568.46,582.8,568.29,585.15z"/>
	<path class="st0" d="M669.3,668.54c-4.36,0-24.66,0-24.66,0c-3.02,0-4.87-1.34-6.38-4.19c-0.84-1.34-7.89-14.76-13.93-26.01h-7.72
		v26.01c0,2.35-1.85,4.19-4.19,4.19h-24.67c-2.18,0-4.19-1.85-4.19-4.19V555.28c0-2.18,1.84-4.19,4.19-4.19h24.67
		c2.35,0,4.19,2.01,4.19,4.19v54.19h7.55c5.37-11.07,11.75-24.5,12.42-25.84c1.68-3.02,3.36-4.19,6.38-4.19c0,0,20.47,0,24.83,0
		c4.86,0,5.87,2.01,4.03,5.2c-1.34,2.68-16.44,33.56-19.63,39.26c3.36,5.7,19.97,36.74,21.31,39.43
		C675.17,666.69,674.17,668.54,669.3,668.54z"/>
	<path class="st0" d="M710.75,634.14c3.35,10.07,13.09,12.92,19.46,13.09c10.24,0.34,16.27-1.68,22.31-4.36
		c2.18-0.84,4.53-0.84,5.87,1.68c0.67,1.68,3.86,10.4,4.7,12.42c1.01,2.68-0.17,4.53-1.68,5.54c-9.73,6.04-23.32,8.05-34.9,8.05
		c-31.37,0-48.82-20.97-48.82-46.81c0-25.84,17.28-46.64,47.48-46.64c26.34,0,41.95,20.8,41.95,46.64c0,7.55-0.84,10.4-9.9,10.4
		C753.53,634.14,740.61,634.14,710.75,634.14z M710.08,617.36h27.01c0-10.23-4.03-17.11-11.91-17.11
		C715.95,600.25,710.08,606.96,710.08,617.36z"/>
	<path class="st0" d="M846.59,668.37c-4.53,1.01-12.75,2.18-24.5,2.18c-15.77,0-28.19-7.55-28.19-26.51c0,0,0,0,0-35.74h-13.59
		c-2.35,0-4.19-1.85-4.19-4.19v-20.64c0-2.18,1.84-4.03,4.19-4.03h13.59v-18.46c0-2.18,2.01-4.03,4.19-4.03h24.83
		c2.18,0,4.03,1.85,4.03,4.03c0,0,0,7.89,0,18.46h14.77c2.35,0,4.19,1.85,4.19,4.03v20.64c0,2.35-1.85,4.19-4.19,4.19h-14.77
		c0,10.57,0,19.13,0,21.14c0,12.92,2.85,14.09,17.45,12.25c3.19-0.5,3.69,1.34,4.03,3.69c0.34,1.85,1.34,12.58,1.68,16.61
		C850.44,666.02,849.27,667.7,846.59,668.37z"/>
	<path class="st0" d="M894.24,643.87v20.47c0,2.35-1.84,4.19-4.19,4.19h-20.64c-2.18,0-4.03-1.85-4.03-4.19v-20.47
		c0-2.35,1.85-4.19,4.03-4.19h20.64C892.4,639.68,894.24,641.52,894.24,643.87z"/>
	<path class="st0" d="M970.61,668.37c-4.53,1.01-12.75,2.18-24.49,2.18c-15.77,0-28.19-7.55-28.19-26.51c0,0,0,0,0-35.74h-13.59
		c-2.35,0-4.19-1.85-4.19-4.19v-20.64c0-2.18,1.84-4.03,4.19-4.03h13.59v-18.46c0-2.18,2.01-4.03,4.19-4.03h24.83
		c2.18,0,4.03,1.85,4.03,4.03c0,0,0,7.89,0,18.46h14.77c2.35,0,4.19,1.85,4.19,4.03v20.64c0,2.35-1.85,4.19-4.19,4.19h-14.77
		c0,10.57,0,19.13,0,21.14c0,12.92,2.85,14.09,17.45,12.25c3.19-0.5,3.69,1.34,4.03,3.69c0.34,1.85,1.34,12.58,1.68,16.61
		C974.47,666.02,973.29,667.7,970.61,668.37z"/>
	<path class="st0" d="M1079.5,585.32c-1.51,4.03-27.52,76.17-28.86,79.03c-1.34,3.02-2.35,4.19-5.37,4.19h-26.17
		c-3.02,0-4.03-1.17-5.37-4.19c-1.34-2.85-27.35-75-28.86-79.03c-1.34-3.86,0.17-5.87,3.02-5.87c2.18,0,24.67,0,24.67,0
		c5.03,0,5.87,1.51,7.55,5.87c0.84,2.35,12.08,47.82,12.08,47.82s11.24-45.47,12.08-47.82c1.68-4.36,2.52-5.87,7.55-5.87
		c0,0,22.48,0,24.66,0C1079.34,579.44,1080.85,581.46,1079.5,585.32z"/>
</g>
<path class="st1" d="M797.32,20.16c-45.9,0-63.92,26.96-100.04,63.08l-66.57,66.57v-38.02c0-51.94-42.76-91.63-92.03-91.63
	c-45.9,0-63.92,26.96-100.04,63.08l-221,221c-35.24,35.24-36.46,93.17-0.81,128.82c36.86,36.86,94.79,35.65,130.04,0.4
	l123.18-122.99c0,0,1.69-1.57,0.02,0.44c-6.05,7.11-10.87,14.95-14.43,23.23c-0.08,0.19-0.17,0.36-0.26,0.54
	c-2.39,5.29-4,10.92-5.1,16.1c-0.79,3.6-1.38,7.23-1.74,10.89c-0.56,5.14-0.59,8.55-0.59,8.55c0,10.25,1.72,20.14,4.85,29.42
	c0.04,0.13,2.77,7.21,3.36,8.53c14.04,31.5,45.51,53.71,82.31,53.71c22.46,0,42.68-7.78,58.43-20.6c0.22-0.18,5.38-4.61,7.41-6.63
	L706.6,332.37v37.86c0,49.84,40.1,91.66,90.52,91.66c52.13,0,92.24-41.82,92.24-91.66V111.78C889.36,59.84,846.6,20.16,797.32,20.16
	z"/>
<g>
	<path class="st2" d="M797.32,20.16c-45.9,0-63.92,26.96-100.04,63.08l-66.57,66.57L470.05,310.47c0,0,1.69-1.57,0.02,0.44
		c-6.05,7.11-10.87,14.95-14.43,23.23c-0.08,0.19-0.17,0.36-0.26,0.54c-2.39,5.29-4,10.92-5.1,16.1c-0.79,3.6-1.38,7.23-1.74,10.89
		c-0.56,5.14-0.59,8.55-0.59,8.55c0,10.25,1.72,20.14,4.85,29.42c0.04,0.13,2.77,7.21,3.36,8.53c14.04,31.5,45.51,53.71,82.31,53.71
		c22.46,0,42.68-7.78,58.43-20.6c0.22-0.18,5.38-4.61,7.41-6.63L706.6,332.37v37.86c0,49.84,40.1,91.66,90.52,91.66
		c52.13,0,92.24-41.82,92.24-91.66V111.78C889.36,59.84,846.6,20.16,797.32,20.16z"/>
</g>
<g>
	<path class="st0" d="M455.63,334.55c4.94-10.79,10.62-18.64,14.43-23.23C464.01,318.43,459.19,326.27,455.63,334.55z"/>
	<path class="st0" d="M454.49,404.65c-0.07-0.19-0.15-0.38-0.22-0.57C454.34,404.27,454.41,404.46,454.49,404.65z"/>
	<path class="st0" d="M456.16,408.58c-0.02-0.05-0.04-0.09-0.06-0.14C456.12,408.49,456.14,408.54,456.16,408.58z"/>
	<path class="st0" d="M597.56,441.17c-0.22,0.18-0.44,0.35-0.66,0.52C597.12,441.52,597.34,441.35,597.56,441.17z"/>
	<path class="st0" d="M448.54,362.08c0.34-3.11,0.88-6.86,1.74-10.89C449.48,354.79,448.9,358.43,448.54,362.08z"/>
	<path class="st0" d="M452.93,400.44c-0.05-0.13-0.09-0.26-0.13-0.39C452.84,400.18,452.89,400.31,452.93,400.44z"/>
	<path class="st0" d="M630.62,370.69V150.27L474.99,305.9c-1.77,1.77-3.42,3.6-5.02,5.48c-3.8,4.59-9.49,12.44-14.43,23.23
		c-2.32,5.4-4.11,10.97-5.36,16.65c-0.85,4.02-1.39,7.77-1.74,10.89c-1.25,12.76,0.14,25.72,4.26,37.97
		c0.04,0.13,0.09,0.26,0.13,0.39c0.42,1.22,0.87,2.43,1.34,3.64c0.07,0.19,0.15,0.38,0.22,0.57c0.51,1.27,1.04,2.54,1.61,3.79
		c0.02,0.05,0.04,0.1,0.06,0.14c4.3,9.44,10.48,18.14,18.11,26.08c33.2,34.56,87.1,35.63,122.63,7.03c0.22-0.18,0.45-0.34,0.66-0.52
		c0.15-0.12,0.3-0.26,0.45-0.38C618.08,423.9,630.62,398.55,630.62,370.69z"/>
</g>
</svg>
