<?xml version="1.0" encoding="utf-8"?>
<!-- Generator: Adobe Illustrator 26.0.1, SVG Export Plug-In . SVG Version: 6.00 Build 0)  -->
<svg version="1.1" id="Capa_1" xmlns="http://www.w3.org/2000/svg" xmlns:xlink="http://www.w3.org/1999/xlink" x="0px" y="0px"
	 viewBox="0 0 750 750" style="enable-background:new 0 0 750 750;" xml:space="preserve">
<style type="text/css">
	.st0{fill:none;}
	.st1{fill:#4A078D;}
	.st2{fill:#F43290;}
	.st3{fill:#00ADFF;}
</style>
<rect class="st0" width="750" height="750"/>
<g>
	<path class="st1" d="M76.74,531.24v35.83c0,1.55-1.22,2.77-2.77,2.77h-9.63H57.7c-1.55,0-2.77-1.22-2.77-2.77v-2.22
		c-3.99,4.33-11.74,6.32-17.94,6.32c-3.43,0-17.72-1.77-17.72-16.64c0-12.76,9.19-18.86,17.72-20.19c5.54-0.78,13.4-1.11,17.94-1.33
		c-0.11-3.33-1.33-7.43-8.53-7.43c-6.65,0-12.96,2.44-16.17,3.77c-1.22,0.44-2.33,0-2.77-1c-0.55-1.11-3.76-9.1-4.1-9.98
		s-0.33-2.44,1-3c3.77-2,13.07-5.99,24.58-5.99c13.07,0,26.13,5.55,27.68,19.19C76.74,529.46,76.74,530.35,76.74,531.24z
		 M54.93,550.54v-6.77c0,0-8.42-0.44-11.74,2.22c-4.21,3.22-2.88,10.32,4.21,10.32C54.37,556.31,54.93,550.54,54.93,550.54z"/>
	<path class="st1" d="M159.8,569.74c-1.99,0.67-5.21,1.44-11.85,1.44c-9.85,0-12.96-5.66-13.73-7.54
		c-5.09,4.66-11.85,7.54-19.27,7.54c-16.39,0-28.24-13.87-28.24-30.95c0-17.09,11.85-30.84,28.24-30.84c6.09,0,11.63,1.89,16.39,5.1
		v-19.53c0-1.55,1.22-2.77,2.77-2.77h16.28c1.55,0,2.77,1.22,2.77,2.77v52.81c0,5.21,3.32,4.33,5.21,4.33
		c2.21-0.11,2.55,0.89,2.77,2.44c0.11,1.33,0.77,8.76,0.99,10.98C162.46,567.96,161.57,569.18,159.8,569.74z M131.34,540.34
		c0-7.43-5.21-13.53-11.63-13.53c-6.31,0-11.18,6.1-11.18,13.53s4.87,13.42,11.18,13.42C126.13,553.76,131.34,547.77,131.34,540.34z
		"/>
	<path class="st1" d="M266.11,530.69v36.39c0,1.55-1.22,2.77-2.66,2.77h-16.28c-1.55,0-2.77-1.22-2.77-2.77v-32.62
		c0-6.1-3.99-7.77-6.87-7.77c-2.99,0-6.87,1.55-6.87,7.66v32.73c0,1.55-1.22,2.77-2.77,2.77h-16.28c-1.55,0-2.77-1.22-2.77-2.77
		v-32.62c0-6.1-3.99-7.77-6.87-7.77c-2.99,0-6.87,1.55-6.87,7.77c0,3,0,32.62,0,32.62c0,1.55-1.22,2.77-2.77,2.77h-16.28
		c-1.55,0-2.77-1.22-2.77-2.77v-53.36c0-1.55,1.22-2.77,2.77-2.77h16.28c1.55,0,2.77,1.22,2.77,2.77v2.77
		c2.44-3.55,9.19-7.1,15.84-7.1c8.2,0,13.4,2.33,16.39,6.88c4.87-3.99,10.41-6.88,18.05-6.88
		C260.13,509.39,266.11,517.04,266.11,530.69z"/>
	<path class="st1" d="M333.55,531.24v35.83c0,1.55-1.22,2.77-2.77,2.77h-9.63h-6.64c-1.55,0-2.77-1.22-2.77-2.77v-2.22
		c-3.99,4.33-11.74,6.32-17.94,6.32c-3.43,0-17.72-1.77-17.72-16.64c0-12.76,9.19-18.86,17.72-20.19c5.54-0.78,13.4-1.11,17.94-1.33
		c-0.11-3.33-1.33-7.43-8.53-7.43c-6.64,0-12.96,2.44-16.17,3.77c-1.22,0.44-2.33,0-2.77-1c-0.55-1.11-3.76-9.1-4.1-9.98
		c-0.33-0.89-0.33-2.44,1-3c3.77-2,13.07-5.99,24.58-5.99c13.07,0,26.14,5.55,27.69,19.19
		C333.55,529.46,333.55,530.35,333.55,531.24z M311.74,550.54v-6.77c0,0-8.42-0.44-11.74,2.22c-4.21,3.22-2.88,10.32,4.21,10.32
		C311.18,556.31,311.74,550.54,311.74,550.54z"/>
	<path class="st1" d="M394.35,514.71c-0.22,2-1.22,13.09-1.44,14.87c-0.33,2.55-1.88,3.77-4.1,3.11c-2.32-0.78-6.2-1.89-10.52-1.78
		c-4.1,0.11-10.63,1.89-10.63,11.32c0,3,0,24.96,0,24.96l-0.11,0.11v-0.11c0,1.44-1.22,2.66-2.66,2.66H348.5
		c-1.44,0-2.77-1.22-2.77-2.66v-53.47c0-1.55,1.33-2.77,2.77-2.77h16.39c1.44,0,2.66,1.22,2.66,2.77v2.77
		c1.88-2.66,9.3-7.1,16.94-7.1c4.32,0,7.31,0.78,8.75,1.33C394.57,511.38,394.46,513.16,394.35,514.71z"/>
	<path class="st1" d="M461.02,569.85c-2.88,0-16.28,0-16.28,0c-1.99,0-3.21-0.89-4.21-2.77c-0.55-0.89-5.21-9.76-9.19-17.2h-5.09
		v17.2c0,1.55-1.22,2.77-2.77,2.77H407.2c-1.44,0-2.77-1.22-2.77-2.77v-72.11c0-1.44,1.22-2.77,2.77-2.77h16.28
		c1.55,0,2.77,1.33,2.77,2.77v35.83h4.98c3.54-7.32,7.75-16.2,8.2-17.08c1.11-2,2.22-2.77,4.21-2.77c0,0,13.51,0,16.39,0
		c3.21,0,3.87,1.33,2.66,3.44c-0.89,1.77-10.85,22.19-12.96,25.96c2.22,3.77,13.18,24.3,14.06,26.07
		C464.89,568.63,464.23,569.85,461.02,569.85z"/>
	<path class="st1" d="M488.37,547.1c2.21,6.66,8.64,8.54,12.85,8.65c6.76,0.22,10.74-1.11,14.73-2.88c1.44-0.55,2.99-0.55,3.88,1.11
		c0.44,1.11,2.55,6.88,3.1,8.21c0.67,1.77-0.11,3-1.11,3.66c-6.42,3.99-15.39,5.33-23.03,5.33c-20.71,0-32.22-13.87-32.22-30.95
		c0-17.09,11.41-30.84,31.34-30.84c17.39,0,27.68,13.76,27.68,30.84c0,4.99-0.55,6.88-6.53,6.88
		C516.61,547.1,508.08,547.1,488.37,547.1z M487.93,536.01h17.83c0-6.77-2.66-11.32-7.86-11.32
		C491.8,524.69,487.93,529.13,487.93,536.01z"/>
	<path class="st1" d="M578.03,569.74c-2.99,0.67-8.42,1.44-16.17,1.44c-10.41,0-18.6-4.99-18.6-17.53c0,0,0,0,0-23.63h-8.97
		c-1.55,0-2.77-1.22-2.77-2.77V513.6c0-1.44,1.22-2.66,2.77-2.66h8.97v-12.2c0-1.44,1.33-2.66,2.77-2.66h16.39
		c1.44,0,2.66,1.22,2.66,2.66c0,0,0,5.21,0,12.2h9.75c1.55,0,2.77,1.22,2.77,2.66v13.65c0,1.55-1.22,2.77-2.77,2.77h-9.75
		c0,6.99,0,12.65,0,13.98c0,8.54,1.88,9.32,11.52,8.1c2.1-0.33,2.44,0.89,2.66,2.44c0.22,1.22,0.89,8.32,1.11,10.98
		C580.57,568.18,579.8,569.29,578.03,569.74z"/>
	<path class="st1" d="M609.48,553.54v13.53c0,1.55-1.22,2.77-2.77,2.77h-13.62c-1.44,0-2.66-1.22-2.66-2.77v-13.53
		c0-1.55,1.22-2.77,2.66-2.77h13.62C608.26,550.76,609.48,551.99,609.48,553.54z"/>
	<path class="st1" d="M659.88,569.74c-2.99,0.67-8.42,1.44-16.17,1.44c-10.41,0-18.6-4.99-18.6-17.53c0,0,0,0,0-23.63h-8.97
		c-1.55,0-2.77-1.22-2.77-2.77V513.6c0-1.44,1.22-2.66,2.77-2.66h8.97v-12.2c0-1.44,1.33-2.66,2.77-2.66h16.39
		c1.44,0,2.66,1.22,2.66,2.66c0,0,0,5.21,0,12.2h9.75c1.55,0,2.77,1.22,2.77,2.66v13.65c0,1.55-1.22,2.77-2.77,2.77h-9.75
		c0,6.99,0,12.65,0,13.98c0,8.54,1.88,9.32,11.52,8.1c2.11-0.33,2.44,0.89,2.66,2.44c0.22,1.22,0.89,8.32,1.11,10.98
		C662.43,568.18,661.66,569.29,659.88,569.74z"/>
	<path class="st1" d="M731.76,514.82c-1,2.66-18.16,50.37-19.05,52.25c-0.89,2-1.55,2.77-3.54,2.77h-17.27
		c-1.99,0-2.66-0.78-3.54-2.77c-0.88-1.89-18.05-49.59-19.05-52.25c-0.89-2.55,0.11-3.88,1.99-3.88c1.44,0,16.28,0,16.28,0
		c3.32,0,3.88,1,4.98,3.88c0.56,1.55,7.97,31.62,7.97,31.62s7.42-30.06,7.97-31.62c1.11-2.88,1.66-3.88,4.98-3.88
		c0,0,14.84,0,16.28,0C731.65,510.94,732.64,512.27,731.76,514.82z"/>
</g>
<path class="st2" d="M545.52,141.13c-30.3,0-42.19,17.83-66.03,41.71l-43.94,44.02v-25.14c0-34.34-28.22-60.59-60.74-60.59
	c-30.3,0-42.19,17.83-66.03,41.71L162.92,328.97c-23.26,23.3-24.06,61.61-0.53,85.18c24.33,24.37,62.56,23.57,85.83,0.27l81.3-81.32
	c0,0,1.11-1.04,0.01,0.29c-3.99,4.7-7.17,9.89-9.52,15.36c-0.06,0.12-0.11,0.24-0.17,0.36c-1.57,3.5-2.64,7.22-3.37,10.65
	c-0.52,2.38-0.91,4.78-1.15,7.2c-0.37,3.4-0.39,5.65-0.39,5.65c0,6.78,1.13,13.32,3.2,19.45c0.03,0.09,1.83,4.77,2.22,5.64
	c9.27,20.83,30.04,35.52,54.32,35.52c14.83,0,28.17-5.14,38.57-13.62c0.15-0.12,3.55-3.05,4.89-4.38l67.51-67.63v25.03
	c0,32.96,26.47,60.61,59.74,60.61c34.41,0,60.88-27.65,60.88-60.61V201.72C606.26,167.37,578.04,141.13,545.52,141.13z"/>
<g>
	<path class="st3" d="M545.52,141.13c-30.3,0-42.19,17.83-66.03,41.71l-43.94,44.02L329.51,333.09c0,0,1.11-1.04,0.01,0.29
		c-3.99,4.7-7.17,9.89-9.52,15.36c-0.06,0.12-0.11,0.24-0.17,0.36c-1.57,3.5-2.64,7.22-3.37,10.65c-0.52,2.38-0.91,4.78-1.15,7.2
		c-0.37,3.4-0.39,5.65-0.39,5.65c0,6.78,1.13,13.32,3.2,19.45c0.03,0.09,1.83,4.77,2.22,5.64c9.27,20.83,30.04,35.52,54.32,35.52
		c14.83,0,28.17-5.14,38.57-13.62c0.15-0.12,3.55-3.05,4.89-4.38l67.51-67.63v25.03c0,32.96,26.47,60.61,59.74,60.61
		c34.41,0,60.88-27.65,60.88-60.61V201.72C606.26,167.37,578.04,141.13,545.52,141.13z"/>
</g>
<g>
	<path class="st1" d="M319.99,349.01c3.26-7.13,7.01-12.32,9.52-15.36C325.52,338.35,322.34,343.54,319.99,349.01z"/>
	<path class="st1" d="M319.24,395.37c-0.05-0.12-0.1-0.25-0.15-0.38C319.14,395.12,319.19,395.24,319.24,395.37z"/>
	<path class="st1" d="M320.34,397.96c-0.01-0.03-0.03-0.06-0.04-0.09C320.31,397.9,320.33,397.93,320.34,397.96z"/>
	<path class="st1" d="M413.67,419.51c-0.14,0.12-0.29,0.23-0.44,0.35C413.38,419.74,413.53,419.63,413.67,419.51z"/>
	<path class="st1" d="M315.31,367.22c0.23-2.06,0.58-4.54,1.15-7.2C315.94,362.4,315.55,364.8,315.31,367.22z"/>
	<path class="st1" d="M318.21,392.58c-0.03-0.09-0.06-0.17-0.09-0.26C318.15,392.41,318.18,392.5,318.21,392.58z"/>
	<path class="st1" d="M435.49,372.91V227.17l-102.72,102.9c-1.17,1.17-2.26,2.38-3.31,3.62c-2.51,3.04-6.26,8.23-9.52,15.36
		c-1.53,3.57-2.71,7.25-3.54,11.01c-0.56,2.66-0.92,5.14-1.15,7.2c-0.83,8.44,0.1,17.01,2.81,25.11c0.03,0.09,0.06,0.17,0.09,0.26
		c0.27,0.81,0.57,1.61,0.88,2.41c0.05,0.12,0.1,0.25,0.15,0.38c0.33,0.84,0.69,1.68,1.06,2.5c0.01,0.03,0.03,0.06,0.04,0.09
		c2.84,6.24,6.92,11.99,11.95,17.24c21.91,22.85,57.48,23.56,80.94,4.65c0.14-0.12,0.29-0.23,0.44-0.35c0.1-0.08,0.2-0.17,0.29-0.25
		C427.21,408.09,435.49,391.33,435.49,372.91z"/>
</g>
</svg>
