<?xml version="1.0" encoding="utf-8"?>
<!-- Generator: Adobe Illustrator 26.0.1, SVG Export Plug-In . SVG Version: 6.00 Build 0)  -->
<svg version="1.1" id="Capa_1" xmlns="http://www.w3.org/2000/svg" xmlns:xlink="http://www.w3.org/1999/xlink" x="0px" y="0px"
	 viewBox="0 0 750 750" style="enable-background:new 0 0 750 750;" xml:space="preserve">
<style type="text/css">
	.st0{fill:none;}
	.st1{fill:#FFFFFF;}
	.st2{fill:#F43290;}
	.st3{fill:#00ADFF;}
</style>
<rect class="st0" width="750" height="750"/>
<g>
	<path class="st1" d="M63.79,558.59v37.14c0,1.61-1.27,2.87-2.87,2.87h-10h-6.9c-1.61,0-2.87-1.26-2.87-2.87v-2.3
		c-4.14,4.48-12.19,6.55-18.63,6.55c-3.56,0-18.39-1.84-18.39-17.25c0-13.22,9.54-19.54,18.39-20.92c5.75-0.8,13.91-1.15,18.63-1.38
		c-0.11-3.45-1.38-7.7-8.85-7.7c-6.9,0-13.45,2.53-16.79,3.91c-1.27,0.46-2.41,0-2.87-1.03c-0.58-1.15-3.91-9.43-4.25-10.35
		c-0.35-0.92-0.35-2.53,1.03-3.1c3.91-2.07,13.57-6.21,25.52-6.21c13.57,0,27.13,5.75,28.74,19.89
		C63.79,556.75,63.79,557.67,63.79,558.59z M41.14,578.6v-7.01c0,0-8.74-0.46-12.19,2.3c-4.37,3.33-2.99,10.69,4.37,10.69
		C40.57,584.58,41.14,578.6,41.14,578.6z"/>
	<path class="st1" d="M150.02,598.49c-2.07,0.69-5.4,1.49-12.3,1.49c-10.23,0-13.45-5.86-14.25-7.82
		c-5.29,4.83-12.3,7.82-20.01,7.82c-17.02,0-29.32-14.37-29.32-32.08c0-17.71,12.3-31.96,29.32-31.96c6.32,0,12.07,1.95,17.02,5.29
		V521c0-1.61,1.26-2.87,2.87-2.87h16.9c1.61,0,2.87,1.27,2.87,2.87v54.73c0,5.4,3.45,4.48,5.4,4.48c2.3-0.11,2.64,0.92,2.87,2.53
		c0.11,1.38,0.8,9.08,1.03,11.38C152.78,596.65,151.86,597.91,150.02,598.49z M120.48,568.02c0-7.7-5.4-14.03-12.07-14.03
		c-6.55,0-11.61,6.32-11.61,14.03c0,7.7,5.06,13.91,11.61,13.91C115.07,581.93,120.48,575.72,120.48,568.02z"/>
	<path class="st1" d="M260.4,558.02v37.71c0,1.61-1.27,2.87-2.76,2.87h-16.9c-1.61,0-2.87-1.26-2.87-2.87v-33.8
		c0-6.32-4.14-8.05-7.13-8.05c-3.1,0-7.13,1.61-7.13,7.93v33.92c0,1.61-1.27,2.87-2.87,2.87h-16.9c-1.61,0-2.87-1.26-2.87-2.87
		v-33.8c0-6.32-4.14-8.05-7.13-8.05c-3.1,0-7.13,1.61-7.13,8.05c0,3.1,0,33.8,0,33.8c0,1.61-1.27,2.87-2.87,2.87h-16.9
		c-1.61,0-2.87-1.26-2.87-2.87v-55.3c0-1.61,1.26-2.87,2.87-2.87h16.9c1.61,0,2.87,1.26,2.87,2.87v2.87
		c2.53-3.68,9.54-7.36,16.44-7.36c8.51,0,13.91,2.41,17.02,7.13c5.06-4.14,10.81-7.13,18.74-7.13
		C254.19,535.94,260.4,543.88,260.4,558.02z"/>
	<path class="st1" d="M330.42,558.59v37.14c0,1.61-1.27,2.87-2.87,2.87h-10h-6.9c-1.61,0-2.87-1.26-2.87-2.87v-2.3
		c-4.14,4.48-12.19,6.55-18.62,6.55c-3.56,0-18.4-1.84-18.4-17.25c0-13.22,9.54-19.54,18.4-20.92c5.75-0.8,13.91-1.15,18.62-1.38
		c-0.11-3.45-1.38-7.7-8.85-7.7c-6.9,0-13.45,2.53-16.79,3.91c-1.27,0.46-2.41,0-2.87-1.03c-0.57-1.15-3.91-9.43-4.25-10.35
		c-0.34-0.92-0.34-2.53,1.04-3.1c3.91-2.07,13.57-6.21,25.52-6.21c13.57,0,27.13,5.75,28.74,19.89
		C330.42,556.75,330.42,557.67,330.42,558.59z M307.77,578.6v-7.01c0,0-8.74-0.46-12.19,2.3c-4.37,3.33-2.99,10.69,4.37,10.69
		C307.19,584.58,307.77,578.6,307.77,578.6z"/>
	<path class="st1" d="M393.54,541.46c-0.23,2.07-1.27,13.57-1.49,15.41c-0.34,2.64-1.95,3.91-4.25,3.22
		c-2.41-0.8-6.44-1.95-10.92-1.84c-4.25,0.12-11.04,1.95-11.04,11.73c0,3.1,0,25.87,0,25.87l-0.11,0.11v-0.11
		c0,1.49-1.26,2.76-2.76,2.76h-17.02c-1.49,0-2.87-1.26-2.87-2.76v-55.42c0-1.61,1.38-2.87,2.87-2.87h17.02
		c1.49,0,2.76,1.26,2.76,2.87v2.87c1.96-2.76,9.66-7.36,17.59-7.36c4.48,0,7.59,0.8,9.08,1.38
		C393.77,538.01,393.65,539.85,393.54,541.46z"/>
	<path class="st1" d="M462.75,598.6c-2.99,0-16.9,0-16.9,0c-2.07,0-3.33-0.92-4.37-2.87c-0.58-0.92-5.4-10.12-9.54-17.82h-5.29
		v17.82c0,1.61-1.27,2.87-2.87,2.87h-16.9c-1.49,0-2.87-1.26-2.87-2.87V521c0-1.49,1.26-2.87,2.87-2.87h16.9
		c1.61,0,2.87,1.38,2.87,2.87v37.14h5.17c3.68-7.59,8.05-16.79,8.51-17.71c1.15-2.07,2.3-2.87,4.37-2.87c0,0,14.03,0,17.02,0
		c3.33,0,4.02,1.38,2.76,3.56c-0.92,1.84-11.27,22.99-13.45,26.9c2.3,3.91,13.68,25.18,14.6,27.02
		C466.78,597.34,466.09,598.6,462.75,598.6z"/>
	<path class="st1" d="M491.15,575.03c2.3,6.9,8.97,8.85,13.34,8.97c7.01,0.23,11.15-1.15,15.29-2.99c1.49-0.57,3.1-0.57,4.02,1.15
		c0.46,1.15,2.64,7.13,3.22,8.51c0.69,1.84-0.11,3.1-1.15,3.79c-6.67,4.14-15.98,5.52-23.91,5.52c-21.5,0-33.46-14.37-33.46-32.08
		c0-17.71,11.84-31.96,32.54-31.96c18.05,0,28.74,14.26,28.74,31.96c0,5.17-0.57,7.13-6.78,7.13
		C520.47,575.03,511.62,575.03,491.15,575.03z M490.69,563.54h18.51c0-7.01-2.76-11.73-8.16-11.73
		C494.72,551.81,490.69,556.41,490.69,563.54z"/>
	<path class="st1" d="M584.24,598.49c-3.11,0.69-8.74,1.49-16.79,1.49c-10.81,0-19.31-5.17-19.31-18.17c0,0,0,0,0-24.49h-9.31
		c-1.61,0-2.87-1.27-2.87-2.87v-14.14c0-1.5,1.26-2.76,2.87-2.76h9.31v-12.65c0-1.49,1.38-2.76,2.87-2.76h17.02
		c1.49,0,2.76,1.27,2.76,2.76c0,0,0,5.4,0,12.65h10.12c1.61,0,2.87,1.26,2.87,2.76v14.14c0,1.61-1.27,2.87-2.87,2.87h-10.12
		c0,7.24,0,13.11,0,14.49c0,8.85,1.96,9.66,11.96,8.39c2.18-0.34,2.53,0.92,2.76,2.53c0.23,1.26,0.92,8.62,1.15,11.38
		C586.88,596.88,586.08,598.03,584.24,598.49z"/>
	<path class="st1" d="M616.89,581.7v14.03c0,1.61-1.26,2.87-2.87,2.87h-14.14c-1.49,0-2.76-1.26-2.76-2.87V581.7
		c0-1.61,1.27-2.87,2.76-2.87h14.14C615.63,578.83,616.89,580.09,616.89,581.7z"/>
	<path class="st1" d="M669.22,598.49c-3.1,0.69-8.74,1.49-16.78,1.49c-10.81,0-19.31-5.17-19.31-18.17c0,0,0,0,0-24.49h-9.31
		c-1.61,0-2.87-1.27-2.87-2.87v-14.14c0-1.5,1.26-2.76,2.87-2.76h9.31v-12.65c0-1.49,1.38-2.76,2.87-2.76h17.01
		c1.49,0,2.76,1.27,2.76,2.76c0,0,0,5.4,0,12.65h10.12c1.61,0,2.87,1.26,2.87,2.76v14.14c0,1.61-1.27,2.87-2.87,2.87h-10.12
		c0,7.24,0,13.11,0,14.49c0,8.85,1.95,9.66,11.96,8.39c2.19-0.34,2.53,0.92,2.76,2.53c0.23,1.26,0.92,8.62,1.15,11.38
		C671.87,596.88,671.06,598.03,669.22,598.49z"/>
	<path class="st1" d="M743.84,541.58c-1.04,2.76-18.86,52.2-19.78,54.15c-0.92,2.07-1.61,2.87-3.68,2.87h-17.93
		c-2.07,0-2.76-0.8-3.68-2.87c-0.92-1.95-18.74-51.39-19.77-54.15c-0.92-2.64,0.11-4.02,2.07-4.02c1.49,0,16.9,0,16.9,0
		c3.45,0,4.02,1.03,5.17,4.02c0.58,1.61,8.28,32.77,8.28,32.77s7.7-31.16,8.28-32.77c1.15-2.99,1.73-4.02,5.17-4.02
		c0,0,15.41,0,16.9,0C743.73,537.55,744.76,538.93,743.84,541.58z"/>
</g>
<path class="st2" d="M550.48,154.31c-31.46,0-43.8,18.48-68.55,43.23l-45.62,45.62V217.1c0-35.59-29.3-62.79-63.06-62.79
	c-31.46,0-43.8,18.48-68.55,43.23L153.26,348.97c-24.15,24.15-24.98,63.85-0.55,88.27c25.26,25.26,64.96,24.43,89.11,0.28
	l84.41-84.28c0,0,1.16-1.08,0.01,0.3c-4.15,4.87-7.45,10.25-9.89,15.92c-0.06,0.13-0.12,0.25-0.18,0.37
	c-1.63,3.62-2.74,7.48-3.5,11.03c-0.54,2.47-0.94,4.96-1.19,7.46c-0.39,3.52-0.4,5.86-0.4,5.86c0,7.02,1.18,13.8,3.32,20.16
	c0.03,0.09,1.9,4.94,2.3,5.85c9.62,21.59,31.18,36.81,56.4,36.81c15.39,0,29.25-5.33,40.04-14.12c0.15-0.12,3.69-3.16,5.08-4.54
	l70.09-70.09v25.94c0,34.15,27.48,62.81,62.03,62.81c35.72,0,63.2-28.66,63.2-62.81V217.1C613.54,181.5,584.25,154.31,550.48,154.31
	z"/>
<g>
	<path class="st3" d="M550.48,154.31c-31.46,0-43.8,18.48-68.55,43.23l-45.62,45.62L326.22,353.24c0,0,1.16-1.08,0.01,0.3
		c-4.15,4.87-7.45,10.25-9.89,15.92c-0.06,0.13-0.12,0.25-0.18,0.37c-1.63,3.62-2.74,7.48-3.5,11.03c-0.54,2.47-0.94,4.96-1.19,7.46
		c-0.39,3.52-0.4,5.86-0.4,5.86c0,7.02,1.18,13.8,3.32,20.16c0.03,0.09,1.9,4.94,2.3,5.85c9.62,21.59,31.18,36.81,56.4,36.81
		c15.39,0,29.25-5.33,40.04-14.12c0.15-0.12,3.69-3.16,5.08-4.54l70.09-70.09v25.94c0,34.15,27.48,62.81,62.03,62.81
		c35.72,0,63.2-28.66,63.2-62.81V217.1C613.54,181.5,584.25,154.31,550.48,154.31z"/>
</g>
<g>
	<path class="st1" d="M316.34,369.74c3.38-7.39,7.28-12.77,9.89-15.92C322.08,358.69,318.78,364.07,316.34,369.74z"/>
	<path class="st1" d="M315.56,417.78c-0.05-0.13-0.1-0.26-0.15-0.39C315.46,417.52,315.5,417.65,315.56,417.78z"/>
	<path class="st1" d="M316.7,420.47c-0.02-0.03-0.03-0.06-0.04-0.1C316.67,420.41,316.69,420.44,316.7,420.47z"/>
	<path class="st1" d="M413.6,442.8c-0.15,0.12-0.3,0.24-0.45,0.36C413.29,443.04,413.45,442.93,413.6,442.8z"/>
	<path class="st1" d="M311.48,388.61c0.23-2.13,0.6-4.7,1.19-7.46C312.13,383.61,311.73,386.1,311.48,388.61z"/>
	<path class="st1" d="M314.49,414.9c-0.03-0.09-0.06-0.18-0.09-0.27C314.43,414.72,314.46,414.81,314.49,414.9z"/>
	<path class="st1" d="M436.25,394.51V243.47L329.61,350.11c-1.21,1.21-2.35,2.47-3.44,3.75c-2.61,3.15-6.5,8.53-9.89,15.92
		c-1.59,3.7-2.81,7.52-3.67,11.41c-0.58,2.76-0.96,5.33-1.19,7.46c-0.86,8.74,0.1,17.63,2.92,26.02c0.03,0.09,0.06,0.18,0.09,0.27
		c0.29,0.84,0.59,1.67,0.92,2.49c0.05,0.13,0.1,0.26,0.15,0.39c0.35,0.87,0.71,1.74,1.1,2.6c0.01,0.03,0.03,0.07,0.04,0.1
		c2.95,6.47,7.18,12.43,12.41,17.87c22.75,23.68,59.68,24.41,84.03,4.82c0.15-0.12,0.31-0.24,0.45-0.36c0.1-0.08,0.2-0.18,0.31-0.26
		C427.66,430.97,436.25,413.6,436.25,394.51z"/>
</g>
</svg>
