<?xml version="1.0" encoding="utf-8"?>
<!-- Generator: Adobe Illustrator 26.0.1, SVG Export Plug-In . SVG Version: 6.00 Build 0)  -->
<svg version="1.1" id="Capa_1" xmlns="http://www.w3.org/2000/svg" xmlns:xlink="http://www.w3.org/1999/xlink" x="0px" y="0px"
	 viewBox="0 0 750 750" style="enable-background:new 0 0 750 750;" xml:space="preserve">
<style type="text/css">
	.st0{fill:none;}
	.st1{fill:#808080;}
	.st2{fill:#CBCBCB;}
	.st3{fill:#B2B2B2;}
</style>
<rect class="st0" width="750" height="750"/>
<g>
	<path class="st1" d="M64.67,547v37.14c0,1.61-1.27,2.87-2.87,2.87h-10h-6.9c-1.61,0-2.87-1.26-2.87-2.87v-2.3
		c-4.14,4.48-12.19,6.55-18.63,6.55c-3.56,0-18.39-1.84-18.39-17.25c0-13.22,9.54-19.55,18.39-20.92c5.75-0.8,13.91-1.15,18.63-1.38
		c-0.11-3.45-1.38-7.7-8.85-7.7c-6.9,0-13.45,2.53-16.79,3.91c-1.27,0.46-2.41,0-2.87-1.03c-0.58-1.15-3.91-9.43-4.25-10.35
		c-0.35-0.92-0.35-2.53,1.03-3.1c3.91-2.07,13.57-6.21,25.52-6.21c13.57,0,27.13,5.75,28.74,19.89
		C64.67,545.16,64.67,546.08,64.67,547z M42.02,567v-7.01c0,0-8.74-0.46-12.19,2.3c-4.37,3.33-2.99,10.69,4.37,10.69
		C41.45,572.98,42.02,567,42.02,567z"/>
	<path class="st1" d="M150.9,586.89c-2.07,0.69-5.4,1.49-12.3,1.49c-10.23,0-13.45-5.86-14.25-7.82c-5.29,4.83-12.3,7.82-20.01,7.82
		c-17.02,0-29.32-14.37-29.32-32.08c0-17.71,12.3-31.96,29.32-31.96c6.32,0,12.07,1.95,17.02,5.29V509.4c0-1.61,1.26-2.87,2.87-2.87
		h16.9c1.61,0,2.87,1.27,2.87,2.87v54.73c0,5.4,3.45,4.48,5.4,4.48c2.3-0.11,2.64,0.92,2.87,2.53c0.11,1.38,0.8,9.08,1.03,11.38
		C153.66,585.05,152.74,586.32,150.9,586.89z M121.35,556.42c0-7.7-5.4-14.03-12.07-14.03c-6.55,0-11.61,6.32-11.61,14.03
		s5.06,13.91,11.61,13.91C115.95,570.34,121.35,564.13,121.35,556.42z"/>
	<path class="st1" d="M261.28,546.42v37.71c0,1.61-1.27,2.87-2.76,2.87h-16.9c-1.61,0-2.87-1.26-2.87-2.87v-33.8
		c0-6.32-4.14-8.05-7.13-8.05c-3.1,0-7.13,1.61-7.13,7.93v33.92c0,1.61-1.27,2.87-2.87,2.87h-16.9c-1.61,0-2.87-1.26-2.87-2.87
		v-33.8c0-6.32-4.14-8.05-7.13-8.05c-3.1,0-7.13,1.61-7.13,8.05c0,3.1,0,33.8,0,33.8c0,1.61-1.27,2.87-2.87,2.87h-16.9
		c-1.61,0-2.87-1.26-2.87-2.87v-55.3c0-1.61,1.26-2.87,2.87-2.87h16.9c1.61,0,2.87,1.26,2.87,2.87v2.87
		c2.53-3.68,9.54-7.36,16.44-7.36c8.51,0,13.91,2.41,17.02,7.13c5.06-4.14,10.81-7.13,18.74-7.13
		C255.07,524.35,261.28,532.28,261.28,546.42z"/>
	<path class="st1" d="M331.3,547v37.14c0,1.61-1.27,2.87-2.87,2.87h-10h-6.9c-1.61,0-2.87-1.26-2.87-2.87v-2.3
		c-4.14,4.48-12.19,6.55-18.62,6.55c-3.56,0-18.4-1.84-18.4-17.25c0-13.22,9.54-19.55,18.4-20.92c5.75-0.8,13.91-1.15,18.62-1.38
		c-0.11-3.45-1.38-7.7-8.85-7.7c-6.9,0-13.45,2.53-16.79,3.91c-1.27,0.46-2.41,0-2.87-1.03c-0.57-1.15-3.91-9.43-4.25-10.35
		c-0.34-0.92-0.34-2.53,1.04-3.1c3.91-2.07,13.57-6.21,25.52-6.21c13.57,0,27.13,5.75,28.74,19.89
		C331.3,545.16,331.3,546.08,331.3,547z M308.65,567v-7.01c0,0-8.74-0.46-12.19,2.3c-4.37,3.33-2.99,10.69,4.37,10.69
		C308.07,572.98,308.65,567,308.65,567z"/>
	<path class="st1" d="M394.42,529.87c-0.23,2.07-1.27,13.57-1.49,15.41c-0.34,2.64-1.95,3.91-4.25,3.22
		c-2.41-0.8-6.44-1.95-10.92-1.84c-4.25,0.12-11.04,1.95-11.04,11.73c0,3.1,0,25.87,0,25.87l-0.11,0.11v-0.11
		c0,1.49-1.26,2.76-2.76,2.76h-17.02c-1.49,0-2.87-1.26-2.87-2.76v-55.42c0-1.61,1.38-2.87,2.87-2.87h17.02
		c1.49,0,2.76,1.26,2.76,2.87v2.87c1.96-2.76,9.66-7.36,17.59-7.36c4.48,0,7.59,0.8,9.08,1.38
		C394.64,526.42,394.53,528.26,394.42,529.87z"/>
	<path class="st1" d="M463.63,587.01c-2.99,0-16.9,0-16.9,0c-2.07,0-3.33-0.92-4.37-2.87c-0.58-0.92-5.4-10.12-9.54-17.82h-5.29
		v17.82c0,1.61-1.27,2.87-2.87,2.87h-16.9c-1.49,0-2.87-1.26-2.87-2.87V509.4c0-1.49,1.26-2.87,2.87-2.87h16.9
		c1.61,0,2.87,1.38,2.87,2.87v37.14h5.17c3.68-7.59,8.05-16.79,8.51-17.71c1.15-2.07,2.3-2.87,4.37-2.87c0,0,14.03,0,17.02,0
		c3.33,0,4.02,1.38,2.76,3.56c-0.92,1.84-11.27,22.99-13.45,26.9c2.3,3.91,13.68,25.18,14.6,27.02
		C467.65,585.74,466.96,587.01,463.63,587.01z"/>
	<path class="st1" d="M492.03,563.44c2.3,6.9,8.97,8.85,13.34,8.97c7.01,0.23,11.15-1.15,15.29-2.99c1.49-0.57,3.1-0.57,4.02,1.15
		c0.46,1.15,2.64,7.13,3.22,8.51c0.69,1.84-0.11,3.1-1.15,3.79c-6.67,4.14-15.98,5.52-23.91,5.52c-21.5,0-33.46-14.37-33.46-32.08
		c0-17.71,11.84-31.96,32.54-31.96c18.05,0,28.74,14.26,28.74,31.96c0,5.17-0.57,7.13-6.78,7.13
		C521.35,563.44,512.5,563.44,492.03,563.44z M491.57,551.94h18.51c0-7.01-2.76-11.73-8.16-11.73
		C495.6,540.21,491.57,544.81,491.57,551.94z"/>
	<path class="st1" d="M585.12,586.89c-3.11,0.69-8.74,1.49-16.79,1.49c-10.81,0-19.31-5.17-19.31-18.17c0,0,0,0,0-24.49h-9.31
		c-1.61,0-2.87-1.27-2.87-2.87v-14.14c0-1.5,1.26-2.76,2.87-2.76h9.31v-12.65c0-1.49,1.38-2.76,2.87-2.76h17.02
		c1.49,0,2.76,1.27,2.76,2.76c0,0,0,5.4,0,12.65h10.12c1.61,0,2.87,1.26,2.87,2.76v14.14c0,1.61-1.27,2.87-2.87,2.87h-10.12
		c0,7.24,0,13.11,0,14.49c0,8.85,1.96,9.66,11.96,8.39c2.18-0.34,2.53,0.92,2.76,2.53c0.23,1.26,0.92,8.62,1.15,11.38
		C587.76,585.28,586.96,586.43,585.12,586.89z"/>
	<path class="st1" d="M617.77,570.11v14.03c0,1.61-1.26,2.87-2.87,2.87h-14.14c-1.49,0-2.76-1.26-2.76-2.87v-14.03
		c0-1.61,1.27-2.87,2.76-2.87h14.14C616.51,567.23,617.77,568.5,617.77,570.11z"/>
	<path class="st1" d="M670.1,586.89c-3.1,0.69-8.74,1.49-16.78,1.49c-10.81,0-19.31-5.17-19.31-18.17c0,0,0,0,0-24.49h-9.31
		c-1.61,0-2.87-1.27-2.87-2.87v-14.14c0-1.5,1.26-2.76,2.87-2.76H634v-12.65c0-1.49,1.38-2.76,2.87-2.76h17.01
		c1.49,0,2.76,1.27,2.76,2.76c0,0,0,5.4,0,12.65h10.12c1.61,0,2.87,1.26,2.87,2.76v14.14c0,1.61-1.27,2.87-2.87,2.87h-10.12
		c0,7.24,0,13.11,0,14.49c0,8.85,1.95,9.66,11.96,8.39c2.19-0.34,2.53,0.92,2.76,2.53c0.23,1.26,0.92,8.62,1.15,11.38
		C672.75,585.28,671.94,586.43,670.1,586.89z"/>
	<path class="st1" d="M744.72,529.98c-1.04,2.76-18.86,52.2-19.78,54.15c-0.92,2.07-1.61,2.87-3.68,2.87h-17.93
		c-2.07,0-2.76-0.8-3.68-2.87c-0.92-1.95-18.74-51.39-19.77-54.15c-0.92-2.64,0.11-4.02,2.07-4.02c1.49,0,16.9,0,16.9,0
		c3.45,0,4.02,1.03,5.17,4.02c0.58,1.61,8.28,32.77,8.28,32.77s7.7-31.16,8.28-32.77c1.15-2.99,1.73-4.02,5.17-4.02
		c0,0,15.41,0,16.9,0C744.61,525.96,745.64,527.34,744.72,529.98z"/>
</g>
<g>
	<path class="st2" d="M551.36,142.71c-31.46,0-43.8,18.48-68.55,43.23l-45.62,45.62V205.5c0-35.59-29.3-62.79-63.06-62.79
		c-31.46,0-43.8,18.48-68.55,43.23L154.14,337.38c-24.15,24.15-24.98,63.85-0.55,88.27c25.26,25.26,64.96,24.43,89.11,0.28
		l84.41-84.28c0,0,1.16-1.08,0.01,0.3c-4.15,4.87-7.45,10.25-9.89,15.92c-0.06,0.13-0.12,0.25-0.18,0.37
		c-1.63,3.62-2.74,7.48-3.5,11.03c-0.54,2.47-0.94,4.96-1.19,7.46c-0.39,3.52-0.4,5.86-0.4,5.86c0,7.02,1.18,13.8,3.32,20.16
		c0.03,0.09,1.9,4.94,2.3,5.85c9.62,21.59,31.18,36.81,56.4,36.81c15.39,0,29.25-5.33,40.04-14.12c0.15-0.12,3.69-3.16,5.08-4.54
		l70.09-70.09v25.94c0,34.15,27.48,62.81,62.03,62.81c35.72,0,63.2-28.66,63.2-62.81V205.5
		C614.42,169.91,585.12,142.71,551.36,142.71z"/>
</g>
<g>
	<path class="st3" d="M551.36,142.71c-31.46,0-43.8,18.48-68.55,43.23l-45.62,45.62L327.1,341.65c0,0,1.16-1.08,0.01,0.3
		c-4.15,4.87-7.45,10.25-9.89,15.92c-0.06,0.13-0.12,0.25-0.18,0.37c-1.63,3.62-2.74,7.48-3.5,11.03c-0.54,2.47-0.94,4.96-1.19,7.46
		c-0.39,3.52-0.4,5.86-0.4,5.86c0,7.02,1.18,13.8,3.32,20.16c0.03,0.09,1.9,4.94,2.3,5.85c9.62,21.59,31.18,36.81,56.4,36.81
		c15.39,0,29.25-5.33,40.04-14.12c0.15-0.12,3.69-3.16,5.08-4.54l70.09-70.09v25.94c0,34.15,27.48,62.81,62.03,62.81
		c35.72,0,63.2-28.66,63.2-62.81V205.5C614.42,169.91,585.12,142.71,551.36,142.71z"/>
</g>
<g>
	<path class="st1" d="M317.22,358.14c3.38-7.39,7.28-12.77,9.89-15.92C322.96,347.1,319.66,352.47,317.22,358.14z"/>
	<path class="st1" d="M316.43,406.18c-0.05-0.13-0.1-0.26-0.15-0.39C316.33,405.92,316.38,406.05,316.43,406.18z"/>
	<path class="st1" d="M317.58,408.88c-0.02-0.03-0.03-0.06-0.04-0.1C317.55,408.81,317.56,408.84,317.58,408.88z"/>
	<path class="st1" d="M414.47,431.21c-0.15,0.12-0.3,0.24-0.45,0.36C414.17,431.44,414.32,431.33,414.47,431.21z"/>
	<path class="st1" d="M312.36,377.01c0.23-2.13,0.6-4.7,1.19-7.46C313,372.02,312.6,374.51,312.36,377.01z"/>
	<path class="st1" d="M315.37,403.3c-0.03-0.09-0.06-0.18-0.09-0.27C315.31,403.12,315.34,403.21,315.37,403.3z"/>
	<path class="st1" d="M437.12,382.91V231.87L330.48,338.51c-1.21,1.21-2.35,2.47-3.44,3.75c-2.61,3.15-6.5,8.53-9.89,15.92
		c-1.59,3.7-2.81,7.52-3.67,11.41c-0.58,2.76-0.96,5.33-1.19,7.46c-0.86,8.74,0.1,17.63,2.92,26.02c0.03,0.09,0.06,0.18,0.09,0.27
		c0.29,0.84,0.59,1.67,0.92,2.49c0.05,0.13,0.1,0.26,0.15,0.39c0.35,0.87,0.71,1.74,1.1,2.6c0.01,0.03,0.03,0.07,0.04,0.1
		c2.95,6.47,7.18,12.43,12.41,17.87c22.75,23.68,59.68,24.41,84.03,4.82c0.15-0.12,0.31-0.24,0.45-0.36c0.1-0.08,0.2-0.18,0.31-0.26
		C428.53,419.37,437.12,402.01,437.12,382.91z"/>
</g>
</svg>
