<?xml version="1.0" encoding="utf-8"?>
<!-- Generator: Adobe Illustrator 26.0.1, SVG Export Plug-In . SVG Version: 6.00 Build 0)  -->
<svg version="1.1" id="Capa_1" xmlns="http://www.w3.org/2000/svg" xmlns:xlink="http://www.w3.org/1999/xlink" x="0px" y="0px"
	 viewBox="0 0 1500 1500" style="enable-background:new 0 0 1500 1500;" xml:space="preserve">
<style type="text/css">
	.st0{fill:none;}
	.st1{fill:#808080;}
	.st2{fill:#CBCBCB;}
	.st3{fill:#B2B2B2;}
</style>
<rect y="-0.67" class="st0" width="1500" height="1500"/>
<g>
	<path class="st1" d="M129.34,1093.33v74.27c0,3.22-2.53,5.75-5.75,5.75h-20h-13.8c-3.22,0-5.75-2.53-5.75-5.75v-4.6
		c-8.28,8.97-24.37,13.11-37.25,13.11c-7.13,0-36.79-3.68-36.79-34.49c0-26.44,19.08-39.09,36.79-41.85
		c11.5-1.61,27.82-2.3,37.25-2.76c-0.23-6.9-2.76-15.41-17.71-15.41c-13.8,0-26.9,5.06-33.57,7.82c-2.53,0.92-4.83,0-5.75-2.07
		c-1.15-2.3-7.82-18.86-8.51-20.69c-0.69-1.84-0.69-5.06,2.07-6.21c7.82-4.14,27.13-12.42,51.05-12.42
		c27.13,0,54.27,11.5,57.49,39.78C129.34,1089.65,129.34,1091.49,129.34,1093.33z M84.04,1133.34v-14.03c0,0-17.48-0.92-24.37,4.6
		c-8.74,6.67-5.98,21.38,8.74,21.38C82.89,1145.29,84.04,1133.34,84.04,1133.34z"/>
	<path class="st1" d="M301.8,1173.12c-4.14,1.38-10.81,2.99-24.61,2.99c-20.46,0-26.9-11.73-28.51-15.64
		c-10.58,9.66-24.61,15.64-40.01,15.64c-34.03,0-58.64-28.74-58.64-64.15c0-35.41,24.6-63.92,58.64-63.92
		c12.65,0,24.14,3.91,34.03,10.58v-40.47c0-3.22,2.53-5.75,5.75-5.75h33.8c3.22,0,5.75,2.53,5.75,5.75v109.45
		c0,10.81,6.9,8.97,10.81,8.97c4.6-0.23,5.29,1.84,5.75,5.06c0.23,2.76,1.61,18.17,2.07,22.76
		C307.32,1169.44,305.48,1171.97,301.8,1173.12z M242.71,1112.18c0-15.41-10.81-28.05-24.15-28.05c-13.11,0-23.22,12.65-23.22,28.05
		c0,15.41,10.12,27.82,23.22,27.82C231.9,1140.01,242.71,1127.59,242.71,1112.18z"/>
	<path class="st1" d="M522.55,1092.18v75.42c0,3.22-2.53,5.75-5.52,5.75h-33.8c-3.22,0-5.75-2.53-5.75-5.75V1100
		c0-12.65-8.28-16.1-14.26-16.1c-6.21,0-14.26,3.22-14.26,15.87v67.83c0,3.22-2.53,5.75-5.75,5.75h-33.8
		c-3.22,0-5.75-2.53-5.75-5.75V1100c0-12.65-8.28-16.1-14.26-16.1c-6.21,0-14.26,3.22-14.26,16.1c0,6.21,0,67.6,0,67.6
		c0,3.22-2.53,5.75-5.75,5.75h-33.8c-3.22,0-5.75-2.53-5.75-5.75V1057c0-3.22,2.53-5.75,5.75-5.75h33.8c3.22,0,5.75,2.53,5.75,5.75
		v5.75c5.06-7.36,19.09-14.72,32.88-14.72c17.02,0,27.83,4.83,34.03,14.26c10.12-8.28,21.61-14.26,37.48-14.26
		C510.13,1048.03,522.55,1063.89,522.55,1092.18z"/>
	<path class="st1" d="M662.59,1093.33v74.27c0,3.22-2.53,5.75-5.75,5.75h-20.01h-13.8c-3.22,0-5.75-2.53-5.75-5.75v-4.6
		c-8.28,8.97-24.37,13.11-37.25,13.11c-7.13,0-36.79-3.68-36.79-34.49c0-26.44,19.09-39.09,36.79-41.85
		c11.5-1.61,27.82-2.3,37.25-2.76c-0.23-6.9-2.76-15.41-17.71-15.41c-13.8,0-26.9,5.06-33.57,7.82c-2.53,0.92-4.83,0-5.75-2.07
		c-1.15-2.3-7.82-18.86-8.51-20.69c-0.69-1.84-0.69-5.06,2.07-6.21c7.82-4.14,27.13-12.42,51.05-12.42
		c27.13,0,54.27,11.5,57.49,39.78C662.59,1089.65,662.59,1091.49,662.59,1093.33z M617.29,1133.34v-14.03c0,0-17.47-0.92-24.37,4.6
		c-8.74,6.67-5.98,21.38,8.74,21.38C616.14,1145.29,617.29,1133.34,617.29,1133.34z"/>
	<path class="st1" d="M788.83,1059.07c-0.46,4.14-2.53,27.13-2.99,30.81c-0.69,5.29-3.91,7.82-8.51,6.44
		c-4.83-1.61-12.87-3.91-21.84-3.68c-8.51,0.23-22.08,3.91-22.08,23.45c0,6.21,0,51.74,0,51.74l-0.23,0.23v-0.23
		c0,2.99-2.53,5.52-5.52,5.52h-34.03c-2.99,0-5.75-2.53-5.75-5.52V1057c0-3.22,2.76-5.75,5.75-5.75h34.03
		c2.99,0,5.52,2.53,5.52,5.75v5.75c3.91-5.52,19.32-14.72,35.18-14.72c8.97,0,15.18,1.61,18.17,2.76
		C789.29,1052.17,789.06,1055.85,788.83,1059.07z"/>
	<path class="st1" d="M927.26,1173.35c-5.98,0-33.8,0-33.8,0c-4.14,0-6.67-1.84-8.74-5.75c-1.15-1.84-10.81-20.23-19.09-35.64
		h-10.58v35.64c0,3.22-2.53,5.75-5.75,5.75h-33.8c-2.99,0-5.75-2.53-5.75-5.75v-149.46c0-2.99,2.53-5.75,5.75-5.75h33.8
		c3.22,0,5.75,2.76,5.75,5.75v74.27h10.34c7.36-15.18,16.1-33.57,17.02-35.41c2.3-4.14,4.6-5.75,8.74-5.75c0,0,28.05,0,34.03,0
		c6.67,0,8.04,2.76,5.52,7.13c-1.84,3.68-22.53,45.99-26.91,53.81c4.6,7.82,27.37,50.36,29.2,54.04
		C935.31,1170.82,933.93,1173.35,927.26,1173.35z"/>
	<path class="st1" d="M984.06,1126.21c4.6,13.8,17.93,17.71,26.67,17.93c14.03,0.46,22.3-2.3,30.58-5.98
		c2.99-1.15,6.21-1.15,8.05,2.3c0.92,2.3,5.29,14.26,6.44,17.02c1.38,3.68-0.23,6.21-2.3,7.59c-13.34,8.28-31.96,11.04-47.83,11.04
		c-43,0-66.91-28.74-66.91-64.15c0-35.41,23.68-63.92,65.07-63.92c36.1,0,57.49,28.51,57.49,63.92c0,10.35-1.15,14.26-13.57,14.26
		C1042.7,1126.21,1024.99,1126.21,984.06,1126.21z M983.14,1103.22h37.02c0-14.03-5.52-23.45-16.33-23.45
		C991.19,1079.76,983.14,1088.96,983.14,1103.22z"/>
	<path class="st1" d="M1170.23,1173.12c-6.21,1.38-17.48,2.99-33.57,2.99c-21.61,0-38.63-10.35-38.63-36.33c0,0,0,0,0-48.98h-18.63
		c-3.22,0-5.75-2.53-5.75-5.75v-28.28c0-2.99,2.53-5.52,5.75-5.52h18.63v-25.29c0-2.99,2.76-5.52,5.75-5.52h34.03
		c2.99,0,5.52,2.53,5.52,5.52c0,0,0,10.81,0,25.29h20.24c3.22,0,5.75,2.53,5.75,5.52v28.28c0,3.22-2.53,5.75-5.75,5.75h-20.24
		c0,14.49,0,26.21,0,28.97c0,17.71,3.91,19.31,23.92,16.79c4.37-0.69,5.06,1.84,5.52,5.06c0.46,2.53,1.84,17.25,2.3,22.76
		C1175.52,1169.9,1173.91,1172.2,1170.23,1173.12z"/>
	<path class="st1" d="M1235.54,1139.55v28.05c0,3.22-2.53,5.75-5.75,5.75h-28.28c-2.99,0-5.52-2.53-5.52-5.75v-28.05
		c0-3.22,2.53-5.75,5.52-5.75h28.28C1233.01,1133.8,1235.54,1136.33,1235.54,1139.55z"/>
	<path class="st1" d="M1340.2,1173.12c-6.21,1.38-17.48,2.99-33.57,2.99c-21.62,0-38.63-10.35-38.63-36.33c0,0,0,0,0-48.98h-18.63
		c-3.22,0-5.75-2.53-5.75-5.75v-28.28c0-2.99,2.53-5.52,5.75-5.52H1268v-25.29c0-2.99,2.76-5.52,5.75-5.52h34.03
		c2.99,0,5.52,2.53,5.52,5.52c0,0,0,10.81,0,25.29h20.24c3.22,0,5.75,2.53,5.75,5.52v28.28c0,3.22-2.53,5.75-5.75,5.75h-20.24
		c0,14.49,0,26.21,0,28.97c0,17.71,3.91,19.31,23.91,16.79c4.37-0.69,5.06,1.84,5.52,5.06c0.46,2.53,1.84,17.25,2.3,22.76
		C1345.49,1169.9,1343.88,1172.2,1340.2,1173.12z"/>
	<path class="st1" d="M1489.44,1059.3c-2.07,5.52-37.71,104.39-39.55,108.3c-1.84,4.14-3.22,5.75-7.36,5.75h-35.87
		c-4.14,0-5.52-1.61-7.36-5.75c-1.84-3.91-37.48-102.78-39.55-108.3c-1.84-5.29,0.23-8.05,4.14-8.05c2.99,0,33.8,0,33.8,0
		c6.9,0,8.05,2.07,10.34,8.05c1.15,3.22,16.56,65.53,16.56,65.53s15.41-62.31,16.56-65.53c2.3-5.98,3.45-8.05,10.35-8.05
		c0,0,30.81,0,33.8,0C1489.21,1051.25,1491.28,1054.01,1489.44,1059.3z"/>
</g>
<g>
	<path class="st2" d="M1102.72,284.76c-62.91,0-87.61,36.95-137.11,86.45l-91.23,91.23v-52.11c0-71.19-58.6-125.57-126.13-125.57
		c-62.91,0-87.61,36.95-137.11,86.45L308.27,674.08c-48.3,48.3-49.97,127.69-1.11,176.55c50.52,50.52,129.91,48.86,178.21,0.55
		L654.2,682.63c0,0,2.31-2.16,0.02,0.6c-8.29,9.75-14.9,20.49-19.78,31.84c-0.12,0.25-0.24,0.49-0.35,0.75
		c-3.27,7.25-5.48,14.96-6.99,22.07c-1.09,4.93-1.89,9.91-2.38,14.92c-0.77,7.05-0.81,11.72-0.81,11.72
		c0,14.04,2.36,27.61,6.65,40.32c0.06,0.18,3.8,9.88,4.6,11.69c19.24,43.17,62.37,73.61,112.8,73.61
		c30.79,0,58.49-10.66,80.08-28.24c0.3-0.24,7.38-6.31,10.15-9.09l140.18-140.18v51.88c0,68.31,54.96,125.62,124.05,125.62
		c71.45,0,126.41-57.32,126.41-125.62v-354.2C1228.84,339.15,1170.25,284.76,1102.72,284.76z"/>
</g>
<g>
	<path class="st3" d="M1102.72,284.76c-62.91,0-87.61,36.95-137.11,86.45l-91.23,91.23L654.2,682.63c0,0,2.31-2.16,0.02,0.6
		c-8.29,9.75-14.9,20.49-19.78,31.84c-0.12,0.25-0.24,0.49-0.35,0.75c-3.27,7.25-5.48,14.96-6.99,22.07
		c-1.09,4.93-1.89,9.91-2.38,14.92c-0.77,7.05-0.81,11.72-0.81,11.72c0,14.04,2.36,27.61,6.65,40.32c0.06,0.18,3.8,9.88,4.6,11.69
		c19.24,43.17,62.37,73.61,112.8,73.61c30.79,0,58.49-10.66,80.08-28.24c0.3-0.24,7.38-6.31,10.15-9.09l140.18-140.18v51.88
		c0,68.31,54.96,125.62,124.05,125.62c71.45,0,126.41-57.32,126.41-125.62v-354.2C1228.84,339.15,1170.25,284.76,1102.72,284.76z"/>
</g>
<g>
	<path class="st1" d="M634.44,715.62c6.77-14.78,14.56-25.54,19.77-31.84C645.92,693.53,639.32,704.28,634.44,715.62z"/>
	<path class="st1" d="M632.87,811.7c-0.1-0.26-0.2-0.52-0.3-0.78C632.67,811.18,632.76,811.44,632.87,811.7z"/>
	<path class="st1" d="M635.16,817.09c-0.03-0.06-0.06-0.13-0.09-0.19C635.1,816.96,635.13,817.02,635.16,817.09z"/>
	<path class="st1" d="M828.95,861.75c-0.3,0.25-0.61,0.47-0.91,0.72C828.34,862.22,828.65,861.99,828.95,861.75z"/>
	<path class="st1" d="M624.71,753.36c0.47-4.27,1.21-9.41,2.38-14.92C626.01,743.37,625.21,748.35,624.71,753.36z"/>
	<path class="st1" d="M630.73,805.93c-0.06-0.18-0.12-0.36-0.18-0.54C630.61,805.58,630.67,805.76,630.73,805.93z"/>
	<path class="st1" d="M874.25,765.16V463.08L660.97,676.36c-2.42,2.42-4.69,4.94-6.88,7.51c-5.21,6.3-13,17.05-19.77,31.84
		c-3.18,7.4-5.63,15.04-7.34,22.82c-1.17,5.51-1.91,10.65-2.38,14.92c-1.71,17.49,0.2,35.25,5.84,52.04
		c0.06,0.18,0.12,0.36,0.18,0.54c0.57,1.67,1.19,3.34,1.83,4.99c0.1,0.26,0.2,0.52,0.3,0.78c0.69,1.74,1.43,3.47,2.2,5.19
		c0.03,0.07,0.06,0.13,0.09,0.19c5.89,12.94,14.37,24.85,24.82,35.74c45.5,47.37,119.36,48.83,168.06,9.64
		c0.3-0.24,0.61-0.47,0.91-0.72c0.21-0.17,0.4-0.35,0.61-0.53C857.07,838.08,874.25,803.34,874.25,765.16z"/>
</g>
</svg>
