<?xml version="1.0" encoding="utf-8"?>
<!-- Generator: Adobe Illustrator 26.0.1, SVG Export Plug-In . SVG Version: 6.00 Build 0)  -->
<svg version="1.1" id="Capa_1" xmlns="http://www.w3.org/2000/svg" xmlns:xlink="http://www.w3.org/1999/xlink" x="0px" y="0px"
	 viewBox="0 0 1500 1500" style="enable-background:new 0 0 1500 1500;" xml:space="preserve">
<style type="text/css">
	.st0{fill:none;}
	.st1{fill:#4A078D;}
	.st2{fill:#F43290;}
	.st3{fill:#00ADFF;}
</style>
<rect class="st0" width="1500" height="1500"/>
<g>
	<path class="st1" d="M153.5,1062.5v71.7c0,3.1-2.4,5.5-5.5,5.5h-19.3h-13.3c-3.1,0-5.5-2.4-5.5-5.5v-4.4
		c-8,8.7-23.5,12.6-35.9,12.6c-6.9,0-35.4-3.5-35.4-33.3c0-25.5,18.4-37.7,35.4-40.4c11.1-1.6,26.8-2.2,35.9-2.7
		c-0.2-6.7-2.7-14.9-17.1-14.9c-13.3,0-25.9,4.9-32.3,7.5c-2.4,0.9-4.7,0-5.5-2c-1.1-2.2-7.5-18.2-8.2-20s-0.7-4.9,2-6
		c7.5-4,26.1-12,49.2-12c26.1,0,52.3,11.1,55.4,38.4C153.5,1058.9,153.5,1060.7,153.5,1062.5z M109.9,1101.1v-13.5
		c0,0-16.8-0.9-23.5,4.4c-8.4,6.4-5.8,20.6,8.4,20.6C108.7,1112.6,109.9,1101.1,109.9,1101.1z"/>
	<path class="st1" d="M319.6,1139.5c-4,1.3-10.4,2.9-23.7,2.9c-19.7,0-25.9-11.3-27.5-15.1c-10.2,9.3-23.7,15.1-38.5,15.1
		c-32.8,0-56.5-27.7-56.5-61.9c0-34.2,23.7-61.7,56.5-61.7c12.2,0,23.3,3.8,32.8,10.2v-39.1c0-3.1,2.4-5.5,5.5-5.5h32.6
		c3.1,0,5.5,2.4,5.5,5.5v105.6c0,10.4,6.6,8.7,10.4,8.7c4.4-0.2,5.1,1.8,5.5,4.9c0.2,2.7,1.5,17.5,2,22
		C324.9,1135.9,323.1,1138.4,319.6,1139.5z M262.7,1080.7c0-14.9-10.4-27.1-23.3-27.1c-12.6,0-22.4,12.2-22.4,27.1
		s9.7,26.8,22.4,26.8C252.3,1107.5,262.7,1095.5,262.7,1080.7z"/>
	<path class="st1" d="M532.2,1061.4v72.8c0,3.1-2.4,5.5-5.3,5.5h-32.6c-3.1,0-5.5-2.4-5.5-5.5v-65.2c0-12.2-8-15.5-13.7-15.5
		c-6,0-13.7,3.1-13.7,15.3v65.5c0,3.1-2.4,5.5-5.5,5.5h-32.6c-3.1,0-5.5-2.4-5.5-5.5v-65.2c0-12.2-8-15.5-13.7-15.5
		c-6,0-13.7,3.1-13.7,15.5c0,6,0,65.2,0,65.2c0,3.1-2.4,5.5-5.5,5.5h-32.6c-3.1,0-5.5-2.4-5.5-5.5v-106.7c0-3.1,2.4-5.5,5.5-5.5
		h32.6c3.1,0,5.5,2.4,5.5,5.5v5.5c4.9-7.1,18.4-14.2,31.7-14.2c16.4,0,26.8,4.7,32.8,13.8c9.7-8,20.8-13.8,36.1-13.8
		C520.3,1018.8,532.2,1034.1,532.2,1061.4z"/>
	<path class="st1" d="M667.1,1062.5v71.7c0,3.1-2.4,5.5-5.5,5.5h-19.3H629c-3.1,0-5.5-2.4-5.5-5.5v-4.4c-8,8.7-23.5,12.6-35.9,12.6
		c-6.9,0-35.4-3.5-35.4-33.3c0-25.5,18.4-37.7,35.4-40.4c11.1-1.6,26.8-2.2,35.9-2.7c-0.2-6.7-2.7-14.9-17.1-14.9
		c-13.3,0-25.9,4.9-32.3,7.5c-2.4,0.9-4.7,0-5.5-2c-1.1-2.2-7.5-18.2-8.2-20c-0.7-1.8-0.7-4.9,2-6c7.5-4,26.1-12,49.2-12
		c26.1,0,52.3,11.1,55.4,38.4C667.1,1058.9,667.1,1060.7,667.1,1062.5z M623.5,1101.1v-13.5c0,0-16.8-0.9-23.5,4.4
		c-8.4,6.4-5.8,20.6,8.4,20.6C622.4,1112.6,623.5,1101.1,623.5,1101.1z"/>
	<path class="st1" d="M788.7,1029.4c-0.4,4-2.4,26.2-2.9,29.7c-0.7,5.1-3.8,7.5-8.2,6.2c-4.6-1.6-12.4-3.8-21-3.6
		c-8.2,0.2-21.3,3.8-21.3,22.6c0,6,0,49.9,0,49.9l-0.2,0.2v-0.2c0,2.9-2.4,5.3-5.3,5.3H697c-2.9,0-5.5-2.4-5.5-5.3v-106.9
		c0-3.1,2.7-5.5,5.5-5.5h32.8c2.9,0,5.3,2.4,5.3,5.5v5.5c3.8-5.3,18.6-14.2,33.9-14.2c8.6,0,14.6,1.6,17.5,2.7
		C789.1,1022.8,788.9,1026.3,788.7,1029.4z"/>
	<path class="st1" d="M922,1139.7c-5.8,0-32.6,0-32.6,0c-4,0-6.4-1.8-8.4-5.5c-1.1-1.8-10.4-19.5-18.4-34.4h-10.2v34.4
		c0,3.1-2.4,5.5-5.5,5.5h-32.6c-2.9,0-5.5-2.4-5.5-5.5V989.9c0-2.9,2.4-5.5,5.5-5.5H847c3.1,0,5.5,2.7,5.5,5.5v71.7h10
		c7.1-14.6,15.5-32.4,16.4-34.2c2.2-4,4.4-5.5,8.4-5.5c0,0,27,0,32.8,0c6.4,0,7.7,2.7,5.3,6.9c-1.8,3.5-21.7,44.4-25.9,51.9
		c4.4,7.5,26.4,48.6,28.1,52.1C929.8,1137.3,928.5,1139.7,922,1139.7z"/>
	<path class="st1" d="M976.7,1094.2c4.4,13.3,17.3,17.1,25.7,17.3c13.5,0.4,21.5-2.2,29.5-5.8c2.9-1.1,6-1.1,7.8,2.2
		c0.9,2.2,5.1,13.8,6.2,16.4c1.3,3.5-0.2,6-2.2,7.3c-12.8,8-30.8,10.7-46.1,10.7c-41.4,0-64.4-27.7-64.4-61.9
		c0-34.2,22.8-61.7,62.7-61.7c34.8,0,55.4,27.5,55.4,61.7c0,10-1.1,13.8-13.1,13.8C1033.2,1094.2,1016.2,1094.2,976.7,1094.2z
		 M975.9,1072h35.7c0-13.5-5.3-22.6-15.7-22.6C983.6,1049.4,975.9,1058.3,975.9,1072z"/>
	<path class="st1" d="M1156.1,1139.5c-6,1.3-16.8,2.9-32.3,2.9c-20.8,0-37.2-10-37.2-35.1c0,0,0,0,0-47.3h-17.9
		c-3.1,0-5.5-2.4-5.5-5.5v-27.3c0-2.9,2.4-5.3,5.5-5.3h17.9v-24.4c0-2.9,2.7-5.3,5.5-5.3h32.8c2.9,0,5.3,2.4,5.3,5.3
		c0,0,0,10.4,0,24.4h19.5c3.1,0,5.5,2.4,5.5,5.3v27.3c0,3.1-2.4,5.5-5.5,5.5h-19.5c0,14,0,25.3,0,28c0,17.1,3.8,18.6,23,16.2
		c4.2-0.7,4.9,1.8,5.3,4.9c0.4,2.4,1.8,16.6,2.2,22C1161.1,1136.4,1159.6,1138.6,1156.1,1139.5z"/>
	<path class="st1" d="M1219,1107.1v27.1c0,3.1-2.4,5.5-5.5,5.5h-27.2c-2.9,0-5.3-2.4-5.3-5.5v-27.1c0-3.1,2.4-5.5,5.3-5.5h27.2
		C1216.5,1101.5,1219,1104,1219,1107.1z"/>
	<path class="st1" d="M1319.8,1139.5c-6,1.3-16.8,2.9-32.3,2.9c-20.8,0-37.2-10-37.2-35.1c0,0,0,0,0-47.3h-17.9
		c-3.1,0-5.5-2.4-5.5-5.5v-27.3c0-2.9,2.4-5.3,5.5-5.3h17.9v-24.4c0-2.9,2.7-5.3,5.5-5.3h32.8c2.9,0,5.3,2.4,5.3,5.3
		c0,0,0,10.4,0,24.4h19.5c3.1,0,5.5,2.4,5.5,5.3v27.3c0,3.1-2.4,5.5-5.5,5.5h-19.5c0,14,0,25.3,0,28c0,17.1,3.8,18.6,23,16.2
		c4.2-0.7,4.9,1.8,5.3,4.9c0.4,2.4,1.8,16.6,2.2,22C1324.9,1136.4,1323.3,1138.6,1319.8,1139.5z"/>
	<path class="st1" d="M1463.5,1029.6c-2,5.3-36.3,100.7-38.1,104.5c-1.8,4-3.1,5.5-7.1,5.5h-34.5c-4,0-5.3-1.6-7.1-5.5
		c-1.8-3.8-36.1-99.2-38.1-104.5c-1.8-5.1,0.2-7.8,4-7.8c2.9,0,32.6,0,32.6,0c6.6,0,7.8,2,10,7.8c1.1,3.1,15.9,63.2,15.9,63.2
		s14.8-60.1,15.9-63.2c2.2-5.8,3.3-7.8,10-7.8c0,0,29.7,0,32.6,0C1463.3,1021.9,1465.3,1024.5,1463.5,1029.6z"/>
</g>
<path class="st2" d="M1091,282.3c-60.6,0-84.4,35.7-132.1,83.4l-87.9,88v-50.3c0-68.7-56.4-121.2-121.5-121.2
	c-60.6,0-84.4,35.7-132.1,83.4L325.8,657.9c-46.5,46.6-48.1,123.2-1.1,170.4c48.7,48.7,125.1,47.1,171.7,0.5L659,666.2
	c0,0,2.2-2.1,0,0.6c-8,9.4-14.3,19.8-19,30.7c-0.1,0.2-0.2,0.5-0.3,0.7c-3.1,7-5.3,14.4-6.7,21.3c-1,4.8-1.8,9.6-2.3,14.4
	c-0.7,6.8-0.8,11.3-0.8,11.3c0,13.6,2.3,26.6,6.4,38.9c0.1,0.2,3.7,9.5,4.4,11.3c18.5,41.7,60.1,71,108.6,71
	c29.7,0,56.3-10.3,77.1-27.2c0.3-0.2,7.1-6.1,9.8-8.8l135-135.3v50.1c0,65.9,52.9,121.2,119.5,121.2c68.8,0,121.8-55.3,121.8-121.2
	V403.4C1212.5,334.7,1156.1,282.3,1091,282.3z"/>
<g>
	<path class="st3" d="M1091,282.3c-60.6,0-84.4,35.7-132.1,83.4l-87.9,88L659,666.2c0,0,2.2-2.1,0,0.6c-8,9.4-14.3,19.8-19,30.7
		c-0.1,0.2-0.2,0.5-0.3,0.7c-3.1,7-5.3,14.4-6.7,21.3c-1,4.8-1.8,9.6-2.3,14.4c-0.7,6.8-0.8,11.3-0.8,11.3c0,13.6,2.3,26.6,6.4,38.9
		c0.1,0.2,3.7,9.5,4.4,11.3c18.5,41.7,60.1,71,108.6,71c29.7,0,56.3-10.3,77.1-27.2c0.3-0.2,7.1-6.1,9.8-8.8l135-135.3v50.1
		c0,65.9,52.9,121.2,119.5,121.2c68.8,0,121.8-55.3,121.8-121.2V403.4C1212.5,334.7,1156.1,282.3,1091,282.3z"/>
</g>
<g>
	<path class="st1" d="M640,698c6.5-14.3,14-24.6,19-30.7C651,676.7,644.7,687.1,640,698z"/>
	<path class="st1" d="M638.5,790.7c-0.1-0.2-0.2-0.5-0.3-0.8C638.3,790.2,638.4,790.5,638.5,790.7z"/>
	<path class="st1" d="M640.7,795.9c0-0.1-0.1-0.1-0.1-0.2C640.6,795.8,640.7,795.9,640.7,795.9z"/>
	<path class="st1" d="M827.3,839c-0.3,0.2-0.6,0.5-0.9,0.7C826.8,839.5,827.1,839.3,827.3,839z"/>
	<path class="st1" d="M630.6,734.4c0.5-4.1,1.2-9.1,2.3-14.4C631.9,724.8,631.1,729.6,630.6,734.4z"/>
	<path class="st1" d="M636.4,785.2c-0.1-0.2-0.1-0.3-0.2-0.5C636.3,784.8,636.4,785,636.4,785.2z"/>
	<path class="st1" d="M871,745.8V454.3L665.5,660.1c-2.3,2.3-4.5,4.8-6.6,7.2c-5,6.1-12.5,16.5-19,30.7c-3.1,7.1-5.4,14.5-7.1,22
		c-1.1,5.3-1.8,10.3-2.3,14.4c-1.7,16.9,0.2,34,5.6,50.2c0.1,0.2,0.1,0.3,0.2,0.5c0.5,1.6,1.1,3.2,1.8,4.8c0.1,0.2,0.2,0.5,0.3,0.8
		c0.7,1.7,1.4,3.4,2.1,5c0,0.1,0.1,0.1,0.1,0.2c5.7,12.5,13.8,24,23.9,34.5c43.8,45.7,115,47.1,161.9,9.3c0.3-0.2,0.6-0.5,0.9-0.7
		c0.2-0.2,0.4-0.3,0.6-0.5C854.4,816.2,871,782.7,871,745.8z"/>
</g>
</svg>
