<?xml version="1.0" encoding="utf-8"?>
<!-- Generator: Adobe Illustrator 26.0.1, SVG Export Plug-In . SVG Version: 6.00 Build 0)  -->
<svg version="1.1" id="Capa_1" xmlns="http://www.w3.org/2000/svg" xmlns:xlink="http://www.w3.org/1999/xlink" x="0px" y="0px"
	 viewBox="0 0 1500 1500" style="enable-background:new 0 0 1500 1500;" xml:space="preserve">
<style type="text/css">
	.st0{fill:none;}
	.st1{fill:#FFFFFF;}
	.st2{fill:#F43290;}
	.st3{fill:#00ADFF;}
</style>
<rect class="st0" width="1500" height="1500"/>
<g>
	<path class="st1" d="M129.15,1052.39v74.34c0,3.22-2.53,5.75-5.75,5.75h-20.02H89.57c-3.22,0-5.75-2.53-5.75-5.75v-4.6
		c-8.29,8.98-24.4,13.12-37.29,13.12c-7.13,0-36.82-3.68-36.82-34.52c0-26.47,19.1-39.13,36.82-41.89
		c11.51-1.61,27.85-2.3,37.29-2.76c-0.23-6.9-2.76-15.42-17.72-15.42c-13.81,0-26.93,5.06-33.6,7.83c-2.53,0.92-4.83,0-5.75-2.07
		c-1.15-2.3-7.82-18.87-8.52-20.71c-0.69-1.84-0.69-5.06,2.07-6.21c7.83-4.14,27.16-12.43,51.09-12.43
		c27.16,0,54.32,11.51,57.54,39.82C129.15,1048.7,129.15,1050.55,129.15,1052.39z M83.81,1092.43v-14.04c0,0-17.49-0.92-24.4,4.6
		c-8.75,6.67-5.98,21.4,8.75,21.4C82.66,1104.4,83.81,1092.43,83.81,1092.43z"/>
	<path class="st1" d="M301.77,1132.25c-4.15,1.38-10.82,2.99-24.63,2.99c-20.48,0-26.93-11.74-28.54-15.65
		c-10.59,9.67-24.63,15.65-40.05,15.65c-34.06,0-58.69-28.77-58.69-64.21c0-35.44,24.63-63.98,58.69-63.98
		c12.66,0,24.17,3.91,34.06,10.59v-40.51c0-3.22,2.53-5.75,5.75-5.75h33.83c3.22,0,5.75,2.53,5.75,5.75v109.55
		c0,10.82,6.9,8.98,10.82,8.98c4.6-0.23,5.29,1.84,5.75,5.06c0.23,2.76,1.61,18.18,2.07,22.79
		C307.29,1128.57,305.45,1131.1,301.77,1132.25z M242.62,1071.26c0-15.42-10.82-28.08-24.17-28.08c-13.12,0-23.25,12.66-23.25,28.08
		s10.13,27.85,23.25,27.85C231.81,1099.11,242.62,1086.68,242.62,1071.26z"/>
	<path class="st1" d="M522.73,1051.24v75.49c0,3.22-2.53,5.75-5.52,5.75h-33.83c-3.22,0-5.75-2.53-5.75-5.75v-67.67
		c0-12.66-8.29-16.11-14.27-16.11c-6.21,0-14.27,3.22-14.27,15.88v67.9c0,3.22-2.53,5.75-5.75,5.75h-33.83
		c-3.22,0-5.75-2.53-5.75-5.75v-67.67c0-12.66-8.29-16.11-14.27-16.11c-6.21,0-14.27,3.22-14.27,16.11c0,6.21,0,67.67,0,67.67
		c0,3.22-2.53,5.75-5.75,5.75h-33.83c-3.22,0-5.75-2.53-5.75-5.75v-110.7c0-3.22,2.53-5.75,5.75-5.75h33.83
		c3.22,0,5.75,2.53,5.75,5.75v5.75c5.06-7.36,19.1-14.73,32.91-14.73c17.03,0,27.85,4.83,34.06,14.27
		c10.12-8.29,21.63-14.27,37.51-14.27C510.3,1007.05,522.73,1022.93,522.73,1051.24z"/>
	<path class="st1" d="M662.9,1052.39v74.34c0,3.22-2.53,5.75-5.75,5.75h-20.02h-13.81c-3.22,0-5.75-2.53-5.75-5.75v-4.6
		c-8.28,8.98-24.4,13.12-37.28,13.12c-7.14,0-36.82-3.68-36.82-34.52c0-26.47,19.1-39.13,36.82-41.89
		c11.51-1.61,27.85-2.3,37.28-2.76c-0.23-6.9-2.76-15.42-17.72-15.42c-13.81,0-26.93,5.06-33.6,7.83c-2.53,0.92-4.83,0-5.75-2.07
		c-1.15-2.3-7.82-18.87-8.52-20.71c-0.69-1.84-0.69-5.06,2.07-6.21c7.83-4.14,27.16-12.43,51.09-12.43
		c27.16,0,54.32,11.51,57.54,39.82C662.9,1048.7,662.9,1050.55,662.9,1052.39z M617.56,1092.43v-14.04c0,0-17.49-0.92-24.4,4.6
		c-8.75,6.67-5.98,21.4,8.75,21.4C616.4,1104.4,617.56,1092.43,617.56,1092.43z"/>
	<path class="st1" d="M789.25,1018.09c-0.46,4.14-2.53,27.16-2.99,30.84c-0.69,5.29-3.91,7.82-8.52,6.44
		c-4.83-1.61-12.89-3.91-21.86-3.68c-8.52,0.23-22.1,3.91-22.1,23.48c0,6.21,0,51.79,0,51.79l-0.23,0.23v-0.23
		c0,2.99-2.53,5.52-5.52,5.52h-34.06c-2.99,0-5.75-2.53-5.75-5.52v-110.93c0-3.22,2.76-5.75,5.75-5.75h34.06
		c2.99,0,5.52,2.53,5.52,5.75v5.75c3.92-5.52,19.34-14.73,35.21-14.73c8.98,0,15.19,1.61,18.18,2.76
		C789.71,1011.19,789.48,1014.87,789.25,1018.09z"/>
	<path class="st1" d="M927.81,1132.48c-5.98,0-33.83,0-33.83,0c-4.14,0-6.68-1.84-8.75-5.75c-1.15-1.84-10.82-20.25-19.1-35.67
		h-10.59v35.67c0,3.22-2.53,5.75-5.75,5.75h-33.84c-2.99,0-5.75-2.53-5.75-5.75v-149.6c0-2.99,2.53-5.75,5.75-5.75h33.84
		c3.22,0,5.75,2.76,5.75,5.75v74.34h10.35c7.37-15.19,16.11-33.6,17.03-35.44c2.3-4.14,4.61-5.75,8.75-5.75c0,0,28.08,0,34.06,0
		c6.67,0,8.05,2.76,5.52,7.14c-1.84,3.68-22.55,46.03-26.93,53.86c4.61,7.82,27.39,50.4,29.23,54.09
		C935.87,1129.95,934.48,1132.48,927.81,1132.48z"/>
	<path class="st1" d="M984.67,1085.3c4.6,13.81,17.95,17.72,26.7,17.95c14.04,0.46,22.32-2.3,30.61-5.98
		c2.99-1.15,6.21-1.15,8.06,2.3c0.92,2.3,5.29,14.27,6.44,17.03c1.38,3.68-0.23,6.21-2.3,7.6c-13.35,8.29-31.99,11.05-47.87,11.05
		c-43.04,0-66.97-28.77-66.97-64.21c0-35.44,23.71-63.98,65.13-63.98c36.14,0,57.54,28.54,57.54,63.98
		c0,10.36-1.15,14.27-13.58,14.27C1043.35,1085.3,1025.63,1085.3,984.67,1085.3z M983.74,1062.28h37.05
		c0-14.04-5.52-23.48-16.34-23.48C991.8,1038.81,983.74,1048.01,983.74,1062.28z"/>
	<path class="st1" d="M1171,1132.25c-6.22,1.38-17.49,2.99-33.6,2.99c-21.63,0-38.67-10.36-38.67-36.37c0,0,0,0,0-49.02h-18.64
		c-3.22,0-5.75-2.53-5.75-5.75v-28.31c0-2.99,2.53-5.52,5.75-5.52h18.64v-25.32c0-2.99,2.76-5.52,5.75-5.52h34.06
		c2.99,0,5.52,2.53,5.52,5.52c0,0,0,10.82,0,25.32h20.25c3.22,0,5.75,2.53,5.75,5.52v28.31c0,3.22-2.53,5.75-5.75,5.75h-20.25
		c0,14.5,0,26.24,0,29c0,17.72,3.92,19.33,23.94,16.8c4.37-0.69,5.06,1.84,5.52,5.06c0.46,2.53,1.84,17.26,2.3,22.79
		C1176.29,1129.03,1174.69,1131.33,1171,1132.25z"/>
	<path class="st1" d="M1236.37,1098.65v28.08c0,3.22-2.53,5.75-5.75,5.75h-28.31c-2.99,0-5.52-2.53-5.52-5.75v-28.08
		c0-3.22,2.53-5.75,5.52-5.75h28.31C1233.84,1092.89,1236.37,1095.43,1236.37,1098.65z"/>
	<path class="st1" d="M1341.13,1132.25c-6.21,1.38-17.49,2.99-33.6,2.99c-21.64,0-38.67-10.36-38.67-36.37c0,0,0,0,0-49.02h-18.65
		c-3.22,0-5.75-2.53-5.75-5.75v-28.31c0-2.99,2.53-5.52,5.75-5.52h18.65v-25.32c0-2.99,2.76-5.52,5.75-5.52h34.06
		c2.99,0,5.52,2.53,5.52,5.52c0,0,0,10.82,0,25.32h20.25c3.22,0,5.75,2.53,5.75,5.52v28.31c0,3.22-2.53,5.75-5.75,5.75h-20.25
		c0,14.5,0,26.24,0,29c0,17.72,3.91,19.33,23.94,16.8c4.38-0.69,5.06,1.84,5.52,5.06c0.46,2.53,1.84,17.26,2.3,22.79
		C1346.42,1129.03,1344.81,1131.33,1341.13,1132.25z"/>
	<path class="st1" d="M1490.51,1018.32c-2.07,5.52-37.75,104.49-39.59,108.4c-1.84,4.14-3.22,5.75-7.36,5.75h-35.9
		c-4.14,0-5.52-1.61-7.37-5.75c-1.84-3.91-37.51-102.88-39.58-108.4c-1.84-5.29,0.23-8.06,4.14-8.06c2.99,0,33.84,0,33.84,0
		c6.9,0,8.05,2.07,10.35,8.06c1.15,3.22,16.57,65.59,16.57,65.59s15.42-62.37,16.57-65.59c2.3-5.98,3.45-8.06,10.36-8.06
		c0,0,30.84,0,33.83,0C1490.28,1010.27,1492.35,1013.03,1490.51,1018.32z"/>
</g>
<path class="st2" d="M1103.43,243.07c-62.97,0-87.69,36.99-137.23,86.53l-91.32,91.32v-52.16c0-71.25-58.65-125.69-126.24-125.69
	c-62.97,0-87.69,36.99-137.23,86.53L308.25,632.76c-48.35,48.35-50.01,127.81-1.11,176.71c50.57,50.57,130.03,48.9,178.38,0.56
	l168.98-168.71c0,0,2.31-2.16,0.02,0.6c-8.3,9.75-14.91,20.51-19.79,31.87c-0.12,0.25-0.24,0.49-0.35,0.75
	c-3.27,7.25-5.49,14.98-7,22.09c-1.09,4.94-1.89,9.92-2.38,14.93c-0.77,7.05-0.81,11.73-0.81,11.73c0,14.06,2.36,27.63,6.65,40.36
	c0.06,0.18,3.8,9.89,4.61,11.7c19.26,43.21,62.43,73.68,112.91,73.68c30.81,0,58.55-10.67,80.15-28.26
	c0.3-0.24,7.38-6.32,10.16-9.09l140.31-140.31v51.93c0,68.37,55.01,125.74,124.17,125.74c71.51,0,126.53-57.37,126.53-125.74V368.76
	C1229.67,297.51,1171.02,243.07,1103.43,243.07z"/>
<g>
	<path class="st3" d="M1103.43,243.07c-62.97,0-87.69,36.99-137.23,86.53l-91.32,91.32L654.49,641.31c0,0,2.31-2.16,0.02,0.6
		c-8.3,9.75-14.91,20.51-19.79,31.87c-0.12,0.25-0.24,0.49-0.35,0.75c-3.27,7.25-5.49,14.98-7,22.09
		c-1.09,4.94-1.89,9.92-2.38,14.93c-0.77,7.05-0.81,11.73-0.81,11.73c0,14.06,2.36,27.63,6.65,40.36c0.06,0.18,3.8,9.89,4.61,11.7
		c19.26,43.21,62.43,73.68,112.91,73.68c30.81,0,58.55-10.67,80.15-28.26c0.3-0.24,7.38-6.32,10.16-9.09l140.31-140.31v51.93
		c0,68.37,55.01,125.74,124.17,125.74c71.51,0,126.53-57.37,126.53-125.74V368.76C1229.67,297.51,1171.02,243.07,1103.43,243.07z"/>
</g>
<g>
	<path class="st1" d="M634.71,674.33c6.77-14.8,14.57-25.56,19.79-31.87C646.21,652.22,639.6,662.98,634.71,674.33z"/>
	<path class="st1" d="M633.14,770.5c-0.1-0.26-0.2-0.52-0.3-0.78C632.94,769.98,633.04,770.24,633.14,770.5z"/>
	<path class="st1" d="M635.44,775.89c-0.03-0.06-0.06-0.13-0.09-0.19C635.38,775.76,635.41,775.83,635.44,775.89z"/>
	<path class="st1" d="M829.41,820.59c-0.3,0.25-0.61,0.48-0.91,0.72C828.8,821.07,829.11,820.84,829.41,820.59z"/>
	<path class="st1" d="M624.98,712.1c0.47-4.27,1.21-9.42,2.38-14.93C626.28,702.11,625.48,707.09,624.98,712.1z"/>
	<path class="st1" d="M631.01,764.73c-0.06-0.18-0.12-0.36-0.18-0.54C630.89,764.37,630.95,764.55,631.01,764.73z"/>
	<path class="st1" d="M874.75,723.92V421.56L661.27,635.03c-2.42,2.42-4.7,4.94-6.88,7.52c-5.22,6.3-13.02,17.07-19.79,31.87
		c-3.18,7.4-5.63,15.05-7.35,22.84c-1.17,5.52-1.91,10.66-2.38,14.93c-1.72,17.5,0.2,35.29,5.84,52.09
		c0.06,0.18,0.12,0.36,0.18,0.54c0.57,1.68,1.19,3.34,1.83,4.99c0.1,0.26,0.2,0.52,0.3,0.78c0.7,1.74,1.43,3.48,2.21,5.2
		c0.03,0.07,0.06,0.13,0.09,0.19c5.9,12.95,14.38,24.88,24.84,35.77c45.54,47.41,119.47,48.87,168.22,9.65
		c0.3-0.24,0.61-0.47,0.91-0.72c0.21-0.17,0.41-0.35,0.61-0.53C857.55,796.91,874.75,762.14,874.75,723.92z"/>
</g>
</svg>
