<?xml version="1.0" encoding="utf-8"?>
<!-- Generator: Adobe Illustrator 26.0.1, SVG Export Plug-In . SVG Version: 6.00 Build 0)  -->
<svg version="1.1" id="Capa_1" xmlns="http://www.w3.org/2000/svg" xmlns:xlink="http://www.w3.org/1999/xlink" x="0px" y="0px"
	 viewBox="0 0 750 488" style="enable-background:new 0 0 750 488;" xml:space="preserve">
<style type="text/css">
	.st0{fill:#FFFFFF;}
	.st1{fill:#E83A8D;}
	.st2{fill:#41A6DE;}
</style>
<g>
	<path class="st0" d="M60.47,426.11v37.63c0,1.63-1.28,2.91-2.91,2.91H47.42h-6.99c-1.63,0-2.91-1.28-2.91-2.91v-2.33
		c-4.2,4.54-12.35,6.64-18.88,6.64C15.03,468.06,0,466.2,0,450.58c0-13.4,9.67-19.81,18.64-21.21c5.83-0.82,14.1-1.17,18.88-1.4
		c-0.12-3.5-1.4-7.81-8.97-7.81c-6.99,0-13.63,2.56-17.01,3.96c-1.28,0.47-2.45,0-2.91-1.05c-0.58-1.17-3.96-9.55-4.31-10.49
		c-0.35-0.93-0.35-2.56,1.05-3.15c3.96-2.1,13.75-6.29,25.87-6.29c13.75,0,27.5,5.83,29.13,20.16
		C60.47,424.25,60.47,425.18,60.47,426.11z M37.52,446.39v-7.11c0,0-8.86-0.47-12.35,2.33c-4.43,3.38-3.03,10.84,4.43,10.84
		C36.93,452.45,37.52,446.39,37.52,446.39z"/>
	<path class="st0" d="M147.86,466.54c-2.1,0.7-5.48,1.51-12.47,1.51c-10.37,0-13.63-5.94-14.45-7.92
		c-5.36,4.89-12.47,7.92-20.27,7.92c-17.24,0-29.71-14.56-29.71-32.51c0-17.94,12.47-32.39,29.71-32.39
		c6.41,0,12.23,1.98,17.25,5.36v-20.51c0-1.63,1.28-2.91,2.91-2.91h17.13c1.63,0,2.91,1.28,2.91,2.91v55.46
		c0,5.48,3.49,4.54,5.48,4.54c2.33-0.12,2.68,0.93,2.91,2.56c0.12,1.4,0.81,9.2,1.05,11.54
		C150.66,464.68,149.72,465.96,147.86,466.54z M117.92,435.67c0-7.81-5.48-14.21-12.23-14.21c-6.64,0-11.77,6.41-11.77,14.21
		c0,7.81,5.13,14.1,11.77,14.1C112.44,449.77,117.92,443.47,117.92,435.67z"/>
	<path class="st0" d="M259.72,425.53v38.22c0,1.63-1.28,2.91-2.8,2.91h-17.13c-1.63,0-2.91-1.28-2.91-2.91v-34.26
		c0-6.41-4.2-8.16-7.22-8.16c-3.15,0-7.22,1.63-7.22,8.04v34.37c0,1.63-1.28,2.91-2.91,2.91h-17.13c-1.63,0-2.91-1.28-2.91-2.91
		v-34.26c0-6.41-4.2-8.16-7.22-8.16c-3.15,0-7.22,1.63-7.22,8.16c0,3.15,0,34.26,0,34.26c0,1.63-1.28,2.91-2.91,2.91h-17.13
		c-1.63,0-2.91-1.28-2.91-2.91V407.7c0-1.63,1.28-2.91,2.91-2.91h17.13c1.63,0,2.91,1.28,2.91,2.91v2.91
		c2.56-3.73,9.67-7.46,16.66-7.46c8.62,0,14.1,2.45,17.25,7.22c5.13-4.19,10.95-7.22,18.99-7.22
		C253.43,403.16,259.72,411.2,259.72,425.53z"/>
	<path class="st0" d="M330.68,426.11v37.63c0,1.63-1.28,2.91-2.91,2.91h-10.14h-6.99c-1.63,0-2.91-1.28-2.91-2.91v-2.33
		c-4.19,4.54-12.35,6.64-18.88,6.64c-3.61,0-18.64-1.86-18.64-17.48c0-13.4,9.67-19.81,18.64-21.21c5.83-0.82,14.1-1.17,18.88-1.4
		c-0.12-3.5-1.4-7.81-8.97-7.81c-6.99,0-13.63,2.56-17.01,3.96c-1.28,0.47-2.45,0-2.91-1.05c-0.58-1.17-3.96-9.55-4.31-10.49
		c-0.35-0.93-0.35-2.56,1.05-3.15c3.96-2.1,13.75-6.29,25.87-6.29c13.75,0,27.5,5.83,29.13,20.16
		C330.68,424.25,330.68,425.18,330.68,426.11z M307.73,446.39v-7.11c0,0-8.85-0.47-12.35,2.33c-4.43,3.38-3.03,10.84,4.43,10.84
		C307.14,452.45,307.73,446.39,307.73,446.39z"/>
	<path class="st0" d="M394.65,408.75c-0.23,2.1-1.28,13.75-1.51,15.61c-0.35,2.68-1.98,3.96-4.31,3.26
		c-2.45-0.82-6.52-1.98-11.07-1.86c-4.31,0.12-11.19,1.98-11.19,11.88c0,3.15,0,26.22,0,26.22l-0.12,0.12v-0.12
		c0,1.51-1.28,2.8-2.8,2.8h-17.24c-1.51,0-2.91-1.28-2.91-2.8V407.7c0-1.63,1.4-2.91,2.91-2.91h17.24c1.51,0,2.8,1.28,2.8,2.91v2.91
		c1.98-2.8,9.79-7.46,17.83-7.46c4.54,0,7.69,0.82,9.21,1.4C394.88,405.26,394.76,407.12,394.65,408.75z"/>
	<path class="st0" d="M464.79,466.66c-3.03,0-17.13,0-17.13,0c-2.1,0-3.38-0.93-4.43-2.91c-0.58-0.93-5.48-10.25-9.67-18.06h-5.36
		v18.06c0,1.63-1.28,2.91-2.91,2.91h-17.13c-1.51,0-2.91-1.28-2.91-2.91v-75.73c0-1.51,1.28-2.91,2.91-2.91h17.13
		c1.63,0,2.91,1.4,2.91,2.91v37.63h5.24c3.73-7.69,8.16-17.01,8.62-17.94c1.17-2.1,2.33-2.91,4.43-2.91c0,0,14.21,0,17.25,0
		c3.38,0,4.08,1.4,2.8,3.61c-0.93,1.86-11.42,23.3-13.63,27.26c2.33,3.96,13.87,25.52,14.8,27.38
		C468.87,465.38,468.17,466.66,464.79,466.66z"/>
	<path class="st0" d="M493.57,442.78c2.33,6.99,9.09,8.97,13.52,9.09c7.11,0.23,11.3-1.17,15.5-3.03c1.51-0.58,3.15-0.58,4.08,1.17
		c0.47,1.17,2.68,7.22,3.26,8.62c0.7,1.86-0.12,3.15-1.16,3.85c-6.76,4.19-16.2,5.59-24.24,5.59c-21.79,0-33.91-14.56-33.91-32.51
		c0-17.94,12-32.39,32.97-32.39c18.29,0,29.13,14.45,29.13,32.39c0,5.24-0.58,7.22-6.87,7.22
		C523.29,442.78,514.31,442.78,493.57,442.78z M493.11,431.12h18.76c0-7.11-2.8-11.88-8.27-11.88
		C497.19,419.24,493.11,423.9,493.11,431.12z"/>
	<path class="st0" d="M587.91,466.54c-3.15,0.7-8.86,1.51-17.01,1.51c-10.95,0-19.57-5.24-19.57-18.41c0,0,0,0,0-24.82h-9.44
		c-1.63,0-2.91-1.28-2.91-2.91v-14.33c0-1.52,1.28-2.8,2.91-2.8h9.44v-12.82c0-1.51,1.4-2.8,2.91-2.8h17.24c1.51,0,2.8,1.28,2.8,2.8
		c0,0,0,5.48,0,12.82h10.25c1.63,0,2.91,1.28,2.91,2.8v14.33c0,1.63-1.28,2.91-2.91,2.91h-10.25c0,7.34,0,13.28,0,14.68
		c0,8.97,1.98,9.79,12.12,8.51c2.21-0.35,2.56,0.93,2.8,2.56c0.23,1.28,0.93,8.74,1.17,11.54
		C590.59,464.91,589.77,466.08,587.91,466.54z"/>
	<path class="st0" d="M621,449.53v14.21c0,1.63-1.28,2.91-2.91,2.91h-14.33c-1.51,0-2.8-1.28-2.8-2.91v-14.21
		c0-1.63,1.28-2.91,2.8-2.91h14.33C619.72,446.62,621,447.9,621,449.53z"/>
	<path class="st0" d="M674.03,466.54c-3.15,0.7-8.86,1.51-17.01,1.51c-10.95,0-19.57-5.24-19.57-18.41c0,0,0,0,0-24.82h-9.44
		c-1.63,0-2.91-1.28-2.91-2.91v-14.33c0-1.52,1.28-2.8,2.91-2.8h9.44v-12.82c0-1.51,1.4-2.8,2.91-2.8h17.24c1.51,0,2.8,1.28,2.8,2.8
		c0,0,0,5.48,0,12.82h10.25c1.63,0,2.91,1.28,2.91,2.8v14.33c0,1.63-1.28,2.91-2.91,2.91H660.4c0,7.34,0,13.28,0,14.68
		c0,8.97,1.98,9.79,12.12,8.51c2.22-0.35,2.56,0.93,2.8,2.56c0.23,1.28,0.93,8.74,1.17,11.54
		C676.71,464.91,675.9,466.08,674.03,466.54z"/>
	<path class="st0" d="M749.66,408.87c-1.05,2.8-19.11,52.9-20.04,54.88c-0.93,2.1-1.63,2.91-3.73,2.91h-18.18
		c-2.1,0-2.8-0.82-3.73-2.91c-0.93-1.98-18.99-52.08-20.04-54.88c-0.93-2.68,0.12-4.08,2.1-4.08c1.51,0,17.13,0,17.13,0
		c3.49,0,4.08,1.05,5.24,4.08c0.58,1.63,8.39,33.21,8.39,33.21s7.81-31.58,8.39-33.21c1.16-3.03,1.75-4.08,5.24-4.08
		c0,0,15.61,0,17.13,0C749.54,404.79,750.59,406.19,749.66,408.87z"/>
</g>
<path class="st1" d="M553.7,16.4c-31.88,0-44.39,18.72-69.47,43.81l-46.23,46.23V80.03c0-36.07-29.69-63.63-63.91-63.63
	c-31.88,0-44.39,18.72-69.47,43.81L151.14,213.68c-24.48,24.47-25.32,64.7-0.56,89.46c25.6,25.6,65.83,24.76,90.3,0.28l85.54-85.41
	c0,0,1.17-1.09,0.01,0.31c-4.2,4.94-7.55,10.38-10.02,16.13c-0.06,0.13-0.12,0.25-0.18,0.38c-1.66,3.67-2.78,7.58-3.54,11.18
	c-0.55,2.5-0.96,5.02-1.21,7.56c-0.39,3.57-0.41,5.94-0.41,5.94c0,7.12,1.19,13.99,3.37,20.43c0.03,0.09,1.93,5.01,2.33,5.92
	c9.75,21.88,31.6,37.3,57.16,37.3c15.6,0,29.64-5.4,40.58-14.31c0.15-0.12,3.74-3.2,5.14-4.6l71.03-71.03v26.29
	c0,34.61,27.85,63.66,62.86,63.66c36.2,0,64.05-29.04,64.05-63.66V80.03C617.61,43.96,587.92,16.4,553.7,16.4z"/>
<g>
	<path class="st2" d="M553.7,16.4c-31.88,0-44.39,18.72-69.47,43.81l-46.23,46.23L326.42,218.01c0,0,1.17-1.09,0.01,0.31
		c-4.2,4.94-7.55,10.38-10.02,16.13c-0.06,0.13-0.12,0.25-0.18,0.38c-1.66,3.67-2.78,7.58-3.54,11.18c-0.55,2.5-0.96,5.02-1.21,7.56
		c-0.39,3.57-0.41,5.94-0.41,5.94c0,7.12,1.19,13.99,3.37,20.43c0.03,0.09,1.93,5.01,2.33,5.92c9.75,21.88,31.6,37.3,57.16,37.3
		c15.6,0,29.64-5.4,40.58-14.31c0.15-0.12,3.74-3.2,5.14-4.6l71.03-71.03v26.29c0,34.61,27.85,63.66,62.86,63.66
		c36.2,0,64.05-29.04,64.05-63.66V80.03C617.61,43.96,587.92,16.4,553.7,16.4z"/>
</g>
<g>
	<path class="st0" d="M316.41,234.72c3.43-7.49,7.38-12.94,10.02-16.13C322.23,223.53,318.88,228.98,316.41,234.72z"/>
	<path class="st0" d="M315.62,283.41c-0.05-0.13-0.1-0.26-0.15-0.39C315.51,283.15,315.56,283.28,315.62,283.41z"/>
	<path class="st0" d="M316.78,286.14c-0.02-0.03-0.03-0.07-0.04-0.1C316.75,286.07,316.76,286.11,316.78,286.14z"/>
	<path class="st0" d="M414.97,308.77c-0.15,0.12-0.31,0.24-0.46,0.36C414.67,309.01,414.82,308.89,414.97,308.77z"/>
	<path class="st0" d="M311.49,253.85c0.24-2.16,0.61-4.77,1.21-7.56C312.14,248.78,311.73,251.31,311.49,253.85z"/>
	<path class="st0" d="M314.54,280.49c-0.03-0.09-0.06-0.18-0.09-0.27C314.48,280.31,314.5,280.4,314.54,280.49z"/>
	<path class="st0" d="M437.93,259.83V106.76L329.86,214.83c-1.23,1.23-2.38,2.5-3.49,3.8c-2.64,3.19-6.59,8.64-10.02,16.13
		c-1.61,3.75-2.85,7.62-3.72,11.56c-0.59,2.79-0.97,5.4-1.21,7.56c-0.87,8.86,0.1,17.86,2.96,26.37c0.03,0.09,0.06,0.18,0.09,0.27
		c0.29,0.85,0.6,1.69,0.93,2.53c0.05,0.13,0.1,0.26,0.15,0.39c0.35,0.88,0.72,1.76,1.12,2.63c0.01,0.03,0.03,0.07,0.04,0.1
		c2.98,6.56,7.28,12.59,12.58,18.11c23.06,24,60.48,24.74,85.16,4.89c0.15-0.12,0.31-0.24,0.46-0.36c0.1-0.09,0.21-0.18,0.31-0.27
		C429.22,296.78,437.93,279.17,437.93,259.83z"/>
</g>
</svg>
