<?xml version="1.0" encoding="utf-8"?>
<!-- Generator: Adobe Illustrator 26.0.1, SVG Export Plug-In . SVG Version: 6.00 Build 0)  -->
<svg version="1.1" id="Capa_1" xmlns="http://www.w3.org/2000/svg" xmlns:xlink="http://www.w3.org/1999/xlink" x="0px" y="0px"
	 viewBox="0 0 750 116.94" style="enable-background:new 0 0 750 116.94;" xml:space="preserve">
<style type="text/css">
	.st0{fill:#808080;}
	.st1{fill:#CBCBCB;}
	.st2{fill:#B2B2B2;}
</style>
<g>
	<path class="st0" d="M239.46,60.11v27.87c0,1.21-0.95,2.16-2.16,2.16h-7.5h-5.18c-1.21,0-2.16-0.95-2.16-2.16v-1.73
		c-3.11,3.36-9.15,4.92-13.98,4.92c-2.67,0-13.8-1.38-13.8-12.94c0-9.92,7.16-14.67,13.8-15.7c4.31-0.6,10.44-0.86,13.98-1.04
		c-0.09-2.59-1.04-5.78-6.64-5.78c-5.18,0-10.09,1.9-12.6,2.93c-0.95,0.34-1.81,0-2.16-0.78c-0.43-0.86-2.93-7.07-3.19-7.76
		c-0.26-0.69-0.26-1.9,0.78-2.33c2.93-1.55,10.18-4.66,19.15-4.66c10.18,0,20.36,4.31,21.57,14.92
		C239.46,58.73,239.46,59.42,239.46,60.11z M222.47,75.13v-5.26c0,0-6.56-0.35-9.15,1.73c-3.28,2.5-2.24,8.02,3.28,8.02
		C222.03,79.61,222.47,75.13,222.47,75.13z"/>
	<path class="st0" d="M304.17,90.05c-1.55,0.52-4.06,1.12-9.23,1.12c-7.68,0-10.09-4.4-10.7-5.87c-3.97,3.62-9.23,5.87-15.01,5.87
		c-12.77,0-22-10.78-22-24.07c0-13.29,9.23-23.98,22-23.98c4.74,0,9.06,1.47,12.77,3.97V31.9c0-1.21,0.95-2.16,2.16-2.16h12.68
		c1.21,0,2.16,0.95,2.16,2.16v41.06c0,4.05,2.59,3.36,4.06,3.36c1.72-0.09,1.98,0.69,2.16,1.9c0.09,1.04,0.6,6.82,0.78,8.54
		C306.24,88.67,305.55,89.62,304.17,90.05z M281.99,67.19c0-5.78-4.06-10.52-9.06-10.52c-4.92,0-8.71,4.74-8.71,10.52
		s3.8,10.44,8.71,10.44C277.94,77.63,281.99,72.97,281.99,67.19z"/>
	<path class="st0" d="M386.99,59.68v28.3c0,1.21-0.95,2.16-2.07,2.16h-12.68c-1.21,0-2.16-0.95-2.16-2.16V62.62
		c0-4.74-3.11-6.04-5.35-6.04c-2.33,0-5.35,1.21-5.35,5.95v25.45c0,1.21-0.95,2.16-2.16,2.16h-12.68c-1.21,0-2.16-0.95-2.16-2.16
		V62.62c0-4.74-3.11-6.04-5.35-6.04c-2.33,0-5.35,1.21-5.35,6.04c0,2.33,0,25.36,0,25.36c0,1.21-0.95,2.16-2.16,2.16h-12.68
		c-1.21,0-2.16-0.95-2.16-2.16v-41.5c0-1.21,0.95-2.16,2.16-2.16h12.68c1.21,0,2.16,0.95,2.16,2.16v2.16
		c1.9-2.76,7.16-5.52,12.34-5.52c6.38,0,10.44,1.81,12.77,5.35c3.8-3.11,8.11-5.35,14.06-5.35
		C382.33,43.12,386.99,49.07,386.99,59.68z"/>
	<path class="st0" d="M439.53,60.11v27.87c0,1.21-0.95,2.16-2.16,2.16h-7.51h-5.18c-1.21,0-2.16-0.95-2.16-2.16v-1.73
		c-3.11,3.36-9.14,4.92-13.98,4.92c-2.67,0-13.8-1.38-13.8-12.94c0-9.92,7.16-14.67,13.8-15.7c4.31-0.6,10.44-0.86,13.98-1.04
		c-0.09-2.59-1.03-5.78-6.64-5.78c-5.18,0-10.09,1.9-12.6,2.93c-0.95,0.34-1.81,0-2.16-0.78c-0.43-0.86-2.93-7.07-3.19-7.76
		c-0.26-0.69-0.26-1.9,0.78-2.33c2.93-1.55,10.18-4.66,19.15-4.66c10.18,0,20.36,4.31,21.57,14.92
		C439.53,58.73,439.53,59.42,439.53,60.11z M422.53,75.13v-5.26c0,0-6.56-0.35-9.14,1.73c-3.28,2.5-2.24,8.02,3.28,8.02
		C422.1,79.61,422.53,75.13,422.53,75.13z"/>
	<path class="st0" d="M486.89,47.26c-0.17,1.55-0.95,10.18-1.12,11.56c-0.26,1.98-1.47,2.93-3.19,2.42
		c-1.81-0.6-4.83-1.47-8.19-1.38c-3.19,0.09-8.28,1.47-8.28,8.8c0,2.33,0,19.41,0,19.41l-0.09,0.09v-0.09
		c0,1.12-0.95,2.07-2.07,2.07h-12.77c-1.12,0-2.16-0.95-2.16-2.07V46.48c0-1.21,1.04-2.16,2.16-2.16h12.77
		c1.12,0,2.07,0.95,2.07,2.16v2.16c1.47-2.07,7.25-5.52,13.2-5.52c3.36,0,5.69,0.6,6.82,1.03
		C487.06,44.67,486.98,46.05,486.89,47.26z"/>
	<path class="st0" d="M538.83,90.14c-2.24,0-12.68,0-12.68,0c-1.55,0-2.5-0.69-3.28-2.16c-0.43-0.69-4.06-7.59-7.16-13.37h-3.97
		v13.37c0,1.21-0.95,2.16-2.16,2.16H496.9c-1.12,0-2.16-0.95-2.16-2.16V31.9c0-1.12,0.95-2.16,2.16-2.16h12.68
		c1.21,0,2.16,1.04,2.16,2.16v27.87h3.88c2.76-5.69,6.04-12.6,6.38-13.29c0.86-1.55,1.73-2.16,3.28-2.16c0,0,10.52,0,12.77,0
		c2.5,0,3.02,1.04,2.07,2.67c-0.69,1.38-8.45,17.25-10.09,20.19c1.73,2.93,10.27,18.89,10.96,20.27
		C541.85,89.19,541.33,90.14,538.83,90.14z"/>
	<path class="st0" d="M560.14,72.45c1.72,5.18,6.73,6.64,10.01,6.73c5.26,0.17,8.37-0.86,11.47-2.24c1.12-0.43,2.33-0.43,3.02,0.86
		c0.34,0.86,1.98,5.35,2.42,6.38c0.52,1.38-0.09,2.33-0.86,2.85c-5,3.11-11.99,4.14-17.94,4.14c-16.13,0-25.1-10.78-25.1-24.07
		c0-13.29,8.89-23.98,24.41-23.98c13.54,0,21.57,10.7,21.57,23.98c0,3.88-0.43,5.35-5.09,5.35
		C582.14,72.45,575.49,72.45,560.14,72.45z M559.79,63.82h13.89c0-5.26-2.07-8.8-6.13-8.8C562.81,55.02,559.79,58.48,559.79,63.82z"
		/>
	<path class="st0" d="M629.98,90.05c-2.33,0.52-6.56,1.12-12.6,1.12c-8.11,0-14.49-3.88-14.49-13.63c0,0,0,0,0-18.38h-6.99
		c-1.21,0-2.16-0.95-2.16-2.16V46.4c0-1.12,0.95-2.07,2.16-2.07h6.99v-9.49c0-1.12,1.04-2.07,2.16-2.07h12.77
		c1.12,0,2.07,0.95,2.07,2.07c0,0,0,4.05,0,9.49h7.59c1.21,0,2.16,0.95,2.16,2.07v10.61c0,1.21-0.95,2.16-2.16,2.16h-7.59
		c0,5.43,0,9.83,0,10.87c0,6.64,1.47,7.25,8.97,6.3c1.64-0.26,1.9,0.69,2.07,1.9c0.17,0.95,0.69,6.47,0.86,8.54
		C631.97,88.84,631.36,89.7,629.98,90.05z"/>
	<path class="st0" d="M654.49,77.45v10.52c0,1.21-0.95,2.16-2.16,2.16h-10.61c-1.12,0-2.07-0.95-2.07-2.16V77.45
		c0-1.21,0.95-2.16,2.07-2.16h10.61C653.54,75.3,654.49,76.25,654.49,77.45z"/>
	<path class="st0" d="M693.75,90.05c-2.33,0.52-6.56,1.12-12.59,1.12c-8.11,0-14.49-3.88-14.49-13.63c0,0,0,0,0-18.38h-6.99
		c-1.21,0-2.16-0.95-2.16-2.16V46.4c0-1.12,0.95-2.07,2.16-2.07h6.99v-9.49c0-1.12,1.04-2.07,2.16-2.07h12.77
		c1.12,0,2.07,0.95,2.07,2.07c0,0,0,4.05,0,9.49h7.59c1.21,0,2.16,0.95,2.16,2.07v10.61c0,1.21-0.95,2.16-2.16,2.16h-7.59
		c0,5.43,0,9.83,0,10.87c0,6.64,1.47,7.25,8.97,6.3c1.64-0.26,1.9,0.69,2.07,1.9c0.17,0.95,0.69,6.47,0.86,8.54
		C695.74,88.84,695.13,89.7,693.75,90.05z"/>
	<path class="st0" d="M749.75,47.35c-0.78,2.07-14.15,39.17-14.84,40.63c-0.69,1.55-1.21,2.16-2.76,2.16h-13.46
		c-1.55,0-2.07-0.6-2.76-2.16c-0.69-1.47-14.06-38.56-14.84-40.63c-0.69-1.98,0.09-3.02,1.55-3.02c1.12,0,12.68,0,12.68,0
		c2.59,0,3.02,0.78,3.88,3.02c0.43,1.21,6.21,24.59,6.21,24.59s5.78-23.38,6.21-24.59c0.86-2.24,1.29-3.02,3.88-3.02
		c0,0,11.56,0,12.68,0C749.66,44.33,750.44,45.36,749.75,47.35z"/>
</g>
<g>
	<path class="st1" d="M126.35,14.24c-9.56,0-13.31,5.62-20.84,13.14L91.65,41.24v-7.92c0-10.82-8.91-19.08-19.17-19.08
		c-9.56,0-13.31,5.62-20.84,13.14L5.62,73.41c-7.34,7.34-7.59,19.41-0.17,26.83c7.68,7.68,19.74,7.42,27.08,0.08l25.66-25.62
		c0,0,0.35-0.33,0,0.09c-1.26,1.48-2.26,3.11-3.01,4.84c-0.02,0.04-0.04,0.07-0.05,0.11c-0.5,1.1-0.83,2.27-1.06,3.35
		c-0.17,0.75-0.29,1.51-0.36,2.27c-0.12,1.07-0.12,1.78-0.12,1.78c0,2.13,0.36,4.2,1.01,6.13c0.01,0.03,0.58,1.5,0.7,1.78
		c2.92,6.56,9.48,11.19,17.14,11.19c4.68,0,8.89-1.62,12.17-4.29c0.05-0.04,1.12-0.96,1.54-1.38l21.3-21.3v7.88
		c0,10.38,8.35,19.09,18.85,19.09c10.86,0,19.21-8.71,19.21-19.09V33.33C145.52,22.51,136.62,14.24,126.35,14.24z"/>
</g>
<g>
	<path class="st2" d="M126.35,14.24c-9.56,0-13.31,5.62-20.84,13.14L91.65,41.24L58.19,74.71c0,0,0.35-0.33,0,0.09
		c-1.26,1.48-2.26,3.11-3.01,4.84c-0.02,0.04-0.04,0.07-0.05,0.11c-0.5,1.1-0.83,2.27-1.06,3.35c-0.17,0.75-0.29,1.51-0.36,2.27
		c-0.12,1.07-0.12,1.78-0.12,1.78c0,2.13,0.36,4.2,1.01,6.13c0.01,0.03,0.58,1.5,0.7,1.78c2.92,6.56,9.48,11.19,17.14,11.19
		c4.68,0,8.89-1.62,12.17-4.29c0.05-0.04,1.12-0.96,1.54-1.38l21.3-21.3v7.88c0,10.38,8.35,19.09,18.85,19.09
		c10.86,0,19.21-8.71,19.21-19.09V33.33C145.52,22.51,136.62,14.24,126.35,14.24z"/>
</g>
<g>
	<path class="st0" d="M55.19,79.72c1.03-2.25,2.21-3.88,3-4.84C56.93,76.36,55.93,78,55.19,79.72z"/>
	<path class="st0" d="M54.95,94.32c-0.02-0.04-0.03-0.08-0.05-0.12C54.92,94.24,54.94,94.28,54.95,94.32z"/>
	<path class="st0" d="M55.3,95.14c0-0.01-0.01-0.02-0.01-0.03C55.29,95.12,55.29,95.13,55.3,95.14z"/>
	<path class="st0" d="M84.75,101.93c-0.05,0.04-0.09,0.07-0.14,0.11C84.66,102,84.7,101.96,84.75,101.93z"/>
	<path class="st0" d="M53.71,85.45c0.07-0.65,0.18-1.43,0.36-2.27C53.91,83.94,53.79,84.69,53.71,85.45z"/>
	<path class="st0" d="M54.63,93.44c-0.01-0.03-0.02-0.05-0.03-0.08C54.61,93.39,54.62,93.42,54.63,93.44z"/>
	<path class="st0" d="M91.63,87.25V41.34L59.22,73.75c-0.37,0.37-0.71,0.75-1.05,1.14c-0.79,0.96-1.98,2.59-3,4.84
		c-0.48,1.12-0.86,2.29-1.12,3.47c-0.18,0.84-0.29,1.62-0.36,2.27c-0.26,2.66,0.03,5.36,0.89,7.91c0.01,0.03,0.02,0.05,0.03,0.08
		c0.09,0.25,0.18,0.51,0.28,0.76c0.02,0.04,0.03,0.08,0.05,0.12c0.11,0.26,0.22,0.53,0.34,0.79c0,0.01,0.01,0.02,0.01,0.03
		c0.9,1.97,2.18,3.78,3.77,5.43c6.92,7.2,18.14,7.42,25.54,1.47c0.05-0.04,0.09-0.07,0.14-0.11c0.03-0.03,0.06-0.05,0.09-0.08
		C89.02,98.33,91.63,93.05,91.63,87.25z"/>
</g>
</svg>
