<?xml version="1.0" encoding="utf-8"?>
<!-- Generator: Adobe Illustrator 26.0.1, SVG Export Plug-In . SVG Version: 6.00 Build 0)  -->
<svg version="1.1" id="Capa_1" xmlns="http://www.w3.org/2000/svg" xmlns:xlink="http://www.w3.org/1999/xlink" x="0px" y="0px"
	 viewBox="0 0 750 750" style="enable-background:new 0 0 750 750;" xml:space="preserve">
<style type="text/css">
	.st0{fill:none;}
	.st1{fill:#4A078D;}
	.st2{fill:#F43290;}
	.st3{fill:#00ADFF;}
</style>
<rect y="0.5" class="st0" width="750" height="750"/>
<g>
	<path class="st1" d="M240.27,352.8v27.68c0,1.2-0.94,2.14-2.14,2.14h-7.45h-5.14c-1.2,0-2.14-0.94-2.14-2.14v-1.71
		c-3.09,3.34-9.08,4.88-13.88,4.88c-2.66,0-13.71-1.37-13.71-12.85c0-9.85,7.11-14.57,13.71-15.6c4.28-0.6,10.37-0.86,13.88-1.03
		c-0.09-2.57-1.03-5.74-6.6-5.74c-5.14,0-10.03,1.89-12.51,2.91c-0.94,0.34-1.8,0-2.14-0.77c-0.43-0.86-2.91-7.03-3.17-7.71
		c-0.26-0.69-0.26-1.89,0.77-2.31c2.91-1.54,10.11-4.63,19.02-4.63c10.11,0,20.22,4.28,21.42,14.83
		C240.27,351.43,240.27,352.11,240.27,352.8z M223.39,367.71v-5.23c0,0-6.51-0.34-9.08,1.71c-3.26,2.49-2.23,7.97,3.26,7.97
		C222.96,372.16,223.39,367.71,223.39,367.71z"/>
	<path class="st1" d="M304.54,382.53c-1.54,0.51-4.03,1.11-9.17,1.11c-7.63,0-10.03-4.37-10.62-5.83c-3.94,3.6-9.17,5.83-14.91,5.83
		c-12.68,0-21.85-10.71-21.85-23.91c0-13.2,9.17-23.82,21.85-23.82c4.71,0,9,1.46,12.68,3.94v-15.08c0-1.2,0.94-2.14,2.14-2.14h12.6
		c1.2,0,2.14,0.94,2.14,2.14v40.79c0,4.03,2.57,3.34,4.03,3.34c1.71-0.09,1.97,0.69,2.14,1.89c0.09,1.03,0.6,6.77,0.77,8.48
		C306.6,381.16,305.91,382.1,304.54,382.53z M282.52,359.82c0-5.74-4.03-10.45-9-10.45c-4.88,0-8.66,4.71-8.66,10.45
		c0,5.74,3.77,10.37,8.66,10.37C278.49,370.19,282.52,365.57,282.52,359.82z"/>
	<path class="st1" d="M386.81,352.37v28.11c0,1.2-0.94,2.14-2.06,2.14h-12.6c-1.2,0-2.14-0.94-2.14-2.14v-25.19
		c0-4.71-3.09-6-5.31-6c-2.31,0-5.31,1.2-5.31,5.91v25.28c0,1.2-0.94,2.14-2.14,2.14h-12.6c-1.2,0-2.14-0.94-2.14-2.14v-25.19
		c0-4.71-3.09-6-5.31-6c-2.31,0-5.31,1.2-5.31,6c0,2.31,0,25.19,0,25.19c0,1.2-0.94,2.14-2.14,2.14h-12.6
		c-1.2,0-2.14-0.94-2.14-2.14v-41.22c0-1.2,0.94-2.14,2.14-2.14h12.6c1.2,0,2.14,0.94,2.14,2.14v2.14
		c1.89-2.74,7.11-5.48,12.25-5.48c6.34,0,10.37,1.8,12.68,5.31c3.77-3.08,8.05-5.31,13.97-5.31
		C382.18,335.92,386.81,341.83,386.81,352.37z"/>
	<path class="st1" d="M439,352.8v27.68c0,1.2-0.94,2.14-2.14,2.14h-7.46h-5.14c-1.2,0-2.14-0.94-2.14-2.14v-1.71
		c-3.08,3.34-9.08,4.88-13.88,4.88c-2.66,0-13.71-1.37-13.71-12.85c0-9.85,7.11-14.57,13.71-15.6c4.28-0.6,10.37-0.86,13.88-1.03
		c-0.09-2.57-1.03-5.74-6.6-5.74c-5.14,0-10.03,1.89-12.51,2.91c-0.94,0.34-1.8,0-2.14-0.77c-0.43-0.86-2.91-7.03-3.17-7.71
		c-0.26-0.69-0.26-1.89,0.77-2.31c2.91-1.54,10.11-4.63,19.02-4.63c10.11,0,20.22,4.28,21.42,14.83C439,351.43,439,352.11,439,352.8
		z M422.12,367.71v-5.23c0,0-6.51-0.34-9.08,1.71c-3.26,2.49-2.23,7.97,3.26,7.97C421.69,372.16,422.12,367.71,422.12,367.71z"/>
	<path class="st1" d="M486.04,340.03c-0.17,1.54-0.94,10.11-1.11,11.48c-0.26,1.97-1.46,2.91-3.17,2.4c-1.8-0.6-4.8-1.46-8.14-1.37
		c-3.17,0.09-8.23,1.46-8.23,8.74c0,2.31,0,19.28,0,19.28l-0.09,0.09v-0.09c0,1.11-0.94,2.06-2.06,2.06h-12.68
		c-1.11,0-2.14-0.94-2.14-2.06v-41.3c0-1.2,1.03-2.14,2.14-2.14h12.68c1.11,0,2.06,0.94,2.06,2.14v2.14
		c1.46-2.06,7.2-5.48,13.11-5.48c3.34,0,5.66,0.6,6.77,1.03C486.22,337.46,486.13,338.83,486.04,340.03z"/>
	<path class="st1" d="M537.63,382.62c-2.23,0-12.6,0-12.6,0c-1.54,0-2.49-0.69-3.26-2.14c-0.43-0.69-4.03-7.54-7.11-13.28h-3.94
		v13.28c0,1.2-0.94,2.14-2.14,2.14h-12.6c-1.11,0-2.14-0.94-2.14-2.14v-55.7c0-1.11,0.94-2.14,2.14-2.14h12.6
		c1.2,0,2.14,1.03,2.14,2.14v27.68h3.86c2.74-5.66,6-12.51,6.34-13.2c0.86-1.54,1.71-2.14,3.26-2.14c0,0,10.45,0,12.68,0
		c2.48,0,3,1.03,2.06,2.66c-0.69,1.37-8.4,17.14-10.03,20.05c1.71,2.91,10.2,18.77,10.88,20.14
		C540.63,381.68,540.12,382.62,537.63,382.62z"/>
	<path class="st1" d="M558.8,365.05c1.71,5.14,6.68,6.6,9.94,6.68c5.23,0.17,8.31-0.86,11.4-2.23c1.11-0.43,2.31-0.43,3,0.86
		c0.34,0.86,1.97,5.31,2.4,6.34c0.52,1.37-0.09,2.31-0.86,2.83c-4.97,3.08-11.91,4.11-17.82,4.11c-16.02,0-24.94-10.71-24.94-23.91
		c0-13.2,8.83-23.82,24.25-23.82c13.45,0,21.42,10.63,21.42,23.82c0,3.86-0.43,5.31-5.06,5.31
		C580.66,365.05,574.06,365.05,558.8,365.05z M558.46,356.48h13.8c0-5.23-2.06-8.74-6.08-8.74
		C561.46,347.74,558.46,351.17,558.46,356.48z"/>
	<path class="st1" d="M628.18,382.53c-2.31,0.51-6.51,1.11-12.51,1.11c-8.05,0-14.4-3.86-14.4-13.54c0,0,0,0,0-18.25h-6.94
		c-1.2,0-2.14-0.94-2.14-2.14v-10.54c0-1.11,0.94-2.06,2.14-2.06h6.94v-9.43c0-1.11,1.03-2.06,2.14-2.06h12.68
		c1.11,0,2.06,0.94,2.06,2.06c0,0,0,4.03,0,9.43h7.54c1.2,0,2.14,0.94,2.14,2.06v10.54c0,1.2-0.94,2.14-2.14,2.14h-7.54
		c0,5.4,0,9.77,0,10.8c0,6.6,1.46,7.2,8.91,6.26c1.63-0.26,1.88,0.69,2.06,1.89c0.17,0.94,0.69,6.43,0.86,8.48
		C630.15,381.33,629.55,382.19,628.18,382.53z"/>
	<path class="st1" d="M652.52,370.02v10.45c0,1.2-0.94,2.14-2.14,2.14h-10.54c-1.11,0-2.06-0.94-2.06-2.14v-10.45
		c0-1.2,0.94-2.14,2.06-2.14h10.54C651.58,367.88,652.52,368.82,652.52,370.02z"/>
	<path class="st1" d="M691.53,382.53c-2.31,0.51-6.51,1.11-12.51,1.11c-8.06,0-14.4-3.86-14.4-13.54c0,0,0,0,0-18.25h-6.94
		c-1.2,0-2.14-0.94-2.14-2.14v-10.54c0-1.11,0.94-2.06,2.14-2.06h6.94v-9.43c0-1.11,1.03-2.06,2.14-2.06h12.68
		c1.11,0,2.06,0.94,2.06,2.06c0,0,0,4.03,0,9.43h7.54c1.2,0,2.14,0.94,2.14,2.06v10.54c0,1.2-0.94,2.14-2.14,2.14h-7.54
		c0,5.4,0,9.77,0,10.8c0,6.6,1.46,7.2,8.91,6.26c1.63-0.26,1.89,0.69,2.06,1.89c0.17,0.94,0.69,6.43,0.86,8.48
		C693.5,381.33,692.9,382.19,691.53,382.53z"/>
	<path class="st1" d="M747.15,340.11c-0.77,2.06-14.05,38.91-14.74,40.36c-0.69,1.54-1.2,2.14-2.74,2.14H716.3
		c-1.54,0-2.06-0.6-2.74-2.14c-0.68-1.46-13.97-38.3-14.74-40.36c-0.69-1.97,0.09-3,1.54-3c1.11,0,12.6,0,12.6,0
		c2.57,0,3,0.77,3.86,3c0.43,1.2,6.17,24.42,6.17,24.42s5.74-23.22,6.17-24.42c0.86-2.23,1.29-3,3.86-3c0,0,11.48,0,12.6,0
		C747.06,337.12,747.83,338.14,747.15,340.11z"/>
</g>
<path class="st2" d="M127.92,307.23c-9.5,0-13.22,5.58-20.7,13.05l-13.77,13.77v-7.87c0-10.75-8.85-18.96-19.04-18.96
	c-9.5,0-13.22,5.58-20.7,13.05L7.99,366c-7.29,7.29-7.54,19.28-0.17,26.65c7.63,7.63,19.61,7.38,26.9,0.08l25.48-25.45
	c0,0,0.35-0.33,0,0.09c-1.25,1.47-2.25,3.09-2.99,4.81c-0.02,0.04-0.04,0.07-0.05,0.11c-0.49,1.09-0.83,2.26-1.06,3.33
	c-0.16,0.74-0.28,1.5-0.36,2.25c-0.12,1.06-0.12,1.77-0.12,1.77c0,2.12,0.36,4.17,1,6.09c0.01,0.03,0.57,1.49,0.7,1.77
	c2.9,6.52,9.42,11.11,17.03,11.11c4.65,0,8.83-1.61,12.09-4.26c0.05-0.04,1.11-0.95,1.53-1.37l21.16-21.16v7.83
	c0,10.31,8.3,18.96,18.73,18.96c10.79,0,19.08-8.65,19.08-18.96v-53.47C146.96,315.44,138.11,307.23,127.92,307.23z"/>
<g>
	<path class="st3" d="M127.92,307.23c-9.5,0-13.22,5.58-20.7,13.05l-13.77,13.77l-33.24,33.24c0,0,0.35-0.33,0,0.09
		c-1.25,1.47-2.25,3.09-2.99,4.81c-0.02,0.04-0.04,0.07-0.05,0.11c-0.49,1.09-0.83,2.26-1.06,3.33c-0.16,0.74-0.28,1.5-0.36,2.25
		c-0.12,1.06-0.12,1.77-0.12,1.77c0,2.12,0.36,4.17,1,6.09c0.01,0.03,0.57,1.49,0.7,1.77c2.9,6.52,9.42,11.11,17.03,11.11
		c4.65,0,8.83-1.61,12.09-4.26c0.05-0.04,1.11-0.95,1.53-1.37l21.16-21.16v7.83c0,10.31,8.3,18.96,18.73,18.96
		c10.79,0,19.08-8.65,19.08-18.96v-53.47C146.96,315.44,138.11,307.23,127.92,307.23z"/>
</g>
<g>
	<path class="st1" d="M57.23,372.27c1.02-2.23,2.2-3.86,2.98-4.81C58.96,368.94,57.96,370.56,57.23,372.27z"/>
	<path class="st1" d="M56.99,386.78c-0.02-0.04-0.03-0.08-0.05-0.12C56.96,386.7,56.97,386.74,56.99,386.78z"/>
	<path class="st1" d="M57.33,387.59c0-0.01-0.01-0.02-0.01-0.03C57.33,387.57,57.33,387.58,57.33,387.59z"/>
	<path class="st1" d="M86.59,394.33c-0.04,0.04-0.09,0.07-0.14,0.11C86.5,394.4,86.54,394.37,86.59,394.33z"/>
	<path class="st1" d="M55.76,377.97c0.07-0.64,0.18-1.42,0.36-2.25C55.95,376.46,55.83,377.21,55.76,377.97z"/>
	<path class="st1" d="M56.67,385.91c-0.01-0.03-0.02-0.05-0.03-0.08C56.65,385.85,56.66,385.88,56.67,385.91z"/>
	<path class="st1" d="M93.43,379.75v-45.6l-32.2,32.2c-0.37,0.37-0.71,0.75-1.04,1.13c-0.79,0.95-1.96,2.57-2.98,4.81
		c-0.48,1.12-0.85,2.27-1.11,3.44c-0.18,0.83-0.29,1.61-0.36,2.25c-0.26,2.64,0.03,5.32,0.88,7.86c0.01,0.03,0.02,0.05,0.03,0.08
		c0.09,0.25,0.18,0.5,0.28,0.75c0.02,0.04,0.03,0.08,0.05,0.12c0.1,0.26,0.22,0.52,0.33,0.78c0,0.01,0.01,0.02,0.01,0.03
		c0.89,1.95,2.17,3.75,3.75,5.39c6.87,7.15,18.02,7.37,25.37,1.46c0.05-0.04,0.09-0.07,0.14-0.11c0.03-0.03,0.06-0.05,0.09-0.08
		C90.83,390.76,93.43,385.51,93.43,379.75z"/>
</g>
</svg>
